M48
;DRILL file {Pcbnew (2012-01-19 BZR 3256)-stable} date 08/08/2012 15:30:13
;FORMAT={-:-/ absolute / inch / decimal}
FMAT,2
INCH,TZ
T1C0.036
T2C0.039
T3C0.043
T4C0.063
T5C0.073
T6C0.091
%
G90
G05
M72
T1
X0.300Y1.060
X0.300Y1.160
X0.300Y1.240
X0.300Y1.340
X3.810Y1.062
X3.810Y1.161
X3.810Y1.239
X3.810Y1.338
T3
X3.893Y1.111
X3.899Y1.283
T4
X0.800Y0.200
X0.800Y0.400
X0.800Y0.800
X0.800Y1.000
X0.800Y1.400
X0.800Y1.600
X0.800Y2.000
X0.800Y2.200
X3.200Y0.200
X3.200Y0.400
X3.200Y0.800
X3.200Y1.000
X3.200Y1.400
X3.200Y1.600
X3.200Y2.000
X3.200Y2.200
T5
X1.750Y0.150
X1.750Y0.450
X1.750Y0.750
X1.750Y1.050
X1.750Y1.350
X1.750Y1.650
X1.750Y1.950
X1.750Y2.250
X2.000Y0.150
X2.000Y0.450
X2.000Y0.750
X2.000Y1.050
X2.000Y1.350
X2.000Y1.650
X2.000Y1.950
X2.000Y2.250
T6
X0.193Y0.941
X0.193Y1.459
T2
X3.863Y0.976G85X3.922Y0.976
G05
X3.863Y1.424G85X3.922Y1.424
G05
T0
M30
