%TF.GenerationSoftware,KiCad,Pcbnew,4.0.1-stable*%
%TF.CreationDate,2016-02-23T23:31:04-05:00*%
%TF.ProjectId,USB Breakout v3.0,55534220427265616B6F75742076332E,3.0.1*%
%TF.FileFunction,Copper,L2,Bot,Signal*%
%FSLAX46Y46*%
G04 Gerber Fmt 4.6, Leading zero omitted, Abs format (unit mm)*
G04 Created by KiCad (PCBNEW 4.0.1-stable) date 2016-02-23 23:31:04*
%MOMM*%
G01*
G04 APERTURE LIST*
%ADD10C,0.025400*%
%ADD11C,0.254000*%
%ADD12O,3.400000X2.150000*%
%ADD13R,1.350000X2.025000*%
%ADD14O,1.350000X2.025000*%
%ADD15O,1.900000X4.400000*%
%ADD16R,1.200000X1.620000*%
%ADD17O,1.200000X1.620000*%
%ADD18C,3.800000*%
%ADD19C,3.124200*%
%ADD20C,0.787400*%
%ADD21C,0.685800*%
%ADD22C,1.270000*%
%ADD23C,0.152400*%
%ADD24C,1.524000*%
%ADD25C,0.762000*%
G04 APERTURE END LIST*
D10*
D11*
X56739604Y57534738D02*
X56572828Y57598884D01*
X56483025Y57586054D01*
X56341906Y57521909D01*
X56187959Y57367962D01*
X56123815Y57226844D01*
X56110986Y57137042D01*
X56136644Y57008751D01*
X56444538Y56700857D01*
X57522169Y57778488D01*
X57252761Y58047896D01*
X57124472Y58073554D01*
X57034669Y58060725D01*
X56893551Y57996580D01*
X56790920Y57893949D01*
X56726775Y57752831D01*
X56713946Y57663028D01*
X56739604Y57534738D01*
X57009011Y57265331D01*
X55277105Y58073554D02*
X55264276Y57983751D01*
X55328421Y57816974D01*
X55405394Y57740001D01*
X55572170Y57675857D01*
X55751776Y57701514D01*
X55892894Y57765660D01*
X56136644Y57932435D01*
X56290592Y58086383D01*
X56457367Y58330132D01*
X56521512Y58471250D01*
X56547170Y58650856D01*
X56483025Y58817632D01*
X56406052Y58894605D01*
X56239275Y58958750D01*
X56149473Y58945922D01*
X56406051Y59690000D02*
X58202102Y57893949D01*
X58202102Y57893949D02*
X56406051Y56097898D01*
X56406051Y56097898D02*
X54610000Y57893949D01*
X54610000Y57893949D02*
X56406051Y59690000D01*
D12*
X10160000Y41910000D03*
X10160000Y37210000D03*
X50800000Y41910000D03*
X50800000Y37210000D03*
D13*
X29210000Y37762500D03*
D14*
X31750000Y37762500D03*
X31750000Y46057500D03*
X29210000Y46057500D03*
D13*
X39370000Y37762500D03*
D14*
X41910000Y37762500D03*
X41910000Y46057500D03*
X39370000Y46057500D03*
D13*
X19050000Y37762500D03*
D14*
X21590000Y37762500D03*
X21590000Y46057500D03*
X19050000Y46057500D03*
D15*
X24630000Y78730000D03*
X36330000Y78730000D03*
D16*
X26980000Y8500000D03*
D17*
X29480000Y8500000D03*
X31480000Y8500000D03*
X33980000Y8500000D03*
X34480000Y10420000D03*
X32480000Y10420000D03*
X30480000Y10420000D03*
X28480000Y10420000D03*
X26480000Y10420000D03*
D18*
X37050000Y6710000D03*
X23910000Y6710000D03*
D19*
X12700000Y20320000D03*
X12700000Y25400000D03*
X27940000Y20320000D03*
X27940000Y25400000D03*
X33020000Y20320000D03*
X33020000Y25400000D03*
X48260000Y20320000D03*
X48260000Y25400000D03*
X43180000Y20320000D03*
X43180000Y25400000D03*
X38100000Y20320000D03*
X38100000Y25400000D03*
X22860000Y20320000D03*
X22860000Y25400000D03*
X17780000Y20320000D03*
X17780000Y25400000D03*
X12700000Y58420000D03*
X12700000Y63500000D03*
X27940000Y58420000D03*
X27940000Y63500000D03*
X33020000Y58420000D03*
X33020000Y63500000D03*
X48260000Y58420000D03*
X48260000Y63500000D03*
X43180000Y58420000D03*
X43180000Y63500000D03*
X38100000Y58420000D03*
X38100000Y63500000D03*
X22860000Y58420000D03*
X22860000Y63500000D03*
X17780000Y58420000D03*
X17780000Y63500000D03*
D20*
X26670000Y78105000D03*
D21*
X29480000Y74130000D03*
X31480000Y74130000D03*
D20*
X34290000Y78105000D03*
D22*
X10160000Y41910000D02*
X10160000Y55880000D01*
X10160000Y55880000D02*
X12700000Y58420000D01*
X12700000Y63500000D02*
X12700000Y58420000D01*
X13335000Y63500000D02*
X12700000Y63500000D01*
X26670000Y78105000D02*
X26670000Y76835000D01*
X26670000Y76835000D02*
X13335000Y63500000D01*
D23*
X30302200Y48499700D02*
X30302200Y60960000D01*
X30302201Y72758299D02*
X30302189Y60960000D01*
X30302189Y60960000D02*
X30302201Y60960001D01*
X29845000Y60960000D02*
X30302189Y60960000D01*
D24*
X27940000Y60960000D02*
X27940000Y58420000D01*
X27940000Y63500000D02*
X27940000Y60960000D01*
D23*
X27940000Y60960000D02*
X29845000Y60960000D01*
X29480000Y74130000D02*
X29480000Y73580500D01*
X29480000Y73580500D02*
X30302201Y72758299D01*
X30302200Y48499700D02*
X29210000Y47407500D01*
X29210000Y47407500D02*
X29210000Y45720000D01*
X30657800Y48499700D02*
X30657800Y60960000D01*
X33020000Y60960000D02*
X30657799Y60960001D01*
X30657799Y72758299D02*
X31480000Y73580500D01*
X30657799Y60960001D02*
X30657799Y72758299D01*
X31480000Y73580500D02*
X31480000Y74130000D01*
D24*
X33020000Y60960000D02*
X33020000Y63500000D01*
X33020000Y58420000D02*
X33020000Y60960000D01*
D23*
X30657800Y48499700D02*
X31750000Y47407500D01*
X31750000Y47407500D02*
X31750000Y45720000D01*
D22*
X50800000Y41910000D02*
X50800000Y55880000D01*
X50800000Y55880000D02*
X48260000Y58420000D01*
D24*
X48260000Y63500000D02*
X48260000Y58420000D01*
D22*
X47625000Y63500000D02*
X48260000Y63500000D01*
X34290000Y78105000D02*
X34290000Y76835000D01*
X34290000Y76835000D02*
X47625000Y63500000D01*
X12700000Y25400000D02*
X10160000Y27940000D01*
X10160000Y27940000D02*
X10160000Y37211000D01*
D24*
X12700000Y25400000D02*
X12700000Y20320000D01*
D22*
X23495000Y9525000D02*
X24765000Y9525000D01*
D25*
X24765000Y9525000D02*
X25580000Y8710000D01*
X25580000Y8710000D02*
X26980000Y8710000D01*
D22*
X12700000Y20320000D02*
X23495000Y9525000D01*
D23*
X30302200Y22860000D02*
X30302200Y35320300D01*
D24*
X27940000Y25400000D02*
X27940000Y22860000D01*
D23*
X30302200Y11767715D02*
X30302200Y22860000D01*
D24*
X27940000Y22860000D02*
X27940000Y20320000D01*
D23*
X30302200Y22860000D02*
X27940000Y22860000D01*
X29480000Y8710000D02*
X29480000Y10945515D01*
X30302200Y35320300D02*
X29210000Y36412500D01*
X29480000Y10945515D02*
X30302200Y11767715D01*
X29210000Y36412500D02*
X29210000Y38100000D01*
X30657800Y22860000D02*
X30657800Y35320300D01*
X30657800Y11767715D02*
X30657800Y22860000D01*
D24*
X33020000Y22860000D02*
X33020000Y25400000D01*
X33020000Y20320000D02*
X33020000Y22860000D01*
D23*
X30657800Y22860000D02*
X33020000Y22860000D01*
X31480000Y8710000D02*
X31480000Y10945515D01*
X31480000Y10945515D02*
X30657800Y11767715D01*
X30657800Y35320300D02*
X31750000Y36412500D01*
X31750000Y36412500D02*
X31750000Y38100000D01*
D22*
X50800000Y37211000D02*
X50800000Y27940000D01*
X50800000Y27940000D02*
X48260000Y25400000D01*
D24*
X48260000Y25400000D02*
X48260000Y20320000D01*
D22*
X37465000Y9525000D02*
X36195000Y9525000D01*
D25*
X36195000Y9525000D02*
X35380000Y8710000D01*
X35380000Y8710000D02*
X33980000Y8710000D01*
D22*
X48260000Y20320000D02*
X37465000Y9525000D01*
D23*
G36*
X35176800Y80284800D02*
X35176800Y79034800D01*
X36025200Y79034800D01*
X36025200Y79054800D01*
X36634800Y79054800D01*
X36634800Y79034800D01*
X37483200Y79034800D01*
X37483200Y79884036D01*
X60248800Y57118436D01*
X60248800Y1936564D01*
X59023436Y711200D01*
X1936564Y711200D01*
X711200Y1936564D01*
X711200Y5029845D01*
X22660897Y5029845D01*
X22908936Y4813598D01*
X23710860Y4574862D01*
X24543100Y4661181D01*
X24911064Y4813598D01*
X25159103Y5029845D01*
X35800897Y5029845D01*
X36048936Y4813598D01*
X36850860Y4574862D01*
X37683100Y4661181D01*
X38051064Y4813598D01*
X38299103Y5029845D01*
X37050000Y6278948D01*
X35800897Y5029845D01*
X25159103Y5029845D01*
X23910000Y6278948D01*
X22660897Y5029845D01*
X711200Y5029845D01*
X711200Y6909140D01*
X21774862Y6909140D01*
X21861181Y6076900D01*
X22013598Y5708936D01*
X22229845Y5460897D01*
X23478948Y6710000D01*
X22229845Y7959103D01*
X22013598Y7711064D01*
X21774862Y6909140D01*
X711200Y6909140D01*
X711200Y37210000D01*
X8090026Y37210000D01*
X8196990Y36672253D01*
X8501600Y36216374D01*
X8957479Y35911764D01*
X9194800Y35864558D01*
X9194800Y27940000D01*
X9268271Y27570634D01*
X9477501Y27257501D01*
X10851723Y25883278D01*
X10808030Y25778053D01*
X10807373Y25025250D01*
X11094851Y24329499D01*
X11607800Y23815654D01*
X11607800Y21903488D01*
X11096722Y21393301D01*
X10808030Y20698053D01*
X10807373Y19945250D01*
X11094851Y19249499D01*
X11626699Y18716722D01*
X12321947Y18428030D01*
X13074750Y18427373D01*
X13182930Y18472072D01*
X22812500Y8842501D01*
X23067530Y8672094D01*
X22908936Y8606402D01*
X22660897Y8390155D01*
X23910000Y7141052D01*
X23924143Y7155194D01*
X24355195Y6724142D01*
X24341052Y6710000D01*
X25590155Y5460897D01*
X25806402Y5708936D01*
X26045138Y6510860D01*
X25958819Y7343100D01*
X25806402Y7711064D01*
X25590156Y7959101D01*
X25629855Y7998800D01*
X26043331Y7998800D01*
X26043331Y7690000D01*
X26066356Y7567635D01*
X26138673Y7455251D01*
X26249017Y7379856D01*
X26380000Y7353331D01*
X27580000Y7353331D01*
X27702365Y7376356D01*
X27814749Y7448673D01*
X27890144Y7559017D01*
X27916669Y7690000D01*
X27916669Y9310000D01*
X27893644Y9432365D01*
X27837381Y9519800D01*
X28124028Y9328269D01*
X28480000Y9257462D01*
X28772507Y9315645D01*
X28620607Y9088310D01*
X28549800Y8732338D01*
X28549800Y8267662D01*
X28620607Y7911690D01*
X28822249Y7609911D01*
X29124028Y7408269D01*
X29480000Y7337462D01*
X29835972Y7408269D01*
X30137751Y7609911D01*
X30339393Y7911690D01*
X30410200Y8267662D01*
X30410200Y8732338D01*
X30339393Y9088310D01*
X30187493Y9315645D01*
X30480000Y9257462D01*
X30772507Y9315645D01*
X30620607Y9088310D01*
X30549800Y8732338D01*
X30549800Y8267662D01*
X30620607Y7911690D01*
X30822249Y7609911D01*
X31124028Y7408269D01*
X31480000Y7337462D01*
X31835972Y7408269D01*
X32137751Y7609911D01*
X32339393Y7911690D01*
X32410200Y8267662D01*
X32410200Y8732338D01*
X33049800Y8732338D01*
X33049800Y8267662D01*
X33120607Y7911690D01*
X33322249Y7609911D01*
X33624028Y7408269D01*
X33980000Y7337462D01*
X34335972Y7408269D01*
X34637751Y7609911D01*
X34839393Y7911690D01*
X34856720Y7998800D01*
X35330145Y7998800D01*
X35369844Y7959101D01*
X35153598Y7711064D01*
X34914862Y6909140D01*
X35001181Y6076900D01*
X35153598Y5708936D01*
X35369845Y5460897D01*
X36618948Y6710000D01*
X37481052Y6710000D01*
X38730155Y5460897D01*
X38946402Y5708936D01*
X39185138Y6510860D01*
X39098819Y7343100D01*
X38946402Y7711064D01*
X38730155Y7959103D01*
X37481052Y6710000D01*
X36618948Y6710000D01*
X36604806Y6724142D01*
X37035858Y7155194D01*
X37050000Y7141052D01*
X38299103Y8390155D01*
X38051064Y8606402D01*
X37873338Y8659312D01*
X38147499Y8842501D01*
X47776722Y18471723D01*
X47881947Y18428030D01*
X48634750Y18427373D01*
X49330501Y18714851D01*
X49863278Y19246699D01*
X50151970Y19941947D01*
X50152627Y20694750D01*
X49865149Y21390501D01*
X49352200Y21904346D01*
X49352200Y23816512D01*
X49863278Y24326699D01*
X50151970Y25021947D01*
X50152627Y25774750D01*
X50107928Y25882930D01*
X51482499Y27257500D01*
X51691729Y27570633D01*
X51703918Y27631915D01*
X51765200Y27940000D01*
X51765200Y35864558D01*
X52002521Y35911764D01*
X52458400Y36216374D01*
X52763010Y36672253D01*
X52869974Y37210000D01*
X52763010Y37747747D01*
X52458400Y38203626D01*
X52002521Y38508236D01*
X51464774Y38615200D01*
X50135226Y38615200D01*
X49597479Y38508236D01*
X49141600Y38203626D01*
X48836990Y37747747D01*
X48730026Y37210000D01*
X48836990Y36672253D01*
X49141600Y36216374D01*
X49597479Y35911764D01*
X49834800Y35864558D01*
X49834800Y28339799D01*
X48743278Y27248277D01*
X48638053Y27291970D01*
X47885250Y27292627D01*
X47189499Y27005149D01*
X46656722Y26473301D01*
X46368030Y25778053D01*
X46367373Y25025250D01*
X46654851Y24329499D01*
X47167800Y23815654D01*
X47167800Y21903488D01*
X46656722Y21393301D01*
X46368030Y20698053D01*
X46367373Y19945250D01*
X46412072Y19837071D01*
X37065202Y10490200D01*
X36195000Y10490200D01*
X35825634Y10416729D01*
X35512501Y10207499D01*
X35372456Y9997907D01*
X35410200Y10187662D01*
X35410200Y10652338D01*
X35339393Y11008310D01*
X35137751Y11310089D01*
X34835972Y11511731D01*
X34480000Y11582538D01*
X34124028Y11511731D01*
X33822249Y11310089D01*
X33620607Y11008310D01*
X33549800Y10652338D01*
X33549800Y10187662D01*
X33620607Y9831690D01*
X33762534Y9619281D01*
X33624028Y9591731D01*
X33322249Y9390089D01*
X33120607Y9088310D01*
X33049800Y8732338D01*
X32410200Y8732338D01*
X32339393Y9088310D01*
X32187493Y9315645D01*
X32480000Y9257462D01*
X32835972Y9328269D01*
X33137751Y9529911D01*
X33339393Y9831690D01*
X33410200Y10187662D01*
X33410200Y10652338D01*
X33339393Y11008310D01*
X33137751Y11310089D01*
X32835972Y11511731D01*
X32480000Y11582538D01*
X32124028Y11511731D01*
X31822249Y11310089D01*
X31739054Y11185578D01*
X31731447Y11196962D01*
X31013400Y11915009D01*
X31013400Y22504400D01*
X31978600Y22504400D01*
X31978600Y21882208D01*
X31978237Y21882058D01*
X31459763Y21364488D01*
X31178820Y20687904D01*
X31178181Y19955310D01*
X31457942Y19278237D01*
X31975512Y18759763D01*
X32652096Y18478820D01*
X33384690Y18478181D01*
X34061763Y18757942D01*
X34580237Y19275512D01*
X34861180Y19952096D01*
X34861182Y19955310D01*
X36258181Y19955310D01*
X36537942Y19278237D01*
X37055512Y18759763D01*
X37732096Y18478820D01*
X38464690Y18478181D01*
X39141763Y18757942D01*
X39660237Y19275512D01*
X39941180Y19952096D01*
X39941182Y19955310D01*
X41338181Y19955310D01*
X41617942Y19278237D01*
X42135512Y18759763D01*
X42812096Y18478820D01*
X43544690Y18478181D01*
X44221763Y18757942D01*
X44740237Y19275512D01*
X45021180Y19952096D01*
X45021819Y20684690D01*
X44742058Y21361763D01*
X44224488Y21880237D01*
X43547904Y22161180D01*
X42815310Y22161819D01*
X42138237Y21882058D01*
X41619763Y21364488D01*
X41338820Y20687904D01*
X41338181Y19955310D01*
X39941182Y19955310D01*
X39941819Y20684690D01*
X39662058Y21361763D01*
X39144488Y21880237D01*
X38467904Y22161180D01*
X37735310Y22161819D01*
X37058237Y21882058D01*
X36539763Y21364488D01*
X36258820Y20687904D01*
X36258181Y19955310D01*
X34861182Y19955310D01*
X34861819Y20684690D01*
X34582058Y21361763D01*
X34064488Y21880237D01*
X34061400Y21881519D01*
X34061400Y23837792D01*
X34061763Y23837942D01*
X34580237Y24355512D01*
X34861180Y25032096D01*
X34861182Y25035310D01*
X36258181Y25035310D01*
X36537942Y24358237D01*
X37055512Y23839763D01*
X37732096Y23558820D01*
X38464690Y23558181D01*
X39141763Y23837942D01*
X39660237Y24355512D01*
X39941180Y25032096D01*
X39941182Y25035310D01*
X41338181Y25035310D01*
X41617942Y24358237D01*
X42135512Y23839763D01*
X42812096Y23558820D01*
X43544690Y23558181D01*
X44221763Y23837942D01*
X44740237Y24355512D01*
X45021180Y25032096D01*
X45021819Y25764690D01*
X44742058Y26441763D01*
X44224488Y26960237D01*
X43547904Y27241180D01*
X42815310Y27241819D01*
X42138237Y26962058D01*
X41619763Y26444488D01*
X41338820Y25767904D01*
X41338181Y25035310D01*
X39941182Y25035310D01*
X39941819Y25764690D01*
X39662058Y26441763D01*
X39144488Y26960237D01*
X38467904Y27241180D01*
X37735310Y27241819D01*
X37058237Y26962058D01*
X36539763Y26444488D01*
X36258820Y25767904D01*
X36258181Y25035310D01*
X34861182Y25035310D01*
X34861819Y25764690D01*
X34582058Y26441763D01*
X34064488Y26960237D01*
X33387904Y27241180D01*
X32655310Y27241819D01*
X31978237Y26962058D01*
X31459763Y26444488D01*
X31178820Y25767904D01*
X31178181Y25035310D01*
X31457942Y24358237D01*
X31975512Y23839763D01*
X31978600Y23838481D01*
X31978600Y23215600D01*
X31013400Y23215600D01*
X31013400Y35173006D01*
X32001447Y36161053D01*
X32078532Y36276417D01*
X32105600Y36412500D01*
X32105600Y36516023D01*
X32115233Y36517939D01*
X32424863Y36724827D01*
X32631751Y37034457D01*
X32704400Y37399690D01*
X32704400Y38125310D01*
X32631751Y38490543D01*
X32441684Y38775000D01*
X38410127Y38775000D01*
X38410127Y36750000D01*
X38429609Y36646461D01*
X38490801Y36551366D01*
X38584168Y36487571D01*
X38695000Y36465127D01*
X40045000Y36465127D01*
X40148539Y36484609D01*
X40243634Y36545801D01*
X40307429Y36639168D01*
X40329873Y36750000D01*
X40329873Y38125310D01*
X40955600Y38125310D01*
X40955600Y37399690D01*
X41028249Y37034457D01*
X41235137Y36724827D01*
X41544767Y36517939D01*
X41910000Y36445290D01*
X42275233Y36517939D01*
X42584863Y36724827D01*
X42791751Y37034457D01*
X42864400Y37399690D01*
X42864400Y38125310D01*
X42791751Y38490543D01*
X42584863Y38800173D01*
X42275233Y39007061D01*
X41910000Y39079710D01*
X41544767Y39007061D01*
X41235137Y38800173D01*
X41028249Y38490543D01*
X40955600Y38125310D01*
X40329873Y38125310D01*
X40329873Y38775000D01*
X40310391Y38878539D01*
X40249199Y38973634D01*
X40155832Y39037429D01*
X40045000Y39059873D01*
X38695000Y39059873D01*
X38591461Y39040391D01*
X38496366Y38979199D01*
X38432571Y38885832D01*
X38410127Y38775000D01*
X32441684Y38775000D01*
X32424863Y38800173D01*
X32115233Y39007061D01*
X31750000Y39079710D01*
X31384767Y39007061D01*
X31075137Y38800173D01*
X30868249Y38490543D01*
X30795600Y38125310D01*
X30795600Y37399690D01*
X30868249Y37034457D01*
X31075137Y36724827D01*
X31365451Y36530845D01*
X30480000Y35645394D01*
X29660267Y36465127D01*
X29885000Y36465127D01*
X29988539Y36484609D01*
X30083634Y36545801D01*
X30147429Y36639168D01*
X30169873Y36750000D01*
X30169873Y38775000D01*
X30150391Y38878539D01*
X30089199Y38973634D01*
X29995832Y39037429D01*
X29885000Y39059873D01*
X28535000Y39059873D01*
X28431461Y39040391D01*
X28336366Y38979199D01*
X28272571Y38885832D01*
X28250127Y38775000D01*
X28250127Y36750000D01*
X28269609Y36646461D01*
X28330801Y36551366D01*
X28424168Y36487571D01*
X28535000Y36465127D01*
X28854400Y36465127D01*
X28854400Y36412500D01*
X28881468Y36276417D01*
X28958553Y36161053D01*
X29946600Y35173006D01*
X29946600Y23215600D01*
X28981400Y23215600D01*
X28981400Y23837792D01*
X28981763Y23837942D01*
X29500237Y24355512D01*
X29781180Y25032096D01*
X29781819Y25764690D01*
X29502058Y26441763D01*
X28984488Y26960237D01*
X28307904Y27241180D01*
X27575310Y27241819D01*
X26898237Y26962058D01*
X26379763Y26444488D01*
X26098820Y25767904D01*
X26098181Y25035310D01*
X26377942Y24358237D01*
X26895512Y23839763D01*
X26898600Y23838481D01*
X26898600Y21882208D01*
X26898237Y21882058D01*
X26379763Y21364488D01*
X26098820Y20687904D01*
X26098181Y19955310D01*
X26377942Y19278237D01*
X26895512Y18759763D01*
X27572096Y18478820D01*
X28304690Y18478181D01*
X28981763Y18757942D01*
X29500237Y19275512D01*
X29781180Y19952096D01*
X29781819Y20684690D01*
X29502058Y21361763D01*
X28984488Y21880237D01*
X28981400Y21881519D01*
X28981400Y22504400D01*
X29946600Y22504400D01*
X29946600Y11915009D01*
X29228553Y11196962D01*
X29220946Y11185578D01*
X29137751Y11310089D01*
X28835972Y11511731D01*
X28480000Y11582538D01*
X28124028Y11511731D01*
X27822249Y11310089D01*
X27620607Y11008310D01*
X27549800Y10652338D01*
X27549800Y10187662D01*
X27620607Y9831690D01*
X27804780Y9556055D01*
X27710983Y9620144D01*
X27580000Y9646669D01*
X27215766Y9646669D01*
X27339393Y9831690D01*
X27410200Y10187662D01*
X27410200Y10652338D01*
X27339393Y11008310D01*
X27137751Y11310089D01*
X26835972Y11511731D01*
X26480000Y11582538D01*
X26124028Y11511731D01*
X25822249Y11310089D01*
X25620607Y11008310D01*
X25549800Y10652338D01*
X25549800Y10187662D01*
X25587544Y9997907D01*
X25447499Y10207499D01*
X25134366Y10416729D01*
X24765000Y10490200D01*
X23894799Y10490200D01*
X14548277Y19836722D01*
X14591970Y19941947D01*
X14591981Y19955310D01*
X15938181Y19955310D01*
X16217942Y19278237D01*
X16735512Y18759763D01*
X17412096Y18478820D01*
X18144690Y18478181D01*
X18821763Y18757942D01*
X19340237Y19275512D01*
X19621180Y19952096D01*
X19621182Y19955310D01*
X21018181Y19955310D01*
X21297942Y19278237D01*
X21815512Y18759763D01*
X22492096Y18478820D01*
X23224690Y18478181D01*
X23901763Y18757942D01*
X24420237Y19275512D01*
X24701180Y19952096D01*
X24701819Y20684690D01*
X24422058Y21361763D01*
X23904488Y21880237D01*
X23227904Y22161180D01*
X22495310Y22161819D01*
X21818237Y21882058D01*
X21299763Y21364488D01*
X21018820Y20687904D01*
X21018181Y19955310D01*
X19621182Y19955310D01*
X19621819Y20684690D01*
X19342058Y21361763D01*
X18824488Y21880237D01*
X18147904Y22161180D01*
X17415310Y22161819D01*
X16738237Y21882058D01*
X16219763Y21364488D01*
X15938820Y20687904D01*
X15938181Y19955310D01*
X14591981Y19955310D01*
X14592627Y20694750D01*
X14305149Y21390501D01*
X13792200Y21904346D01*
X13792200Y23816512D01*
X14303278Y24326699D01*
X14591970Y25021947D01*
X14591981Y25035310D01*
X15938181Y25035310D01*
X16217942Y24358237D01*
X16735512Y23839763D01*
X17412096Y23558820D01*
X18144690Y23558181D01*
X18821763Y23837942D01*
X19340237Y24355512D01*
X19621180Y25032096D01*
X19621182Y25035310D01*
X21018181Y25035310D01*
X21297942Y24358237D01*
X21815512Y23839763D01*
X22492096Y23558820D01*
X23224690Y23558181D01*
X23901763Y23837942D01*
X24420237Y24355512D01*
X24701180Y25032096D01*
X24701819Y25764690D01*
X24422058Y26441763D01*
X23904488Y26960237D01*
X23227904Y27241180D01*
X22495310Y27241819D01*
X21818237Y26962058D01*
X21299763Y26444488D01*
X21018820Y25767904D01*
X21018181Y25035310D01*
X19621182Y25035310D01*
X19621819Y25764690D01*
X19342058Y26441763D01*
X18824488Y26960237D01*
X18147904Y27241180D01*
X17415310Y27241819D01*
X16738237Y26962058D01*
X16219763Y26444488D01*
X15938820Y25767904D01*
X15938181Y25035310D01*
X14591981Y25035310D01*
X14592627Y25774750D01*
X14305149Y26470501D01*
X13773301Y27003278D01*
X13078053Y27291970D01*
X12325250Y27292627D01*
X12217070Y27247928D01*
X11125200Y28339798D01*
X11125200Y35864558D01*
X11362521Y35911764D01*
X11818400Y36216374D01*
X12123010Y36672253D01*
X12229974Y37210000D01*
X12123010Y37747747D01*
X11818400Y38203626D01*
X11362521Y38508236D01*
X10824774Y38615200D01*
X9495226Y38615200D01*
X8957479Y38508236D01*
X8501600Y38203626D01*
X8196990Y37747747D01*
X8090026Y37210000D01*
X711200Y37210000D01*
X711200Y38775000D01*
X18090127Y38775000D01*
X18090127Y36750000D01*
X18109609Y36646461D01*
X18170801Y36551366D01*
X18264168Y36487571D01*
X18375000Y36465127D01*
X19725000Y36465127D01*
X19828539Y36484609D01*
X19923634Y36545801D01*
X19987429Y36639168D01*
X20009873Y36750000D01*
X20009873Y38125310D01*
X20635600Y38125310D01*
X20635600Y37399690D01*
X20708249Y37034457D01*
X20915137Y36724827D01*
X21224767Y36517939D01*
X21590000Y36445290D01*
X21955233Y36517939D01*
X22264863Y36724827D01*
X22471751Y37034457D01*
X22544400Y37399690D01*
X22544400Y38125310D01*
X22471751Y38490543D01*
X22264863Y38800173D01*
X21955233Y39007061D01*
X21590000Y39079710D01*
X21224767Y39007061D01*
X20915137Y38800173D01*
X20708249Y38490543D01*
X20635600Y38125310D01*
X20009873Y38125310D01*
X20009873Y38775000D01*
X19990391Y38878539D01*
X19929199Y38973634D01*
X19835832Y39037429D01*
X19725000Y39059873D01*
X18375000Y39059873D01*
X18271461Y39040391D01*
X18176366Y38979199D01*
X18112571Y38885832D01*
X18090127Y38775000D01*
X711200Y38775000D01*
X711200Y41910000D01*
X8090026Y41910000D01*
X8196990Y41372253D01*
X8501600Y40916374D01*
X8957479Y40611764D01*
X9495226Y40504800D01*
X10824774Y40504800D01*
X11362521Y40611764D01*
X11818400Y40916374D01*
X12123010Y41372253D01*
X12229974Y41910000D01*
X12123010Y42447747D01*
X11818400Y42903626D01*
X11362521Y43208236D01*
X11125200Y43255442D01*
X11125200Y46420310D01*
X18095600Y46420310D01*
X18095600Y45694690D01*
X18168249Y45329457D01*
X18375137Y45019827D01*
X18684767Y44812939D01*
X19050000Y44740290D01*
X19415233Y44812939D01*
X19724863Y45019827D01*
X19931751Y45329457D01*
X20004400Y45694690D01*
X20004400Y46420310D01*
X20635600Y46420310D01*
X20635600Y45694690D01*
X20708249Y45329457D01*
X20915137Y45019827D01*
X21224767Y44812939D01*
X21590000Y44740290D01*
X21955233Y44812939D01*
X22264863Y45019827D01*
X22471751Y45329457D01*
X22544400Y45694690D01*
X22544400Y46420310D01*
X22471751Y46785543D01*
X22264863Y47095173D01*
X21955233Y47302061D01*
X21590000Y47374710D01*
X21224767Y47302061D01*
X20915137Y47095173D01*
X20708249Y46785543D01*
X20635600Y46420310D01*
X20004400Y46420310D01*
X19931751Y46785543D01*
X19724863Y47095173D01*
X19415233Y47302061D01*
X19050000Y47374710D01*
X18684767Y47302061D01*
X18375137Y47095173D01*
X18168249Y46785543D01*
X18095600Y46420310D01*
X11125200Y46420310D01*
X11125200Y55480202D01*
X12216722Y56571723D01*
X12321947Y56528030D01*
X13074750Y56527373D01*
X13770501Y56814851D01*
X14303278Y57346699D01*
X14591970Y58041947D01*
X14591981Y58055310D01*
X15938181Y58055310D01*
X16217942Y57378237D01*
X16735512Y56859763D01*
X17412096Y56578820D01*
X18144690Y56578181D01*
X18821763Y56857942D01*
X19340237Y57375512D01*
X19621180Y58052096D01*
X19621182Y58055310D01*
X21018181Y58055310D01*
X21297942Y57378237D01*
X21815512Y56859763D01*
X22492096Y56578820D01*
X23224690Y56578181D01*
X23901763Y56857942D01*
X24420237Y57375512D01*
X24701180Y58052096D01*
X24701819Y58784690D01*
X24422058Y59461763D01*
X23904488Y59980237D01*
X23227904Y60261180D01*
X22495310Y60261819D01*
X21818237Y59982058D01*
X21299763Y59464488D01*
X21018820Y58787904D01*
X21018181Y58055310D01*
X19621182Y58055310D01*
X19621819Y58784690D01*
X19342058Y59461763D01*
X18824488Y59980237D01*
X18147904Y60261180D01*
X17415310Y60261819D01*
X16738237Y59982058D01*
X16219763Y59464488D01*
X15938820Y58787904D01*
X15938181Y58055310D01*
X14591981Y58055310D01*
X14592627Y58794750D01*
X14305149Y59490501D01*
X13773301Y60023278D01*
X13665200Y60068165D01*
X13665200Y61851342D01*
X13770501Y61894851D01*
X14303278Y62426699D01*
X14591970Y63121947D01*
X14591981Y63135310D01*
X15938181Y63135310D01*
X16217942Y62458237D01*
X16735512Y61939763D01*
X17412096Y61658820D01*
X18144690Y61658181D01*
X18821763Y61937942D01*
X19340237Y62455512D01*
X19621180Y63132096D01*
X19621182Y63135310D01*
X21018181Y63135310D01*
X21297942Y62458237D01*
X21815512Y61939763D01*
X22492096Y61658820D01*
X23224690Y61658181D01*
X23901763Y61937942D01*
X24420237Y62455512D01*
X24701180Y63132096D01*
X24701182Y63135310D01*
X26098181Y63135310D01*
X26377942Y62458237D01*
X26895512Y61939763D01*
X26898600Y61938481D01*
X26898600Y59982208D01*
X26898237Y59982058D01*
X26379763Y59464488D01*
X26098820Y58787904D01*
X26098181Y58055310D01*
X26377942Y57378237D01*
X26895512Y56859763D01*
X27572096Y56578820D01*
X28304690Y56578181D01*
X28981763Y56857942D01*
X29500237Y57375512D01*
X29781180Y58052096D01*
X29781819Y58784690D01*
X29502058Y59461763D01*
X28984488Y59980237D01*
X28981400Y59981519D01*
X28981400Y60604400D01*
X29946600Y60604400D01*
X29946600Y48646994D01*
X28958553Y47658947D01*
X28881468Y47543583D01*
X28881468Y47543582D01*
X28854400Y47407500D01*
X28854400Y47303977D01*
X28844767Y47302061D01*
X28535137Y47095173D01*
X28328249Y46785543D01*
X28255600Y46420310D01*
X28255600Y45694690D01*
X28328249Y45329457D01*
X28535137Y45019827D01*
X28844767Y44812939D01*
X29210000Y44740290D01*
X29575233Y44812939D01*
X29884863Y45019827D01*
X30091751Y45329457D01*
X30164400Y45694690D01*
X30164400Y46420310D01*
X30091751Y46785543D01*
X29884863Y47095173D01*
X29594549Y47289155D01*
X30480000Y48174606D01*
X31365451Y47289155D01*
X31075137Y47095173D01*
X30868249Y46785543D01*
X30795600Y46420310D01*
X30795600Y45694690D01*
X30868249Y45329457D01*
X31075137Y45019827D01*
X31384767Y44812939D01*
X31750000Y44740290D01*
X32115233Y44812939D01*
X32424863Y45019827D01*
X32631751Y45329457D01*
X32704400Y45694690D01*
X32704400Y46420310D01*
X38415600Y46420310D01*
X38415600Y45694690D01*
X38488249Y45329457D01*
X38695137Y45019827D01*
X39004767Y44812939D01*
X39370000Y44740290D01*
X39735233Y44812939D01*
X40044863Y45019827D01*
X40251751Y45329457D01*
X40324400Y45694690D01*
X40324400Y46420310D01*
X40955600Y46420310D01*
X40955600Y45694690D01*
X41028249Y45329457D01*
X41235137Y45019827D01*
X41544767Y44812939D01*
X41910000Y44740290D01*
X42275233Y44812939D01*
X42584863Y45019827D01*
X42791751Y45329457D01*
X42864400Y45694690D01*
X42864400Y46420310D01*
X42791751Y46785543D01*
X42584863Y47095173D01*
X42275233Y47302061D01*
X41910000Y47374710D01*
X41544767Y47302061D01*
X41235137Y47095173D01*
X41028249Y46785543D01*
X40955600Y46420310D01*
X40324400Y46420310D01*
X40251751Y46785543D01*
X40044863Y47095173D01*
X39735233Y47302061D01*
X39370000Y47374710D01*
X39004767Y47302061D01*
X38695137Y47095173D01*
X38488249Y46785543D01*
X38415600Y46420310D01*
X32704400Y46420310D01*
X32631751Y46785543D01*
X32424863Y47095173D01*
X32115233Y47302061D01*
X32105600Y47303977D01*
X32105600Y47407500D01*
X32078532Y47543582D01*
X32078532Y47543583D01*
X32001447Y47658947D01*
X31013400Y48646994D01*
X31013400Y60604401D01*
X31978600Y60604400D01*
X31978600Y59982208D01*
X31978237Y59982058D01*
X31459763Y59464488D01*
X31178820Y58787904D01*
X31178181Y58055310D01*
X31457942Y57378237D01*
X31975512Y56859763D01*
X32652096Y56578820D01*
X33384690Y56578181D01*
X34061763Y56857942D01*
X34580237Y57375512D01*
X34861180Y58052096D01*
X34861182Y58055310D01*
X36258181Y58055310D01*
X36537942Y57378237D01*
X37055512Y56859763D01*
X37732096Y56578820D01*
X38464690Y56578181D01*
X39141763Y56857942D01*
X39660237Y57375512D01*
X39941180Y58052096D01*
X39941182Y58055310D01*
X41338181Y58055310D01*
X41617942Y57378237D01*
X42135512Y56859763D01*
X42812096Y56578820D01*
X43544690Y56578181D01*
X44221763Y56857942D01*
X44740237Y57375512D01*
X45021180Y58052096D01*
X45021819Y58784690D01*
X44742058Y59461763D01*
X44224488Y59980237D01*
X43547904Y60261180D01*
X42815310Y60261819D01*
X42138237Y59982058D01*
X41619763Y59464488D01*
X41338820Y58787904D01*
X41338181Y58055310D01*
X39941182Y58055310D01*
X39941819Y58784690D01*
X39662058Y59461763D01*
X39144488Y59980237D01*
X38467904Y60261180D01*
X37735310Y60261819D01*
X37058237Y59982058D01*
X36539763Y59464488D01*
X36258820Y58787904D01*
X36258181Y58055310D01*
X34861182Y58055310D01*
X34861819Y58784690D01*
X34582058Y59461763D01*
X34064488Y59980237D01*
X34061400Y59981519D01*
X34061400Y61937792D01*
X34061763Y61937942D01*
X34580237Y62455512D01*
X34861180Y63132096D01*
X34861182Y63135310D01*
X36258181Y63135310D01*
X36537942Y62458237D01*
X37055512Y61939763D01*
X37732096Y61658820D01*
X38464690Y61658181D01*
X39141763Y61937942D01*
X39660237Y62455512D01*
X39941180Y63132096D01*
X39941182Y63135310D01*
X41338181Y63135310D01*
X41617942Y62458237D01*
X42135512Y61939763D01*
X42812096Y61658820D01*
X43544690Y61658181D01*
X44221763Y61937942D01*
X44740237Y62455512D01*
X45021180Y63132096D01*
X45021819Y63864690D01*
X44742058Y64541763D01*
X44224488Y65060237D01*
X43547904Y65341180D01*
X42815310Y65341819D01*
X42138237Y65062058D01*
X41619763Y64544488D01*
X41338820Y63867904D01*
X41338181Y63135310D01*
X39941182Y63135310D01*
X39941819Y63864690D01*
X39662058Y64541763D01*
X39144488Y65060237D01*
X38467904Y65341180D01*
X37735310Y65341819D01*
X37058237Y65062058D01*
X36539763Y64544488D01*
X36258820Y63867904D01*
X36258181Y63135310D01*
X34861182Y63135310D01*
X34861819Y63864690D01*
X34582058Y64541763D01*
X34064488Y65060237D01*
X33387904Y65341180D01*
X32655310Y65341819D01*
X31978237Y65062058D01*
X31459763Y64544488D01*
X31178820Y63867904D01*
X31178181Y63135310D01*
X31457942Y62458237D01*
X31975512Y61939763D01*
X31978600Y61938481D01*
X31978600Y61315600D01*
X31013399Y61315601D01*
X31013399Y72611005D01*
X31731447Y73329053D01*
X31808532Y73444417D01*
X31835600Y73580500D01*
X31835600Y73605682D01*
X32007253Y73777035D01*
X32102192Y74005674D01*
X32102408Y74253240D01*
X32007868Y74482044D01*
X31832965Y74657253D01*
X31604326Y74752192D01*
X31356760Y74752408D01*
X31127956Y74657868D01*
X30952747Y74482965D01*
X30857808Y74254326D01*
X30857592Y74006760D01*
X30952132Y73777956D01*
X31063250Y73666644D01*
X30480000Y73083394D01*
X29896709Y73666685D01*
X30007253Y73777035D01*
X30102192Y74005674D01*
X30102408Y74253240D01*
X30007868Y74482044D01*
X29832965Y74657253D01*
X29604326Y74752192D01*
X29356760Y74752408D01*
X29127956Y74657868D01*
X28952747Y74482965D01*
X28857808Y74254326D01*
X28857592Y74006760D01*
X28952132Y73777956D01*
X29124400Y73605387D01*
X29124400Y73580500D01*
X29151468Y73444417D01*
X29228553Y73329053D01*
X29946601Y72611005D01*
X29946589Y61315600D01*
X28981400Y61315600D01*
X28981400Y61937792D01*
X28981763Y61937942D01*
X29500237Y62455512D01*
X29781180Y63132096D01*
X29781819Y63864690D01*
X29502058Y64541763D01*
X28984488Y65060237D01*
X28307904Y65341180D01*
X27575310Y65341819D01*
X26898237Y65062058D01*
X26379763Y64544488D01*
X26098820Y63867904D01*
X26098181Y63135310D01*
X24701182Y63135310D01*
X24701819Y63864690D01*
X24422058Y64541763D01*
X23904488Y65060237D01*
X23227904Y65341180D01*
X22495310Y65341819D01*
X21818237Y65062058D01*
X21299763Y64544488D01*
X21018820Y63867904D01*
X21018181Y63135310D01*
X19621182Y63135310D01*
X19621819Y63864690D01*
X19342058Y64541763D01*
X18824488Y65060237D01*
X18147904Y65341180D01*
X17415310Y65341819D01*
X16738237Y65062058D01*
X16219763Y64544488D01*
X15938820Y63867904D01*
X15938181Y63135310D01*
X14591981Y63135310D01*
X14592206Y63392208D01*
X27352500Y76152501D01*
X27561729Y76465634D01*
X27635200Y76835000D01*
X27635200Y78081094D01*
X27731210Y77984916D01*
X28054309Y77850753D01*
X28404156Y77850448D01*
X28727489Y77984047D01*
X28975084Y78231210D01*
X29109247Y78554309D01*
X29109248Y78555844D01*
X31850448Y78555844D01*
X31984047Y78232511D01*
X32231210Y77984916D01*
X32554309Y77850753D01*
X32904156Y77850448D01*
X33227489Y77984047D01*
X33324800Y78081188D01*
X33324800Y76835000D01*
X33398271Y76465634D01*
X33607501Y76152501D01*
X46367606Y63392395D01*
X46367373Y63125250D01*
X46654851Y62429499D01*
X47167800Y61915654D01*
X47167800Y60003488D01*
X46656722Y59493301D01*
X46368030Y58798053D01*
X46367373Y58045250D01*
X46654851Y57349499D01*
X47186699Y56816722D01*
X47881947Y56528030D01*
X48634750Y56527373D01*
X48742930Y56572072D01*
X49834800Y55480201D01*
X49834800Y43255442D01*
X49597479Y43208236D01*
X49141600Y42903626D01*
X48836990Y42447747D01*
X48730026Y41910000D01*
X48836990Y41372253D01*
X49141600Y40916374D01*
X49597479Y40611764D01*
X50135226Y40504800D01*
X51464774Y40504800D01*
X52002521Y40611764D01*
X52458400Y40916374D01*
X52763010Y41372253D01*
X52869974Y41910000D01*
X52763010Y42447747D01*
X52458400Y42903626D01*
X52002521Y43208236D01*
X51765200Y43255442D01*
X51765200Y55880000D01*
X51691729Y56249366D01*
X51691729Y56249367D01*
X51482499Y56562500D01*
X50151050Y57893949D01*
X54203600Y57893949D01*
X54234535Y57738427D01*
X54322632Y57606581D01*
X56118683Y55810530D01*
X56250529Y55722433D01*
X56406051Y55691498D01*
X56561574Y55722433D01*
X56693419Y55810530D01*
X58489470Y57606581D01*
X58516944Y57647698D01*
X58577567Y57738426D01*
X58608502Y57893949D01*
X58577567Y58049471D01*
X58577567Y58049472D01*
X58489470Y58181317D01*
X56693419Y59977368D01*
X56662733Y59997872D01*
X56561574Y60065465D01*
X56406051Y60096400D01*
X56250529Y60065465D01*
X56118683Y59977368D01*
X54322632Y58181317D01*
X54234535Y58049471D01*
X54203600Y57893949D01*
X50151050Y57893949D01*
X50108277Y57936722D01*
X50151970Y58041947D01*
X50152627Y58794750D01*
X49865149Y59490501D01*
X49352200Y60004346D01*
X49352200Y61916512D01*
X49863278Y62426699D01*
X50151970Y63121947D01*
X50152627Y63874750D01*
X49865149Y64570501D01*
X49333301Y65103278D01*
X48638053Y65391970D01*
X47885250Y65392627D01*
X47327733Y65162266D01*
X36025200Y76464798D01*
X36025200Y78425200D01*
X36634800Y78425200D01*
X36634800Y76420574D01*
X36805032Y76429184D01*
X36929909Y76449038D01*
X37278776Y76757091D01*
X37483200Y77175200D01*
X37483200Y78425200D01*
X36634800Y78425200D01*
X36025200Y78425200D01*
X35191509Y78425200D01*
X35181729Y78474366D01*
X34972499Y78787499D01*
X34659366Y78996729D01*
X34290000Y79070200D01*
X33920634Y78996729D01*
X33609451Y78788802D01*
X33609552Y78904156D01*
X33475953Y79227489D01*
X33228790Y79475084D01*
X32905691Y79609247D01*
X32555844Y79609552D01*
X32232511Y79475953D01*
X31984916Y79228790D01*
X31850753Y78905691D01*
X31850448Y78555844D01*
X29109248Y78555844D01*
X29109552Y78904156D01*
X28975953Y79227489D01*
X28728790Y79475084D01*
X28405691Y79609247D01*
X28055844Y79609552D01*
X27732511Y79475953D01*
X27484916Y79228790D01*
X27350753Y78905691D01*
X27350651Y78788734D01*
X27039366Y78996729D01*
X26670000Y79070200D01*
X26300634Y78996729D01*
X25987501Y78787499D01*
X25778271Y78474366D01*
X25768491Y78425200D01*
X24934800Y78425200D01*
X24934800Y76464799D01*
X13631967Y65161965D01*
X13078053Y65391970D01*
X12325250Y65392627D01*
X11629499Y65105149D01*
X11096722Y64573301D01*
X10808030Y63878053D01*
X10807373Y63125250D01*
X11094851Y62429499D01*
X11626699Y61896722D01*
X11734800Y61851835D01*
X11734800Y60068658D01*
X11629499Y60025149D01*
X11096722Y59493301D01*
X10808030Y58798053D01*
X10807373Y58045250D01*
X10852072Y57937070D01*
X9477501Y56562499D01*
X9268271Y56249366D01*
X9194800Y55880000D01*
X9194800Y43255442D01*
X8957479Y43208236D01*
X8501600Y42903626D01*
X8196990Y42447747D01*
X8090026Y41910000D01*
X711200Y41910000D01*
X711200Y57118436D01*
X22017964Y78425200D01*
X23476800Y78425200D01*
X23476800Y77175200D01*
X23681224Y76757091D01*
X24030091Y76449038D01*
X24154968Y76429184D01*
X24325200Y76420574D01*
X24325200Y78425200D01*
X23476800Y78425200D01*
X22017964Y78425200D01*
X23476800Y79884036D01*
X23476800Y79034800D01*
X24325200Y79034800D01*
X24325200Y79054800D01*
X24934800Y79054800D01*
X24934800Y79034800D01*
X25783200Y79034800D01*
X25783200Y80284800D01*
X25644345Y80568800D01*
X35315655Y80568800D01*
X35176800Y80284800D01*
X35176800Y80284800D01*
G37*
X35176800Y80284800D02*
X35176800Y79034800D01*
X36025200Y79034800D01*
X36025200Y79054800D01*
X36634800Y79054800D01*
X36634800Y79034800D01*
X37483200Y79034800D01*
X37483200Y79884036D01*
X60248800Y57118436D01*
X60248800Y1936564D01*
X59023436Y711200D01*
X1936564Y711200D01*
X711200Y1936564D01*
X711200Y5029845D01*
X22660897Y5029845D01*
X22908936Y4813598D01*
X23710860Y4574862D01*
X24543100Y4661181D01*
X24911064Y4813598D01*
X25159103Y5029845D01*
X35800897Y5029845D01*
X36048936Y4813598D01*
X36850860Y4574862D01*
X37683100Y4661181D01*
X38051064Y4813598D01*
X38299103Y5029845D01*
X37050000Y6278948D01*
X35800897Y5029845D01*
X25159103Y5029845D01*
X23910000Y6278948D01*
X22660897Y5029845D01*
X711200Y5029845D01*
X711200Y6909140D01*
X21774862Y6909140D01*
X21861181Y6076900D01*
X22013598Y5708936D01*
X22229845Y5460897D01*
X23478948Y6710000D01*
X22229845Y7959103D01*
X22013598Y7711064D01*
X21774862Y6909140D01*
X711200Y6909140D01*
X711200Y37210000D01*
X8090026Y37210000D01*
X8196990Y36672253D01*
X8501600Y36216374D01*
X8957479Y35911764D01*
X9194800Y35864558D01*
X9194800Y27940000D01*
X9268271Y27570634D01*
X9477501Y27257501D01*
X10851723Y25883278D01*
X10808030Y25778053D01*
X10807373Y25025250D01*
X11094851Y24329499D01*
X11607800Y23815654D01*
X11607800Y21903488D01*
X11096722Y21393301D01*
X10808030Y20698053D01*
X10807373Y19945250D01*
X11094851Y19249499D01*
X11626699Y18716722D01*
X12321947Y18428030D01*
X13074750Y18427373D01*
X13182930Y18472072D01*
X22812500Y8842501D01*
X23067530Y8672094D01*
X22908936Y8606402D01*
X22660897Y8390155D01*
X23910000Y7141052D01*
X23924143Y7155194D01*
X24355195Y6724142D01*
X24341052Y6710000D01*
X25590155Y5460897D01*
X25806402Y5708936D01*
X26045138Y6510860D01*
X25958819Y7343100D01*
X25806402Y7711064D01*
X25590156Y7959101D01*
X25629855Y7998800D01*
X26043331Y7998800D01*
X26043331Y7690000D01*
X26066356Y7567635D01*
X26138673Y7455251D01*
X26249017Y7379856D01*
X26380000Y7353331D01*
X27580000Y7353331D01*
X27702365Y7376356D01*
X27814749Y7448673D01*
X27890144Y7559017D01*
X27916669Y7690000D01*
X27916669Y9310000D01*
X27893644Y9432365D01*
X27837381Y9519800D01*
X28124028Y9328269D01*
X28480000Y9257462D01*
X28772507Y9315645D01*
X28620607Y9088310D01*
X28549800Y8732338D01*
X28549800Y8267662D01*
X28620607Y7911690D01*
X28822249Y7609911D01*
X29124028Y7408269D01*
X29480000Y7337462D01*
X29835972Y7408269D01*
X30137751Y7609911D01*
X30339393Y7911690D01*
X30410200Y8267662D01*
X30410200Y8732338D01*
X30339393Y9088310D01*
X30187493Y9315645D01*
X30480000Y9257462D01*
X30772507Y9315645D01*
X30620607Y9088310D01*
X30549800Y8732338D01*
X30549800Y8267662D01*
X30620607Y7911690D01*
X30822249Y7609911D01*
X31124028Y7408269D01*
X31480000Y7337462D01*
X31835972Y7408269D01*
X32137751Y7609911D01*
X32339393Y7911690D01*
X32410200Y8267662D01*
X32410200Y8732338D01*
X33049800Y8732338D01*
X33049800Y8267662D01*
X33120607Y7911690D01*
X33322249Y7609911D01*
X33624028Y7408269D01*
X33980000Y7337462D01*
X34335972Y7408269D01*
X34637751Y7609911D01*
X34839393Y7911690D01*
X34856720Y7998800D01*
X35330145Y7998800D01*
X35369844Y7959101D01*
X35153598Y7711064D01*
X34914862Y6909140D01*
X35001181Y6076900D01*
X35153598Y5708936D01*
X35369845Y5460897D01*
X36618948Y6710000D01*
X37481052Y6710000D01*
X38730155Y5460897D01*
X38946402Y5708936D01*
X39185138Y6510860D01*
X39098819Y7343100D01*
X38946402Y7711064D01*
X38730155Y7959103D01*
X37481052Y6710000D01*
X36618948Y6710000D01*
X36604806Y6724142D01*
X37035858Y7155194D01*
X37050000Y7141052D01*
X38299103Y8390155D01*
X38051064Y8606402D01*
X37873338Y8659312D01*
X38147499Y8842501D01*
X47776722Y18471723D01*
X47881947Y18428030D01*
X48634750Y18427373D01*
X49330501Y18714851D01*
X49863278Y19246699D01*
X50151970Y19941947D01*
X50152627Y20694750D01*
X49865149Y21390501D01*
X49352200Y21904346D01*
X49352200Y23816512D01*
X49863278Y24326699D01*
X50151970Y25021947D01*
X50152627Y25774750D01*
X50107928Y25882930D01*
X51482499Y27257500D01*
X51691729Y27570633D01*
X51703918Y27631915D01*
X51765200Y27940000D01*
X51765200Y35864558D01*
X52002521Y35911764D01*
X52458400Y36216374D01*
X52763010Y36672253D01*
X52869974Y37210000D01*
X52763010Y37747747D01*
X52458400Y38203626D01*
X52002521Y38508236D01*
X51464774Y38615200D01*
X50135226Y38615200D01*
X49597479Y38508236D01*
X49141600Y38203626D01*
X48836990Y37747747D01*
X48730026Y37210000D01*
X48836990Y36672253D01*
X49141600Y36216374D01*
X49597479Y35911764D01*
X49834800Y35864558D01*
X49834800Y28339799D01*
X48743278Y27248277D01*
X48638053Y27291970D01*
X47885250Y27292627D01*
X47189499Y27005149D01*
X46656722Y26473301D01*
X46368030Y25778053D01*
X46367373Y25025250D01*
X46654851Y24329499D01*
X47167800Y23815654D01*
X47167800Y21903488D01*
X46656722Y21393301D01*
X46368030Y20698053D01*
X46367373Y19945250D01*
X46412072Y19837071D01*
X37065202Y10490200D01*
X36195000Y10490200D01*
X35825634Y10416729D01*
X35512501Y10207499D01*
X35372456Y9997907D01*
X35410200Y10187662D01*
X35410200Y10652338D01*
X35339393Y11008310D01*
X35137751Y11310089D01*
X34835972Y11511731D01*
X34480000Y11582538D01*
X34124028Y11511731D01*
X33822249Y11310089D01*
X33620607Y11008310D01*
X33549800Y10652338D01*
X33549800Y10187662D01*
X33620607Y9831690D01*
X33762534Y9619281D01*
X33624028Y9591731D01*
X33322249Y9390089D01*
X33120607Y9088310D01*
X33049800Y8732338D01*
X32410200Y8732338D01*
X32339393Y9088310D01*
X32187493Y9315645D01*
X32480000Y9257462D01*
X32835972Y9328269D01*
X33137751Y9529911D01*
X33339393Y9831690D01*
X33410200Y10187662D01*
X33410200Y10652338D01*
X33339393Y11008310D01*
X33137751Y11310089D01*
X32835972Y11511731D01*
X32480000Y11582538D01*
X32124028Y11511731D01*
X31822249Y11310089D01*
X31739054Y11185578D01*
X31731447Y11196962D01*
X31013400Y11915009D01*
X31013400Y22504400D01*
X31978600Y22504400D01*
X31978600Y21882208D01*
X31978237Y21882058D01*
X31459763Y21364488D01*
X31178820Y20687904D01*
X31178181Y19955310D01*
X31457942Y19278237D01*
X31975512Y18759763D01*
X32652096Y18478820D01*
X33384690Y18478181D01*
X34061763Y18757942D01*
X34580237Y19275512D01*
X34861180Y19952096D01*
X34861182Y19955310D01*
X36258181Y19955310D01*
X36537942Y19278237D01*
X37055512Y18759763D01*
X37732096Y18478820D01*
X38464690Y18478181D01*
X39141763Y18757942D01*
X39660237Y19275512D01*
X39941180Y19952096D01*
X39941182Y19955310D01*
X41338181Y19955310D01*
X41617942Y19278237D01*
X42135512Y18759763D01*
X42812096Y18478820D01*
X43544690Y18478181D01*
X44221763Y18757942D01*
X44740237Y19275512D01*
X45021180Y19952096D01*
X45021819Y20684690D01*
X44742058Y21361763D01*
X44224488Y21880237D01*
X43547904Y22161180D01*
X42815310Y22161819D01*
X42138237Y21882058D01*
X41619763Y21364488D01*
X41338820Y20687904D01*
X41338181Y19955310D01*
X39941182Y19955310D01*
X39941819Y20684690D01*
X39662058Y21361763D01*
X39144488Y21880237D01*
X38467904Y22161180D01*
X37735310Y22161819D01*
X37058237Y21882058D01*
X36539763Y21364488D01*
X36258820Y20687904D01*
X36258181Y19955310D01*
X34861182Y19955310D01*
X34861819Y20684690D01*
X34582058Y21361763D01*
X34064488Y21880237D01*
X34061400Y21881519D01*
X34061400Y23837792D01*
X34061763Y23837942D01*
X34580237Y24355512D01*
X34861180Y25032096D01*
X34861182Y25035310D01*
X36258181Y25035310D01*
X36537942Y24358237D01*
X37055512Y23839763D01*
X37732096Y23558820D01*
X38464690Y23558181D01*
X39141763Y23837942D01*
X39660237Y24355512D01*
X39941180Y25032096D01*
X39941182Y25035310D01*
X41338181Y25035310D01*
X41617942Y24358237D01*
X42135512Y23839763D01*
X42812096Y23558820D01*
X43544690Y23558181D01*
X44221763Y23837942D01*
X44740237Y24355512D01*
X45021180Y25032096D01*
X45021819Y25764690D01*
X44742058Y26441763D01*
X44224488Y26960237D01*
X43547904Y27241180D01*
X42815310Y27241819D01*
X42138237Y26962058D01*
X41619763Y26444488D01*
X41338820Y25767904D01*
X41338181Y25035310D01*
X39941182Y25035310D01*
X39941819Y25764690D01*
X39662058Y26441763D01*
X39144488Y26960237D01*
X38467904Y27241180D01*
X37735310Y27241819D01*
X37058237Y26962058D01*
X36539763Y26444488D01*
X36258820Y25767904D01*
X36258181Y25035310D01*
X34861182Y25035310D01*
X34861819Y25764690D01*
X34582058Y26441763D01*
X34064488Y26960237D01*
X33387904Y27241180D01*
X32655310Y27241819D01*
X31978237Y26962058D01*
X31459763Y26444488D01*
X31178820Y25767904D01*
X31178181Y25035310D01*
X31457942Y24358237D01*
X31975512Y23839763D01*
X31978600Y23838481D01*
X31978600Y23215600D01*
X31013400Y23215600D01*
X31013400Y35173006D01*
X32001447Y36161053D01*
X32078532Y36276417D01*
X32105600Y36412500D01*
X32105600Y36516023D01*
X32115233Y36517939D01*
X32424863Y36724827D01*
X32631751Y37034457D01*
X32704400Y37399690D01*
X32704400Y38125310D01*
X32631751Y38490543D01*
X32441684Y38775000D01*
X38410127Y38775000D01*
X38410127Y36750000D01*
X38429609Y36646461D01*
X38490801Y36551366D01*
X38584168Y36487571D01*
X38695000Y36465127D01*
X40045000Y36465127D01*
X40148539Y36484609D01*
X40243634Y36545801D01*
X40307429Y36639168D01*
X40329873Y36750000D01*
X40329873Y38125310D01*
X40955600Y38125310D01*
X40955600Y37399690D01*
X41028249Y37034457D01*
X41235137Y36724827D01*
X41544767Y36517939D01*
X41910000Y36445290D01*
X42275233Y36517939D01*
X42584863Y36724827D01*
X42791751Y37034457D01*
X42864400Y37399690D01*
X42864400Y38125310D01*
X42791751Y38490543D01*
X42584863Y38800173D01*
X42275233Y39007061D01*
X41910000Y39079710D01*
X41544767Y39007061D01*
X41235137Y38800173D01*
X41028249Y38490543D01*
X40955600Y38125310D01*
X40329873Y38125310D01*
X40329873Y38775000D01*
X40310391Y38878539D01*
X40249199Y38973634D01*
X40155832Y39037429D01*
X40045000Y39059873D01*
X38695000Y39059873D01*
X38591461Y39040391D01*
X38496366Y38979199D01*
X38432571Y38885832D01*
X38410127Y38775000D01*
X32441684Y38775000D01*
X32424863Y38800173D01*
X32115233Y39007061D01*
X31750000Y39079710D01*
X31384767Y39007061D01*
X31075137Y38800173D01*
X30868249Y38490543D01*
X30795600Y38125310D01*
X30795600Y37399690D01*
X30868249Y37034457D01*
X31075137Y36724827D01*
X31365451Y36530845D01*
X30480000Y35645394D01*
X29660267Y36465127D01*
X29885000Y36465127D01*
X29988539Y36484609D01*
X30083634Y36545801D01*
X30147429Y36639168D01*
X30169873Y36750000D01*
X30169873Y38775000D01*
X30150391Y38878539D01*
X30089199Y38973634D01*
X29995832Y39037429D01*
X29885000Y39059873D01*
X28535000Y39059873D01*
X28431461Y39040391D01*
X28336366Y38979199D01*
X28272571Y38885832D01*
X28250127Y38775000D01*
X28250127Y36750000D01*
X28269609Y36646461D01*
X28330801Y36551366D01*
X28424168Y36487571D01*
X28535000Y36465127D01*
X28854400Y36465127D01*
X28854400Y36412500D01*
X28881468Y36276417D01*
X28958553Y36161053D01*
X29946600Y35173006D01*
X29946600Y23215600D01*
X28981400Y23215600D01*
X28981400Y23837792D01*
X28981763Y23837942D01*
X29500237Y24355512D01*
X29781180Y25032096D01*
X29781819Y25764690D01*
X29502058Y26441763D01*
X28984488Y26960237D01*
X28307904Y27241180D01*
X27575310Y27241819D01*
X26898237Y26962058D01*
X26379763Y26444488D01*
X26098820Y25767904D01*
X26098181Y25035310D01*
X26377942Y24358237D01*
X26895512Y23839763D01*
X26898600Y23838481D01*
X26898600Y21882208D01*
X26898237Y21882058D01*
X26379763Y21364488D01*
X26098820Y20687904D01*
X26098181Y19955310D01*
X26377942Y19278237D01*
X26895512Y18759763D01*
X27572096Y18478820D01*
X28304690Y18478181D01*
X28981763Y18757942D01*
X29500237Y19275512D01*
X29781180Y19952096D01*
X29781819Y20684690D01*
X29502058Y21361763D01*
X28984488Y21880237D01*
X28981400Y21881519D01*
X28981400Y22504400D01*
X29946600Y22504400D01*
X29946600Y11915009D01*
X29228553Y11196962D01*
X29220946Y11185578D01*
X29137751Y11310089D01*
X28835972Y11511731D01*
X28480000Y11582538D01*
X28124028Y11511731D01*
X27822249Y11310089D01*
X27620607Y11008310D01*
X27549800Y10652338D01*
X27549800Y10187662D01*
X27620607Y9831690D01*
X27804780Y9556055D01*
X27710983Y9620144D01*
X27580000Y9646669D01*
X27215766Y9646669D01*
X27339393Y9831690D01*
X27410200Y10187662D01*
X27410200Y10652338D01*
X27339393Y11008310D01*
X27137751Y11310089D01*
X26835972Y11511731D01*
X26480000Y11582538D01*
X26124028Y11511731D01*
X25822249Y11310089D01*
X25620607Y11008310D01*
X25549800Y10652338D01*
X25549800Y10187662D01*
X25587544Y9997907D01*
X25447499Y10207499D01*
X25134366Y10416729D01*
X24765000Y10490200D01*
X23894799Y10490200D01*
X14548277Y19836722D01*
X14591970Y19941947D01*
X14591981Y19955310D01*
X15938181Y19955310D01*
X16217942Y19278237D01*
X16735512Y18759763D01*
X17412096Y18478820D01*
X18144690Y18478181D01*
X18821763Y18757942D01*
X19340237Y19275512D01*
X19621180Y19952096D01*
X19621182Y19955310D01*
X21018181Y19955310D01*
X21297942Y19278237D01*
X21815512Y18759763D01*
X22492096Y18478820D01*
X23224690Y18478181D01*
X23901763Y18757942D01*
X24420237Y19275512D01*
X24701180Y19952096D01*
X24701819Y20684690D01*
X24422058Y21361763D01*
X23904488Y21880237D01*
X23227904Y22161180D01*
X22495310Y22161819D01*
X21818237Y21882058D01*
X21299763Y21364488D01*
X21018820Y20687904D01*
X21018181Y19955310D01*
X19621182Y19955310D01*
X19621819Y20684690D01*
X19342058Y21361763D01*
X18824488Y21880237D01*
X18147904Y22161180D01*
X17415310Y22161819D01*
X16738237Y21882058D01*
X16219763Y21364488D01*
X15938820Y20687904D01*
X15938181Y19955310D01*
X14591981Y19955310D01*
X14592627Y20694750D01*
X14305149Y21390501D01*
X13792200Y21904346D01*
X13792200Y23816512D01*
X14303278Y24326699D01*
X14591970Y25021947D01*
X14591981Y25035310D01*
X15938181Y25035310D01*
X16217942Y24358237D01*
X16735512Y23839763D01*
X17412096Y23558820D01*
X18144690Y23558181D01*
X18821763Y23837942D01*
X19340237Y24355512D01*
X19621180Y25032096D01*
X19621182Y25035310D01*
X21018181Y25035310D01*
X21297942Y24358237D01*
X21815512Y23839763D01*
X22492096Y23558820D01*
X23224690Y23558181D01*
X23901763Y23837942D01*
X24420237Y24355512D01*
X24701180Y25032096D01*
X24701819Y25764690D01*
X24422058Y26441763D01*
X23904488Y26960237D01*
X23227904Y27241180D01*
X22495310Y27241819D01*
X21818237Y26962058D01*
X21299763Y26444488D01*
X21018820Y25767904D01*
X21018181Y25035310D01*
X19621182Y25035310D01*
X19621819Y25764690D01*
X19342058Y26441763D01*
X18824488Y26960237D01*
X18147904Y27241180D01*
X17415310Y27241819D01*
X16738237Y26962058D01*
X16219763Y26444488D01*
X15938820Y25767904D01*
X15938181Y25035310D01*
X14591981Y25035310D01*
X14592627Y25774750D01*
X14305149Y26470501D01*
X13773301Y27003278D01*
X13078053Y27291970D01*
X12325250Y27292627D01*
X12217070Y27247928D01*
X11125200Y28339798D01*
X11125200Y35864558D01*
X11362521Y35911764D01*
X11818400Y36216374D01*
X12123010Y36672253D01*
X12229974Y37210000D01*
X12123010Y37747747D01*
X11818400Y38203626D01*
X11362521Y38508236D01*
X10824774Y38615200D01*
X9495226Y38615200D01*
X8957479Y38508236D01*
X8501600Y38203626D01*
X8196990Y37747747D01*
X8090026Y37210000D01*
X711200Y37210000D01*
X711200Y38775000D01*
X18090127Y38775000D01*
X18090127Y36750000D01*
X18109609Y36646461D01*
X18170801Y36551366D01*
X18264168Y36487571D01*
X18375000Y36465127D01*
X19725000Y36465127D01*
X19828539Y36484609D01*
X19923634Y36545801D01*
X19987429Y36639168D01*
X20009873Y36750000D01*
X20009873Y38125310D01*
X20635600Y38125310D01*
X20635600Y37399690D01*
X20708249Y37034457D01*
X20915137Y36724827D01*
X21224767Y36517939D01*
X21590000Y36445290D01*
X21955233Y36517939D01*
X22264863Y36724827D01*
X22471751Y37034457D01*
X22544400Y37399690D01*
X22544400Y38125310D01*
X22471751Y38490543D01*
X22264863Y38800173D01*
X21955233Y39007061D01*
X21590000Y39079710D01*
X21224767Y39007061D01*
X20915137Y38800173D01*
X20708249Y38490543D01*
X20635600Y38125310D01*
X20009873Y38125310D01*
X20009873Y38775000D01*
X19990391Y38878539D01*
X19929199Y38973634D01*
X19835832Y39037429D01*
X19725000Y39059873D01*
X18375000Y39059873D01*
X18271461Y39040391D01*
X18176366Y38979199D01*
X18112571Y38885832D01*
X18090127Y38775000D01*
X711200Y38775000D01*
X711200Y41910000D01*
X8090026Y41910000D01*
X8196990Y41372253D01*
X8501600Y40916374D01*
X8957479Y40611764D01*
X9495226Y40504800D01*
X10824774Y40504800D01*
X11362521Y40611764D01*
X11818400Y40916374D01*
X12123010Y41372253D01*
X12229974Y41910000D01*
X12123010Y42447747D01*
X11818400Y42903626D01*
X11362521Y43208236D01*
X11125200Y43255442D01*
X11125200Y46420310D01*
X18095600Y46420310D01*
X18095600Y45694690D01*
X18168249Y45329457D01*
X18375137Y45019827D01*
X18684767Y44812939D01*
X19050000Y44740290D01*
X19415233Y44812939D01*
X19724863Y45019827D01*
X19931751Y45329457D01*
X20004400Y45694690D01*
X20004400Y46420310D01*
X20635600Y46420310D01*
X20635600Y45694690D01*
X20708249Y45329457D01*
X20915137Y45019827D01*
X21224767Y44812939D01*
X21590000Y44740290D01*
X21955233Y44812939D01*
X22264863Y45019827D01*
X22471751Y45329457D01*
X22544400Y45694690D01*
X22544400Y46420310D01*
X22471751Y46785543D01*
X22264863Y47095173D01*
X21955233Y47302061D01*
X21590000Y47374710D01*
X21224767Y47302061D01*
X20915137Y47095173D01*
X20708249Y46785543D01*
X20635600Y46420310D01*
X20004400Y46420310D01*
X19931751Y46785543D01*
X19724863Y47095173D01*
X19415233Y47302061D01*
X19050000Y47374710D01*
X18684767Y47302061D01*
X18375137Y47095173D01*
X18168249Y46785543D01*
X18095600Y46420310D01*
X11125200Y46420310D01*
X11125200Y55480202D01*
X12216722Y56571723D01*
X12321947Y56528030D01*
X13074750Y56527373D01*
X13770501Y56814851D01*
X14303278Y57346699D01*
X14591970Y58041947D01*
X14591981Y58055310D01*
X15938181Y58055310D01*
X16217942Y57378237D01*
X16735512Y56859763D01*
X17412096Y56578820D01*
X18144690Y56578181D01*
X18821763Y56857942D01*
X19340237Y57375512D01*
X19621180Y58052096D01*
X19621182Y58055310D01*
X21018181Y58055310D01*
X21297942Y57378237D01*
X21815512Y56859763D01*
X22492096Y56578820D01*
X23224690Y56578181D01*
X23901763Y56857942D01*
X24420237Y57375512D01*
X24701180Y58052096D01*
X24701819Y58784690D01*
X24422058Y59461763D01*
X23904488Y59980237D01*
X23227904Y60261180D01*
X22495310Y60261819D01*
X21818237Y59982058D01*
X21299763Y59464488D01*
X21018820Y58787904D01*
X21018181Y58055310D01*
X19621182Y58055310D01*
X19621819Y58784690D01*
X19342058Y59461763D01*
X18824488Y59980237D01*
X18147904Y60261180D01*
X17415310Y60261819D01*
X16738237Y59982058D01*
X16219763Y59464488D01*
X15938820Y58787904D01*
X15938181Y58055310D01*
X14591981Y58055310D01*
X14592627Y58794750D01*
X14305149Y59490501D01*
X13773301Y60023278D01*
X13665200Y60068165D01*
X13665200Y61851342D01*
X13770501Y61894851D01*
X14303278Y62426699D01*
X14591970Y63121947D01*
X14591981Y63135310D01*
X15938181Y63135310D01*
X16217942Y62458237D01*
X16735512Y61939763D01*
X17412096Y61658820D01*
X18144690Y61658181D01*
X18821763Y61937942D01*
X19340237Y62455512D01*
X19621180Y63132096D01*
X19621182Y63135310D01*
X21018181Y63135310D01*
X21297942Y62458237D01*
X21815512Y61939763D01*
X22492096Y61658820D01*
X23224690Y61658181D01*
X23901763Y61937942D01*
X24420237Y62455512D01*
X24701180Y63132096D01*
X24701182Y63135310D01*
X26098181Y63135310D01*
X26377942Y62458237D01*
X26895512Y61939763D01*
X26898600Y61938481D01*
X26898600Y59982208D01*
X26898237Y59982058D01*
X26379763Y59464488D01*
X26098820Y58787904D01*
X26098181Y58055310D01*
X26377942Y57378237D01*
X26895512Y56859763D01*
X27572096Y56578820D01*
X28304690Y56578181D01*
X28981763Y56857942D01*
X29500237Y57375512D01*
X29781180Y58052096D01*
X29781819Y58784690D01*
X29502058Y59461763D01*
X28984488Y59980237D01*
X28981400Y59981519D01*
X28981400Y60604400D01*
X29946600Y60604400D01*
X29946600Y48646994D01*
X28958553Y47658947D01*
X28881468Y47543583D01*
X28881468Y47543582D01*
X28854400Y47407500D01*
X28854400Y47303977D01*
X28844767Y47302061D01*
X28535137Y47095173D01*
X28328249Y46785543D01*
X28255600Y46420310D01*
X28255600Y45694690D01*
X28328249Y45329457D01*
X28535137Y45019827D01*
X28844767Y44812939D01*
X29210000Y44740290D01*
X29575233Y44812939D01*
X29884863Y45019827D01*
X30091751Y45329457D01*
X30164400Y45694690D01*
X30164400Y46420310D01*
X30091751Y46785543D01*
X29884863Y47095173D01*
X29594549Y47289155D01*
X30480000Y48174606D01*
X31365451Y47289155D01*
X31075137Y47095173D01*
X30868249Y46785543D01*
X30795600Y46420310D01*
X30795600Y45694690D01*
X30868249Y45329457D01*
X31075137Y45019827D01*
X31384767Y44812939D01*
X31750000Y44740290D01*
X32115233Y44812939D01*
X32424863Y45019827D01*
X32631751Y45329457D01*
X32704400Y45694690D01*
X32704400Y46420310D01*
X38415600Y46420310D01*
X38415600Y45694690D01*
X38488249Y45329457D01*
X38695137Y45019827D01*
X39004767Y44812939D01*
X39370000Y44740290D01*
X39735233Y44812939D01*
X40044863Y45019827D01*
X40251751Y45329457D01*
X40324400Y45694690D01*
X40324400Y46420310D01*
X40955600Y46420310D01*
X40955600Y45694690D01*
X41028249Y45329457D01*
X41235137Y45019827D01*
X41544767Y44812939D01*
X41910000Y44740290D01*
X42275233Y44812939D01*
X42584863Y45019827D01*
X42791751Y45329457D01*
X42864400Y45694690D01*
X42864400Y46420310D01*
X42791751Y46785543D01*
X42584863Y47095173D01*
X42275233Y47302061D01*
X41910000Y47374710D01*
X41544767Y47302061D01*
X41235137Y47095173D01*
X41028249Y46785543D01*
X40955600Y46420310D01*
X40324400Y46420310D01*
X40251751Y46785543D01*
X40044863Y47095173D01*
X39735233Y47302061D01*
X39370000Y47374710D01*
X39004767Y47302061D01*
X38695137Y47095173D01*
X38488249Y46785543D01*
X38415600Y46420310D01*
X32704400Y46420310D01*
X32631751Y46785543D01*
X32424863Y47095173D01*
X32115233Y47302061D01*
X32105600Y47303977D01*
X32105600Y47407500D01*
X32078532Y47543582D01*
X32078532Y47543583D01*
X32001447Y47658947D01*
X31013400Y48646994D01*
X31013400Y60604401D01*
X31978600Y60604400D01*
X31978600Y59982208D01*
X31978237Y59982058D01*
X31459763Y59464488D01*
X31178820Y58787904D01*
X31178181Y58055310D01*
X31457942Y57378237D01*
X31975512Y56859763D01*
X32652096Y56578820D01*
X33384690Y56578181D01*
X34061763Y56857942D01*
X34580237Y57375512D01*
X34861180Y58052096D01*
X34861182Y58055310D01*
X36258181Y58055310D01*
X36537942Y57378237D01*
X37055512Y56859763D01*
X37732096Y56578820D01*
X38464690Y56578181D01*
X39141763Y56857942D01*
X39660237Y57375512D01*
X39941180Y58052096D01*
X39941182Y58055310D01*
X41338181Y58055310D01*
X41617942Y57378237D01*
X42135512Y56859763D01*
X42812096Y56578820D01*
X43544690Y56578181D01*
X44221763Y56857942D01*
X44740237Y57375512D01*
X45021180Y58052096D01*
X45021819Y58784690D01*
X44742058Y59461763D01*
X44224488Y59980237D01*
X43547904Y60261180D01*
X42815310Y60261819D01*
X42138237Y59982058D01*
X41619763Y59464488D01*
X41338820Y58787904D01*
X41338181Y58055310D01*
X39941182Y58055310D01*
X39941819Y58784690D01*
X39662058Y59461763D01*
X39144488Y59980237D01*
X38467904Y60261180D01*
X37735310Y60261819D01*
X37058237Y59982058D01*
X36539763Y59464488D01*
X36258820Y58787904D01*
X36258181Y58055310D01*
X34861182Y58055310D01*
X34861819Y58784690D01*
X34582058Y59461763D01*
X34064488Y59980237D01*
X34061400Y59981519D01*
X34061400Y61937792D01*
X34061763Y61937942D01*
X34580237Y62455512D01*
X34861180Y63132096D01*
X34861182Y63135310D01*
X36258181Y63135310D01*
X36537942Y62458237D01*
X37055512Y61939763D01*
X37732096Y61658820D01*
X38464690Y61658181D01*
X39141763Y61937942D01*
X39660237Y62455512D01*
X39941180Y63132096D01*
X39941182Y63135310D01*
X41338181Y63135310D01*
X41617942Y62458237D01*
X42135512Y61939763D01*
X42812096Y61658820D01*
X43544690Y61658181D01*
X44221763Y61937942D01*
X44740237Y62455512D01*
X45021180Y63132096D01*
X45021819Y63864690D01*
X44742058Y64541763D01*
X44224488Y65060237D01*
X43547904Y65341180D01*
X42815310Y65341819D01*
X42138237Y65062058D01*
X41619763Y64544488D01*
X41338820Y63867904D01*
X41338181Y63135310D01*
X39941182Y63135310D01*
X39941819Y63864690D01*
X39662058Y64541763D01*
X39144488Y65060237D01*
X38467904Y65341180D01*
X37735310Y65341819D01*
X37058237Y65062058D01*
X36539763Y64544488D01*
X36258820Y63867904D01*
X36258181Y63135310D01*
X34861182Y63135310D01*
X34861819Y63864690D01*
X34582058Y64541763D01*
X34064488Y65060237D01*
X33387904Y65341180D01*
X32655310Y65341819D01*
X31978237Y65062058D01*
X31459763Y64544488D01*
X31178820Y63867904D01*
X31178181Y63135310D01*
X31457942Y62458237D01*
X31975512Y61939763D01*
X31978600Y61938481D01*
X31978600Y61315600D01*
X31013399Y61315601D01*
X31013399Y72611005D01*
X31731447Y73329053D01*
X31808532Y73444417D01*
X31835600Y73580500D01*
X31835600Y73605682D01*
X32007253Y73777035D01*
X32102192Y74005674D01*
X32102408Y74253240D01*
X32007868Y74482044D01*
X31832965Y74657253D01*
X31604326Y74752192D01*
X31356760Y74752408D01*
X31127956Y74657868D01*
X30952747Y74482965D01*
X30857808Y74254326D01*
X30857592Y74006760D01*
X30952132Y73777956D01*
X31063250Y73666644D01*
X30480000Y73083394D01*
X29896709Y73666685D01*
X30007253Y73777035D01*
X30102192Y74005674D01*
X30102408Y74253240D01*
X30007868Y74482044D01*
X29832965Y74657253D01*
X29604326Y74752192D01*
X29356760Y74752408D01*
X29127956Y74657868D01*
X28952747Y74482965D01*
X28857808Y74254326D01*
X28857592Y74006760D01*
X28952132Y73777956D01*
X29124400Y73605387D01*
X29124400Y73580500D01*
X29151468Y73444417D01*
X29228553Y73329053D01*
X29946601Y72611005D01*
X29946589Y61315600D01*
X28981400Y61315600D01*
X28981400Y61937792D01*
X28981763Y61937942D01*
X29500237Y62455512D01*
X29781180Y63132096D01*
X29781819Y63864690D01*
X29502058Y64541763D01*
X28984488Y65060237D01*
X28307904Y65341180D01*
X27575310Y65341819D01*
X26898237Y65062058D01*
X26379763Y64544488D01*
X26098820Y63867904D01*
X26098181Y63135310D01*
X24701182Y63135310D01*
X24701819Y63864690D01*
X24422058Y64541763D01*
X23904488Y65060237D01*
X23227904Y65341180D01*
X22495310Y65341819D01*
X21818237Y65062058D01*
X21299763Y64544488D01*
X21018820Y63867904D01*
X21018181Y63135310D01*
X19621182Y63135310D01*
X19621819Y63864690D01*
X19342058Y64541763D01*
X18824488Y65060237D01*
X18147904Y65341180D01*
X17415310Y65341819D01*
X16738237Y65062058D01*
X16219763Y64544488D01*
X15938820Y63867904D01*
X15938181Y63135310D01*
X14591981Y63135310D01*
X14592206Y63392208D01*
X27352500Y76152501D01*
X27561729Y76465634D01*
X27635200Y76835000D01*
X27635200Y78081094D01*
X27731210Y77984916D01*
X28054309Y77850753D01*
X28404156Y77850448D01*
X28727489Y77984047D01*
X28975084Y78231210D01*
X29109247Y78554309D01*
X29109248Y78555844D01*
X31850448Y78555844D01*
X31984047Y78232511D01*
X32231210Y77984916D01*
X32554309Y77850753D01*
X32904156Y77850448D01*
X33227489Y77984047D01*
X33324800Y78081188D01*
X33324800Y76835000D01*
X33398271Y76465634D01*
X33607501Y76152501D01*
X46367606Y63392395D01*
X46367373Y63125250D01*
X46654851Y62429499D01*
X47167800Y61915654D01*
X47167800Y60003488D01*
X46656722Y59493301D01*
X46368030Y58798053D01*
X46367373Y58045250D01*
X46654851Y57349499D01*
X47186699Y56816722D01*
X47881947Y56528030D01*
X48634750Y56527373D01*
X48742930Y56572072D01*
X49834800Y55480201D01*
X49834800Y43255442D01*
X49597479Y43208236D01*
X49141600Y42903626D01*
X48836990Y42447747D01*
X48730026Y41910000D01*
X48836990Y41372253D01*
X49141600Y40916374D01*
X49597479Y40611764D01*
X50135226Y40504800D01*
X51464774Y40504800D01*
X52002521Y40611764D01*
X52458400Y40916374D01*
X52763010Y41372253D01*
X52869974Y41910000D01*
X52763010Y42447747D01*
X52458400Y42903626D01*
X52002521Y43208236D01*
X51765200Y43255442D01*
X51765200Y55880000D01*
X51691729Y56249366D01*
X51691729Y56249367D01*
X51482499Y56562500D01*
X50151050Y57893949D01*
X54203600Y57893949D01*
X54234535Y57738427D01*
X54322632Y57606581D01*
X56118683Y55810530D01*
X56250529Y55722433D01*
X56406051Y55691498D01*
X56561574Y55722433D01*
X56693419Y55810530D01*
X58489470Y57606581D01*
X58516944Y57647698D01*
X58577567Y57738426D01*
X58608502Y57893949D01*
X58577567Y58049471D01*
X58577567Y58049472D01*
X58489470Y58181317D01*
X56693419Y59977368D01*
X56662733Y59997872D01*
X56561574Y60065465D01*
X56406051Y60096400D01*
X56250529Y60065465D01*
X56118683Y59977368D01*
X54322632Y58181317D01*
X54234535Y58049471D01*
X54203600Y57893949D01*
X50151050Y57893949D01*
X50108277Y57936722D01*
X50151970Y58041947D01*
X50152627Y58794750D01*
X49865149Y59490501D01*
X49352200Y60004346D01*
X49352200Y61916512D01*
X49863278Y62426699D01*
X50151970Y63121947D01*
X50152627Y63874750D01*
X49865149Y64570501D01*
X49333301Y65103278D01*
X48638053Y65391970D01*
X47885250Y65392627D01*
X47327733Y65162266D01*
X36025200Y76464798D01*
X36025200Y78425200D01*
X36634800Y78425200D01*
X36634800Y76420574D01*
X36805032Y76429184D01*
X36929909Y76449038D01*
X37278776Y76757091D01*
X37483200Y77175200D01*
X37483200Y78425200D01*
X36634800Y78425200D01*
X36025200Y78425200D01*
X35191509Y78425200D01*
X35181729Y78474366D01*
X34972499Y78787499D01*
X34659366Y78996729D01*
X34290000Y79070200D01*
X33920634Y78996729D01*
X33609451Y78788802D01*
X33609552Y78904156D01*
X33475953Y79227489D01*
X33228790Y79475084D01*
X32905691Y79609247D01*
X32555844Y79609552D01*
X32232511Y79475953D01*
X31984916Y79228790D01*
X31850753Y78905691D01*
X31850448Y78555844D01*
X29109248Y78555844D01*
X29109552Y78904156D01*
X28975953Y79227489D01*
X28728790Y79475084D01*
X28405691Y79609247D01*
X28055844Y79609552D01*
X27732511Y79475953D01*
X27484916Y79228790D01*
X27350753Y78905691D01*
X27350651Y78788734D01*
X27039366Y78996729D01*
X26670000Y79070200D01*
X26300634Y78996729D01*
X25987501Y78787499D01*
X25778271Y78474366D01*
X25768491Y78425200D01*
X24934800Y78425200D01*
X24934800Y76464799D01*
X13631967Y65161965D01*
X13078053Y65391970D01*
X12325250Y65392627D01*
X11629499Y65105149D01*
X11096722Y64573301D01*
X10808030Y63878053D01*
X10807373Y63125250D01*
X11094851Y62429499D01*
X11626699Y61896722D01*
X11734800Y61851835D01*
X11734800Y60068658D01*
X11629499Y60025149D01*
X11096722Y59493301D01*
X10808030Y58798053D01*
X10807373Y58045250D01*
X10852072Y57937070D01*
X9477501Y56562499D01*
X9268271Y56249366D01*
X9194800Y55880000D01*
X9194800Y43255442D01*
X8957479Y43208236D01*
X8501600Y42903626D01*
X8196990Y42447747D01*
X8090026Y41910000D01*
X711200Y41910000D01*
X711200Y57118436D01*
X22017964Y78425200D01*
X23476800Y78425200D01*
X23476800Y77175200D01*
X23681224Y76757091D01*
X24030091Y76449038D01*
X24154968Y76429184D01*
X24325200Y76420574D01*
X24325200Y78425200D01*
X23476800Y78425200D01*
X22017964Y78425200D01*
X23476800Y79884036D01*
X23476800Y79034800D01*
X24325200Y79034800D01*
X24325200Y79054800D01*
X24934800Y79054800D01*
X24934800Y79034800D01*
X25783200Y79034800D01*
X25783200Y80284800D01*
X25644345Y80568800D01*
X35315655Y80568800D01*
X35176800Y80284800D01*
M02*
