M48
;DRILL file {KiCad 4.0.1-stable} date 2016-02-23 23:33:39
;FORMAT={3:3/ absolute / metric / keep zeros}
FMAT,2
METRIC,TZ
T1C0.330
T2C0.381
T3C0.700
T4C0.750
T5C0.900
T6C1.550
T7C1.600
T8C2.300
T9C1.200
%
G90
G05
M71
T1
X029480Y074130
X031480Y074130
T2
X026670Y078105
X034290Y078105
T3
X026480Y010210
X026980Y008710
X028480Y010210
X029480Y008710
X030480Y010210
X031480Y008710
X032480Y010210
X033980Y008710
X034480Y010210
T4
X019050Y045720
X019050Y038100
X021590Y045720
X021590Y038100
X029210Y045720
X029210Y038100
X031750Y045720
X031750Y038100
X039370Y045720
X039370Y038100
X041910Y045720
X041910Y038100
T6
X010160Y041910
X010160Y037210
X050800Y041910
X050800Y037210
T7
X012700Y063500
X012700Y058420
X012700Y025400
X012700Y020320
X017780Y063500
X017780Y058420
X017780Y025400
X017780Y020320
X022860Y063500
X022860Y058420
X022860Y025400
X022860Y020320
X027940Y063500
X027940Y058420
X027940Y025400
X027940Y020320
X033020Y063500
X033020Y058420
X033020Y025400
X033020Y020320
X038100Y063500
X038100Y058420
X038100Y025400
X038100Y020320
X043180Y063500
X043180Y058420
X043180Y025400
X043180Y020320
X048260Y063500
X048260Y058420
X048260Y025400
X048260Y020320
T8
X023910Y006710
X037050Y006710
T9
X028230Y078730
X032730Y078730
T5
X024630Y077730G85X024630Y079730
G05
X036330Y077730G85X036330Y079730
G05
T0
M30
