%TF.GenerationSoftware,KiCad,Pcbnew,4.0.1-stable*%
%TF.CreationDate,2016-02-23T23:31:04-05:00*%
%TF.ProjectId,USB Breakout v3.0,55534220427265616B6F75742076332E,3.0.1*%
%TF.FileFunction,Copper,L1,Top,Signal*%
%FSLAX46Y46*%
G04 Gerber Fmt 4.6, Leading zero omitted, Abs format (unit mm)*
G04 Created by KiCad (PCBNEW 4.0.1-stable) date 2016-02-23 23:31:04*
%MOMM*%
G01*
G04 APERTURE LIST*
%ADD10C,0.025400*%
%ADD11C,0.254000*%
%ADD12O,3.400000X2.150000*%
%ADD13R,1.350000X2.025000*%
%ADD14O,1.350000X2.025000*%
%ADD15R,0.740000X2.780000*%
%ADD16O,0.740000X2.780000*%
%ADD17O,1.900000X4.400000*%
%ADD18R,1.200000X1.620000*%
%ADD19O,1.200000X1.620000*%
%ADD20C,3.800000*%
%ADD21C,3.124200*%
%ADD22C,0.787400*%
%ADD23C,0.685800*%
%ADD24C,0.381000*%
%ADD25C,0.152400*%
%ADD26C,1.524000*%
G04 APERTURE END LIST*
D10*
D11*
X54308520Y59965821D02*
X54039112Y60235229D01*
X53474639Y59670756D02*
X54552269Y60748386D01*
X54937138Y60363518D01*
X54731874Y58618783D02*
X54642072Y58605955D01*
X54475295Y58670099D01*
X54398321Y58747073D01*
X54334178Y58913849D01*
X54359835Y59093455D01*
X54423980Y59234573D01*
X54590756Y59478322D01*
X54744703Y59632270D01*
X54988453Y59799045D01*
X55129571Y59863191D01*
X55309177Y59888848D01*
X55475952Y59824703D01*
X55552926Y59747730D01*
X55617071Y59580954D01*
X55604243Y59491151D01*
X54610000Y61486051D02*
X56406051Y59690000D01*
X56406051Y59690000D02*
X54610000Y57893949D01*
X54610000Y57893949D02*
X52813949Y59690000D01*
X52813949Y59690000D02*
X54610000Y61486051D01*
D12*
X10160000Y41910000D03*
X10160000Y37210000D03*
X50800000Y41910000D03*
X50800000Y37210000D03*
D13*
X29210000Y37762500D03*
D14*
X31750000Y37762500D03*
X31750000Y46057500D03*
X29210000Y46057500D03*
D13*
X39370000Y37762500D03*
D14*
X41910000Y37762500D03*
X41910000Y46057500D03*
X39370000Y46057500D03*
D13*
X19050000Y37762500D03*
D14*
X21590000Y37762500D03*
X21590000Y46057500D03*
X19050000Y46057500D03*
D15*
X27480000Y75890000D03*
D16*
X29480000Y75890000D03*
X31480000Y75890000D03*
X33480000Y75890000D03*
X34480000Y75890000D03*
X32480000Y75890000D03*
X30480000Y75890000D03*
X28480000Y75890000D03*
X26480000Y75890000D03*
D17*
X24630000Y78730000D03*
X36330000Y78730000D03*
D18*
X26980000Y8500000D03*
D19*
X29480000Y8500000D03*
X31480000Y8500000D03*
X33980000Y8500000D03*
X34480000Y10420000D03*
X32480000Y10420000D03*
X30480000Y10420000D03*
X28480000Y10420000D03*
X26480000Y10420000D03*
D20*
X37050000Y6710000D03*
X23910000Y6710000D03*
D21*
X12700000Y20320000D03*
X12700000Y25400000D03*
X27940000Y20320000D03*
X27940000Y25400000D03*
X33020000Y20320000D03*
X33020000Y25400000D03*
X48260000Y20320000D03*
X48260000Y25400000D03*
X43180000Y20320000D03*
X43180000Y25400000D03*
X38100000Y20320000D03*
X38100000Y25400000D03*
X22860000Y20320000D03*
X22860000Y25400000D03*
X17780000Y20320000D03*
X17780000Y25400000D03*
X12700000Y58420000D03*
X12700000Y63500000D03*
X27940000Y58420000D03*
X27940000Y63500000D03*
X33020000Y58420000D03*
X33020000Y63500000D03*
X48260000Y58420000D03*
X48260000Y63500000D03*
X43180000Y58420000D03*
X43180000Y63500000D03*
X38100000Y58420000D03*
X38100000Y63500000D03*
X22860000Y58420000D03*
X22860000Y63500000D03*
X17780000Y58420000D03*
X17780000Y63500000D03*
D22*
X26670000Y78105000D03*
D23*
X29480000Y74130000D03*
X31480000Y74130000D03*
D22*
X34290000Y78105000D03*
D24*
X27480000Y77295000D02*
X26670000Y78105000D01*
X27480000Y75890000D02*
X27480000Y77295000D01*
D25*
X29480000Y75890000D02*
X29480000Y74130000D01*
X29480000Y75890000D02*
X29480000Y76910000D01*
X31480000Y75890000D02*
X31480000Y74130000D01*
X31480000Y75890000D02*
X31480000Y76910000D01*
D24*
X33480000Y77295000D02*
X34290000Y78105000D01*
X33480000Y75890000D02*
X33480000Y77295000D01*
D25*
X40817800Y60960000D02*
X40817800Y48499700D01*
X40817800Y65478646D02*
X40817800Y60960000D01*
D26*
X43180000Y58420000D02*
X43180000Y60960000D01*
X43180000Y60960000D02*
X43180000Y63500000D01*
D25*
X40817800Y60960000D02*
X43180000Y60960000D01*
X33657800Y72638646D02*
X40817800Y65478646D01*
X40817800Y48499700D02*
X41910000Y47407500D01*
X41910000Y47407500D02*
X41910000Y45720000D01*
X34480000Y75890000D02*
X34480000Y74130000D01*
X34480000Y74130000D02*
X33657800Y73307800D01*
X33657800Y73307800D02*
X33657800Y72638646D01*
X40462200Y60960000D02*
X40462200Y48499700D01*
X40462200Y65331354D02*
X40462200Y60960000D01*
D26*
X38100000Y60960000D02*
X38100000Y58420000D01*
X38100000Y63500000D02*
X38100000Y60960000D01*
D25*
X40462200Y60960000D02*
X38100000Y60960000D01*
X33302200Y72491354D02*
X40462200Y65331354D01*
X40462200Y48499700D02*
X39370000Y47407500D01*
X39370000Y47407500D02*
X39370000Y45720000D01*
X32480000Y75890000D02*
X32480000Y74130000D01*
X32480000Y74130000D02*
X33302200Y73307800D01*
X33302200Y73307800D02*
X33302200Y72491354D01*
X20497800Y60960000D02*
X20497800Y48499700D01*
D26*
X22860000Y60960000D02*
X22860000Y58420000D01*
D25*
X20497800Y65331354D02*
X20497800Y60960000D01*
D26*
X22860000Y63500000D02*
X22860000Y60960000D01*
D25*
X20497800Y60960000D02*
X22860000Y60960000D01*
X27657800Y72491354D02*
X20497800Y65331354D01*
X21590000Y47407500D02*
X21590000Y45720000D01*
X20497800Y48499700D02*
X21590000Y47407500D01*
X28480000Y74130000D02*
X27657800Y73307800D01*
X28480000Y75890000D02*
X28480000Y74130000D01*
X27657800Y73307800D02*
X27657800Y72491354D01*
X20142200Y60960000D02*
X20142200Y48499700D01*
X20142200Y65478646D02*
X20142200Y60960000D01*
X20142200Y60960000D02*
X17780000Y60960000D01*
D26*
X17780000Y63500000D02*
X17780000Y60960000D01*
X17780000Y60960000D02*
X17780000Y58420000D01*
D25*
X27302200Y72638646D02*
X20142200Y65478646D01*
X20142200Y48499700D02*
X19050000Y47407500D01*
X19050000Y47407500D02*
X19050000Y45720000D01*
X26480000Y75890000D02*
X26480000Y74130000D01*
X26480000Y74130000D02*
X27302200Y73307800D01*
X27302200Y73307800D02*
X27302200Y72638646D01*
X40817800Y22860000D02*
X40817800Y35489050D01*
X40817800Y18341354D02*
X40817800Y22860000D01*
D26*
X43180000Y20320000D02*
X43180000Y22860000D01*
X43180000Y22860000D02*
X43180000Y25400000D01*
D25*
X40817800Y22860000D02*
X43180000Y22860000D01*
X40817800Y35489050D02*
X41910000Y36581250D01*
X33657799Y11181353D02*
X40817800Y18341354D01*
X41910000Y36581250D02*
X41910000Y38100000D01*
X34480000Y10210000D02*
X33657799Y11032201D01*
X33657799Y11032201D02*
X33657799Y11181353D01*
X40462200Y22860000D02*
X40462200Y35489050D01*
X40462200Y18488646D02*
X40462200Y22860000D01*
D26*
X38100000Y25400000D02*
X38100000Y22860000D01*
X38100000Y22860000D02*
X38100000Y20320000D01*
D25*
X40462200Y22860000D02*
X38100000Y22860000D01*
X33302201Y11328647D02*
X40462200Y18488646D01*
X40462200Y35489050D02*
X39370000Y36581250D01*
X39370000Y36581250D02*
X39370000Y38100000D01*
X32480000Y10210000D02*
X33302201Y11032201D01*
X33302201Y11032201D02*
X33302201Y11328647D01*
X20497800Y22860000D02*
X20497800Y35489050D01*
X20497800Y18488646D02*
X20497800Y22860000D01*
D26*
X22860000Y20320000D02*
X22860000Y22860000D01*
X22860000Y22860000D02*
X22860000Y25400000D01*
D25*
X20497800Y22860000D02*
X22860000Y22860000D01*
X27657799Y11032201D02*
X27657799Y11328647D01*
X20497800Y35489050D02*
X21590000Y36581250D01*
X28480000Y10210000D02*
X27657799Y11032201D01*
X27657799Y11328647D02*
X20497800Y18488646D01*
X21590000Y36581250D02*
X21590000Y38100000D01*
X20142200Y22860000D02*
X20142200Y35489050D01*
X20142200Y18341354D02*
X20142200Y22860000D01*
D26*
X17780000Y25400000D02*
X17780000Y22860000D01*
X17780000Y22860000D02*
X17780000Y20320000D01*
D25*
X20142200Y22860000D02*
X17780000Y22860000D01*
X26480000Y10210000D02*
X27302201Y11032201D01*
X27302201Y11032201D02*
X27302201Y11181353D01*
X27302201Y11181353D02*
X20142200Y18341354D01*
X20142200Y35489050D02*
X19050000Y36581250D01*
X19050000Y36581250D02*
X19050000Y38100000D01*
G36*
X35194183Y80499045D02*
X35100600Y80028574D01*
X35100600Y77431426D01*
X35194183Y76960955D01*
X35460683Y76562109D01*
X35859529Y76295609D01*
X36330000Y76202026D01*
X36800471Y76295609D01*
X37199317Y76562109D01*
X37465817Y76960955D01*
X37559400Y77431426D01*
X37559400Y79807836D01*
X60248800Y57118436D01*
X60248800Y1936564D01*
X59023436Y711200D01*
X1936564Y711200D01*
X711200Y1936564D01*
X711200Y6278392D01*
X21730222Y6278392D01*
X22061317Y5477082D01*
X22673857Y4863472D01*
X23474589Y4530979D01*
X24341608Y4530222D01*
X25142918Y4861317D01*
X25756528Y5473857D01*
X26089021Y6274589D01*
X26089024Y6278392D01*
X34870222Y6278392D01*
X35201317Y5477082D01*
X35813857Y4863472D01*
X36614589Y4530979D01*
X37481608Y4530222D01*
X38282918Y4861317D01*
X38896528Y5473857D01*
X39229021Y6274589D01*
X39229778Y7141608D01*
X38898683Y7942918D01*
X38286143Y8556528D01*
X37485411Y8889021D01*
X36618392Y8889778D01*
X35817082Y8558683D01*
X35203472Y7946143D01*
X34870979Y7145411D01*
X34870222Y6278392D01*
X26089024Y6278392D01*
X26089778Y7141608D01*
X25758683Y7942918D01*
X25146143Y8556528D01*
X24345411Y8889021D01*
X23478392Y8889778D01*
X22677082Y8558683D01*
X22063472Y7946143D01*
X21730979Y7145411D01*
X21730222Y6278392D01*
X711200Y6278392D01*
X711200Y19945250D01*
X10807373Y19945250D01*
X11094851Y19249499D01*
X11626699Y18716722D01*
X12321947Y18428030D01*
X13074750Y18427373D01*
X13770501Y18714851D01*
X14303278Y19246699D01*
X14591970Y19941947D01*
X14592627Y20694750D01*
X14305149Y21390501D01*
X13773301Y21923278D01*
X13078053Y22211970D01*
X12325250Y22212627D01*
X11629499Y21925149D01*
X11096722Y21393301D01*
X10808030Y20698053D01*
X10807373Y19945250D01*
X711200Y19945250D01*
X711200Y25025250D01*
X10807373Y25025250D01*
X11094851Y24329499D01*
X11626699Y23796722D01*
X12321947Y23508030D01*
X13074750Y23507373D01*
X13770501Y23794851D01*
X14303278Y24326699D01*
X14591970Y25021947D01*
X14591981Y25035310D01*
X15938181Y25035310D01*
X16217942Y24358237D01*
X16735512Y23839763D01*
X16738600Y23838481D01*
X16738600Y21882208D01*
X16738237Y21882058D01*
X16219763Y21364488D01*
X15938820Y20687904D01*
X15938181Y19955310D01*
X16217942Y19278237D01*
X16735512Y18759763D01*
X17412096Y18478820D01*
X18144690Y18478181D01*
X18821763Y18757942D01*
X19340237Y19275512D01*
X19621180Y19952096D01*
X19621819Y20684690D01*
X19342058Y21361763D01*
X18824488Y21880237D01*
X18821400Y21881519D01*
X18821400Y22504400D01*
X19786600Y22504400D01*
X19786600Y18341354D01*
X19813668Y18205271D01*
X19890753Y18089907D01*
X26411706Y11568953D01*
X26124028Y11511731D01*
X25822249Y11310089D01*
X25620607Y11008310D01*
X25549800Y10652338D01*
X25549800Y10187662D01*
X25620607Y9831690D01*
X25822249Y9529911D01*
X26056207Y9373585D01*
X26043331Y9310000D01*
X26043331Y7690000D01*
X26066356Y7567635D01*
X26138673Y7455251D01*
X26249017Y7379856D01*
X26380000Y7353331D01*
X27580000Y7353331D01*
X27702365Y7376356D01*
X27814749Y7448673D01*
X27890144Y7559017D01*
X27916669Y7690000D01*
X27916669Y9310000D01*
X27893644Y9432365D01*
X27837381Y9519800D01*
X28124028Y9328269D01*
X28480000Y9257462D01*
X28772507Y9315645D01*
X28620607Y9088310D01*
X28549800Y8732338D01*
X28549800Y8267662D01*
X28620607Y7911690D01*
X28822249Y7609911D01*
X29124028Y7408269D01*
X29480000Y7337462D01*
X29835972Y7408269D01*
X30137751Y7609911D01*
X30339393Y7911690D01*
X30410200Y8267662D01*
X30410200Y8732338D01*
X30549800Y8732338D01*
X30549800Y8267662D01*
X30620607Y7911690D01*
X30822249Y7609911D01*
X31124028Y7408269D01*
X31480000Y7337462D01*
X31835972Y7408269D01*
X32137751Y7609911D01*
X32339393Y7911690D01*
X32410200Y8267662D01*
X32410200Y8732338D01*
X32339393Y9088310D01*
X32187493Y9315645D01*
X32480000Y9257462D01*
X32835972Y9328269D01*
X33137751Y9529911D01*
X33339393Y9831690D01*
X33410200Y10187662D01*
X33410200Y10637306D01*
X33480000Y10707106D01*
X33549800Y10637306D01*
X33549800Y10187662D01*
X33620607Y9831690D01*
X33762534Y9619281D01*
X33624028Y9591731D01*
X33322249Y9390089D01*
X33120607Y9088310D01*
X33049800Y8732338D01*
X33049800Y8267662D01*
X33120607Y7911690D01*
X33322249Y7609911D01*
X33624028Y7408269D01*
X33980000Y7337462D01*
X34335972Y7408269D01*
X34637751Y7609911D01*
X34839393Y7911690D01*
X34910200Y8267662D01*
X34910200Y8732338D01*
X34839393Y9088310D01*
X34697466Y9300719D01*
X34835972Y9328269D01*
X35137751Y9529911D01*
X35339393Y9831690D01*
X35410200Y10187662D01*
X35410200Y10652338D01*
X35339393Y11008310D01*
X35137751Y11310089D01*
X34835972Y11511731D01*
X34548294Y11568954D01*
X41069248Y18089907D01*
X41146332Y18205272D01*
X41173400Y18341354D01*
X41173400Y22504400D01*
X42138600Y22504400D01*
X42138600Y21882208D01*
X42138237Y21882058D01*
X41619763Y21364488D01*
X41338820Y20687904D01*
X41338181Y19955310D01*
X41617942Y19278237D01*
X42135512Y18759763D01*
X42812096Y18478820D01*
X43544690Y18478181D01*
X44221763Y18757942D01*
X44740237Y19275512D01*
X45018337Y19945250D01*
X46367373Y19945250D01*
X46654851Y19249499D01*
X47186699Y18716722D01*
X47881947Y18428030D01*
X48634750Y18427373D01*
X49330501Y18714851D01*
X49863278Y19246699D01*
X50151970Y19941947D01*
X50152627Y20694750D01*
X49865149Y21390501D01*
X49333301Y21923278D01*
X48638053Y22211970D01*
X47885250Y22212627D01*
X47189499Y21925149D01*
X46656722Y21393301D01*
X46368030Y20698053D01*
X46367373Y19945250D01*
X45018337Y19945250D01*
X45021180Y19952096D01*
X45021819Y20684690D01*
X44742058Y21361763D01*
X44224488Y21880237D01*
X44221400Y21881519D01*
X44221400Y23837792D01*
X44221763Y23837942D01*
X44740237Y24355512D01*
X45018337Y25025250D01*
X46367373Y25025250D01*
X46654851Y24329499D01*
X47186699Y23796722D01*
X47881947Y23508030D01*
X48634750Y23507373D01*
X49330501Y23794851D01*
X49863278Y24326699D01*
X50151970Y25021947D01*
X50152627Y25774750D01*
X49865149Y26470501D01*
X49333301Y27003278D01*
X48638053Y27291970D01*
X47885250Y27292627D01*
X47189499Y27005149D01*
X46656722Y26473301D01*
X46368030Y25778053D01*
X46367373Y25025250D01*
X45018337Y25025250D01*
X45021180Y25032096D01*
X45021819Y25764690D01*
X44742058Y26441763D01*
X44224488Y26960237D01*
X43547904Y27241180D01*
X42815310Y27241819D01*
X42138237Y26962058D01*
X41619763Y26444488D01*
X41338820Y25767904D01*
X41338181Y25035310D01*
X41617942Y24358237D01*
X42135512Y23839763D01*
X42138600Y23838481D01*
X42138600Y23215600D01*
X41173400Y23215600D01*
X41173400Y35341756D01*
X42161447Y36329803D01*
X42238532Y36445167D01*
X42252091Y36513336D01*
X42275233Y36517939D01*
X42584863Y36724827D01*
X42791751Y37034457D01*
X42826668Y37210000D01*
X48730026Y37210000D01*
X48836990Y36672253D01*
X49141600Y36216374D01*
X49597479Y35911764D01*
X50135226Y35804800D01*
X51464774Y35804800D01*
X52002521Y35911764D01*
X52458400Y36216374D01*
X52763010Y36672253D01*
X52869974Y37210000D01*
X52763010Y37747747D01*
X52458400Y38203626D01*
X52002521Y38508236D01*
X51464774Y38615200D01*
X50135226Y38615200D01*
X49597479Y38508236D01*
X49141600Y38203626D01*
X48836990Y37747747D01*
X48730026Y37210000D01*
X42826668Y37210000D01*
X42864400Y37399690D01*
X42864400Y38125310D01*
X42791751Y38490543D01*
X42584863Y38800173D01*
X42275233Y39007061D01*
X41910000Y39079710D01*
X41544767Y39007061D01*
X41235137Y38800173D01*
X41028249Y38490543D01*
X40955600Y38125310D01*
X40955600Y37399690D01*
X41028249Y37034457D01*
X41235137Y36724827D01*
X41424293Y36598437D01*
X40640000Y35814144D01*
X39989017Y36465127D01*
X40045000Y36465127D01*
X40148539Y36484609D01*
X40243634Y36545801D01*
X40307429Y36639168D01*
X40329873Y36750000D01*
X40329873Y38775000D01*
X40310391Y38878539D01*
X40249199Y38973634D01*
X40155832Y39037429D01*
X40045000Y39059873D01*
X38695000Y39059873D01*
X38591461Y39040391D01*
X38496366Y38979199D01*
X38432571Y38885832D01*
X38410127Y38775000D01*
X38410127Y36750000D01*
X38429609Y36646461D01*
X38490801Y36551366D01*
X38584168Y36487571D01*
X38695000Y36465127D01*
X39037498Y36465127D01*
X39041468Y36445167D01*
X39118553Y36329803D01*
X40106600Y35341756D01*
X40106600Y23215600D01*
X39141400Y23215600D01*
X39141400Y23837792D01*
X39141763Y23837942D01*
X39660237Y24355512D01*
X39941180Y25032096D01*
X39941819Y25764690D01*
X39662058Y26441763D01*
X39144488Y26960237D01*
X38467904Y27241180D01*
X37735310Y27241819D01*
X37058237Y26962058D01*
X36539763Y26444488D01*
X36258820Y25767904D01*
X36258181Y25035310D01*
X36537942Y24358237D01*
X37055512Y23839763D01*
X37058600Y23838481D01*
X37058600Y21882208D01*
X37058237Y21882058D01*
X36539763Y21364488D01*
X36258820Y20687904D01*
X36258181Y19955310D01*
X36537942Y19278237D01*
X37055512Y18759763D01*
X37732096Y18478820D01*
X38464690Y18478181D01*
X39141763Y18757942D01*
X39660237Y19275512D01*
X39941180Y19952096D01*
X39941819Y20684690D01*
X39662058Y21361763D01*
X39144488Y21880237D01*
X39141400Y21881519D01*
X39141400Y22504400D01*
X40106600Y22504400D01*
X40106600Y18635940D01*
X33050754Y11580094D01*
X32973669Y11464730D01*
X32973669Y11464729D01*
X32965767Y11425005D01*
X32835972Y11511731D01*
X32480000Y11582538D01*
X32124028Y11511731D01*
X31822249Y11310089D01*
X31620607Y11008310D01*
X31549800Y10652338D01*
X31549800Y10187662D01*
X31620607Y9831690D01*
X31772507Y9604355D01*
X31480000Y9662538D01*
X31124028Y9591731D01*
X30822249Y9390089D01*
X30620607Y9088310D01*
X30549800Y8732338D01*
X30410200Y8732338D01*
X30339393Y9088310D01*
X30137751Y9390089D01*
X29835972Y9591731D01*
X29480000Y9662538D01*
X29187493Y9604355D01*
X29339393Y9831690D01*
X29371591Y9993563D01*
X29719475Y9993563D01*
X29860193Y9718998D01*
X30067139Y9521032D01*
X30180000Y9519996D01*
X30180000Y10115200D01*
X30780000Y10115200D01*
X30780000Y9519996D01*
X30892861Y9521032D01*
X31099807Y9718998D01*
X31240525Y9993563D01*
X31214220Y10115200D01*
X30780000Y10115200D01*
X30180000Y10115200D01*
X29745780Y10115200D01*
X29719475Y9993563D01*
X29371591Y9993563D01*
X29410200Y10187662D01*
X29410200Y10652338D01*
X29371592Y10846437D01*
X29719475Y10846437D01*
X29745780Y10724800D01*
X30180000Y10724800D01*
X30780000Y10724800D01*
X31214220Y10724800D01*
X31240525Y10846437D01*
X31099807Y11121002D01*
X30892861Y11318968D01*
X30780000Y11320004D01*
X30780000Y10724800D01*
X30180000Y10724800D01*
X30180000Y11320004D01*
X30067139Y11318968D01*
X29860193Y11121002D01*
X29719475Y10846437D01*
X29371592Y10846437D01*
X29339393Y11008310D01*
X29137751Y11310089D01*
X28835972Y11511731D01*
X28480000Y11582538D01*
X28124028Y11511731D01*
X27994233Y11425005D01*
X27986331Y11464729D01*
X27909246Y11580094D01*
X20853400Y18635940D01*
X20853400Y22504400D01*
X21818600Y22504400D01*
X21818600Y21882208D01*
X21818237Y21882058D01*
X21299763Y21364488D01*
X21018820Y20687904D01*
X21018181Y19955310D01*
X21297942Y19278237D01*
X21815512Y18759763D01*
X22492096Y18478820D01*
X23224690Y18478181D01*
X23901763Y18757942D01*
X24420237Y19275512D01*
X24701180Y19952096D01*
X24701182Y19955310D01*
X26098181Y19955310D01*
X26377942Y19278237D01*
X26895512Y18759763D01*
X27572096Y18478820D01*
X28304690Y18478181D01*
X28981763Y18757942D01*
X29500237Y19275512D01*
X29781180Y19952096D01*
X29781182Y19955310D01*
X31178181Y19955310D01*
X31457942Y19278237D01*
X31975512Y18759763D01*
X32652096Y18478820D01*
X33384690Y18478181D01*
X34061763Y18757942D01*
X34580237Y19275512D01*
X34861180Y19952096D01*
X34861819Y20684690D01*
X34582058Y21361763D01*
X34064488Y21880237D01*
X33387904Y22161180D01*
X32655310Y22161819D01*
X31978237Y21882058D01*
X31459763Y21364488D01*
X31178820Y20687904D01*
X31178181Y19955310D01*
X29781182Y19955310D01*
X29781819Y20684690D01*
X29502058Y21361763D01*
X28984488Y21880237D01*
X28307904Y22161180D01*
X27575310Y22161819D01*
X26898237Y21882058D01*
X26379763Y21364488D01*
X26098820Y20687904D01*
X26098181Y19955310D01*
X24701182Y19955310D01*
X24701819Y20684690D01*
X24422058Y21361763D01*
X23904488Y21880237D01*
X23901400Y21881519D01*
X23901400Y23837792D01*
X23901763Y23837942D01*
X24420237Y24355512D01*
X24701180Y25032096D01*
X24701182Y25035310D01*
X26098181Y25035310D01*
X26377942Y24358237D01*
X26895512Y23839763D01*
X27572096Y23558820D01*
X28304690Y23558181D01*
X28981763Y23837942D01*
X29500237Y24355512D01*
X29781180Y25032096D01*
X29781182Y25035310D01*
X31178181Y25035310D01*
X31457942Y24358237D01*
X31975512Y23839763D01*
X32652096Y23558820D01*
X33384690Y23558181D01*
X34061763Y23837942D01*
X34580237Y24355512D01*
X34861180Y25032096D01*
X34861819Y25764690D01*
X34582058Y26441763D01*
X34064488Y26960237D01*
X33387904Y27241180D01*
X32655310Y27241819D01*
X31978237Y26962058D01*
X31459763Y26444488D01*
X31178820Y25767904D01*
X31178181Y25035310D01*
X29781182Y25035310D01*
X29781819Y25764690D01*
X29502058Y26441763D01*
X28984488Y26960237D01*
X28307904Y27241180D01*
X27575310Y27241819D01*
X26898237Y26962058D01*
X26379763Y26444488D01*
X26098820Y25767904D01*
X26098181Y25035310D01*
X24701182Y25035310D01*
X24701819Y25764690D01*
X24422058Y26441763D01*
X23904488Y26960237D01*
X23227904Y27241180D01*
X22495310Y27241819D01*
X21818237Y26962058D01*
X21299763Y26444488D01*
X21018820Y25767904D01*
X21018181Y25035310D01*
X21297942Y24358237D01*
X21815512Y23839763D01*
X21818600Y23838481D01*
X21818600Y23215600D01*
X20853400Y23215600D01*
X20853400Y35341756D01*
X21841447Y36329803D01*
X21918532Y36445167D01*
X21932091Y36513336D01*
X21955233Y36517939D01*
X22264863Y36724827D01*
X22471751Y37034457D01*
X22544400Y37399690D01*
X22544400Y38125310D01*
X22471751Y38490543D01*
X22281684Y38775000D01*
X28250127Y38775000D01*
X28250127Y36750000D01*
X28269609Y36646461D01*
X28330801Y36551366D01*
X28424168Y36487571D01*
X28535000Y36465127D01*
X29885000Y36465127D01*
X29988539Y36484609D01*
X30083634Y36545801D01*
X30147429Y36639168D01*
X30169873Y36750000D01*
X30169873Y38125310D01*
X30795600Y38125310D01*
X30795600Y37399690D01*
X30868249Y37034457D01*
X31075137Y36724827D01*
X31384767Y36517939D01*
X31750000Y36445290D01*
X32115233Y36517939D01*
X32424863Y36724827D01*
X32631751Y37034457D01*
X32704400Y37399690D01*
X32704400Y38125310D01*
X32631751Y38490543D01*
X32424863Y38800173D01*
X32115233Y39007061D01*
X31750000Y39079710D01*
X31384767Y39007061D01*
X31075137Y38800173D01*
X30868249Y38490543D01*
X30795600Y38125310D01*
X30169873Y38125310D01*
X30169873Y38775000D01*
X30150391Y38878539D01*
X30089199Y38973634D01*
X29995832Y39037429D01*
X29885000Y39059873D01*
X28535000Y39059873D01*
X28431461Y39040391D01*
X28336366Y38979199D01*
X28272571Y38885832D01*
X28250127Y38775000D01*
X22281684Y38775000D01*
X22264863Y38800173D01*
X21955233Y39007061D01*
X21590000Y39079710D01*
X21224767Y39007061D01*
X20915137Y38800173D01*
X20708249Y38490543D01*
X20635600Y38125310D01*
X20635600Y37399690D01*
X20708249Y37034457D01*
X20915137Y36724827D01*
X21104293Y36598437D01*
X20320000Y35814144D01*
X19669017Y36465127D01*
X19725000Y36465127D01*
X19828539Y36484609D01*
X19923634Y36545801D01*
X19987429Y36639168D01*
X20009873Y36750000D01*
X20009873Y38775000D01*
X19990391Y38878539D01*
X19929199Y38973634D01*
X19835832Y39037429D01*
X19725000Y39059873D01*
X18375000Y39059873D01*
X18271461Y39040391D01*
X18176366Y38979199D01*
X18112571Y38885832D01*
X18090127Y38775000D01*
X18090127Y36750000D01*
X18109609Y36646461D01*
X18170801Y36551366D01*
X18264168Y36487571D01*
X18375000Y36465127D01*
X18717498Y36465127D01*
X18721468Y36445167D01*
X18798553Y36329803D01*
X19786600Y35341756D01*
X19786600Y23215600D01*
X18821400Y23215600D01*
X18821400Y23837792D01*
X18821763Y23837942D01*
X19340237Y24355512D01*
X19621180Y25032096D01*
X19621819Y25764690D01*
X19342058Y26441763D01*
X18824488Y26960237D01*
X18147904Y27241180D01*
X17415310Y27241819D01*
X16738237Y26962058D01*
X16219763Y26444488D01*
X15938820Y25767904D01*
X15938181Y25035310D01*
X14591981Y25035310D01*
X14592627Y25774750D01*
X14305149Y26470501D01*
X13773301Y27003278D01*
X13078053Y27291970D01*
X12325250Y27292627D01*
X11629499Y27005149D01*
X11096722Y26473301D01*
X10808030Y25778053D01*
X10807373Y25025250D01*
X711200Y25025250D01*
X711200Y37210000D01*
X8090026Y37210000D01*
X8196990Y36672253D01*
X8501600Y36216374D01*
X8957479Y35911764D01*
X9495226Y35804800D01*
X10824774Y35804800D01*
X11362521Y35911764D01*
X11818400Y36216374D01*
X12123010Y36672253D01*
X12229974Y37210000D01*
X12123010Y37747747D01*
X11818400Y38203626D01*
X11362521Y38508236D01*
X10824774Y38615200D01*
X9495226Y38615200D01*
X8957479Y38508236D01*
X8501600Y38203626D01*
X8196990Y37747747D01*
X8090026Y37210000D01*
X711200Y37210000D01*
X711200Y41910000D01*
X8090026Y41910000D01*
X8196990Y41372253D01*
X8501600Y40916374D01*
X8957479Y40611764D01*
X9495226Y40504800D01*
X10824774Y40504800D01*
X11362521Y40611764D01*
X11818400Y40916374D01*
X12123010Y41372253D01*
X12229974Y41910000D01*
X48730026Y41910000D01*
X48836990Y41372253D01*
X49141600Y40916374D01*
X49597479Y40611764D01*
X50135226Y40504800D01*
X51464774Y40504800D01*
X52002521Y40611764D01*
X52458400Y40916374D01*
X52763010Y41372253D01*
X52869974Y41910000D01*
X52763010Y42447747D01*
X52458400Y42903626D01*
X52002521Y43208236D01*
X51464774Y43315200D01*
X50135226Y43315200D01*
X49597479Y43208236D01*
X49141600Y42903626D01*
X48836990Y42447747D01*
X48730026Y41910000D01*
X12229974Y41910000D01*
X12123010Y42447747D01*
X11818400Y42903626D01*
X11362521Y43208236D01*
X10824774Y43315200D01*
X9495226Y43315200D01*
X8957479Y43208236D01*
X8501600Y42903626D01*
X8196990Y42447747D01*
X8090026Y41910000D01*
X711200Y41910000D01*
X711200Y57118436D01*
X1638014Y58045250D01*
X10807373Y58045250D01*
X11094851Y57349499D01*
X11626699Y56816722D01*
X12321947Y56528030D01*
X13074750Y56527373D01*
X13770501Y56814851D01*
X14303278Y57346699D01*
X14591970Y58041947D01*
X14592627Y58794750D01*
X14305149Y59490501D01*
X13773301Y60023278D01*
X13078053Y60311970D01*
X12325250Y60312627D01*
X11629499Y60025149D01*
X11096722Y59493301D01*
X10808030Y58798053D01*
X10807373Y58045250D01*
X1638014Y58045250D01*
X6718014Y63125250D01*
X10807373Y63125250D01*
X11094851Y62429499D01*
X11626699Y61896722D01*
X12321947Y61608030D01*
X13074750Y61607373D01*
X13770501Y61894851D01*
X14303278Y62426699D01*
X14591970Y63121947D01*
X14591981Y63135310D01*
X15938181Y63135310D01*
X16217942Y62458237D01*
X16735512Y61939763D01*
X16738600Y61938481D01*
X16738600Y59982208D01*
X16738237Y59982058D01*
X16219763Y59464488D01*
X15938820Y58787904D01*
X15938181Y58055310D01*
X16217942Y57378237D01*
X16735512Y56859763D01*
X17412096Y56578820D01*
X18144690Y56578181D01*
X18821763Y56857942D01*
X19340237Y57375512D01*
X19621180Y58052096D01*
X19621819Y58784690D01*
X19342058Y59461763D01*
X18824488Y59980237D01*
X18821400Y59981519D01*
X18821400Y60604400D01*
X19786600Y60604400D01*
X19786600Y48646994D01*
X18798553Y47658947D01*
X18721468Y47543583D01*
X18721468Y47543582D01*
X18694400Y47407500D01*
X18694400Y47303977D01*
X18684767Y47302061D01*
X18375137Y47095173D01*
X18168249Y46785543D01*
X18095600Y46420310D01*
X18095600Y45694690D01*
X18168249Y45329457D01*
X18375137Y45019827D01*
X18684767Y44812939D01*
X19050000Y44740290D01*
X19415233Y44812939D01*
X19724863Y45019827D01*
X19931751Y45329457D01*
X20004400Y45694690D01*
X20004400Y46420310D01*
X19931751Y46785543D01*
X19724863Y47095173D01*
X19434549Y47289155D01*
X20320000Y48174606D01*
X21205451Y47289155D01*
X20915137Y47095173D01*
X20708249Y46785543D01*
X20635600Y46420310D01*
X20635600Y45694690D01*
X20708249Y45329457D01*
X20915137Y45019827D01*
X21224767Y44812939D01*
X21590000Y44740290D01*
X21955233Y44812939D01*
X22264863Y45019827D01*
X22471751Y45329457D01*
X22544400Y45694690D01*
X22544400Y46420310D01*
X28255600Y46420310D01*
X28255600Y45694690D01*
X28328249Y45329457D01*
X28535137Y45019827D01*
X28844767Y44812939D01*
X29210000Y44740290D01*
X29575233Y44812939D01*
X29884863Y45019827D01*
X30091751Y45329457D01*
X30164400Y45694690D01*
X30164400Y46420310D01*
X30795600Y46420310D01*
X30795600Y45694690D01*
X30868249Y45329457D01*
X31075137Y45019827D01*
X31384767Y44812939D01*
X31750000Y44740290D01*
X32115233Y44812939D01*
X32424863Y45019827D01*
X32631751Y45329457D01*
X32704400Y45694690D01*
X32704400Y46420310D01*
X32631751Y46785543D01*
X32424863Y47095173D01*
X32115233Y47302061D01*
X31750000Y47374710D01*
X31384767Y47302061D01*
X31075137Y47095173D01*
X30868249Y46785543D01*
X30795600Y46420310D01*
X30164400Y46420310D01*
X30091751Y46785543D01*
X29884863Y47095173D01*
X29575233Y47302061D01*
X29210000Y47374710D01*
X28844767Y47302061D01*
X28535137Y47095173D01*
X28328249Y46785543D01*
X28255600Y46420310D01*
X22544400Y46420310D01*
X22471751Y46785543D01*
X22264863Y47095173D01*
X21955233Y47302061D01*
X21945600Y47303977D01*
X21945600Y47407500D01*
X21918532Y47543582D01*
X21918532Y47543583D01*
X21841447Y47658947D01*
X20853400Y48646994D01*
X20853400Y60604400D01*
X21818600Y60604400D01*
X21818600Y59982208D01*
X21818237Y59982058D01*
X21299763Y59464488D01*
X21018820Y58787904D01*
X21018181Y58055310D01*
X21297942Y57378237D01*
X21815512Y56859763D01*
X22492096Y56578820D01*
X23224690Y56578181D01*
X23901763Y56857942D01*
X24420237Y57375512D01*
X24701180Y58052096D01*
X24701182Y58055310D01*
X26098181Y58055310D01*
X26377942Y57378237D01*
X26895512Y56859763D01*
X27572096Y56578820D01*
X28304690Y56578181D01*
X28981763Y56857942D01*
X29500237Y57375512D01*
X29781180Y58052096D01*
X29781182Y58055310D01*
X31178181Y58055310D01*
X31457942Y57378237D01*
X31975512Y56859763D01*
X32652096Y56578820D01*
X33384690Y56578181D01*
X34061763Y56857942D01*
X34580237Y57375512D01*
X34861180Y58052096D01*
X34861819Y58784690D01*
X34582058Y59461763D01*
X34064488Y59980237D01*
X33387904Y60261180D01*
X32655310Y60261819D01*
X31978237Y59982058D01*
X31459763Y59464488D01*
X31178820Y58787904D01*
X31178181Y58055310D01*
X29781182Y58055310D01*
X29781819Y58784690D01*
X29502058Y59461763D01*
X28984488Y59980237D01*
X28307904Y60261180D01*
X27575310Y60261819D01*
X26898237Y59982058D01*
X26379763Y59464488D01*
X26098820Y58787904D01*
X26098181Y58055310D01*
X24701182Y58055310D01*
X24701819Y58784690D01*
X24422058Y59461763D01*
X23904488Y59980237D01*
X23901400Y59981519D01*
X23901400Y61937792D01*
X23901763Y61937942D01*
X24420237Y62455512D01*
X24701180Y63132096D01*
X24701182Y63135310D01*
X26098181Y63135310D01*
X26377942Y62458237D01*
X26895512Y61939763D01*
X27572096Y61658820D01*
X28304690Y61658181D01*
X28981763Y61937942D01*
X29500237Y62455512D01*
X29781180Y63132096D01*
X29781182Y63135310D01*
X31178181Y63135310D01*
X31457942Y62458237D01*
X31975512Y61939763D01*
X32652096Y61658820D01*
X33384690Y61658181D01*
X34061763Y61937942D01*
X34580237Y62455512D01*
X34861180Y63132096D01*
X34861819Y63864690D01*
X34582058Y64541763D01*
X34064488Y65060237D01*
X33387904Y65341180D01*
X32655310Y65341819D01*
X31978237Y65062058D01*
X31459763Y64544488D01*
X31178820Y63867904D01*
X31178181Y63135310D01*
X29781182Y63135310D01*
X29781819Y63864690D01*
X29502058Y64541763D01*
X28984488Y65060237D01*
X28307904Y65341180D01*
X27575310Y65341819D01*
X26898237Y65062058D01*
X26379763Y64544488D01*
X26098820Y63867904D01*
X26098181Y63135310D01*
X24701182Y63135310D01*
X24701819Y63864690D01*
X24422058Y64541763D01*
X23904488Y65060237D01*
X23227904Y65341180D01*
X22495310Y65341819D01*
X21818237Y65062058D01*
X21299763Y64544488D01*
X21018820Y63867904D01*
X21018181Y63135310D01*
X21297942Y62458237D01*
X21815512Y61939763D01*
X21818600Y61938481D01*
X21818600Y61315600D01*
X20853400Y61315600D01*
X20853400Y65184060D01*
X27909247Y72239907D01*
X27986332Y72355271D01*
X28013400Y72491354D01*
X28013400Y73160506D01*
X28731447Y73878553D01*
X28808531Y73993917D01*
X28808532Y73993918D01*
X28835600Y74130000D01*
X28835600Y74247961D01*
X28862678Y74266054D01*
X28857808Y74254326D01*
X28857592Y74006760D01*
X28952132Y73777956D01*
X29127035Y73602747D01*
X29355674Y73507808D01*
X29603240Y73507592D01*
X29832044Y73602132D01*
X30007253Y73777035D01*
X30102192Y74005674D01*
X30102408Y74253240D01*
X30041753Y74400037D01*
X30067074Y74369047D01*
X30212408Y74363095D01*
X30295000Y74381454D01*
X30295000Y75585200D01*
X30180200Y75585200D01*
X30180200Y76194800D01*
X30295000Y76194800D01*
X30295000Y77398546D01*
X30665000Y77398546D01*
X30665000Y76194800D01*
X30779800Y76194800D01*
X30779800Y75585200D01*
X30665000Y75585200D01*
X30665000Y74381454D01*
X30747592Y74363095D01*
X30892926Y74369047D01*
X30918379Y74400198D01*
X30857808Y74254326D01*
X30857592Y74006760D01*
X30952132Y73777956D01*
X31127035Y73602747D01*
X31355674Y73507808D01*
X31603240Y73507592D01*
X31832044Y73602132D01*
X32007253Y73777035D01*
X32102192Y74005674D01*
X32102408Y74253240D01*
X32097034Y74266247D01*
X32124400Y74247961D01*
X32124400Y74130000D01*
X32151468Y73993917D01*
X32228553Y73878553D01*
X32946600Y73160506D01*
X32946600Y72491354D01*
X32973668Y72355271D01*
X33050753Y72239907D01*
X40106600Y65184060D01*
X40106600Y61315600D01*
X39141400Y61315600D01*
X39141400Y61937792D01*
X39141763Y61937942D01*
X39660237Y62455512D01*
X39941180Y63132096D01*
X39941819Y63864690D01*
X39662058Y64541763D01*
X39144488Y65060237D01*
X38467904Y65341180D01*
X37735310Y65341819D01*
X37058237Y65062058D01*
X36539763Y64544488D01*
X36258820Y63867904D01*
X36258181Y63135310D01*
X36537942Y62458237D01*
X37055512Y61939763D01*
X37058600Y61938481D01*
X37058600Y59982208D01*
X37058237Y59982058D01*
X36539763Y59464488D01*
X36258820Y58787904D01*
X36258181Y58055310D01*
X36537942Y57378237D01*
X37055512Y56859763D01*
X37732096Y56578820D01*
X38464690Y56578181D01*
X39141763Y56857942D01*
X39660237Y57375512D01*
X39941180Y58052096D01*
X39941819Y58784690D01*
X39662058Y59461763D01*
X39144488Y59980237D01*
X39141400Y59981519D01*
X39141400Y60604400D01*
X40106600Y60604400D01*
X40106600Y48646994D01*
X39118553Y47658947D01*
X39041468Y47543583D01*
X39041468Y47543582D01*
X39014400Y47407500D01*
X39014400Y47303977D01*
X39004767Y47302061D01*
X38695137Y47095173D01*
X38488249Y46785543D01*
X38415600Y46420310D01*
X38415600Y45694690D01*
X38488249Y45329457D01*
X38695137Y45019827D01*
X39004767Y44812939D01*
X39370000Y44740290D01*
X39735233Y44812939D01*
X40044863Y45019827D01*
X40251751Y45329457D01*
X40324400Y45694690D01*
X40324400Y46420310D01*
X40251751Y46785543D01*
X40044863Y47095173D01*
X39754549Y47289155D01*
X40640000Y48174606D01*
X41525451Y47289155D01*
X41235137Y47095173D01*
X41028249Y46785543D01*
X40955600Y46420310D01*
X40955600Y45694690D01*
X41028249Y45329457D01*
X41235137Y45019827D01*
X41544767Y44812939D01*
X41910000Y44740290D01*
X42275233Y44812939D01*
X42584863Y45019827D01*
X42791751Y45329457D01*
X42864400Y45694690D01*
X42864400Y46420310D01*
X42791751Y46785543D01*
X42584863Y47095173D01*
X42275233Y47302061D01*
X42265600Y47303977D01*
X42265600Y47407500D01*
X42238532Y47543582D01*
X42238532Y47543583D01*
X42161447Y47658947D01*
X41173400Y48646994D01*
X41173400Y60604400D01*
X42138600Y60604400D01*
X42138600Y59982208D01*
X42138237Y59982058D01*
X41619763Y59464488D01*
X41338820Y58787904D01*
X41338181Y58055310D01*
X41617942Y57378237D01*
X42135512Y56859763D01*
X42812096Y56578820D01*
X43544690Y56578181D01*
X44221763Y56857942D01*
X44740237Y57375512D01*
X45018337Y58045250D01*
X46367373Y58045250D01*
X46654851Y57349499D01*
X47186699Y56816722D01*
X47881947Y56528030D01*
X48634750Y56527373D01*
X49330501Y56814851D01*
X49863278Y57346699D01*
X50151970Y58041947D01*
X50152627Y58794750D01*
X49865149Y59490501D01*
X49665998Y59690000D01*
X52407549Y59690000D01*
X52438484Y59534478D01*
X52526581Y59402632D01*
X54322632Y57606581D01*
X54454478Y57518484D01*
X54610000Y57487549D01*
X54765523Y57518484D01*
X54897368Y57606581D01*
X56693419Y59402632D01*
X56781516Y59534477D01*
X56812451Y59690000D01*
X56781516Y59845522D01*
X56781516Y59845523D01*
X56693419Y59977368D01*
X54897368Y61773419D01*
X54765523Y61861516D01*
X54610000Y61892451D01*
X54454478Y61861516D01*
X54322632Y61773419D01*
X52526581Y59977368D01*
X52438484Y59845522D01*
X52407549Y59690000D01*
X49665998Y59690000D01*
X49333301Y60023278D01*
X48638053Y60311970D01*
X47885250Y60312627D01*
X47189499Y60025149D01*
X46656722Y59493301D01*
X46368030Y58798053D01*
X46367373Y58045250D01*
X45018337Y58045250D01*
X45021180Y58052096D01*
X45021819Y58784690D01*
X44742058Y59461763D01*
X44224488Y59980237D01*
X44221400Y59981519D01*
X44221400Y61937792D01*
X44221763Y61937942D01*
X44740237Y62455512D01*
X45018337Y63125250D01*
X46367373Y63125250D01*
X46654851Y62429499D01*
X47186699Y61896722D01*
X47881947Y61608030D01*
X48634750Y61607373D01*
X49330501Y61894851D01*
X49863278Y62426699D01*
X50151970Y63121947D01*
X50152627Y63874750D01*
X49865149Y64570501D01*
X49333301Y65103278D01*
X48638053Y65391970D01*
X47885250Y65392627D01*
X47189499Y65105149D01*
X46656722Y64573301D01*
X46368030Y63878053D01*
X46367373Y63125250D01*
X45018337Y63125250D01*
X45021180Y63132096D01*
X45021819Y63864690D01*
X44742058Y64541763D01*
X44224488Y65060237D01*
X43547904Y65341180D01*
X42815310Y65341819D01*
X42138237Y65062058D01*
X41619763Y64544488D01*
X41338820Y63867904D01*
X41338181Y63135310D01*
X41617942Y62458237D01*
X42135512Y61939763D01*
X42138600Y61938481D01*
X42138600Y61315600D01*
X41173400Y61315600D01*
X41173400Y65478646D01*
X41146332Y65614728D01*
X41146332Y65614729D01*
X41069247Y65730093D01*
X34013400Y72785940D01*
X34013400Y73160506D01*
X34731447Y73878553D01*
X34808531Y73993917D01*
X34808532Y73993918D01*
X34835600Y74130000D01*
X34835600Y74247961D01*
X34975116Y74341183D01*
X35126900Y74568344D01*
X35180200Y74836299D01*
X35180200Y76943701D01*
X35126900Y77211656D01*
X34975116Y77438817D01*
X34778740Y77570031D01*
X34903335Y77694408D01*
X35013774Y77960376D01*
X35014025Y78248361D01*
X34904050Y78514521D01*
X34700592Y78718335D01*
X34434624Y78828774D01*
X34146639Y78829025D01*
X33880479Y78719050D01*
X33676665Y78515592D01*
X33566226Y78249624D01*
X33566111Y78117492D01*
X33111809Y77663191D01*
X32998936Y77494263D01*
X32988370Y77441146D01*
X32984884Y77438817D01*
X32980000Y77431508D01*
X32975116Y77438817D01*
X32747955Y77590601D01*
X32480000Y77643901D01*
X32212045Y77590601D01*
X31984884Y77438817D01*
X31980000Y77431508D01*
X31975116Y77438817D01*
X31747955Y77590601D01*
X31480000Y77643901D01*
X31212045Y77590601D01*
X30984884Y77438817D01*
X30933272Y77361575D01*
X30892926Y77410953D01*
X30747592Y77416905D01*
X30665000Y77398546D01*
X30295000Y77398546D01*
X30212408Y77416905D01*
X30067074Y77410953D01*
X30026728Y77361575D01*
X29975116Y77438817D01*
X29747955Y77590601D01*
X29480000Y77643901D01*
X29212045Y77590601D01*
X28984884Y77438817D01*
X28980000Y77431508D01*
X28975116Y77438817D01*
X28747955Y77590601D01*
X28480000Y77643901D01*
X28212045Y77590601D01*
X28093491Y77511386D01*
X28091327Y77514749D01*
X27980983Y77590144D01*
X27883857Y77609813D01*
X27848191Y77663191D01*
X27848188Y77663193D01*
X27393911Y78117471D01*
X27394025Y78248361D01*
X27284050Y78514521D01*
X27242800Y78555844D01*
X27350448Y78555844D01*
X27484047Y78232511D01*
X27731210Y77984916D01*
X28054309Y77850753D01*
X28404156Y77850448D01*
X28727489Y77984047D01*
X28975084Y78231210D01*
X29109247Y78554309D01*
X29109248Y78555844D01*
X31850448Y78555844D01*
X31984047Y78232511D01*
X32231210Y77984916D01*
X32554309Y77850753D01*
X32904156Y77850448D01*
X33227489Y77984047D01*
X33475084Y78231210D01*
X33609247Y78554309D01*
X33609552Y78904156D01*
X33475953Y79227489D01*
X33228790Y79475084D01*
X32905691Y79609247D01*
X32555844Y79609552D01*
X32232511Y79475953D01*
X31984916Y79228790D01*
X31850753Y78905691D01*
X31850448Y78555844D01*
X29109248Y78555844D01*
X29109552Y78904156D01*
X28975953Y79227489D01*
X28728790Y79475084D01*
X28405691Y79609247D01*
X28055844Y79609552D01*
X27732511Y79475953D01*
X27484916Y79228790D01*
X27350753Y78905691D01*
X27350448Y78555844D01*
X27242800Y78555844D01*
X27080592Y78718335D01*
X26814624Y78828774D01*
X26526639Y78829025D01*
X26260479Y78719050D01*
X26056665Y78515592D01*
X25946226Y78249624D01*
X25945975Y77961639D01*
X26055950Y77695479D01*
X26181211Y77569999D01*
X25984884Y77438817D01*
X25833100Y77211656D01*
X25779800Y76943701D01*
X25779800Y74836299D01*
X25833100Y74568344D01*
X25984884Y74341183D01*
X26124400Y74247961D01*
X26124400Y74130000D01*
X26151468Y73993917D01*
X26228553Y73878553D01*
X26946600Y73160506D01*
X26946600Y72785940D01*
X19890753Y65730093D01*
X19813668Y65614729D01*
X19813668Y65614728D01*
X19786600Y65478646D01*
X19786600Y61315600D01*
X18821400Y61315600D01*
X18821400Y61937792D01*
X18821763Y61937942D01*
X19340237Y62455512D01*
X19621180Y63132096D01*
X19621819Y63864690D01*
X19342058Y64541763D01*
X18824488Y65060237D01*
X18147904Y65341180D01*
X17415310Y65341819D01*
X16738237Y65062058D01*
X16219763Y64544488D01*
X15938820Y63867904D01*
X15938181Y63135310D01*
X14591981Y63135310D01*
X14592627Y63874750D01*
X14305149Y64570501D01*
X13773301Y65103278D01*
X13078053Y65391970D01*
X12325250Y65392627D01*
X11629499Y65105149D01*
X11096722Y64573301D01*
X10808030Y63878053D01*
X10807373Y63125250D01*
X6718014Y63125250D01*
X23400600Y79807836D01*
X23400600Y77431426D01*
X23494183Y76960955D01*
X23760683Y76562109D01*
X24159529Y76295609D01*
X24630000Y76202026D01*
X25100471Y76295609D01*
X25499317Y76562109D01*
X25765817Y76960955D01*
X25859400Y77431426D01*
X25859400Y80028574D01*
X25765817Y80499045D01*
X25719208Y80568800D01*
X35240792Y80568800D01*
X35194183Y80499045D01*
X35194183Y80499045D01*
G37*
X35194183Y80499045D02*
X35100600Y80028574D01*
X35100600Y77431426D01*
X35194183Y76960955D01*
X35460683Y76562109D01*
X35859529Y76295609D01*
X36330000Y76202026D01*
X36800471Y76295609D01*
X37199317Y76562109D01*
X37465817Y76960955D01*
X37559400Y77431426D01*
X37559400Y79807836D01*
X60248800Y57118436D01*
X60248800Y1936564D01*
X59023436Y711200D01*
X1936564Y711200D01*
X711200Y1936564D01*
X711200Y6278392D01*
X21730222Y6278392D01*
X22061317Y5477082D01*
X22673857Y4863472D01*
X23474589Y4530979D01*
X24341608Y4530222D01*
X25142918Y4861317D01*
X25756528Y5473857D01*
X26089021Y6274589D01*
X26089024Y6278392D01*
X34870222Y6278392D01*
X35201317Y5477082D01*
X35813857Y4863472D01*
X36614589Y4530979D01*
X37481608Y4530222D01*
X38282918Y4861317D01*
X38896528Y5473857D01*
X39229021Y6274589D01*
X39229778Y7141608D01*
X38898683Y7942918D01*
X38286143Y8556528D01*
X37485411Y8889021D01*
X36618392Y8889778D01*
X35817082Y8558683D01*
X35203472Y7946143D01*
X34870979Y7145411D01*
X34870222Y6278392D01*
X26089024Y6278392D01*
X26089778Y7141608D01*
X25758683Y7942918D01*
X25146143Y8556528D01*
X24345411Y8889021D01*
X23478392Y8889778D01*
X22677082Y8558683D01*
X22063472Y7946143D01*
X21730979Y7145411D01*
X21730222Y6278392D01*
X711200Y6278392D01*
X711200Y19945250D01*
X10807373Y19945250D01*
X11094851Y19249499D01*
X11626699Y18716722D01*
X12321947Y18428030D01*
X13074750Y18427373D01*
X13770501Y18714851D01*
X14303278Y19246699D01*
X14591970Y19941947D01*
X14592627Y20694750D01*
X14305149Y21390501D01*
X13773301Y21923278D01*
X13078053Y22211970D01*
X12325250Y22212627D01*
X11629499Y21925149D01*
X11096722Y21393301D01*
X10808030Y20698053D01*
X10807373Y19945250D01*
X711200Y19945250D01*
X711200Y25025250D01*
X10807373Y25025250D01*
X11094851Y24329499D01*
X11626699Y23796722D01*
X12321947Y23508030D01*
X13074750Y23507373D01*
X13770501Y23794851D01*
X14303278Y24326699D01*
X14591970Y25021947D01*
X14591981Y25035310D01*
X15938181Y25035310D01*
X16217942Y24358237D01*
X16735512Y23839763D01*
X16738600Y23838481D01*
X16738600Y21882208D01*
X16738237Y21882058D01*
X16219763Y21364488D01*
X15938820Y20687904D01*
X15938181Y19955310D01*
X16217942Y19278237D01*
X16735512Y18759763D01*
X17412096Y18478820D01*
X18144690Y18478181D01*
X18821763Y18757942D01*
X19340237Y19275512D01*
X19621180Y19952096D01*
X19621819Y20684690D01*
X19342058Y21361763D01*
X18824488Y21880237D01*
X18821400Y21881519D01*
X18821400Y22504400D01*
X19786600Y22504400D01*
X19786600Y18341354D01*
X19813668Y18205271D01*
X19890753Y18089907D01*
X26411706Y11568953D01*
X26124028Y11511731D01*
X25822249Y11310089D01*
X25620607Y11008310D01*
X25549800Y10652338D01*
X25549800Y10187662D01*
X25620607Y9831690D01*
X25822249Y9529911D01*
X26056207Y9373585D01*
X26043331Y9310000D01*
X26043331Y7690000D01*
X26066356Y7567635D01*
X26138673Y7455251D01*
X26249017Y7379856D01*
X26380000Y7353331D01*
X27580000Y7353331D01*
X27702365Y7376356D01*
X27814749Y7448673D01*
X27890144Y7559017D01*
X27916669Y7690000D01*
X27916669Y9310000D01*
X27893644Y9432365D01*
X27837381Y9519800D01*
X28124028Y9328269D01*
X28480000Y9257462D01*
X28772507Y9315645D01*
X28620607Y9088310D01*
X28549800Y8732338D01*
X28549800Y8267662D01*
X28620607Y7911690D01*
X28822249Y7609911D01*
X29124028Y7408269D01*
X29480000Y7337462D01*
X29835972Y7408269D01*
X30137751Y7609911D01*
X30339393Y7911690D01*
X30410200Y8267662D01*
X30410200Y8732338D01*
X30549800Y8732338D01*
X30549800Y8267662D01*
X30620607Y7911690D01*
X30822249Y7609911D01*
X31124028Y7408269D01*
X31480000Y7337462D01*
X31835972Y7408269D01*
X32137751Y7609911D01*
X32339393Y7911690D01*
X32410200Y8267662D01*
X32410200Y8732338D01*
X32339393Y9088310D01*
X32187493Y9315645D01*
X32480000Y9257462D01*
X32835972Y9328269D01*
X33137751Y9529911D01*
X33339393Y9831690D01*
X33410200Y10187662D01*
X33410200Y10637306D01*
X33480000Y10707106D01*
X33549800Y10637306D01*
X33549800Y10187662D01*
X33620607Y9831690D01*
X33762534Y9619281D01*
X33624028Y9591731D01*
X33322249Y9390089D01*
X33120607Y9088310D01*
X33049800Y8732338D01*
X33049800Y8267662D01*
X33120607Y7911690D01*
X33322249Y7609911D01*
X33624028Y7408269D01*
X33980000Y7337462D01*
X34335972Y7408269D01*
X34637751Y7609911D01*
X34839393Y7911690D01*
X34910200Y8267662D01*
X34910200Y8732338D01*
X34839393Y9088310D01*
X34697466Y9300719D01*
X34835972Y9328269D01*
X35137751Y9529911D01*
X35339393Y9831690D01*
X35410200Y10187662D01*
X35410200Y10652338D01*
X35339393Y11008310D01*
X35137751Y11310089D01*
X34835972Y11511731D01*
X34548294Y11568954D01*
X41069248Y18089907D01*
X41146332Y18205272D01*
X41173400Y18341354D01*
X41173400Y22504400D01*
X42138600Y22504400D01*
X42138600Y21882208D01*
X42138237Y21882058D01*
X41619763Y21364488D01*
X41338820Y20687904D01*
X41338181Y19955310D01*
X41617942Y19278237D01*
X42135512Y18759763D01*
X42812096Y18478820D01*
X43544690Y18478181D01*
X44221763Y18757942D01*
X44740237Y19275512D01*
X45018337Y19945250D01*
X46367373Y19945250D01*
X46654851Y19249499D01*
X47186699Y18716722D01*
X47881947Y18428030D01*
X48634750Y18427373D01*
X49330501Y18714851D01*
X49863278Y19246699D01*
X50151970Y19941947D01*
X50152627Y20694750D01*
X49865149Y21390501D01*
X49333301Y21923278D01*
X48638053Y22211970D01*
X47885250Y22212627D01*
X47189499Y21925149D01*
X46656722Y21393301D01*
X46368030Y20698053D01*
X46367373Y19945250D01*
X45018337Y19945250D01*
X45021180Y19952096D01*
X45021819Y20684690D01*
X44742058Y21361763D01*
X44224488Y21880237D01*
X44221400Y21881519D01*
X44221400Y23837792D01*
X44221763Y23837942D01*
X44740237Y24355512D01*
X45018337Y25025250D01*
X46367373Y25025250D01*
X46654851Y24329499D01*
X47186699Y23796722D01*
X47881947Y23508030D01*
X48634750Y23507373D01*
X49330501Y23794851D01*
X49863278Y24326699D01*
X50151970Y25021947D01*
X50152627Y25774750D01*
X49865149Y26470501D01*
X49333301Y27003278D01*
X48638053Y27291970D01*
X47885250Y27292627D01*
X47189499Y27005149D01*
X46656722Y26473301D01*
X46368030Y25778053D01*
X46367373Y25025250D01*
X45018337Y25025250D01*
X45021180Y25032096D01*
X45021819Y25764690D01*
X44742058Y26441763D01*
X44224488Y26960237D01*
X43547904Y27241180D01*
X42815310Y27241819D01*
X42138237Y26962058D01*
X41619763Y26444488D01*
X41338820Y25767904D01*
X41338181Y25035310D01*
X41617942Y24358237D01*
X42135512Y23839763D01*
X42138600Y23838481D01*
X42138600Y23215600D01*
X41173400Y23215600D01*
X41173400Y35341756D01*
X42161447Y36329803D01*
X42238532Y36445167D01*
X42252091Y36513336D01*
X42275233Y36517939D01*
X42584863Y36724827D01*
X42791751Y37034457D01*
X42826668Y37210000D01*
X48730026Y37210000D01*
X48836990Y36672253D01*
X49141600Y36216374D01*
X49597479Y35911764D01*
X50135226Y35804800D01*
X51464774Y35804800D01*
X52002521Y35911764D01*
X52458400Y36216374D01*
X52763010Y36672253D01*
X52869974Y37210000D01*
X52763010Y37747747D01*
X52458400Y38203626D01*
X52002521Y38508236D01*
X51464774Y38615200D01*
X50135226Y38615200D01*
X49597479Y38508236D01*
X49141600Y38203626D01*
X48836990Y37747747D01*
X48730026Y37210000D01*
X42826668Y37210000D01*
X42864400Y37399690D01*
X42864400Y38125310D01*
X42791751Y38490543D01*
X42584863Y38800173D01*
X42275233Y39007061D01*
X41910000Y39079710D01*
X41544767Y39007061D01*
X41235137Y38800173D01*
X41028249Y38490543D01*
X40955600Y38125310D01*
X40955600Y37399690D01*
X41028249Y37034457D01*
X41235137Y36724827D01*
X41424293Y36598437D01*
X40640000Y35814144D01*
X39989017Y36465127D01*
X40045000Y36465127D01*
X40148539Y36484609D01*
X40243634Y36545801D01*
X40307429Y36639168D01*
X40329873Y36750000D01*
X40329873Y38775000D01*
X40310391Y38878539D01*
X40249199Y38973634D01*
X40155832Y39037429D01*
X40045000Y39059873D01*
X38695000Y39059873D01*
X38591461Y39040391D01*
X38496366Y38979199D01*
X38432571Y38885832D01*
X38410127Y38775000D01*
X38410127Y36750000D01*
X38429609Y36646461D01*
X38490801Y36551366D01*
X38584168Y36487571D01*
X38695000Y36465127D01*
X39037498Y36465127D01*
X39041468Y36445167D01*
X39118553Y36329803D01*
X40106600Y35341756D01*
X40106600Y23215600D01*
X39141400Y23215600D01*
X39141400Y23837792D01*
X39141763Y23837942D01*
X39660237Y24355512D01*
X39941180Y25032096D01*
X39941819Y25764690D01*
X39662058Y26441763D01*
X39144488Y26960237D01*
X38467904Y27241180D01*
X37735310Y27241819D01*
X37058237Y26962058D01*
X36539763Y26444488D01*
X36258820Y25767904D01*
X36258181Y25035310D01*
X36537942Y24358237D01*
X37055512Y23839763D01*
X37058600Y23838481D01*
X37058600Y21882208D01*
X37058237Y21882058D01*
X36539763Y21364488D01*
X36258820Y20687904D01*
X36258181Y19955310D01*
X36537942Y19278237D01*
X37055512Y18759763D01*
X37732096Y18478820D01*
X38464690Y18478181D01*
X39141763Y18757942D01*
X39660237Y19275512D01*
X39941180Y19952096D01*
X39941819Y20684690D01*
X39662058Y21361763D01*
X39144488Y21880237D01*
X39141400Y21881519D01*
X39141400Y22504400D01*
X40106600Y22504400D01*
X40106600Y18635940D01*
X33050754Y11580094D01*
X32973669Y11464730D01*
X32973669Y11464729D01*
X32965767Y11425005D01*
X32835972Y11511731D01*
X32480000Y11582538D01*
X32124028Y11511731D01*
X31822249Y11310089D01*
X31620607Y11008310D01*
X31549800Y10652338D01*
X31549800Y10187662D01*
X31620607Y9831690D01*
X31772507Y9604355D01*
X31480000Y9662538D01*
X31124028Y9591731D01*
X30822249Y9390089D01*
X30620607Y9088310D01*
X30549800Y8732338D01*
X30410200Y8732338D01*
X30339393Y9088310D01*
X30137751Y9390089D01*
X29835972Y9591731D01*
X29480000Y9662538D01*
X29187493Y9604355D01*
X29339393Y9831690D01*
X29371591Y9993563D01*
X29719475Y9993563D01*
X29860193Y9718998D01*
X30067139Y9521032D01*
X30180000Y9519996D01*
X30180000Y10115200D01*
X30780000Y10115200D01*
X30780000Y9519996D01*
X30892861Y9521032D01*
X31099807Y9718998D01*
X31240525Y9993563D01*
X31214220Y10115200D01*
X30780000Y10115200D01*
X30180000Y10115200D01*
X29745780Y10115200D01*
X29719475Y9993563D01*
X29371591Y9993563D01*
X29410200Y10187662D01*
X29410200Y10652338D01*
X29371592Y10846437D01*
X29719475Y10846437D01*
X29745780Y10724800D01*
X30180000Y10724800D01*
X30780000Y10724800D01*
X31214220Y10724800D01*
X31240525Y10846437D01*
X31099807Y11121002D01*
X30892861Y11318968D01*
X30780000Y11320004D01*
X30780000Y10724800D01*
X30180000Y10724800D01*
X30180000Y11320004D01*
X30067139Y11318968D01*
X29860193Y11121002D01*
X29719475Y10846437D01*
X29371592Y10846437D01*
X29339393Y11008310D01*
X29137751Y11310089D01*
X28835972Y11511731D01*
X28480000Y11582538D01*
X28124028Y11511731D01*
X27994233Y11425005D01*
X27986331Y11464729D01*
X27909246Y11580094D01*
X20853400Y18635940D01*
X20853400Y22504400D01*
X21818600Y22504400D01*
X21818600Y21882208D01*
X21818237Y21882058D01*
X21299763Y21364488D01*
X21018820Y20687904D01*
X21018181Y19955310D01*
X21297942Y19278237D01*
X21815512Y18759763D01*
X22492096Y18478820D01*
X23224690Y18478181D01*
X23901763Y18757942D01*
X24420237Y19275512D01*
X24701180Y19952096D01*
X24701182Y19955310D01*
X26098181Y19955310D01*
X26377942Y19278237D01*
X26895512Y18759763D01*
X27572096Y18478820D01*
X28304690Y18478181D01*
X28981763Y18757942D01*
X29500237Y19275512D01*
X29781180Y19952096D01*
X29781182Y19955310D01*
X31178181Y19955310D01*
X31457942Y19278237D01*
X31975512Y18759763D01*
X32652096Y18478820D01*
X33384690Y18478181D01*
X34061763Y18757942D01*
X34580237Y19275512D01*
X34861180Y19952096D01*
X34861819Y20684690D01*
X34582058Y21361763D01*
X34064488Y21880237D01*
X33387904Y22161180D01*
X32655310Y22161819D01*
X31978237Y21882058D01*
X31459763Y21364488D01*
X31178820Y20687904D01*
X31178181Y19955310D01*
X29781182Y19955310D01*
X29781819Y20684690D01*
X29502058Y21361763D01*
X28984488Y21880237D01*
X28307904Y22161180D01*
X27575310Y22161819D01*
X26898237Y21882058D01*
X26379763Y21364488D01*
X26098820Y20687904D01*
X26098181Y19955310D01*
X24701182Y19955310D01*
X24701819Y20684690D01*
X24422058Y21361763D01*
X23904488Y21880237D01*
X23901400Y21881519D01*
X23901400Y23837792D01*
X23901763Y23837942D01*
X24420237Y24355512D01*
X24701180Y25032096D01*
X24701182Y25035310D01*
X26098181Y25035310D01*
X26377942Y24358237D01*
X26895512Y23839763D01*
X27572096Y23558820D01*
X28304690Y23558181D01*
X28981763Y23837942D01*
X29500237Y24355512D01*
X29781180Y25032096D01*
X29781182Y25035310D01*
X31178181Y25035310D01*
X31457942Y24358237D01*
X31975512Y23839763D01*
X32652096Y23558820D01*
X33384690Y23558181D01*
X34061763Y23837942D01*
X34580237Y24355512D01*
X34861180Y25032096D01*
X34861819Y25764690D01*
X34582058Y26441763D01*
X34064488Y26960237D01*
X33387904Y27241180D01*
X32655310Y27241819D01*
X31978237Y26962058D01*
X31459763Y26444488D01*
X31178820Y25767904D01*
X31178181Y25035310D01*
X29781182Y25035310D01*
X29781819Y25764690D01*
X29502058Y26441763D01*
X28984488Y26960237D01*
X28307904Y27241180D01*
X27575310Y27241819D01*
X26898237Y26962058D01*
X26379763Y26444488D01*
X26098820Y25767904D01*
X26098181Y25035310D01*
X24701182Y25035310D01*
X24701819Y25764690D01*
X24422058Y26441763D01*
X23904488Y26960237D01*
X23227904Y27241180D01*
X22495310Y27241819D01*
X21818237Y26962058D01*
X21299763Y26444488D01*
X21018820Y25767904D01*
X21018181Y25035310D01*
X21297942Y24358237D01*
X21815512Y23839763D01*
X21818600Y23838481D01*
X21818600Y23215600D01*
X20853400Y23215600D01*
X20853400Y35341756D01*
X21841447Y36329803D01*
X21918532Y36445167D01*
X21932091Y36513336D01*
X21955233Y36517939D01*
X22264863Y36724827D01*
X22471751Y37034457D01*
X22544400Y37399690D01*
X22544400Y38125310D01*
X22471751Y38490543D01*
X22281684Y38775000D01*
X28250127Y38775000D01*
X28250127Y36750000D01*
X28269609Y36646461D01*
X28330801Y36551366D01*
X28424168Y36487571D01*
X28535000Y36465127D01*
X29885000Y36465127D01*
X29988539Y36484609D01*
X30083634Y36545801D01*
X30147429Y36639168D01*
X30169873Y36750000D01*
X30169873Y38125310D01*
X30795600Y38125310D01*
X30795600Y37399690D01*
X30868249Y37034457D01*
X31075137Y36724827D01*
X31384767Y36517939D01*
X31750000Y36445290D01*
X32115233Y36517939D01*
X32424863Y36724827D01*
X32631751Y37034457D01*
X32704400Y37399690D01*
X32704400Y38125310D01*
X32631751Y38490543D01*
X32424863Y38800173D01*
X32115233Y39007061D01*
X31750000Y39079710D01*
X31384767Y39007061D01*
X31075137Y38800173D01*
X30868249Y38490543D01*
X30795600Y38125310D01*
X30169873Y38125310D01*
X30169873Y38775000D01*
X30150391Y38878539D01*
X30089199Y38973634D01*
X29995832Y39037429D01*
X29885000Y39059873D01*
X28535000Y39059873D01*
X28431461Y39040391D01*
X28336366Y38979199D01*
X28272571Y38885832D01*
X28250127Y38775000D01*
X22281684Y38775000D01*
X22264863Y38800173D01*
X21955233Y39007061D01*
X21590000Y39079710D01*
X21224767Y39007061D01*
X20915137Y38800173D01*
X20708249Y38490543D01*
X20635600Y38125310D01*
X20635600Y37399690D01*
X20708249Y37034457D01*
X20915137Y36724827D01*
X21104293Y36598437D01*
X20320000Y35814144D01*
X19669017Y36465127D01*
X19725000Y36465127D01*
X19828539Y36484609D01*
X19923634Y36545801D01*
X19987429Y36639168D01*
X20009873Y36750000D01*
X20009873Y38775000D01*
X19990391Y38878539D01*
X19929199Y38973634D01*
X19835832Y39037429D01*
X19725000Y39059873D01*
X18375000Y39059873D01*
X18271461Y39040391D01*
X18176366Y38979199D01*
X18112571Y38885832D01*
X18090127Y38775000D01*
X18090127Y36750000D01*
X18109609Y36646461D01*
X18170801Y36551366D01*
X18264168Y36487571D01*
X18375000Y36465127D01*
X18717498Y36465127D01*
X18721468Y36445167D01*
X18798553Y36329803D01*
X19786600Y35341756D01*
X19786600Y23215600D01*
X18821400Y23215600D01*
X18821400Y23837792D01*
X18821763Y23837942D01*
X19340237Y24355512D01*
X19621180Y25032096D01*
X19621819Y25764690D01*
X19342058Y26441763D01*
X18824488Y26960237D01*
X18147904Y27241180D01*
X17415310Y27241819D01*
X16738237Y26962058D01*
X16219763Y26444488D01*
X15938820Y25767904D01*
X15938181Y25035310D01*
X14591981Y25035310D01*
X14592627Y25774750D01*
X14305149Y26470501D01*
X13773301Y27003278D01*
X13078053Y27291970D01*
X12325250Y27292627D01*
X11629499Y27005149D01*
X11096722Y26473301D01*
X10808030Y25778053D01*
X10807373Y25025250D01*
X711200Y25025250D01*
X711200Y37210000D01*
X8090026Y37210000D01*
X8196990Y36672253D01*
X8501600Y36216374D01*
X8957479Y35911764D01*
X9495226Y35804800D01*
X10824774Y35804800D01*
X11362521Y35911764D01*
X11818400Y36216374D01*
X12123010Y36672253D01*
X12229974Y37210000D01*
X12123010Y37747747D01*
X11818400Y38203626D01*
X11362521Y38508236D01*
X10824774Y38615200D01*
X9495226Y38615200D01*
X8957479Y38508236D01*
X8501600Y38203626D01*
X8196990Y37747747D01*
X8090026Y37210000D01*
X711200Y37210000D01*
X711200Y41910000D01*
X8090026Y41910000D01*
X8196990Y41372253D01*
X8501600Y40916374D01*
X8957479Y40611764D01*
X9495226Y40504800D01*
X10824774Y40504800D01*
X11362521Y40611764D01*
X11818400Y40916374D01*
X12123010Y41372253D01*
X12229974Y41910000D01*
X48730026Y41910000D01*
X48836990Y41372253D01*
X49141600Y40916374D01*
X49597479Y40611764D01*
X50135226Y40504800D01*
X51464774Y40504800D01*
X52002521Y40611764D01*
X52458400Y40916374D01*
X52763010Y41372253D01*
X52869974Y41910000D01*
X52763010Y42447747D01*
X52458400Y42903626D01*
X52002521Y43208236D01*
X51464774Y43315200D01*
X50135226Y43315200D01*
X49597479Y43208236D01*
X49141600Y42903626D01*
X48836990Y42447747D01*
X48730026Y41910000D01*
X12229974Y41910000D01*
X12123010Y42447747D01*
X11818400Y42903626D01*
X11362521Y43208236D01*
X10824774Y43315200D01*
X9495226Y43315200D01*
X8957479Y43208236D01*
X8501600Y42903626D01*
X8196990Y42447747D01*
X8090026Y41910000D01*
X711200Y41910000D01*
X711200Y57118436D01*
X1638014Y58045250D01*
X10807373Y58045250D01*
X11094851Y57349499D01*
X11626699Y56816722D01*
X12321947Y56528030D01*
X13074750Y56527373D01*
X13770501Y56814851D01*
X14303278Y57346699D01*
X14591970Y58041947D01*
X14592627Y58794750D01*
X14305149Y59490501D01*
X13773301Y60023278D01*
X13078053Y60311970D01*
X12325250Y60312627D01*
X11629499Y60025149D01*
X11096722Y59493301D01*
X10808030Y58798053D01*
X10807373Y58045250D01*
X1638014Y58045250D01*
X6718014Y63125250D01*
X10807373Y63125250D01*
X11094851Y62429499D01*
X11626699Y61896722D01*
X12321947Y61608030D01*
X13074750Y61607373D01*
X13770501Y61894851D01*
X14303278Y62426699D01*
X14591970Y63121947D01*
X14591981Y63135310D01*
X15938181Y63135310D01*
X16217942Y62458237D01*
X16735512Y61939763D01*
X16738600Y61938481D01*
X16738600Y59982208D01*
X16738237Y59982058D01*
X16219763Y59464488D01*
X15938820Y58787904D01*
X15938181Y58055310D01*
X16217942Y57378237D01*
X16735512Y56859763D01*
X17412096Y56578820D01*
X18144690Y56578181D01*
X18821763Y56857942D01*
X19340237Y57375512D01*
X19621180Y58052096D01*
X19621819Y58784690D01*
X19342058Y59461763D01*
X18824488Y59980237D01*
X18821400Y59981519D01*
X18821400Y60604400D01*
X19786600Y60604400D01*
X19786600Y48646994D01*
X18798553Y47658947D01*
X18721468Y47543583D01*
X18721468Y47543582D01*
X18694400Y47407500D01*
X18694400Y47303977D01*
X18684767Y47302061D01*
X18375137Y47095173D01*
X18168249Y46785543D01*
X18095600Y46420310D01*
X18095600Y45694690D01*
X18168249Y45329457D01*
X18375137Y45019827D01*
X18684767Y44812939D01*
X19050000Y44740290D01*
X19415233Y44812939D01*
X19724863Y45019827D01*
X19931751Y45329457D01*
X20004400Y45694690D01*
X20004400Y46420310D01*
X19931751Y46785543D01*
X19724863Y47095173D01*
X19434549Y47289155D01*
X20320000Y48174606D01*
X21205451Y47289155D01*
X20915137Y47095173D01*
X20708249Y46785543D01*
X20635600Y46420310D01*
X20635600Y45694690D01*
X20708249Y45329457D01*
X20915137Y45019827D01*
X21224767Y44812939D01*
X21590000Y44740290D01*
X21955233Y44812939D01*
X22264863Y45019827D01*
X22471751Y45329457D01*
X22544400Y45694690D01*
X22544400Y46420310D01*
X28255600Y46420310D01*
X28255600Y45694690D01*
X28328249Y45329457D01*
X28535137Y45019827D01*
X28844767Y44812939D01*
X29210000Y44740290D01*
X29575233Y44812939D01*
X29884863Y45019827D01*
X30091751Y45329457D01*
X30164400Y45694690D01*
X30164400Y46420310D01*
X30795600Y46420310D01*
X30795600Y45694690D01*
X30868249Y45329457D01*
X31075137Y45019827D01*
X31384767Y44812939D01*
X31750000Y44740290D01*
X32115233Y44812939D01*
X32424863Y45019827D01*
X32631751Y45329457D01*
X32704400Y45694690D01*
X32704400Y46420310D01*
X32631751Y46785543D01*
X32424863Y47095173D01*
X32115233Y47302061D01*
X31750000Y47374710D01*
X31384767Y47302061D01*
X31075137Y47095173D01*
X30868249Y46785543D01*
X30795600Y46420310D01*
X30164400Y46420310D01*
X30091751Y46785543D01*
X29884863Y47095173D01*
X29575233Y47302061D01*
X29210000Y47374710D01*
X28844767Y47302061D01*
X28535137Y47095173D01*
X28328249Y46785543D01*
X28255600Y46420310D01*
X22544400Y46420310D01*
X22471751Y46785543D01*
X22264863Y47095173D01*
X21955233Y47302061D01*
X21945600Y47303977D01*
X21945600Y47407500D01*
X21918532Y47543582D01*
X21918532Y47543583D01*
X21841447Y47658947D01*
X20853400Y48646994D01*
X20853400Y60604400D01*
X21818600Y60604400D01*
X21818600Y59982208D01*
X21818237Y59982058D01*
X21299763Y59464488D01*
X21018820Y58787904D01*
X21018181Y58055310D01*
X21297942Y57378237D01*
X21815512Y56859763D01*
X22492096Y56578820D01*
X23224690Y56578181D01*
X23901763Y56857942D01*
X24420237Y57375512D01*
X24701180Y58052096D01*
X24701182Y58055310D01*
X26098181Y58055310D01*
X26377942Y57378237D01*
X26895512Y56859763D01*
X27572096Y56578820D01*
X28304690Y56578181D01*
X28981763Y56857942D01*
X29500237Y57375512D01*
X29781180Y58052096D01*
X29781182Y58055310D01*
X31178181Y58055310D01*
X31457942Y57378237D01*
X31975512Y56859763D01*
X32652096Y56578820D01*
X33384690Y56578181D01*
X34061763Y56857942D01*
X34580237Y57375512D01*
X34861180Y58052096D01*
X34861819Y58784690D01*
X34582058Y59461763D01*
X34064488Y59980237D01*
X33387904Y60261180D01*
X32655310Y60261819D01*
X31978237Y59982058D01*
X31459763Y59464488D01*
X31178820Y58787904D01*
X31178181Y58055310D01*
X29781182Y58055310D01*
X29781819Y58784690D01*
X29502058Y59461763D01*
X28984488Y59980237D01*
X28307904Y60261180D01*
X27575310Y60261819D01*
X26898237Y59982058D01*
X26379763Y59464488D01*
X26098820Y58787904D01*
X26098181Y58055310D01*
X24701182Y58055310D01*
X24701819Y58784690D01*
X24422058Y59461763D01*
X23904488Y59980237D01*
X23901400Y59981519D01*
X23901400Y61937792D01*
X23901763Y61937942D01*
X24420237Y62455512D01*
X24701180Y63132096D01*
X24701182Y63135310D01*
X26098181Y63135310D01*
X26377942Y62458237D01*
X26895512Y61939763D01*
X27572096Y61658820D01*
X28304690Y61658181D01*
X28981763Y61937942D01*
X29500237Y62455512D01*
X29781180Y63132096D01*
X29781182Y63135310D01*
X31178181Y63135310D01*
X31457942Y62458237D01*
X31975512Y61939763D01*
X32652096Y61658820D01*
X33384690Y61658181D01*
X34061763Y61937942D01*
X34580237Y62455512D01*
X34861180Y63132096D01*
X34861819Y63864690D01*
X34582058Y64541763D01*
X34064488Y65060237D01*
X33387904Y65341180D01*
X32655310Y65341819D01*
X31978237Y65062058D01*
X31459763Y64544488D01*
X31178820Y63867904D01*
X31178181Y63135310D01*
X29781182Y63135310D01*
X29781819Y63864690D01*
X29502058Y64541763D01*
X28984488Y65060237D01*
X28307904Y65341180D01*
X27575310Y65341819D01*
X26898237Y65062058D01*
X26379763Y64544488D01*
X26098820Y63867904D01*
X26098181Y63135310D01*
X24701182Y63135310D01*
X24701819Y63864690D01*
X24422058Y64541763D01*
X23904488Y65060237D01*
X23227904Y65341180D01*
X22495310Y65341819D01*
X21818237Y65062058D01*
X21299763Y64544488D01*
X21018820Y63867904D01*
X21018181Y63135310D01*
X21297942Y62458237D01*
X21815512Y61939763D01*
X21818600Y61938481D01*
X21818600Y61315600D01*
X20853400Y61315600D01*
X20853400Y65184060D01*
X27909247Y72239907D01*
X27986332Y72355271D01*
X28013400Y72491354D01*
X28013400Y73160506D01*
X28731447Y73878553D01*
X28808531Y73993917D01*
X28808532Y73993918D01*
X28835600Y74130000D01*
X28835600Y74247961D01*
X28862678Y74266054D01*
X28857808Y74254326D01*
X28857592Y74006760D01*
X28952132Y73777956D01*
X29127035Y73602747D01*
X29355674Y73507808D01*
X29603240Y73507592D01*
X29832044Y73602132D01*
X30007253Y73777035D01*
X30102192Y74005674D01*
X30102408Y74253240D01*
X30041753Y74400037D01*
X30067074Y74369047D01*
X30212408Y74363095D01*
X30295000Y74381454D01*
X30295000Y75585200D01*
X30180200Y75585200D01*
X30180200Y76194800D01*
X30295000Y76194800D01*
X30295000Y77398546D01*
X30665000Y77398546D01*
X30665000Y76194800D01*
X30779800Y76194800D01*
X30779800Y75585200D01*
X30665000Y75585200D01*
X30665000Y74381454D01*
X30747592Y74363095D01*
X30892926Y74369047D01*
X30918379Y74400198D01*
X30857808Y74254326D01*
X30857592Y74006760D01*
X30952132Y73777956D01*
X31127035Y73602747D01*
X31355674Y73507808D01*
X31603240Y73507592D01*
X31832044Y73602132D01*
X32007253Y73777035D01*
X32102192Y74005674D01*
X32102408Y74253240D01*
X32097034Y74266247D01*
X32124400Y74247961D01*
X32124400Y74130000D01*
X32151468Y73993917D01*
X32228553Y73878553D01*
X32946600Y73160506D01*
X32946600Y72491354D01*
X32973668Y72355271D01*
X33050753Y72239907D01*
X40106600Y65184060D01*
X40106600Y61315600D01*
X39141400Y61315600D01*
X39141400Y61937792D01*
X39141763Y61937942D01*
X39660237Y62455512D01*
X39941180Y63132096D01*
X39941819Y63864690D01*
X39662058Y64541763D01*
X39144488Y65060237D01*
X38467904Y65341180D01*
X37735310Y65341819D01*
X37058237Y65062058D01*
X36539763Y64544488D01*
X36258820Y63867904D01*
X36258181Y63135310D01*
X36537942Y62458237D01*
X37055512Y61939763D01*
X37058600Y61938481D01*
X37058600Y59982208D01*
X37058237Y59982058D01*
X36539763Y59464488D01*
X36258820Y58787904D01*
X36258181Y58055310D01*
X36537942Y57378237D01*
X37055512Y56859763D01*
X37732096Y56578820D01*
X38464690Y56578181D01*
X39141763Y56857942D01*
X39660237Y57375512D01*
X39941180Y58052096D01*
X39941819Y58784690D01*
X39662058Y59461763D01*
X39144488Y59980237D01*
X39141400Y59981519D01*
X39141400Y60604400D01*
X40106600Y60604400D01*
X40106600Y48646994D01*
X39118553Y47658947D01*
X39041468Y47543583D01*
X39041468Y47543582D01*
X39014400Y47407500D01*
X39014400Y47303977D01*
X39004767Y47302061D01*
X38695137Y47095173D01*
X38488249Y46785543D01*
X38415600Y46420310D01*
X38415600Y45694690D01*
X38488249Y45329457D01*
X38695137Y45019827D01*
X39004767Y44812939D01*
X39370000Y44740290D01*
X39735233Y44812939D01*
X40044863Y45019827D01*
X40251751Y45329457D01*
X40324400Y45694690D01*
X40324400Y46420310D01*
X40251751Y46785543D01*
X40044863Y47095173D01*
X39754549Y47289155D01*
X40640000Y48174606D01*
X41525451Y47289155D01*
X41235137Y47095173D01*
X41028249Y46785543D01*
X40955600Y46420310D01*
X40955600Y45694690D01*
X41028249Y45329457D01*
X41235137Y45019827D01*
X41544767Y44812939D01*
X41910000Y44740290D01*
X42275233Y44812939D01*
X42584863Y45019827D01*
X42791751Y45329457D01*
X42864400Y45694690D01*
X42864400Y46420310D01*
X42791751Y46785543D01*
X42584863Y47095173D01*
X42275233Y47302061D01*
X42265600Y47303977D01*
X42265600Y47407500D01*
X42238532Y47543582D01*
X42238532Y47543583D01*
X42161447Y47658947D01*
X41173400Y48646994D01*
X41173400Y60604400D01*
X42138600Y60604400D01*
X42138600Y59982208D01*
X42138237Y59982058D01*
X41619763Y59464488D01*
X41338820Y58787904D01*
X41338181Y58055310D01*
X41617942Y57378237D01*
X42135512Y56859763D01*
X42812096Y56578820D01*
X43544690Y56578181D01*
X44221763Y56857942D01*
X44740237Y57375512D01*
X45018337Y58045250D01*
X46367373Y58045250D01*
X46654851Y57349499D01*
X47186699Y56816722D01*
X47881947Y56528030D01*
X48634750Y56527373D01*
X49330501Y56814851D01*
X49863278Y57346699D01*
X50151970Y58041947D01*
X50152627Y58794750D01*
X49865149Y59490501D01*
X49665998Y59690000D01*
X52407549Y59690000D01*
X52438484Y59534478D01*
X52526581Y59402632D01*
X54322632Y57606581D01*
X54454478Y57518484D01*
X54610000Y57487549D01*
X54765523Y57518484D01*
X54897368Y57606581D01*
X56693419Y59402632D01*
X56781516Y59534477D01*
X56812451Y59690000D01*
X56781516Y59845522D01*
X56781516Y59845523D01*
X56693419Y59977368D01*
X54897368Y61773419D01*
X54765523Y61861516D01*
X54610000Y61892451D01*
X54454478Y61861516D01*
X54322632Y61773419D01*
X52526581Y59977368D01*
X52438484Y59845522D01*
X52407549Y59690000D01*
X49665998Y59690000D01*
X49333301Y60023278D01*
X48638053Y60311970D01*
X47885250Y60312627D01*
X47189499Y60025149D01*
X46656722Y59493301D01*
X46368030Y58798053D01*
X46367373Y58045250D01*
X45018337Y58045250D01*
X45021180Y58052096D01*
X45021819Y58784690D01*
X44742058Y59461763D01*
X44224488Y59980237D01*
X44221400Y59981519D01*
X44221400Y61937792D01*
X44221763Y61937942D01*
X44740237Y62455512D01*
X45018337Y63125250D01*
X46367373Y63125250D01*
X46654851Y62429499D01*
X47186699Y61896722D01*
X47881947Y61608030D01*
X48634750Y61607373D01*
X49330501Y61894851D01*
X49863278Y62426699D01*
X50151970Y63121947D01*
X50152627Y63874750D01*
X49865149Y64570501D01*
X49333301Y65103278D01*
X48638053Y65391970D01*
X47885250Y65392627D01*
X47189499Y65105149D01*
X46656722Y64573301D01*
X46368030Y63878053D01*
X46367373Y63125250D01*
X45018337Y63125250D01*
X45021180Y63132096D01*
X45021819Y63864690D01*
X44742058Y64541763D01*
X44224488Y65060237D01*
X43547904Y65341180D01*
X42815310Y65341819D01*
X42138237Y65062058D01*
X41619763Y64544488D01*
X41338820Y63867904D01*
X41338181Y63135310D01*
X41617942Y62458237D01*
X42135512Y61939763D01*
X42138600Y61938481D01*
X42138600Y61315600D01*
X41173400Y61315600D01*
X41173400Y65478646D01*
X41146332Y65614728D01*
X41146332Y65614729D01*
X41069247Y65730093D01*
X34013400Y72785940D01*
X34013400Y73160506D01*
X34731447Y73878553D01*
X34808531Y73993917D01*
X34808532Y73993918D01*
X34835600Y74130000D01*
X34835600Y74247961D01*
X34975116Y74341183D01*
X35126900Y74568344D01*
X35180200Y74836299D01*
X35180200Y76943701D01*
X35126900Y77211656D01*
X34975116Y77438817D01*
X34778740Y77570031D01*
X34903335Y77694408D01*
X35013774Y77960376D01*
X35014025Y78248361D01*
X34904050Y78514521D01*
X34700592Y78718335D01*
X34434624Y78828774D01*
X34146639Y78829025D01*
X33880479Y78719050D01*
X33676665Y78515592D01*
X33566226Y78249624D01*
X33566111Y78117492D01*
X33111809Y77663191D01*
X32998936Y77494263D01*
X32988370Y77441146D01*
X32984884Y77438817D01*
X32980000Y77431508D01*
X32975116Y77438817D01*
X32747955Y77590601D01*
X32480000Y77643901D01*
X32212045Y77590601D01*
X31984884Y77438817D01*
X31980000Y77431508D01*
X31975116Y77438817D01*
X31747955Y77590601D01*
X31480000Y77643901D01*
X31212045Y77590601D01*
X30984884Y77438817D01*
X30933272Y77361575D01*
X30892926Y77410953D01*
X30747592Y77416905D01*
X30665000Y77398546D01*
X30295000Y77398546D01*
X30212408Y77416905D01*
X30067074Y77410953D01*
X30026728Y77361575D01*
X29975116Y77438817D01*
X29747955Y77590601D01*
X29480000Y77643901D01*
X29212045Y77590601D01*
X28984884Y77438817D01*
X28980000Y77431508D01*
X28975116Y77438817D01*
X28747955Y77590601D01*
X28480000Y77643901D01*
X28212045Y77590601D01*
X28093491Y77511386D01*
X28091327Y77514749D01*
X27980983Y77590144D01*
X27883857Y77609813D01*
X27848191Y77663191D01*
X27848188Y77663193D01*
X27393911Y78117471D01*
X27394025Y78248361D01*
X27284050Y78514521D01*
X27242800Y78555844D01*
X27350448Y78555844D01*
X27484047Y78232511D01*
X27731210Y77984916D01*
X28054309Y77850753D01*
X28404156Y77850448D01*
X28727489Y77984047D01*
X28975084Y78231210D01*
X29109247Y78554309D01*
X29109248Y78555844D01*
X31850448Y78555844D01*
X31984047Y78232511D01*
X32231210Y77984916D01*
X32554309Y77850753D01*
X32904156Y77850448D01*
X33227489Y77984047D01*
X33475084Y78231210D01*
X33609247Y78554309D01*
X33609552Y78904156D01*
X33475953Y79227489D01*
X33228790Y79475084D01*
X32905691Y79609247D01*
X32555844Y79609552D01*
X32232511Y79475953D01*
X31984916Y79228790D01*
X31850753Y78905691D01*
X31850448Y78555844D01*
X29109248Y78555844D01*
X29109552Y78904156D01*
X28975953Y79227489D01*
X28728790Y79475084D01*
X28405691Y79609247D01*
X28055844Y79609552D01*
X27732511Y79475953D01*
X27484916Y79228790D01*
X27350753Y78905691D01*
X27350448Y78555844D01*
X27242800Y78555844D01*
X27080592Y78718335D01*
X26814624Y78828774D01*
X26526639Y78829025D01*
X26260479Y78719050D01*
X26056665Y78515592D01*
X25946226Y78249624D01*
X25945975Y77961639D01*
X26055950Y77695479D01*
X26181211Y77569999D01*
X25984884Y77438817D01*
X25833100Y77211656D01*
X25779800Y76943701D01*
X25779800Y74836299D01*
X25833100Y74568344D01*
X25984884Y74341183D01*
X26124400Y74247961D01*
X26124400Y74130000D01*
X26151468Y73993917D01*
X26228553Y73878553D01*
X26946600Y73160506D01*
X26946600Y72785940D01*
X19890753Y65730093D01*
X19813668Y65614729D01*
X19813668Y65614728D01*
X19786600Y65478646D01*
X19786600Y61315600D01*
X18821400Y61315600D01*
X18821400Y61937792D01*
X18821763Y61937942D01*
X19340237Y62455512D01*
X19621180Y63132096D01*
X19621819Y63864690D01*
X19342058Y64541763D01*
X18824488Y65060237D01*
X18147904Y65341180D01*
X17415310Y65341819D01*
X16738237Y65062058D01*
X16219763Y64544488D01*
X15938820Y63867904D01*
X15938181Y63135310D01*
X14591981Y63135310D01*
X14592627Y63874750D01*
X14305149Y64570501D01*
X13773301Y65103278D01*
X13078053Y65391970D01*
X12325250Y65392627D01*
X11629499Y65105149D01*
X11096722Y64573301D01*
X10808030Y63878053D01*
X10807373Y63125250D01*
X6718014Y63125250D01*
X23400600Y79807836D01*
X23400600Y77431426D01*
X23494183Y76960955D01*
X23760683Y76562109D01*
X24159529Y76295609D01*
X24630000Y76202026D01*
X25100471Y76295609D01*
X25499317Y76562109D01*
X25765817Y76960955D01*
X25859400Y77431426D01*
X25859400Y80028574D01*
X25765817Y80499045D01*
X25719208Y80568800D01*
X35240792Y80568800D01*
X35194183Y80499045D01*
M02*
