%FSLAX45Y45*%
G04 Gerber Fmt 4.5, Leading zero omitted, Abs format (unit mm)*
G04 Created by KiCad (PCBNEW 4.0.1-stable) date 2016-02-23 23:33:41*
%MOMM*%
G01*
G04 APERTURE LIST*
%ADD10C,0.127000*%
%ADD11C,0.200000*%
%ADD12C,0.300000*%
G04 APERTURE END LIST*
D10*
X0Y0D02*
X0Y5715000D01*
X6096000Y0D02*
X6096000Y5715000D01*
X2413000Y8128000D02*
X3683000Y8128000D01*
X3683000Y8128000D02*
X6096000Y5715000D01*
X2413000Y8128000D02*
X0Y5715000D01*
X6096000Y0D02*
X0Y0D01*
D11*
X2931490Y7429510D02*
X2964510Y7396490D01*
X2964510Y7429510D02*
X2931490Y7396490D01*
X3131490Y7429510D02*
X3164510Y7396490D01*
X3164510Y7429510D02*
X3131490Y7396490D01*
X2686050Y7810500D02*
G75*
G03X2686050Y7810500I-19050J0D01*
G01*
X3448050Y7810500D02*
G75*
G03X3448050Y7810500I-19050J0D01*
G01*
X2648000Y1056000D02*
X2648000Y986000D01*
X2613000Y1021000D02*
X2683000Y1021000D01*
X2698000Y906000D02*
X2698000Y836000D01*
X2663000Y871000D02*
X2733000Y871000D01*
X2848000Y1056000D02*
X2848000Y986000D01*
X2813000Y1021000D02*
X2883000Y1021000D01*
X2948000Y906000D02*
X2948000Y836000D01*
X2913000Y871000D02*
X2983000Y871000D01*
X3048000Y1056000D02*
X3048000Y986000D01*
X3013000Y1021000D02*
X3083000Y1021000D01*
X3148000Y906000D02*
X3148000Y836000D01*
X3113000Y871000D02*
X3183000Y871000D01*
X3248000Y1056000D02*
X3248000Y986000D01*
X3213000Y1021000D02*
X3283000Y1021000D01*
X3398000Y906000D02*
X3398000Y836000D01*
X3363000Y871000D02*
X3433000Y871000D01*
X3448000Y1056000D02*
X3448000Y986000D01*
X3413000Y1021000D02*
X3483000Y1021000D01*
X1931517Y4545483D02*
X1931517Y4598517D01*
X1878483Y4598517D01*
X1878483Y4545483D01*
X1931517Y4545483D01*
X1931517Y3783483D02*
X1931517Y3836517D01*
X1878483Y3836517D01*
X1878483Y3783483D01*
X1931517Y3783483D01*
X2185517Y4545483D02*
X2185517Y4598517D01*
X2132483Y4598517D01*
X2132483Y4545483D01*
X2185517Y4545483D01*
X2185517Y3783483D02*
X2185517Y3836517D01*
X2132483Y3836517D01*
X2132483Y3783483D01*
X2185517Y3783483D01*
X2947517Y4545483D02*
X2947517Y4598517D01*
X2894483Y4598517D01*
X2894483Y4545483D01*
X2947517Y4545483D01*
X2947517Y3783483D02*
X2947517Y3836517D01*
X2894483Y3836517D01*
X2894483Y3783483D01*
X2947517Y3783483D01*
X3201517Y4545483D02*
X3201517Y4598517D01*
X3148483Y4598517D01*
X3148483Y4545483D01*
X3201517Y4545483D01*
X3201517Y3783483D02*
X3201517Y3836517D01*
X3148483Y3836517D01*
X3148483Y3783483D01*
X3201517Y3783483D01*
X3963517Y4545483D02*
X3963517Y4598517D01*
X3910483Y4598517D01*
X3910483Y4545483D01*
X3963517Y4545483D01*
X3963517Y3783483D02*
X3963517Y3836517D01*
X3910483Y3836517D01*
X3910483Y3783483D01*
X3963517Y3783483D01*
X4217517Y4545483D02*
X4217517Y4598517D01*
X4164483Y4598517D01*
X4164483Y4545483D01*
X4217517Y4545483D01*
X4217517Y3783483D02*
X4217517Y3836517D01*
X4164483Y3836517D01*
X4164483Y3783483D01*
X4217517Y3783483D01*
X2463000Y7828000D02*
X2508000Y7873000D01*
X2463000Y7918000D01*
X2418000Y7873000D01*
X2463000Y7828000D01*
X2498000Y7773000D02*
X2498000Y7973000D01*
X2428000Y7773000D02*
X2428000Y7973000D01*
X2498000Y7973000D02*
G75*
G03X2428000Y7973000I-35000J0D01*
G01*
X2428000Y7773000D02*
G75*
G03X2498000Y7773000I35000J0D01*
G01*
X3633000Y7828000D02*
X3678000Y7873000D01*
X3633000Y7918000D01*
X3588000Y7873000D01*
X3633000Y7828000D01*
X3668000Y7773000D02*
X3668000Y7973000D01*
X3598000Y7773000D02*
X3598000Y7973000D01*
X3668000Y7973000D02*
G75*
G03X3598000Y7973000I-35000J0D01*
G01*
X3598000Y7773000D02*
G75*
G03X3668000Y7773000I35000J0D01*
G01*
X938500Y4268500D02*
X1093500Y4113500D01*
X1093500Y4268500D02*
X938500Y4113500D01*
X1093500Y4191000D02*
G75*
G03X1093500Y4191000I-77500J0D01*
G01*
X938500Y3798500D02*
X1093500Y3643500D01*
X1093500Y3798500D02*
X938500Y3643500D01*
X1093500Y3721000D02*
G75*
G03X1093500Y3721000I-77500J0D01*
G01*
X5002500Y4268500D02*
X5157500Y4113500D01*
X5157500Y4268500D02*
X5002500Y4113500D01*
X5157500Y4191000D02*
G75*
G03X5157500Y4191000I-77500J0D01*
G01*
X5002500Y3798500D02*
X5157500Y3643500D01*
X5157500Y3798500D02*
X5002500Y3643500D01*
X5157500Y3721000D02*
G75*
G03X5157500Y3721000I-77500J0D01*
G01*
X1189990Y6430010D02*
X1350010Y6269990D01*
X1350010Y6430010D02*
X1189990Y6269990D01*
X1270000Y6430010D02*
X1270000Y6269990D01*
X1189990Y6350000D02*
X1350010Y6350000D01*
X1189990Y5922010D02*
X1350010Y5761990D01*
X1350010Y5922010D02*
X1189990Y5761990D01*
X1270000Y5922010D02*
X1270000Y5761990D01*
X1189990Y5842000D02*
X1350010Y5842000D01*
X1189990Y2620010D02*
X1350010Y2459990D01*
X1350010Y2620010D02*
X1189990Y2459990D01*
X1270000Y2620010D02*
X1270000Y2459990D01*
X1189990Y2540000D02*
X1350010Y2540000D01*
X1189990Y2112010D02*
X1350010Y1951990D01*
X1350010Y2112010D02*
X1189990Y1951990D01*
X1270000Y2112010D02*
X1270000Y1951990D01*
X1189990Y2032000D02*
X1350010Y2032000D01*
X1697990Y6430010D02*
X1858010Y6269990D01*
X1858010Y6430010D02*
X1697990Y6269990D01*
X1778000Y6430010D02*
X1778000Y6269990D01*
X1697990Y6350000D02*
X1858010Y6350000D01*
X1697990Y5922010D02*
X1858010Y5761990D01*
X1858010Y5922010D02*
X1697990Y5761990D01*
X1778000Y5922010D02*
X1778000Y5761990D01*
X1697990Y5842000D02*
X1858010Y5842000D01*
X1697990Y2620010D02*
X1858010Y2459990D01*
X1858010Y2620010D02*
X1697990Y2459990D01*
X1778000Y2620010D02*
X1778000Y2459990D01*
X1697990Y2540000D02*
X1858010Y2540000D01*
X1697990Y2112010D02*
X1858010Y1951990D01*
X1858010Y2112010D02*
X1697990Y1951990D01*
X1778000Y2112010D02*
X1778000Y1951990D01*
X1697990Y2032000D02*
X1858010Y2032000D01*
X2205990Y6430010D02*
X2366010Y6269990D01*
X2366010Y6430010D02*
X2205990Y6269990D01*
X2286000Y6430010D02*
X2286000Y6269990D01*
X2205990Y6350000D02*
X2366010Y6350000D01*
X2205990Y5922010D02*
X2366010Y5761990D01*
X2366010Y5922010D02*
X2205990Y5761990D01*
X2286000Y5922010D02*
X2286000Y5761990D01*
X2205990Y5842000D02*
X2366010Y5842000D01*
X2205990Y2620010D02*
X2366010Y2459990D01*
X2366010Y2620010D02*
X2205990Y2459990D01*
X2286000Y2620010D02*
X2286000Y2459990D01*
X2205990Y2540000D02*
X2366010Y2540000D01*
X2205990Y2112010D02*
X2366010Y1951990D01*
X2366010Y2112010D02*
X2205990Y1951990D01*
X2286000Y2112010D02*
X2286000Y1951990D01*
X2205990Y2032000D02*
X2366010Y2032000D01*
X2713990Y6430010D02*
X2874010Y6269990D01*
X2874010Y6430010D02*
X2713990Y6269990D01*
X2794000Y6430010D02*
X2794000Y6269990D01*
X2713990Y6350000D02*
X2874010Y6350000D01*
X2713990Y5922010D02*
X2874010Y5761990D01*
X2874010Y5922010D02*
X2713990Y5761990D01*
X2794000Y5922010D02*
X2794000Y5761990D01*
X2713990Y5842000D02*
X2874010Y5842000D01*
X2713990Y2620010D02*
X2874010Y2459990D01*
X2874010Y2620010D02*
X2713990Y2459990D01*
X2794000Y2620010D02*
X2794000Y2459990D01*
X2713990Y2540000D02*
X2874010Y2540000D01*
X2713990Y2112010D02*
X2874010Y1951990D01*
X2874010Y2112010D02*
X2713990Y1951990D01*
X2794000Y2112010D02*
X2794000Y1951990D01*
X2713990Y2032000D02*
X2874010Y2032000D01*
X3221990Y6430010D02*
X3382010Y6269990D01*
X3382010Y6430010D02*
X3221990Y6269990D01*
X3302000Y6430010D02*
X3302000Y6269990D01*
X3221990Y6350000D02*
X3382010Y6350000D01*
X3221990Y5922010D02*
X3382010Y5761990D01*
X3382010Y5922010D02*
X3221990Y5761990D01*
X3302000Y5922010D02*
X3302000Y5761990D01*
X3221990Y5842000D02*
X3382010Y5842000D01*
X3221990Y2620010D02*
X3382010Y2459990D01*
X3382010Y2620010D02*
X3221990Y2459990D01*
X3302000Y2620010D02*
X3302000Y2459990D01*
X3221990Y2540000D02*
X3382010Y2540000D01*
X3221990Y2112010D02*
X3382010Y1951990D01*
X3382010Y2112010D02*
X3221990Y1951990D01*
X3302000Y2112010D02*
X3302000Y1951990D01*
X3221990Y2032000D02*
X3382010Y2032000D01*
X3729990Y6430010D02*
X3890010Y6269990D01*
X3890010Y6430010D02*
X3729990Y6269990D01*
X3810000Y6430010D02*
X3810000Y6269990D01*
X3729990Y6350000D02*
X3890010Y6350000D01*
X3729990Y5922010D02*
X3890010Y5761990D01*
X3890010Y5922010D02*
X3729990Y5761990D01*
X3810000Y5922010D02*
X3810000Y5761990D01*
X3729990Y5842000D02*
X3890010Y5842000D01*
X3729990Y2620010D02*
X3890010Y2459990D01*
X3890010Y2620010D02*
X3729990Y2459990D01*
X3810000Y2620010D02*
X3810000Y2459990D01*
X3729990Y2540000D02*
X3890010Y2540000D01*
X3729990Y2112010D02*
X3890010Y1951990D01*
X3890010Y2112010D02*
X3729990Y1951990D01*
X3810000Y2112010D02*
X3810000Y1951990D01*
X3729990Y2032000D02*
X3890010Y2032000D01*
X4237990Y6430010D02*
X4398010Y6269990D01*
X4398010Y6430010D02*
X4237990Y6269990D01*
X4318000Y6430010D02*
X4318000Y6269990D01*
X4237990Y6350000D02*
X4398010Y6350000D01*
X4237990Y5922010D02*
X4398010Y5761990D01*
X4398010Y5922010D02*
X4237990Y5761990D01*
X4318000Y5922010D02*
X4318000Y5761990D01*
X4237990Y5842000D02*
X4398010Y5842000D01*
X4237990Y2620010D02*
X4398010Y2459990D01*
X4398010Y2620010D02*
X4237990Y2459990D01*
X4318000Y2620010D02*
X4318000Y2459990D01*
X4237990Y2540000D02*
X4398010Y2540000D01*
X4237990Y2112010D02*
X4398010Y1951990D01*
X4398010Y2112010D02*
X4237990Y1951990D01*
X4318000Y2112010D02*
X4318000Y1951990D01*
X4237990Y2032000D02*
X4398010Y2032000D01*
X4745990Y6430010D02*
X4906010Y6269990D01*
X4906010Y6430010D02*
X4745990Y6269990D01*
X4826000Y6430010D02*
X4826000Y6269990D01*
X4745990Y6350000D02*
X4906010Y6350000D01*
X4745990Y5922010D02*
X4906010Y5761990D01*
X4906010Y5922010D02*
X4745990Y5761990D01*
X4826000Y5922010D02*
X4826000Y5761990D01*
X4745990Y5842000D02*
X4906010Y5842000D01*
X4745990Y2620010D02*
X4906010Y2459990D01*
X4906010Y2620010D02*
X4745990Y2459990D01*
X4826000Y2620010D02*
X4826000Y2459990D01*
X4745990Y2540000D02*
X4906010Y2540000D01*
X4745990Y2112010D02*
X4906010Y1951990D01*
X4906010Y2112010D02*
X4745990Y1951990D01*
X4826000Y2112010D02*
X4826000Y1951990D01*
X4745990Y2032000D02*
X4906010Y2032000D01*
X2276000Y786000D02*
X2506000Y556000D01*
X2506000Y786000D02*
X2276000Y556000D01*
X2472318Y589682D02*
X2472318Y752318D01*
X2309682Y752318D01*
X2309682Y589682D01*
X2472318Y589682D01*
X3590000Y786000D02*
X3820000Y556000D01*
X3820000Y786000D02*
X3590000Y556000D01*
X3786318Y589682D02*
X3786318Y752318D01*
X3623682Y752318D01*
X3623682Y589682D01*
X3786318Y589682D01*
X2763000Y7933000D02*
X2883000Y7813000D01*
X2883000Y7933000D02*
X2763000Y7813000D01*
X2823000Y7813000D02*
X2883000Y7873000D01*
X2823000Y7933000D01*
X2763000Y7873000D01*
X2823000Y7813000D01*
X3213000Y7933000D02*
X3333000Y7813000D01*
X3333000Y7933000D02*
X3213000Y7813000D01*
X3273000Y7813000D02*
X3333000Y7873000D01*
X3273000Y7933000D01*
X3213000Y7873000D01*
X3273000Y7813000D01*
D12*
X265079Y-472064D02*
X265079Y-172064D01*
X336507Y-172064D01*
X379364Y-186350D01*
X407936Y-214921D01*
X422221Y-243493D01*
X436507Y-300636D01*
X436507Y-343493D01*
X422221Y-400636D01*
X407936Y-429207D01*
X379364Y-457779D01*
X336507Y-472064D01*
X265079Y-472064D01*
X565079Y-472064D02*
X565079Y-272064D01*
X565079Y-329207D02*
X579364Y-300636D01*
X593650Y-286350D01*
X622221Y-272064D01*
X650793Y-272064D01*
X750793Y-472064D02*
X750793Y-272064D01*
X750793Y-172064D02*
X736507Y-186350D01*
X750793Y-200636D01*
X765078Y-186350D01*
X750793Y-172064D01*
X750793Y-200636D01*
X936507Y-472064D02*
X907936Y-457779D01*
X893650Y-429207D01*
X893650Y-172064D01*
X1093650Y-472064D02*
X1065079Y-457779D01*
X1050793Y-429207D01*
X1050793Y-172064D01*
X1436507Y-472064D02*
X1436507Y-172064D01*
X1536507Y-386350D01*
X1636507Y-172064D01*
X1636507Y-472064D01*
X1907936Y-472064D02*
X1907936Y-314922D01*
X1893650Y-286350D01*
X1865078Y-272064D01*
X1807936Y-272064D01*
X1779364Y-286350D01*
X1907936Y-457779D02*
X1879364Y-472064D01*
X1807936Y-472064D01*
X1779364Y-457779D01*
X1765078Y-429207D01*
X1765078Y-400636D01*
X1779364Y-372064D01*
X1807936Y-357779D01*
X1879364Y-357779D01*
X1907936Y-343493D01*
X2050793Y-272064D02*
X2050793Y-572064D01*
X2050793Y-286350D02*
X2079364Y-272064D01*
X2136507Y-272064D01*
X2165079Y-286350D01*
X2179364Y-300636D01*
X2193650Y-329207D01*
X2193650Y-414921D01*
X2179364Y-443493D01*
X2165079Y-457779D01*
X2136507Y-472064D01*
X2079364Y-472064D01*
X2050793Y-457779D01*
X2322221Y-443493D02*
X2336507Y-457779D01*
X2322221Y-472064D01*
X2307936Y-457779D01*
X2322221Y-443493D01*
X2322221Y-472064D01*
X2322221Y-286350D02*
X2336507Y-300636D01*
X2322221Y-314922D01*
X2307936Y-300636D01*
X2322221Y-286350D01*
X2322221Y-314922D01*
X-39370Y-949840D02*
X-6350Y-982860D01*
X-6350Y-949840D02*
X-39370Y-982860D01*
X322221Y-802064D02*
X350793Y-802064D01*
X379364Y-816350D01*
X393650Y-830636D01*
X407936Y-859207D01*
X422221Y-916350D01*
X422221Y-987779D01*
X407936Y-1044921D01*
X393650Y-1073493D01*
X379364Y-1087779D01*
X350793Y-1102064D01*
X322221Y-1102064D01*
X293650Y-1087779D01*
X279364Y-1073493D01*
X265079Y-1044921D01*
X250793Y-987779D01*
X250793Y-916350D01*
X265079Y-859207D01*
X279364Y-830636D01*
X293650Y-816350D01*
X322221Y-802064D01*
X550793Y-1073493D02*
X565079Y-1087779D01*
X550793Y-1102064D01*
X536507Y-1087779D01*
X550793Y-1073493D01*
X550793Y-1102064D01*
X665078Y-802064D02*
X850793Y-802064D01*
X750793Y-916350D01*
X793650Y-916350D01*
X822221Y-930636D01*
X836507Y-944921D01*
X850793Y-973493D01*
X850793Y-1044921D01*
X836507Y-1073493D01*
X822221Y-1087779D01*
X793650Y-1102064D01*
X707936Y-1102064D01*
X679364Y-1087779D01*
X665078Y-1073493D01*
X950793Y-802064D02*
X1136507Y-802064D01*
X1036507Y-916350D01*
X1079364Y-916350D01*
X1107936Y-930636D01*
X1122221Y-944921D01*
X1136507Y-973493D01*
X1136507Y-1044921D01*
X1122221Y-1073493D01*
X1107936Y-1087779D01*
X1079364Y-1102064D01*
X993650Y-1102064D01*
X965078Y-1087779D01*
X950793Y-1073493D01*
X1265079Y-1102064D02*
X1265079Y-902064D01*
X1265079Y-930636D02*
X1279364Y-916350D01*
X1307936Y-902064D01*
X1350793Y-902064D01*
X1379364Y-916350D01*
X1393650Y-944921D01*
X1393650Y-1102064D01*
X1393650Y-944921D02*
X1407936Y-916350D01*
X1436507Y-902064D01*
X1479364Y-902064D01*
X1507936Y-916350D01*
X1522221Y-944921D01*
X1522221Y-1102064D01*
X1665078Y-1102064D02*
X1665078Y-902064D01*
X1665078Y-930636D02*
X1679364Y-916350D01*
X1707936Y-902064D01*
X1750793Y-902064D01*
X1779364Y-916350D01*
X1793650Y-944921D01*
X1793650Y-1102064D01*
X1793650Y-944921D02*
X1807936Y-916350D01*
X1836507Y-902064D01*
X1879364Y-902064D01*
X1907936Y-916350D01*
X1922221Y-944921D01*
X1922221Y-1102064D01*
X2507936Y-787779D02*
X2250793Y-1173493D01*
X2893650Y-802064D02*
X2922221Y-802064D01*
X2950793Y-816350D01*
X2965078Y-830636D01*
X2979364Y-859207D01*
X2993650Y-916350D01*
X2993650Y-987779D01*
X2979364Y-1044921D01*
X2965078Y-1073493D01*
X2950793Y-1087779D01*
X2922221Y-1102064D01*
X2893650Y-1102064D01*
X2865078Y-1087779D01*
X2850793Y-1073493D01*
X2836507Y-1044921D01*
X2822221Y-987779D01*
X2822221Y-916350D01*
X2836507Y-859207D01*
X2850793Y-830636D01*
X2865078Y-816350D01*
X2893650Y-802064D01*
X3122221Y-1073493D02*
X3136507Y-1087779D01*
X3122221Y-1102064D01*
X3107936Y-1087779D01*
X3122221Y-1073493D01*
X3122221Y-1102064D01*
X3322221Y-802064D02*
X3350793Y-802064D01*
X3379364Y-816350D01*
X3393650Y-830636D01*
X3407935Y-859207D01*
X3422221Y-916350D01*
X3422221Y-987779D01*
X3407935Y-1044921D01*
X3393650Y-1073493D01*
X3379364Y-1087779D01*
X3350793Y-1102064D01*
X3322221Y-1102064D01*
X3293650Y-1087779D01*
X3279364Y-1073493D01*
X3265078Y-1044921D01*
X3250793Y-987779D01*
X3250793Y-916350D01*
X3265078Y-859207D01*
X3279364Y-830636D01*
X3293650Y-816350D01*
X3322221Y-802064D01*
X3707935Y-1102064D02*
X3536507Y-1102064D01*
X3622221Y-1102064D02*
X3622221Y-802064D01*
X3593650Y-844921D01*
X3565078Y-873493D01*
X3536507Y-887779D01*
X3807935Y-802064D02*
X3993650Y-802064D01*
X3893650Y-916350D01*
X3936507Y-916350D01*
X3965078Y-930636D01*
X3979364Y-944921D01*
X3993650Y-973493D01*
X3993650Y-1044921D01*
X3979364Y-1073493D01*
X3965078Y-1087779D01*
X3936507Y-1102064D01*
X3850793Y-1102064D01*
X3822221Y-1087779D01*
X3807935Y-1073493D01*
X4107936Y-802064D02*
X4107936Y-859207D01*
X4222221Y-802064D02*
X4222221Y-859207D01*
X4665078Y-1216350D02*
X4650793Y-1202064D01*
X4622221Y-1159207D01*
X4607936Y-1130636D01*
X4593650Y-1087779D01*
X4579364Y-1016350D01*
X4579364Y-959207D01*
X4593650Y-887779D01*
X4607936Y-844921D01*
X4622221Y-816350D01*
X4650793Y-773493D01*
X4665078Y-759207D01*
X4765078Y-830636D02*
X4779364Y-816350D01*
X4807936Y-802064D01*
X4879364Y-802064D01*
X4907936Y-816350D01*
X4922221Y-830636D01*
X4936507Y-859207D01*
X4936507Y-887779D01*
X4922221Y-930636D01*
X4750793Y-1102064D01*
X4936507Y-1102064D01*
X5293650Y-1102064D02*
X5293650Y-802064D01*
X5422221Y-1102064D02*
X5422221Y-944921D01*
X5407936Y-916350D01*
X5379364Y-902064D01*
X5336507Y-902064D01*
X5307936Y-916350D01*
X5293650Y-930636D01*
X5607935Y-1102064D02*
X5579364Y-1087779D01*
X5565078Y-1073493D01*
X5550793Y-1044921D01*
X5550793Y-959207D01*
X5565078Y-930636D01*
X5579364Y-916350D01*
X5607935Y-902064D01*
X5650793Y-902064D01*
X5679364Y-916350D01*
X5693650Y-930636D01*
X5707935Y-959207D01*
X5707935Y-1044921D01*
X5693650Y-1073493D01*
X5679364Y-1087779D01*
X5650793Y-1102064D01*
X5607935Y-1102064D01*
X5879364Y-1102064D02*
X5850793Y-1087779D01*
X5836507Y-1059207D01*
X5836507Y-802064D01*
X6107936Y-1087779D02*
X6079364Y-1102064D01*
X6022221Y-1102064D01*
X5993650Y-1087779D01*
X5979364Y-1059207D01*
X5979364Y-944921D01*
X5993650Y-916350D01*
X6022221Y-902064D01*
X6079364Y-902064D01*
X6107936Y-916350D01*
X6122221Y-944921D01*
X6122221Y-973493D01*
X5979364Y-1002064D01*
X6236507Y-1087779D02*
X6265078Y-1102064D01*
X6322221Y-1102064D01*
X6350793Y-1087779D01*
X6365078Y-1059207D01*
X6365078Y-1044921D01*
X6350793Y-1016350D01*
X6322221Y-1002064D01*
X6279364Y-1002064D01*
X6250793Y-987779D01*
X6236507Y-959207D01*
X6236507Y-944921D01*
X6250793Y-916350D01*
X6279364Y-902064D01*
X6322221Y-902064D01*
X6350793Y-916350D01*
X6465078Y-1216350D02*
X6479364Y-1202064D01*
X6507936Y-1159207D01*
X6522221Y-1130636D01*
X6536507Y-1087779D01*
X6550793Y-1016350D01*
X6550793Y-959207D01*
X6536507Y-887779D01*
X6522221Y-844921D01*
X6507936Y-816350D01*
X6479364Y-773493D01*
X6465078Y-759207D01*
X-6350Y-1362350D02*
G75*
G03X-6350Y-1362350I-19050J0D01*
G01*
X322221Y-1198064D02*
X350793Y-1198064D01*
X379364Y-1212350D01*
X393650Y-1226636D01*
X407936Y-1255207D01*
X422221Y-1312350D01*
X422221Y-1383779D01*
X407936Y-1440921D01*
X393650Y-1469493D01*
X379364Y-1483779D01*
X350793Y-1498064D01*
X322221Y-1498064D01*
X293650Y-1483779D01*
X279364Y-1469493D01*
X265079Y-1440921D01*
X250793Y-1383779D01*
X250793Y-1312350D01*
X265079Y-1255207D01*
X279364Y-1226636D01*
X293650Y-1212350D01*
X322221Y-1198064D01*
X550793Y-1469493D02*
X565079Y-1483779D01*
X550793Y-1498064D01*
X536507Y-1483779D01*
X550793Y-1469493D01*
X550793Y-1498064D01*
X665078Y-1198064D02*
X850793Y-1198064D01*
X750793Y-1312350D01*
X793650Y-1312350D01*
X822221Y-1326636D01*
X836507Y-1340922D01*
X850793Y-1369493D01*
X850793Y-1440921D01*
X836507Y-1469493D01*
X822221Y-1483779D01*
X793650Y-1498064D01*
X707936Y-1498064D01*
X679364Y-1483779D01*
X665078Y-1469493D01*
X1022221Y-1326636D02*
X993650Y-1312350D01*
X979364Y-1298064D01*
X965078Y-1269493D01*
X965078Y-1255207D01*
X979364Y-1226636D01*
X993650Y-1212350D01*
X1022221Y-1198064D01*
X1079364Y-1198064D01*
X1107936Y-1212350D01*
X1122221Y-1226636D01*
X1136507Y-1255207D01*
X1136507Y-1269493D01*
X1122221Y-1298064D01*
X1107936Y-1312350D01*
X1079364Y-1326636D01*
X1022221Y-1326636D01*
X993650Y-1340922D01*
X979364Y-1355207D01*
X965078Y-1383779D01*
X965078Y-1440921D01*
X979364Y-1469493D01*
X993650Y-1483779D01*
X1022221Y-1498064D01*
X1079364Y-1498064D01*
X1107936Y-1483779D01*
X1122221Y-1469493D01*
X1136507Y-1440921D01*
X1136507Y-1383779D01*
X1122221Y-1355207D01*
X1107936Y-1340922D01*
X1079364Y-1326636D01*
X1265079Y-1498064D02*
X1265079Y-1298064D01*
X1265079Y-1326636D02*
X1279364Y-1312350D01*
X1307936Y-1298064D01*
X1350793Y-1298064D01*
X1379364Y-1312350D01*
X1393650Y-1340922D01*
X1393650Y-1498064D01*
X1393650Y-1340922D02*
X1407936Y-1312350D01*
X1436507Y-1298064D01*
X1479364Y-1298064D01*
X1507936Y-1312350D01*
X1522221Y-1340922D01*
X1522221Y-1498064D01*
X1665078Y-1498064D02*
X1665078Y-1298064D01*
X1665078Y-1326636D02*
X1679364Y-1312350D01*
X1707936Y-1298064D01*
X1750793Y-1298064D01*
X1779364Y-1312350D01*
X1793650Y-1340922D01*
X1793650Y-1498064D01*
X1793650Y-1340922D02*
X1807936Y-1312350D01*
X1836507Y-1298064D01*
X1879364Y-1298064D01*
X1907936Y-1312350D01*
X1922221Y-1340922D01*
X1922221Y-1498064D01*
X2507936Y-1183779D02*
X2250793Y-1569493D01*
X2893650Y-1198064D02*
X2922221Y-1198064D01*
X2950793Y-1212350D01*
X2965078Y-1226636D01*
X2979364Y-1255207D01*
X2993650Y-1312350D01*
X2993650Y-1383779D01*
X2979364Y-1440921D01*
X2965078Y-1469493D01*
X2950793Y-1483779D01*
X2922221Y-1498064D01*
X2893650Y-1498064D01*
X2865078Y-1483779D01*
X2850793Y-1469493D01*
X2836507Y-1440921D01*
X2822221Y-1383779D01*
X2822221Y-1312350D01*
X2836507Y-1255207D01*
X2850793Y-1226636D01*
X2865078Y-1212350D01*
X2893650Y-1198064D01*
X3122221Y-1469493D02*
X3136507Y-1483779D01*
X3122221Y-1498064D01*
X3107936Y-1483779D01*
X3122221Y-1469493D01*
X3122221Y-1498064D01*
X3322221Y-1198064D02*
X3350793Y-1198064D01*
X3379364Y-1212350D01*
X3393650Y-1226636D01*
X3407935Y-1255207D01*
X3422221Y-1312350D01*
X3422221Y-1383779D01*
X3407935Y-1440921D01*
X3393650Y-1469493D01*
X3379364Y-1483779D01*
X3350793Y-1498064D01*
X3322221Y-1498064D01*
X3293650Y-1483779D01*
X3279364Y-1469493D01*
X3265078Y-1440921D01*
X3250793Y-1383779D01*
X3250793Y-1312350D01*
X3265078Y-1255207D01*
X3279364Y-1226636D01*
X3293650Y-1212350D01*
X3322221Y-1198064D01*
X3707935Y-1498064D02*
X3536507Y-1498064D01*
X3622221Y-1498064D02*
X3622221Y-1198064D01*
X3593650Y-1240922D01*
X3565078Y-1269493D01*
X3536507Y-1283779D01*
X3979364Y-1198064D02*
X3836507Y-1198064D01*
X3822221Y-1340922D01*
X3836507Y-1326636D01*
X3865078Y-1312350D01*
X3936507Y-1312350D01*
X3965078Y-1326636D01*
X3979364Y-1340922D01*
X3993650Y-1369493D01*
X3993650Y-1440921D01*
X3979364Y-1469493D01*
X3965078Y-1483779D01*
X3936507Y-1498064D01*
X3865078Y-1498064D01*
X3836507Y-1483779D01*
X3822221Y-1469493D01*
X4107936Y-1198064D02*
X4107936Y-1255207D01*
X4222221Y-1198064D02*
X4222221Y-1255207D01*
X4665078Y-1612350D02*
X4650793Y-1598064D01*
X4622221Y-1555207D01*
X4607936Y-1526636D01*
X4593650Y-1483779D01*
X4579364Y-1412350D01*
X4579364Y-1355207D01*
X4593650Y-1283779D01*
X4607936Y-1240922D01*
X4622221Y-1212350D01*
X4650793Y-1169493D01*
X4665078Y-1155207D01*
X4765078Y-1226636D02*
X4779364Y-1212350D01*
X4807936Y-1198064D01*
X4879364Y-1198064D01*
X4907936Y-1212350D01*
X4922221Y-1226636D01*
X4936507Y-1255207D01*
X4936507Y-1283779D01*
X4922221Y-1326636D01*
X4750793Y-1498064D01*
X4936507Y-1498064D01*
X5293650Y-1498064D02*
X5293650Y-1198064D01*
X5422221Y-1498064D02*
X5422221Y-1340922D01*
X5407936Y-1312350D01*
X5379364Y-1298064D01*
X5336507Y-1298064D01*
X5307936Y-1312350D01*
X5293650Y-1326636D01*
X5607935Y-1498064D02*
X5579364Y-1483779D01*
X5565078Y-1469493D01*
X5550793Y-1440921D01*
X5550793Y-1355207D01*
X5565078Y-1326636D01*
X5579364Y-1312350D01*
X5607935Y-1298064D01*
X5650793Y-1298064D01*
X5679364Y-1312350D01*
X5693650Y-1326636D01*
X5707935Y-1355207D01*
X5707935Y-1440921D01*
X5693650Y-1469493D01*
X5679364Y-1483779D01*
X5650793Y-1498064D01*
X5607935Y-1498064D01*
X5879364Y-1498064D02*
X5850793Y-1483779D01*
X5836507Y-1455207D01*
X5836507Y-1198064D01*
X6107936Y-1483779D02*
X6079364Y-1498064D01*
X6022221Y-1498064D01*
X5993650Y-1483779D01*
X5979364Y-1455207D01*
X5979364Y-1340922D01*
X5993650Y-1312350D01*
X6022221Y-1298064D01*
X6079364Y-1298064D01*
X6107936Y-1312350D01*
X6122221Y-1340922D01*
X6122221Y-1369493D01*
X5979364Y-1398064D01*
X6236507Y-1483779D02*
X6265078Y-1498064D01*
X6322221Y-1498064D01*
X6350793Y-1483779D01*
X6365078Y-1455207D01*
X6365078Y-1440921D01*
X6350793Y-1412350D01*
X6322221Y-1398064D01*
X6279364Y-1398064D01*
X6250793Y-1383779D01*
X6236507Y-1355207D01*
X6236507Y-1340922D01*
X6250793Y-1312350D01*
X6279364Y-1298064D01*
X6322221Y-1298064D01*
X6350793Y-1312350D01*
X6465078Y-1612350D02*
X6479364Y-1598064D01*
X6507936Y-1555207D01*
X6522221Y-1526636D01*
X6536507Y-1483779D01*
X6550793Y-1412350D01*
X6550793Y-1355207D01*
X6536507Y-1283779D01*
X6522221Y-1240922D01*
X6507936Y-1212350D01*
X6479364Y-1169493D01*
X6465078Y-1155207D01*
X-41350Y-1723350D02*
X-41350Y-1793350D01*
X-76350Y-1758350D02*
X-6350Y-1758350D01*
X322221Y-1594064D02*
X350793Y-1594064D01*
X379364Y-1608350D01*
X393650Y-1622636D01*
X407936Y-1651207D01*
X422221Y-1708350D01*
X422221Y-1779779D01*
X407936Y-1836921D01*
X393650Y-1865493D01*
X379364Y-1879779D01*
X350793Y-1894064D01*
X322221Y-1894064D01*
X293650Y-1879779D01*
X279364Y-1865493D01*
X265079Y-1836921D01*
X250793Y-1779779D01*
X250793Y-1708350D01*
X265079Y-1651207D01*
X279364Y-1622636D01*
X293650Y-1608350D01*
X322221Y-1594064D01*
X550793Y-1865493D02*
X565079Y-1879779D01*
X550793Y-1894064D01*
X536507Y-1879779D01*
X550793Y-1865493D01*
X550793Y-1894064D01*
X665078Y-1594064D02*
X865078Y-1594064D01*
X736507Y-1894064D01*
X1036507Y-1594064D02*
X1065079Y-1594064D01*
X1093650Y-1608350D01*
X1107936Y-1622636D01*
X1122221Y-1651207D01*
X1136507Y-1708350D01*
X1136507Y-1779779D01*
X1122221Y-1836921D01*
X1107936Y-1865493D01*
X1093650Y-1879779D01*
X1065079Y-1894064D01*
X1036507Y-1894064D01*
X1007936Y-1879779D01*
X993650Y-1865493D01*
X979364Y-1836921D01*
X965078Y-1779779D01*
X965078Y-1708350D01*
X979364Y-1651207D01*
X993650Y-1622636D01*
X1007936Y-1608350D01*
X1036507Y-1594064D01*
X1265079Y-1894064D02*
X1265079Y-1694064D01*
X1265079Y-1722636D02*
X1279364Y-1708350D01*
X1307936Y-1694064D01*
X1350793Y-1694064D01*
X1379364Y-1708350D01*
X1393650Y-1736921D01*
X1393650Y-1894064D01*
X1393650Y-1736921D02*
X1407936Y-1708350D01*
X1436507Y-1694064D01*
X1479364Y-1694064D01*
X1507936Y-1708350D01*
X1522221Y-1736921D01*
X1522221Y-1894064D01*
X1665078Y-1894064D02*
X1665078Y-1694064D01*
X1665078Y-1722636D02*
X1679364Y-1708350D01*
X1707936Y-1694064D01*
X1750793Y-1694064D01*
X1779364Y-1708350D01*
X1793650Y-1736921D01*
X1793650Y-1894064D01*
X1793650Y-1736921D02*
X1807936Y-1708350D01*
X1836507Y-1694064D01*
X1879364Y-1694064D01*
X1907936Y-1708350D01*
X1922221Y-1736921D01*
X1922221Y-1894064D01*
X2507936Y-1579779D02*
X2250793Y-1965493D01*
X2893650Y-1594064D02*
X2922221Y-1594064D01*
X2950793Y-1608350D01*
X2965078Y-1622636D01*
X2979364Y-1651207D01*
X2993650Y-1708350D01*
X2993650Y-1779779D01*
X2979364Y-1836921D01*
X2965078Y-1865493D01*
X2950793Y-1879779D01*
X2922221Y-1894064D01*
X2893650Y-1894064D01*
X2865078Y-1879779D01*
X2850793Y-1865493D01*
X2836507Y-1836921D01*
X2822221Y-1779779D01*
X2822221Y-1708350D01*
X2836507Y-1651207D01*
X2850793Y-1622636D01*
X2865078Y-1608350D01*
X2893650Y-1594064D01*
X3122221Y-1865493D02*
X3136507Y-1879779D01*
X3122221Y-1894064D01*
X3107936Y-1879779D01*
X3122221Y-1865493D01*
X3122221Y-1894064D01*
X3322221Y-1594064D02*
X3350793Y-1594064D01*
X3379364Y-1608350D01*
X3393650Y-1622636D01*
X3407935Y-1651207D01*
X3422221Y-1708350D01*
X3422221Y-1779779D01*
X3407935Y-1836921D01*
X3393650Y-1865493D01*
X3379364Y-1879779D01*
X3350793Y-1894064D01*
X3322221Y-1894064D01*
X3293650Y-1879779D01*
X3279364Y-1865493D01*
X3265078Y-1836921D01*
X3250793Y-1779779D01*
X3250793Y-1708350D01*
X3265078Y-1651207D01*
X3279364Y-1622636D01*
X3293650Y-1608350D01*
X3322221Y-1594064D01*
X3536507Y-1622636D02*
X3550793Y-1608350D01*
X3579364Y-1594064D01*
X3650793Y-1594064D01*
X3679364Y-1608350D01*
X3693650Y-1622636D01*
X3707935Y-1651207D01*
X3707935Y-1679779D01*
X3693650Y-1722636D01*
X3522221Y-1894064D01*
X3707935Y-1894064D01*
X3879364Y-1722636D02*
X3850793Y-1708350D01*
X3836507Y-1694064D01*
X3822221Y-1665493D01*
X3822221Y-1651207D01*
X3836507Y-1622636D01*
X3850793Y-1608350D01*
X3879364Y-1594064D01*
X3936507Y-1594064D01*
X3965078Y-1608350D01*
X3979364Y-1622636D01*
X3993650Y-1651207D01*
X3993650Y-1665493D01*
X3979364Y-1694064D01*
X3965078Y-1708350D01*
X3936507Y-1722636D01*
X3879364Y-1722636D01*
X3850793Y-1736921D01*
X3836507Y-1751207D01*
X3822221Y-1779779D01*
X3822221Y-1836921D01*
X3836507Y-1865493D01*
X3850793Y-1879779D01*
X3879364Y-1894064D01*
X3936507Y-1894064D01*
X3965078Y-1879779D01*
X3979364Y-1865493D01*
X3993650Y-1836921D01*
X3993650Y-1779779D01*
X3979364Y-1751207D01*
X3965078Y-1736921D01*
X3936507Y-1722636D01*
X4107936Y-1594064D02*
X4107936Y-1651207D01*
X4222221Y-1594064D02*
X4222221Y-1651207D01*
X4665078Y-2008350D02*
X4650793Y-1994064D01*
X4622221Y-1951207D01*
X4607936Y-1922636D01*
X4593650Y-1879779D01*
X4579364Y-1808350D01*
X4579364Y-1751207D01*
X4593650Y-1679779D01*
X4607936Y-1636921D01*
X4622221Y-1608350D01*
X4650793Y-1565493D01*
X4665078Y-1551207D01*
X4793650Y-1894064D02*
X4850793Y-1894064D01*
X4879364Y-1879779D01*
X4893650Y-1865493D01*
X4922221Y-1822636D01*
X4936507Y-1765493D01*
X4936507Y-1651207D01*
X4922221Y-1622636D01*
X4907936Y-1608350D01*
X4879364Y-1594064D01*
X4822221Y-1594064D01*
X4793650Y-1608350D01*
X4779364Y-1622636D01*
X4765078Y-1651207D01*
X4765078Y-1722636D01*
X4779364Y-1751207D01*
X4793650Y-1765493D01*
X4822221Y-1779779D01*
X4879364Y-1779779D01*
X4907936Y-1765493D01*
X4922221Y-1751207D01*
X4936507Y-1722636D01*
X5293650Y-1894064D02*
X5293650Y-1594064D01*
X5422221Y-1894064D02*
X5422221Y-1736921D01*
X5407936Y-1708350D01*
X5379364Y-1694064D01*
X5336507Y-1694064D01*
X5307936Y-1708350D01*
X5293650Y-1722636D01*
X5607935Y-1894064D02*
X5579364Y-1879779D01*
X5565078Y-1865493D01*
X5550793Y-1836921D01*
X5550793Y-1751207D01*
X5565078Y-1722636D01*
X5579364Y-1708350D01*
X5607935Y-1694064D01*
X5650793Y-1694064D01*
X5679364Y-1708350D01*
X5693650Y-1722636D01*
X5707935Y-1751207D01*
X5707935Y-1836921D01*
X5693650Y-1865493D01*
X5679364Y-1879779D01*
X5650793Y-1894064D01*
X5607935Y-1894064D01*
X5879364Y-1894064D02*
X5850793Y-1879779D01*
X5836507Y-1851207D01*
X5836507Y-1594064D01*
X6107936Y-1879779D02*
X6079364Y-1894064D01*
X6022221Y-1894064D01*
X5993650Y-1879779D01*
X5979364Y-1851207D01*
X5979364Y-1736921D01*
X5993650Y-1708350D01*
X6022221Y-1694064D01*
X6079364Y-1694064D01*
X6107936Y-1708350D01*
X6122221Y-1736921D01*
X6122221Y-1765493D01*
X5979364Y-1794064D01*
X6236507Y-1879779D02*
X6265078Y-1894064D01*
X6322221Y-1894064D01*
X6350793Y-1879779D01*
X6365078Y-1851207D01*
X6365078Y-1836921D01*
X6350793Y-1808350D01*
X6322221Y-1794064D01*
X6279364Y-1794064D01*
X6250793Y-1779779D01*
X6236507Y-1751207D01*
X6236507Y-1736921D01*
X6250793Y-1708350D01*
X6279364Y-1694064D01*
X6322221Y-1694064D01*
X6350793Y-1708350D01*
X6465078Y-2008350D02*
X6479364Y-1994064D01*
X6507936Y-1951207D01*
X6522221Y-1922636D01*
X6536507Y-1879779D01*
X6550793Y-1808350D01*
X6550793Y-1751207D01*
X6536507Y-1679779D01*
X6522221Y-1636921D01*
X6507936Y-1608350D01*
X6479364Y-1565493D01*
X6465078Y-1551207D01*
X-17333Y-2180867D02*
X-17333Y-2127833D01*
X-70367Y-2127833D01*
X-70367Y-2180867D01*
X-17333Y-2180867D01*
X322221Y-1990064D02*
X350793Y-1990064D01*
X379364Y-2004350D01*
X393650Y-2018636D01*
X407936Y-2047207D01*
X422221Y-2104350D01*
X422221Y-2175779D01*
X407936Y-2232922D01*
X393650Y-2261493D01*
X379364Y-2275779D01*
X350793Y-2290064D01*
X322221Y-2290064D01*
X293650Y-2275779D01*
X279364Y-2261493D01*
X265079Y-2232922D01*
X250793Y-2175779D01*
X250793Y-2104350D01*
X265079Y-2047207D01*
X279364Y-2018636D01*
X293650Y-2004350D01*
X322221Y-1990064D01*
X550793Y-2261493D02*
X565079Y-2275779D01*
X550793Y-2290064D01*
X536507Y-2275779D01*
X550793Y-2261493D01*
X550793Y-2290064D01*
X665078Y-1990064D02*
X865078Y-1990064D01*
X736507Y-2290064D01*
X1122221Y-1990064D02*
X979364Y-1990064D01*
X965078Y-2132922D01*
X979364Y-2118636D01*
X1007936Y-2104350D01*
X1079364Y-2104350D01*
X1107936Y-2118636D01*
X1122221Y-2132922D01*
X1136507Y-2161493D01*
X1136507Y-2232922D01*
X1122221Y-2261493D01*
X1107936Y-2275779D01*
X1079364Y-2290064D01*
X1007936Y-2290064D01*
X979364Y-2275779D01*
X965078Y-2261493D01*
X1265079Y-2290064D02*
X1265079Y-2090064D01*
X1265079Y-2118636D02*
X1279364Y-2104350D01*
X1307936Y-2090064D01*
X1350793Y-2090064D01*
X1379364Y-2104350D01*
X1393650Y-2132922D01*
X1393650Y-2290064D01*
X1393650Y-2132922D02*
X1407936Y-2104350D01*
X1436507Y-2090064D01*
X1479364Y-2090064D01*
X1507936Y-2104350D01*
X1522221Y-2132922D01*
X1522221Y-2290064D01*
X1665078Y-2290064D02*
X1665078Y-2090064D01*
X1665078Y-2118636D02*
X1679364Y-2104350D01*
X1707936Y-2090064D01*
X1750793Y-2090064D01*
X1779364Y-2104350D01*
X1793650Y-2132922D01*
X1793650Y-2290064D01*
X1793650Y-2132922D02*
X1807936Y-2104350D01*
X1836507Y-2090064D01*
X1879364Y-2090064D01*
X1907936Y-2104350D01*
X1922221Y-2132922D01*
X1922221Y-2290064D01*
X2507936Y-1975779D02*
X2250793Y-2361493D01*
X2893650Y-1990064D02*
X2922221Y-1990064D01*
X2950793Y-2004350D01*
X2965078Y-2018636D01*
X2979364Y-2047207D01*
X2993650Y-2104350D01*
X2993650Y-2175779D01*
X2979364Y-2232922D01*
X2965078Y-2261493D01*
X2950793Y-2275779D01*
X2922221Y-2290064D01*
X2893650Y-2290064D01*
X2865078Y-2275779D01*
X2850793Y-2261493D01*
X2836507Y-2232922D01*
X2822221Y-2175779D01*
X2822221Y-2104350D01*
X2836507Y-2047207D01*
X2850793Y-2018636D01*
X2865078Y-2004350D01*
X2893650Y-1990064D01*
X3122221Y-2261493D02*
X3136507Y-2275779D01*
X3122221Y-2290064D01*
X3107936Y-2275779D01*
X3122221Y-2261493D01*
X3122221Y-2290064D01*
X3322221Y-1990064D02*
X3350793Y-1990064D01*
X3379364Y-2004350D01*
X3393650Y-2018636D01*
X3407935Y-2047207D01*
X3422221Y-2104350D01*
X3422221Y-2175779D01*
X3407935Y-2232922D01*
X3393650Y-2261493D01*
X3379364Y-2275779D01*
X3350793Y-2290064D01*
X3322221Y-2290064D01*
X3293650Y-2275779D01*
X3279364Y-2261493D01*
X3265078Y-2232922D01*
X3250793Y-2175779D01*
X3250793Y-2104350D01*
X3265078Y-2047207D01*
X3279364Y-2018636D01*
X3293650Y-2004350D01*
X3322221Y-1990064D01*
X3522221Y-1990064D02*
X3707935Y-1990064D01*
X3607935Y-2104350D01*
X3650793Y-2104350D01*
X3679364Y-2118636D01*
X3693650Y-2132922D01*
X3707935Y-2161493D01*
X3707935Y-2232922D01*
X3693650Y-2261493D01*
X3679364Y-2275779D01*
X3650793Y-2290064D01*
X3565078Y-2290064D01*
X3536507Y-2275779D01*
X3522221Y-2261493D01*
X3893650Y-1990064D02*
X3922221Y-1990064D01*
X3950793Y-2004350D01*
X3965078Y-2018636D01*
X3979364Y-2047207D01*
X3993650Y-2104350D01*
X3993650Y-2175779D01*
X3979364Y-2232922D01*
X3965078Y-2261493D01*
X3950793Y-2275779D01*
X3922221Y-2290064D01*
X3893650Y-2290064D01*
X3865078Y-2275779D01*
X3850793Y-2261493D01*
X3836507Y-2232922D01*
X3822221Y-2175779D01*
X3822221Y-2104350D01*
X3836507Y-2047207D01*
X3850793Y-2018636D01*
X3865078Y-2004350D01*
X3893650Y-1990064D01*
X4107936Y-1990064D02*
X4107936Y-2047207D01*
X4222221Y-1990064D02*
X4222221Y-2047207D01*
X4665078Y-2404350D02*
X4650793Y-2390064D01*
X4622221Y-2347207D01*
X4607936Y-2318636D01*
X4593650Y-2275779D01*
X4579364Y-2204350D01*
X4579364Y-2147207D01*
X4593650Y-2075779D01*
X4607936Y-2032921D01*
X4622221Y-2004350D01*
X4650793Y-1961493D01*
X4665078Y-1947207D01*
X4936507Y-2290064D02*
X4765078Y-2290064D01*
X4850793Y-2290064D02*
X4850793Y-1990064D01*
X4822221Y-2032921D01*
X4793650Y-2061493D01*
X4765078Y-2075779D01*
X5050793Y-2018636D02*
X5065078Y-2004350D01*
X5093650Y-1990064D01*
X5165078Y-1990064D01*
X5193650Y-2004350D01*
X5207936Y-2018636D01*
X5222221Y-2047207D01*
X5222221Y-2075779D01*
X5207936Y-2118636D01*
X5036507Y-2290064D01*
X5222221Y-2290064D01*
X5579364Y-2290064D02*
X5579364Y-1990064D01*
X5707935Y-2290064D02*
X5707935Y-2132922D01*
X5693650Y-2104350D01*
X5665078Y-2090064D01*
X5622221Y-2090064D01*
X5593650Y-2104350D01*
X5579364Y-2118636D01*
X5893650Y-2290064D02*
X5865078Y-2275779D01*
X5850793Y-2261493D01*
X5836507Y-2232922D01*
X5836507Y-2147207D01*
X5850793Y-2118636D01*
X5865078Y-2104350D01*
X5893650Y-2090064D01*
X5936507Y-2090064D01*
X5965078Y-2104350D01*
X5979364Y-2118636D01*
X5993650Y-2147207D01*
X5993650Y-2232922D01*
X5979364Y-2261493D01*
X5965078Y-2275779D01*
X5936507Y-2290064D01*
X5893650Y-2290064D01*
X6165078Y-2290064D02*
X6136507Y-2275779D01*
X6122221Y-2247207D01*
X6122221Y-1990064D01*
X6393650Y-2275779D02*
X6365078Y-2290064D01*
X6307936Y-2290064D01*
X6279364Y-2275779D01*
X6265078Y-2247207D01*
X6265078Y-2132922D01*
X6279364Y-2104350D01*
X6307936Y-2090064D01*
X6365078Y-2090064D01*
X6393650Y-2104350D01*
X6407936Y-2132922D01*
X6407936Y-2161493D01*
X6265078Y-2190064D01*
X6522221Y-2275779D02*
X6550793Y-2290064D01*
X6607936Y-2290064D01*
X6636507Y-2275779D01*
X6650793Y-2247207D01*
X6650793Y-2232922D01*
X6636507Y-2204350D01*
X6607936Y-2190064D01*
X6565078Y-2190064D01*
X6536507Y-2175779D01*
X6522221Y-2147207D01*
X6522221Y-2132922D01*
X6536507Y-2104350D01*
X6565078Y-2090064D01*
X6607936Y-2090064D01*
X6636507Y-2104350D01*
X6750793Y-2404350D02*
X6765078Y-2390064D01*
X6793650Y-2347207D01*
X6807936Y-2318636D01*
X6822221Y-2275779D01*
X6836507Y-2204350D01*
X6836507Y-2147207D01*
X6822221Y-2075779D01*
X6807936Y-2032921D01*
X6793650Y-2004350D01*
X6765078Y-1961493D01*
X6750793Y-1947207D01*
X-51350Y-2595350D02*
X-6350Y-2550350D01*
X-51350Y-2505350D01*
X-96350Y-2550350D01*
X-51350Y-2595350D01*
X322221Y-2386064D02*
X350793Y-2386064D01*
X379364Y-2400350D01*
X393650Y-2414636D01*
X407936Y-2443207D01*
X422221Y-2500350D01*
X422221Y-2571779D01*
X407936Y-2628922D01*
X393650Y-2657493D01*
X379364Y-2671779D01*
X350793Y-2686064D01*
X322221Y-2686064D01*
X293650Y-2671779D01*
X279364Y-2657493D01*
X265079Y-2628922D01*
X250793Y-2571779D01*
X250793Y-2500350D01*
X265079Y-2443207D01*
X279364Y-2414636D01*
X293650Y-2400350D01*
X322221Y-2386064D01*
X550793Y-2657493D02*
X565079Y-2671779D01*
X550793Y-2686064D01*
X536507Y-2671779D01*
X550793Y-2657493D01*
X550793Y-2686064D01*
X707936Y-2686064D02*
X765078Y-2686064D01*
X793650Y-2671779D01*
X807936Y-2657493D01*
X836507Y-2614636D01*
X850793Y-2557493D01*
X850793Y-2443207D01*
X836507Y-2414636D01*
X822221Y-2400350D01*
X793650Y-2386064D01*
X736507Y-2386064D01*
X707936Y-2400350D01*
X693650Y-2414636D01*
X679364Y-2443207D01*
X679364Y-2514636D01*
X693650Y-2543207D01*
X707936Y-2557493D01*
X736507Y-2571779D01*
X793650Y-2571779D01*
X822221Y-2557493D01*
X836507Y-2543207D01*
X850793Y-2514636D01*
X1036507Y-2386064D02*
X1065079Y-2386064D01*
X1093650Y-2400350D01*
X1107936Y-2414636D01*
X1122221Y-2443207D01*
X1136507Y-2500350D01*
X1136507Y-2571779D01*
X1122221Y-2628922D01*
X1107936Y-2657493D01*
X1093650Y-2671779D01*
X1065079Y-2686064D01*
X1036507Y-2686064D01*
X1007936Y-2671779D01*
X993650Y-2657493D01*
X979364Y-2628922D01*
X965078Y-2571779D01*
X965078Y-2500350D01*
X979364Y-2443207D01*
X993650Y-2414636D01*
X1007936Y-2400350D01*
X1036507Y-2386064D01*
X1265079Y-2686064D02*
X1265079Y-2486064D01*
X1265079Y-2514636D02*
X1279364Y-2500350D01*
X1307936Y-2486064D01*
X1350793Y-2486064D01*
X1379364Y-2500350D01*
X1393650Y-2528922D01*
X1393650Y-2686064D01*
X1393650Y-2528922D02*
X1407936Y-2500350D01*
X1436507Y-2486064D01*
X1479364Y-2486064D01*
X1507936Y-2500350D01*
X1522221Y-2528922D01*
X1522221Y-2686064D01*
X1665078Y-2686064D02*
X1665078Y-2486064D01*
X1665078Y-2514636D02*
X1679364Y-2500350D01*
X1707936Y-2486064D01*
X1750793Y-2486064D01*
X1779364Y-2500350D01*
X1793650Y-2528922D01*
X1793650Y-2686064D01*
X1793650Y-2528922D02*
X1807936Y-2500350D01*
X1836507Y-2486064D01*
X1879364Y-2486064D01*
X1907936Y-2500350D01*
X1922221Y-2528922D01*
X1922221Y-2686064D01*
X2507936Y-2371779D02*
X2250793Y-2757493D01*
X2893650Y-2386064D02*
X2922221Y-2386064D01*
X2950793Y-2400350D01*
X2965078Y-2414636D01*
X2979364Y-2443207D01*
X2993650Y-2500350D01*
X2993650Y-2571779D01*
X2979364Y-2628922D01*
X2965078Y-2657493D01*
X2950793Y-2671779D01*
X2922221Y-2686064D01*
X2893650Y-2686064D01*
X2865078Y-2671779D01*
X2850793Y-2657493D01*
X2836507Y-2628922D01*
X2822221Y-2571779D01*
X2822221Y-2500350D01*
X2836507Y-2443207D01*
X2850793Y-2414636D01*
X2865078Y-2400350D01*
X2893650Y-2386064D01*
X3122221Y-2657493D02*
X3136507Y-2671779D01*
X3122221Y-2686064D01*
X3107936Y-2671779D01*
X3122221Y-2657493D01*
X3122221Y-2686064D01*
X3322221Y-2386064D02*
X3350793Y-2386064D01*
X3379364Y-2400350D01*
X3393650Y-2414636D01*
X3407935Y-2443207D01*
X3422221Y-2500350D01*
X3422221Y-2571779D01*
X3407935Y-2628922D01*
X3393650Y-2657493D01*
X3379364Y-2671779D01*
X3350793Y-2686064D01*
X3322221Y-2686064D01*
X3293650Y-2671779D01*
X3279364Y-2657493D01*
X3265078Y-2628922D01*
X3250793Y-2571779D01*
X3250793Y-2500350D01*
X3265078Y-2443207D01*
X3279364Y-2414636D01*
X3293650Y-2400350D01*
X3322221Y-2386064D01*
X3522221Y-2386064D02*
X3707935Y-2386064D01*
X3607935Y-2500350D01*
X3650793Y-2500350D01*
X3679364Y-2514636D01*
X3693650Y-2528922D01*
X3707935Y-2557493D01*
X3707935Y-2628922D01*
X3693650Y-2657493D01*
X3679364Y-2671779D01*
X3650793Y-2686064D01*
X3565078Y-2686064D01*
X3536507Y-2671779D01*
X3522221Y-2657493D01*
X3979364Y-2386064D02*
X3836507Y-2386064D01*
X3822221Y-2528922D01*
X3836507Y-2514636D01*
X3865078Y-2500350D01*
X3936507Y-2500350D01*
X3965078Y-2514636D01*
X3979364Y-2528922D01*
X3993650Y-2557493D01*
X3993650Y-2628922D01*
X3979364Y-2657493D01*
X3965078Y-2671779D01*
X3936507Y-2686064D01*
X3865078Y-2686064D01*
X3836507Y-2671779D01*
X3822221Y-2657493D01*
X4107936Y-2386064D02*
X4107936Y-2443207D01*
X4222221Y-2386064D02*
X4222221Y-2443207D01*
X4665078Y-2800350D02*
X4650793Y-2786064D01*
X4622221Y-2743207D01*
X4607936Y-2714636D01*
X4593650Y-2671779D01*
X4579364Y-2600350D01*
X4579364Y-2543207D01*
X4593650Y-2471779D01*
X4607936Y-2428922D01*
X4622221Y-2400350D01*
X4650793Y-2357493D01*
X4665078Y-2343207D01*
X4836507Y-2386064D02*
X4865078Y-2386064D01*
X4893650Y-2400350D01*
X4907936Y-2414636D01*
X4922221Y-2443207D01*
X4936507Y-2500350D01*
X4936507Y-2571779D01*
X4922221Y-2628922D01*
X4907936Y-2657493D01*
X4893650Y-2671779D01*
X4865078Y-2686064D01*
X4836507Y-2686064D01*
X4807936Y-2671779D01*
X4793650Y-2657493D01*
X4779364Y-2628922D01*
X4765078Y-2571779D01*
X4765078Y-2500350D01*
X4779364Y-2443207D01*
X4793650Y-2414636D01*
X4807936Y-2400350D01*
X4836507Y-2386064D01*
X5293650Y-2686064D02*
X5293650Y-2386064D01*
X5422221Y-2686064D02*
X5422221Y-2528922D01*
X5407936Y-2500350D01*
X5379364Y-2486064D01*
X5336507Y-2486064D01*
X5307936Y-2500350D01*
X5293650Y-2514636D01*
X5607935Y-2686064D02*
X5579364Y-2671779D01*
X5565078Y-2657493D01*
X5550793Y-2628922D01*
X5550793Y-2543207D01*
X5565078Y-2514636D01*
X5579364Y-2500350D01*
X5607935Y-2486064D01*
X5650793Y-2486064D01*
X5679364Y-2500350D01*
X5693650Y-2514636D01*
X5707935Y-2543207D01*
X5707935Y-2628922D01*
X5693650Y-2657493D01*
X5679364Y-2671779D01*
X5650793Y-2686064D01*
X5607935Y-2686064D01*
X5879364Y-2686064D02*
X5850793Y-2671779D01*
X5836507Y-2643207D01*
X5836507Y-2386064D01*
X6107936Y-2671779D02*
X6079364Y-2686064D01*
X6022221Y-2686064D01*
X5993650Y-2671779D01*
X5979364Y-2643207D01*
X5979364Y-2528922D01*
X5993650Y-2500350D01*
X6022221Y-2486064D01*
X6079364Y-2486064D01*
X6107936Y-2500350D01*
X6122221Y-2528922D01*
X6122221Y-2557493D01*
X5979364Y-2586064D01*
X6236507Y-2671779D02*
X6265078Y-2686064D01*
X6322221Y-2686064D01*
X6350793Y-2671779D01*
X6365078Y-2643207D01*
X6365078Y-2628922D01*
X6350793Y-2600350D01*
X6322221Y-2586064D01*
X6279364Y-2586064D01*
X6250793Y-2571779D01*
X6236507Y-2543207D01*
X6236507Y-2528922D01*
X6250793Y-2500350D01*
X6279364Y-2486064D01*
X6322221Y-2486064D01*
X6350793Y-2500350D01*
X6722221Y-2571779D02*
X6950793Y-2571779D01*
X6836507Y-2686064D02*
X6836507Y-2457493D01*
X7307936Y-2414636D02*
X7322221Y-2400350D01*
X7350793Y-2386064D01*
X7422221Y-2386064D01*
X7450793Y-2400350D01*
X7465078Y-2414636D01*
X7479364Y-2443207D01*
X7479364Y-2471779D01*
X7465078Y-2514636D01*
X7293650Y-2686064D01*
X7479364Y-2686064D01*
X7822221Y-2671779D02*
X7850793Y-2686064D01*
X7907935Y-2686064D01*
X7936507Y-2671779D01*
X7950793Y-2643207D01*
X7950793Y-2628922D01*
X7936507Y-2600350D01*
X7907935Y-2586064D01*
X7865078Y-2586064D01*
X7836507Y-2571779D01*
X7822221Y-2543207D01*
X7822221Y-2528922D01*
X7836507Y-2500350D01*
X7865078Y-2486064D01*
X7907935Y-2486064D01*
X7936507Y-2500350D01*
X8122221Y-2686064D02*
X8093650Y-2671779D01*
X8079364Y-2643207D01*
X8079364Y-2386064D01*
X8279364Y-2686064D02*
X8250793Y-2671779D01*
X8236507Y-2657493D01*
X8222221Y-2628922D01*
X8222221Y-2543207D01*
X8236507Y-2514636D01*
X8250793Y-2500350D01*
X8279364Y-2486064D01*
X8322221Y-2486064D01*
X8350793Y-2500350D01*
X8365078Y-2514636D01*
X8379364Y-2543207D01*
X8379364Y-2628922D01*
X8365078Y-2657493D01*
X8350793Y-2671779D01*
X8322221Y-2686064D01*
X8279364Y-2686064D01*
X8465078Y-2486064D02*
X8579364Y-2486064D01*
X8507936Y-2386064D02*
X8507936Y-2643207D01*
X8522221Y-2671779D01*
X8550793Y-2686064D01*
X8579364Y-2686064D01*
X8665079Y-2671779D02*
X8693650Y-2686064D01*
X8750793Y-2686064D01*
X8779364Y-2671779D01*
X8793650Y-2643207D01*
X8793650Y-2628922D01*
X8779364Y-2600350D01*
X8750793Y-2586064D01*
X8707936Y-2586064D01*
X8679364Y-2571779D01*
X8665079Y-2543207D01*
X8665079Y-2528922D01*
X8679364Y-2500350D01*
X8707936Y-2486064D01*
X8750793Y-2486064D01*
X8779364Y-2500350D01*
X8893650Y-2800350D02*
X8907936Y-2786064D01*
X8936507Y-2743207D01*
X8950793Y-2714636D01*
X8965078Y-2671779D01*
X8979364Y-2600350D01*
X8979364Y-2543207D01*
X8965078Y-2471779D01*
X8950793Y-2428922D01*
X8936507Y-2400350D01*
X8907936Y-2357493D01*
X8893650Y-2343207D01*
X-161350Y-2868850D02*
X-6350Y-3023850D01*
X-6350Y-2868850D02*
X-161350Y-3023850D01*
X-6350Y-2946350D02*
G75*
G03X-6350Y-2946350I-77500J0D01*
G01*
X422221Y-3082064D02*
X250793Y-3082064D01*
X336507Y-3082064D02*
X336507Y-2782064D01*
X307936Y-2824921D01*
X279364Y-2853493D01*
X250793Y-2867779D01*
X550793Y-3053493D02*
X565079Y-3067779D01*
X550793Y-3082064D01*
X536507Y-3067779D01*
X550793Y-3053493D01*
X550793Y-3082064D01*
X836507Y-2782064D02*
X693650Y-2782064D01*
X679364Y-2924921D01*
X693650Y-2910636D01*
X722221Y-2896350D01*
X793650Y-2896350D01*
X822221Y-2910636D01*
X836507Y-2924921D01*
X850793Y-2953493D01*
X850793Y-3024921D01*
X836507Y-3053493D01*
X822221Y-3067779D01*
X793650Y-3082064D01*
X722221Y-3082064D01*
X693650Y-3067779D01*
X679364Y-3053493D01*
X1122221Y-2782064D02*
X979364Y-2782064D01*
X965078Y-2924921D01*
X979364Y-2910636D01*
X1007936Y-2896350D01*
X1079364Y-2896350D01*
X1107936Y-2910636D01*
X1122221Y-2924921D01*
X1136507Y-2953493D01*
X1136507Y-3024921D01*
X1122221Y-3053493D01*
X1107936Y-3067779D01*
X1079364Y-3082064D01*
X1007936Y-3082064D01*
X979364Y-3067779D01*
X965078Y-3053493D01*
X1265079Y-3082064D02*
X1265079Y-2882064D01*
X1265079Y-2910636D02*
X1279364Y-2896350D01*
X1307936Y-2882064D01*
X1350793Y-2882064D01*
X1379364Y-2896350D01*
X1393650Y-2924921D01*
X1393650Y-3082064D01*
X1393650Y-2924921D02*
X1407936Y-2896350D01*
X1436507Y-2882064D01*
X1479364Y-2882064D01*
X1507936Y-2896350D01*
X1522221Y-2924921D01*
X1522221Y-3082064D01*
X1665078Y-3082064D02*
X1665078Y-2882064D01*
X1665078Y-2910636D02*
X1679364Y-2896350D01*
X1707936Y-2882064D01*
X1750793Y-2882064D01*
X1779364Y-2896350D01*
X1793650Y-2924921D01*
X1793650Y-3082064D01*
X1793650Y-2924921D02*
X1807936Y-2896350D01*
X1836507Y-2882064D01*
X1879364Y-2882064D01*
X1907936Y-2896350D01*
X1922221Y-2924921D01*
X1922221Y-3082064D01*
X2507936Y-2767779D02*
X2250793Y-3153493D01*
X2893650Y-2782064D02*
X2922221Y-2782064D01*
X2950793Y-2796350D01*
X2965078Y-2810636D01*
X2979364Y-2839207D01*
X2993650Y-2896350D01*
X2993650Y-2967779D01*
X2979364Y-3024921D01*
X2965078Y-3053493D01*
X2950793Y-3067779D01*
X2922221Y-3082064D01*
X2893650Y-3082064D01*
X2865078Y-3067779D01*
X2850793Y-3053493D01*
X2836507Y-3024921D01*
X2822221Y-2967779D01*
X2822221Y-2896350D01*
X2836507Y-2839207D01*
X2850793Y-2810636D01*
X2865078Y-2796350D01*
X2893650Y-2782064D01*
X3122221Y-3053493D02*
X3136507Y-3067779D01*
X3122221Y-3082064D01*
X3107936Y-3067779D01*
X3122221Y-3053493D01*
X3122221Y-3082064D01*
X3322221Y-2782064D02*
X3350793Y-2782064D01*
X3379364Y-2796350D01*
X3393650Y-2810636D01*
X3407935Y-2839207D01*
X3422221Y-2896350D01*
X3422221Y-2967779D01*
X3407935Y-3024921D01*
X3393650Y-3053493D01*
X3379364Y-3067779D01*
X3350793Y-3082064D01*
X3322221Y-3082064D01*
X3293650Y-3067779D01*
X3279364Y-3053493D01*
X3265078Y-3024921D01*
X3250793Y-2967779D01*
X3250793Y-2896350D01*
X3265078Y-2839207D01*
X3279364Y-2810636D01*
X3293650Y-2796350D01*
X3322221Y-2782064D01*
X3679364Y-2782064D02*
X3622221Y-2782064D01*
X3593650Y-2796350D01*
X3579364Y-2810636D01*
X3550793Y-2853493D01*
X3536507Y-2910636D01*
X3536507Y-3024921D01*
X3550793Y-3053493D01*
X3565078Y-3067779D01*
X3593650Y-3082064D01*
X3650793Y-3082064D01*
X3679364Y-3067779D01*
X3693650Y-3053493D01*
X3707935Y-3024921D01*
X3707935Y-2953493D01*
X3693650Y-2924921D01*
X3679364Y-2910636D01*
X3650793Y-2896350D01*
X3593650Y-2896350D01*
X3565078Y-2910636D01*
X3550793Y-2924921D01*
X3536507Y-2953493D01*
X3993650Y-3082064D02*
X3822221Y-3082064D01*
X3907935Y-3082064D02*
X3907935Y-2782064D01*
X3879364Y-2824921D01*
X3850793Y-2853493D01*
X3822221Y-2867779D01*
X4107936Y-2782064D02*
X4107936Y-2839207D01*
X4222221Y-2782064D02*
X4222221Y-2839207D01*
X4665078Y-3196350D02*
X4650793Y-3182064D01*
X4622221Y-3139207D01*
X4607936Y-3110636D01*
X4593650Y-3067779D01*
X4579364Y-2996350D01*
X4579364Y-2939207D01*
X4593650Y-2867779D01*
X4607936Y-2824921D01*
X4622221Y-2796350D01*
X4650793Y-2753493D01*
X4665078Y-2739207D01*
X4907936Y-2882064D02*
X4907936Y-3082064D01*
X4836507Y-2767779D02*
X4765078Y-2982064D01*
X4950793Y-2982064D01*
X5293650Y-3082064D02*
X5293650Y-2782064D01*
X5422221Y-3082064D02*
X5422221Y-2924921D01*
X5407936Y-2896350D01*
X5379364Y-2882064D01*
X5336507Y-2882064D01*
X5307936Y-2896350D01*
X5293650Y-2910636D01*
X5607935Y-3082064D02*
X5579364Y-3067779D01*
X5565078Y-3053493D01*
X5550793Y-3024921D01*
X5550793Y-2939207D01*
X5565078Y-2910636D01*
X5579364Y-2896350D01*
X5607935Y-2882064D01*
X5650793Y-2882064D01*
X5679364Y-2896350D01*
X5693650Y-2910636D01*
X5707935Y-2939207D01*
X5707935Y-3024921D01*
X5693650Y-3053493D01*
X5679364Y-3067779D01*
X5650793Y-3082064D01*
X5607935Y-3082064D01*
X5879364Y-3082064D02*
X5850793Y-3067779D01*
X5836507Y-3039207D01*
X5836507Y-2782064D01*
X6107936Y-3067779D02*
X6079364Y-3082064D01*
X6022221Y-3082064D01*
X5993650Y-3067779D01*
X5979364Y-3039207D01*
X5979364Y-2924921D01*
X5993650Y-2896350D01*
X6022221Y-2882064D01*
X6079364Y-2882064D01*
X6107936Y-2896350D01*
X6122221Y-2924921D01*
X6122221Y-2953493D01*
X5979364Y-2982064D01*
X6236507Y-3067779D02*
X6265078Y-3082064D01*
X6322221Y-3082064D01*
X6350793Y-3067779D01*
X6365078Y-3039207D01*
X6365078Y-3024921D01*
X6350793Y-2996350D01*
X6322221Y-2982064D01*
X6279364Y-2982064D01*
X6250793Y-2967779D01*
X6236507Y-2939207D01*
X6236507Y-2924921D01*
X6250793Y-2896350D01*
X6279364Y-2882064D01*
X6322221Y-2882064D01*
X6350793Y-2896350D01*
X6465078Y-3196350D02*
X6479364Y-3182064D01*
X6507936Y-3139207D01*
X6522221Y-3110636D01*
X6536507Y-3067779D01*
X6550793Y-2996350D01*
X6550793Y-2939207D01*
X6536507Y-2867779D01*
X6522221Y-2824921D01*
X6507936Y-2796350D01*
X6479364Y-2753493D01*
X6465078Y-2739207D01*
X-166370Y-3262340D02*
X-6350Y-3422360D01*
X-6350Y-3262340D02*
X-166370Y-3422360D01*
X-86360Y-3262340D02*
X-86360Y-3422360D01*
X-166370Y-3342350D02*
X-6350Y-3342350D01*
X422221Y-3478064D02*
X250793Y-3478064D01*
X336507Y-3478064D02*
X336507Y-3178064D01*
X307936Y-3220921D01*
X279364Y-3249493D01*
X250793Y-3263779D01*
X550793Y-3449493D02*
X565079Y-3463779D01*
X550793Y-3478064D01*
X536507Y-3463779D01*
X550793Y-3449493D01*
X550793Y-3478064D01*
X822221Y-3178064D02*
X765078Y-3178064D01*
X736507Y-3192350D01*
X722221Y-3206636D01*
X693650Y-3249493D01*
X679364Y-3306636D01*
X679364Y-3420921D01*
X693650Y-3449493D01*
X707936Y-3463779D01*
X736507Y-3478064D01*
X793650Y-3478064D01*
X822221Y-3463779D01*
X836507Y-3449493D01*
X850793Y-3420921D01*
X850793Y-3349493D01*
X836507Y-3320921D01*
X822221Y-3306636D01*
X793650Y-3292350D01*
X736507Y-3292350D01*
X707936Y-3306636D01*
X693650Y-3320921D01*
X679364Y-3349493D01*
X1036507Y-3178064D02*
X1065079Y-3178064D01*
X1093650Y-3192350D01*
X1107936Y-3206636D01*
X1122221Y-3235207D01*
X1136507Y-3292350D01*
X1136507Y-3363779D01*
X1122221Y-3420921D01*
X1107936Y-3449493D01*
X1093650Y-3463779D01*
X1065079Y-3478064D01*
X1036507Y-3478064D01*
X1007936Y-3463779D01*
X993650Y-3449493D01*
X979364Y-3420921D01*
X965078Y-3363779D01*
X965078Y-3292350D01*
X979364Y-3235207D01*
X993650Y-3206636D01*
X1007936Y-3192350D01*
X1036507Y-3178064D01*
X1265079Y-3478064D02*
X1265079Y-3278064D01*
X1265079Y-3306636D02*
X1279364Y-3292350D01*
X1307936Y-3278064D01*
X1350793Y-3278064D01*
X1379364Y-3292350D01*
X1393650Y-3320921D01*
X1393650Y-3478064D01*
X1393650Y-3320921D02*
X1407936Y-3292350D01*
X1436507Y-3278064D01*
X1479364Y-3278064D01*
X1507936Y-3292350D01*
X1522221Y-3320921D01*
X1522221Y-3478064D01*
X1665078Y-3478064D02*
X1665078Y-3278064D01*
X1665078Y-3306636D02*
X1679364Y-3292350D01*
X1707936Y-3278064D01*
X1750793Y-3278064D01*
X1779364Y-3292350D01*
X1793650Y-3320921D01*
X1793650Y-3478064D01*
X1793650Y-3320921D02*
X1807936Y-3292350D01*
X1836507Y-3278064D01*
X1879364Y-3278064D01*
X1907936Y-3292350D01*
X1922221Y-3320921D01*
X1922221Y-3478064D01*
X2507936Y-3163779D02*
X2250793Y-3549493D01*
X2893650Y-3178064D02*
X2922221Y-3178064D01*
X2950793Y-3192350D01*
X2965078Y-3206636D01*
X2979364Y-3235207D01*
X2993650Y-3292350D01*
X2993650Y-3363779D01*
X2979364Y-3420921D01*
X2965078Y-3449493D01*
X2950793Y-3463779D01*
X2922221Y-3478064D01*
X2893650Y-3478064D01*
X2865078Y-3463779D01*
X2850793Y-3449493D01*
X2836507Y-3420921D01*
X2822221Y-3363779D01*
X2822221Y-3292350D01*
X2836507Y-3235207D01*
X2850793Y-3206636D01*
X2865078Y-3192350D01*
X2893650Y-3178064D01*
X3122221Y-3449493D02*
X3136507Y-3463779D01*
X3122221Y-3478064D01*
X3107936Y-3463779D01*
X3122221Y-3449493D01*
X3122221Y-3478064D01*
X3322221Y-3178064D02*
X3350793Y-3178064D01*
X3379364Y-3192350D01*
X3393650Y-3206636D01*
X3407935Y-3235207D01*
X3422221Y-3292350D01*
X3422221Y-3363779D01*
X3407935Y-3420921D01*
X3393650Y-3449493D01*
X3379364Y-3463779D01*
X3350793Y-3478064D01*
X3322221Y-3478064D01*
X3293650Y-3463779D01*
X3279364Y-3449493D01*
X3265078Y-3420921D01*
X3250793Y-3363779D01*
X3250793Y-3292350D01*
X3265078Y-3235207D01*
X3279364Y-3206636D01*
X3293650Y-3192350D01*
X3322221Y-3178064D01*
X3679364Y-3178064D02*
X3622221Y-3178064D01*
X3593650Y-3192350D01*
X3579364Y-3206636D01*
X3550793Y-3249493D01*
X3536507Y-3306636D01*
X3536507Y-3420921D01*
X3550793Y-3449493D01*
X3565078Y-3463779D01*
X3593650Y-3478064D01*
X3650793Y-3478064D01*
X3679364Y-3463779D01*
X3693650Y-3449493D01*
X3707935Y-3420921D01*
X3707935Y-3349493D01*
X3693650Y-3320921D01*
X3679364Y-3306636D01*
X3650793Y-3292350D01*
X3593650Y-3292350D01*
X3565078Y-3306636D01*
X3550793Y-3320921D01*
X3536507Y-3349493D01*
X3807935Y-3178064D02*
X3993650Y-3178064D01*
X3893650Y-3292350D01*
X3936507Y-3292350D01*
X3965078Y-3306636D01*
X3979364Y-3320921D01*
X3993650Y-3349493D01*
X3993650Y-3420921D01*
X3979364Y-3449493D01*
X3965078Y-3463779D01*
X3936507Y-3478064D01*
X3850793Y-3478064D01*
X3822221Y-3463779D01*
X3807935Y-3449493D01*
X4107936Y-3178064D02*
X4107936Y-3235207D01*
X4222221Y-3178064D02*
X4222221Y-3235207D01*
X4665078Y-3592350D02*
X4650793Y-3578064D01*
X4622221Y-3535207D01*
X4607936Y-3506636D01*
X4593650Y-3463779D01*
X4579364Y-3392350D01*
X4579364Y-3335207D01*
X4593650Y-3263779D01*
X4607936Y-3220921D01*
X4622221Y-3192350D01*
X4650793Y-3149493D01*
X4665078Y-3135207D01*
X4750793Y-3178064D02*
X4936507Y-3178064D01*
X4836507Y-3292350D01*
X4879364Y-3292350D01*
X4907936Y-3306636D01*
X4922221Y-3320921D01*
X4936507Y-3349493D01*
X4936507Y-3420921D01*
X4922221Y-3449493D01*
X4907936Y-3463779D01*
X4879364Y-3478064D01*
X4793650Y-3478064D01*
X4765078Y-3463779D01*
X4750793Y-3449493D01*
X5050793Y-3206636D02*
X5065078Y-3192350D01*
X5093650Y-3178064D01*
X5165078Y-3178064D01*
X5193650Y-3192350D01*
X5207936Y-3206636D01*
X5222221Y-3235207D01*
X5222221Y-3263779D01*
X5207936Y-3306636D01*
X5036507Y-3478064D01*
X5222221Y-3478064D01*
X5579364Y-3478064D02*
X5579364Y-3178064D01*
X5707935Y-3478064D02*
X5707935Y-3320921D01*
X5693650Y-3292350D01*
X5665078Y-3278064D01*
X5622221Y-3278064D01*
X5593650Y-3292350D01*
X5579364Y-3306636D01*
X5893650Y-3478064D02*
X5865078Y-3463779D01*
X5850793Y-3449493D01*
X5836507Y-3420921D01*
X5836507Y-3335207D01*
X5850793Y-3306636D01*
X5865078Y-3292350D01*
X5893650Y-3278064D01*
X5936507Y-3278064D01*
X5965078Y-3292350D01*
X5979364Y-3306636D01*
X5993650Y-3335207D01*
X5993650Y-3420921D01*
X5979364Y-3449493D01*
X5965078Y-3463779D01*
X5936507Y-3478064D01*
X5893650Y-3478064D01*
X6165078Y-3478064D02*
X6136507Y-3463779D01*
X6122221Y-3435207D01*
X6122221Y-3178064D01*
X6393650Y-3463779D02*
X6365078Y-3478064D01*
X6307936Y-3478064D01*
X6279364Y-3463779D01*
X6265078Y-3435207D01*
X6265078Y-3320921D01*
X6279364Y-3292350D01*
X6307936Y-3278064D01*
X6365078Y-3278064D01*
X6393650Y-3292350D01*
X6407936Y-3320921D01*
X6407936Y-3349493D01*
X6265078Y-3378064D01*
X6522221Y-3463779D02*
X6550793Y-3478064D01*
X6607936Y-3478064D01*
X6636507Y-3463779D01*
X6650793Y-3435207D01*
X6650793Y-3420921D01*
X6636507Y-3392350D01*
X6607936Y-3378064D01*
X6565078Y-3378064D01*
X6536507Y-3363779D01*
X6522221Y-3335207D01*
X6522221Y-3320921D01*
X6536507Y-3292350D01*
X6565078Y-3278064D01*
X6607936Y-3278064D01*
X6636507Y-3292350D01*
X6750793Y-3592350D02*
X6765078Y-3578064D01*
X6793650Y-3535207D01*
X6807936Y-3506636D01*
X6822221Y-3463779D01*
X6836507Y-3392350D01*
X6836507Y-3335207D01*
X6822221Y-3263779D01*
X6807936Y-3220921D01*
X6793650Y-3192350D01*
X6765078Y-3149493D01*
X6750793Y-3135207D01*
X-236350Y-3623350D02*
X-6350Y-3853350D01*
X-6350Y-3623350D02*
X-236350Y-3853350D01*
X-40032Y-3819668D02*
X-40032Y-3657032D01*
X-202668Y-3657032D01*
X-202668Y-3819668D01*
X-40032Y-3819668D01*
X250793Y-3602636D02*
X265079Y-3588350D01*
X293650Y-3574064D01*
X365078Y-3574064D01*
X393650Y-3588350D01*
X407936Y-3602636D01*
X422221Y-3631207D01*
X422221Y-3659779D01*
X407936Y-3702636D01*
X236507Y-3874064D01*
X422221Y-3874064D01*
X550793Y-3845493D02*
X565079Y-3859779D01*
X550793Y-3874064D01*
X536507Y-3859779D01*
X550793Y-3845493D01*
X550793Y-3874064D01*
X665078Y-3574064D02*
X850793Y-3574064D01*
X750793Y-3688350D01*
X793650Y-3688350D01*
X822221Y-3702636D01*
X836507Y-3716921D01*
X850793Y-3745493D01*
X850793Y-3816921D01*
X836507Y-3845493D01*
X822221Y-3859779D01*
X793650Y-3874064D01*
X707936Y-3874064D01*
X679364Y-3859779D01*
X665078Y-3845493D01*
X1036507Y-3574064D02*
X1065079Y-3574064D01*
X1093650Y-3588350D01*
X1107936Y-3602636D01*
X1122221Y-3631207D01*
X1136507Y-3688350D01*
X1136507Y-3759779D01*
X1122221Y-3816921D01*
X1107936Y-3845493D01*
X1093650Y-3859779D01*
X1065079Y-3874064D01*
X1036507Y-3874064D01*
X1007936Y-3859779D01*
X993650Y-3845493D01*
X979364Y-3816921D01*
X965078Y-3759779D01*
X965078Y-3688350D01*
X979364Y-3631207D01*
X993650Y-3602636D01*
X1007936Y-3588350D01*
X1036507Y-3574064D01*
X1265079Y-3874064D02*
X1265079Y-3674064D01*
X1265079Y-3702636D02*
X1279364Y-3688350D01*
X1307936Y-3674064D01*
X1350793Y-3674064D01*
X1379364Y-3688350D01*
X1393650Y-3716921D01*
X1393650Y-3874064D01*
X1393650Y-3716921D02*
X1407936Y-3688350D01*
X1436507Y-3674064D01*
X1479364Y-3674064D01*
X1507936Y-3688350D01*
X1522221Y-3716921D01*
X1522221Y-3874064D01*
X1665078Y-3874064D02*
X1665078Y-3674064D01*
X1665078Y-3702636D02*
X1679364Y-3688350D01*
X1707936Y-3674064D01*
X1750793Y-3674064D01*
X1779364Y-3688350D01*
X1793650Y-3716921D01*
X1793650Y-3874064D01*
X1793650Y-3716921D02*
X1807936Y-3688350D01*
X1836507Y-3674064D01*
X1879364Y-3674064D01*
X1907936Y-3688350D01*
X1922221Y-3716921D01*
X1922221Y-3874064D01*
X2507936Y-3559779D02*
X2250793Y-3945493D01*
X2893650Y-3574064D02*
X2922221Y-3574064D01*
X2950793Y-3588350D01*
X2965078Y-3602636D01*
X2979364Y-3631207D01*
X2993650Y-3688350D01*
X2993650Y-3759779D01*
X2979364Y-3816921D01*
X2965078Y-3845493D01*
X2950793Y-3859779D01*
X2922221Y-3874064D01*
X2893650Y-3874064D01*
X2865078Y-3859779D01*
X2850793Y-3845493D01*
X2836507Y-3816921D01*
X2822221Y-3759779D01*
X2822221Y-3688350D01*
X2836507Y-3631207D01*
X2850793Y-3602636D01*
X2865078Y-3588350D01*
X2893650Y-3574064D01*
X3122221Y-3845493D02*
X3136507Y-3859779D01*
X3122221Y-3874064D01*
X3107936Y-3859779D01*
X3122221Y-3845493D01*
X3122221Y-3874064D01*
X3322221Y-3574064D02*
X3350793Y-3574064D01*
X3379364Y-3588350D01*
X3393650Y-3602636D01*
X3407935Y-3631207D01*
X3422221Y-3688350D01*
X3422221Y-3759779D01*
X3407935Y-3816921D01*
X3393650Y-3845493D01*
X3379364Y-3859779D01*
X3350793Y-3874064D01*
X3322221Y-3874064D01*
X3293650Y-3859779D01*
X3279364Y-3845493D01*
X3265078Y-3816921D01*
X3250793Y-3759779D01*
X3250793Y-3688350D01*
X3265078Y-3631207D01*
X3279364Y-3602636D01*
X3293650Y-3588350D01*
X3322221Y-3574064D01*
X3565078Y-3874064D02*
X3622221Y-3874064D01*
X3650793Y-3859779D01*
X3665078Y-3845493D01*
X3693650Y-3802636D01*
X3707935Y-3745493D01*
X3707935Y-3631207D01*
X3693650Y-3602636D01*
X3679364Y-3588350D01*
X3650793Y-3574064D01*
X3593650Y-3574064D01*
X3565078Y-3588350D01*
X3550793Y-3602636D01*
X3536507Y-3631207D01*
X3536507Y-3702636D01*
X3550793Y-3731207D01*
X3565078Y-3745493D01*
X3593650Y-3759779D01*
X3650793Y-3759779D01*
X3679364Y-3745493D01*
X3693650Y-3731207D01*
X3707935Y-3702636D01*
X3993650Y-3874064D02*
X3822221Y-3874064D01*
X3907935Y-3874064D02*
X3907935Y-3574064D01*
X3879364Y-3616921D01*
X3850793Y-3645493D01*
X3822221Y-3659779D01*
X4107936Y-3574064D02*
X4107936Y-3631207D01*
X4222221Y-3574064D02*
X4222221Y-3631207D01*
X4665078Y-3988350D02*
X4650793Y-3974064D01*
X4622221Y-3931207D01*
X4607936Y-3902636D01*
X4593650Y-3859779D01*
X4579364Y-3788350D01*
X4579364Y-3731207D01*
X4593650Y-3659779D01*
X4607936Y-3616921D01*
X4622221Y-3588350D01*
X4650793Y-3545493D01*
X4665078Y-3531207D01*
X4765078Y-3602636D02*
X4779364Y-3588350D01*
X4807936Y-3574064D01*
X4879364Y-3574064D01*
X4907936Y-3588350D01*
X4922221Y-3602636D01*
X4936507Y-3631207D01*
X4936507Y-3659779D01*
X4922221Y-3702636D01*
X4750793Y-3874064D01*
X4936507Y-3874064D01*
X5293650Y-3874064D02*
X5293650Y-3574064D01*
X5422221Y-3874064D02*
X5422221Y-3716921D01*
X5407936Y-3688350D01*
X5379364Y-3674064D01*
X5336507Y-3674064D01*
X5307936Y-3688350D01*
X5293650Y-3702636D01*
X5607935Y-3874064D02*
X5579364Y-3859779D01*
X5565078Y-3845493D01*
X5550793Y-3816921D01*
X5550793Y-3731207D01*
X5565078Y-3702636D01*
X5579364Y-3688350D01*
X5607935Y-3674064D01*
X5650793Y-3674064D01*
X5679364Y-3688350D01*
X5693650Y-3702636D01*
X5707935Y-3731207D01*
X5707935Y-3816921D01*
X5693650Y-3845493D01*
X5679364Y-3859779D01*
X5650793Y-3874064D01*
X5607935Y-3874064D01*
X5879364Y-3874064D02*
X5850793Y-3859779D01*
X5836507Y-3831207D01*
X5836507Y-3574064D01*
X6107936Y-3859779D02*
X6079364Y-3874064D01*
X6022221Y-3874064D01*
X5993650Y-3859779D01*
X5979364Y-3831207D01*
X5979364Y-3716921D01*
X5993650Y-3688350D01*
X6022221Y-3674064D01*
X6079364Y-3674064D01*
X6107936Y-3688350D01*
X6122221Y-3716921D01*
X6122221Y-3745493D01*
X5979364Y-3774064D01*
X6236507Y-3859779D02*
X6265078Y-3874064D01*
X6322221Y-3874064D01*
X6350793Y-3859779D01*
X6365078Y-3831207D01*
X6365078Y-3816921D01*
X6350793Y-3788350D01*
X6322221Y-3774064D01*
X6279364Y-3774064D01*
X6250793Y-3759779D01*
X6236507Y-3731207D01*
X6236507Y-3716921D01*
X6250793Y-3688350D01*
X6279364Y-3674064D01*
X6322221Y-3674064D01*
X6350793Y-3688350D01*
X6465078Y-3988350D02*
X6479364Y-3974064D01*
X6507936Y-3931207D01*
X6522221Y-3902636D01*
X6536507Y-3859779D01*
X6550793Y-3788350D01*
X6550793Y-3731207D01*
X6536507Y-3659779D01*
X6522221Y-3616921D01*
X6507936Y-3588350D01*
X6479364Y-3545493D01*
X6465078Y-3531207D01*
X-126350Y-4074350D02*
X-6350Y-4194350D01*
X-6350Y-4074350D02*
X-126350Y-4194350D01*
X-66350Y-4194350D02*
X-6350Y-4134350D01*
X-66350Y-4074350D01*
X-126350Y-4134350D01*
X-66350Y-4194350D01*
X422221Y-4270064D02*
X250793Y-4270064D01*
X336507Y-4270064D02*
X336507Y-3970064D01*
X307936Y-4012921D01*
X279364Y-4041493D01*
X250793Y-4055779D01*
X550793Y-4241493D02*
X565079Y-4255779D01*
X550793Y-4270064D01*
X536507Y-4255779D01*
X550793Y-4241493D01*
X550793Y-4270064D01*
X679364Y-3998636D02*
X693650Y-3984350D01*
X722221Y-3970064D01*
X793650Y-3970064D01*
X822221Y-3984350D01*
X836507Y-3998636D01*
X850793Y-4027207D01*
X850793Y-4055779D01*
X836507Y-4098636D01*
X665078Y-4270064D01*
X850793Y-4270064D01*
X1036507Y-3970064D02*
X1065079Y-3970064D01*
X1093650Y-3984350D01*
X1107936Y-3998636D01*
X1122221Y-4027207D01*
X1136507Y-4084350D01*
X1136507Y-4155779D01*
X1122221Y-4212922D01*
X1107936Y-4241493D01*
X1093650Y-4255779D01*
X1065079Y-4270064D01*
X1036507Y-4270064D01*
X1007936Y-4255779D01*
X993650Y-4241493D01*
X979364Y-4212922D01*
X965078Y-4155779D01*
X965078Y-4084350D01*
X979364Y-4027207D01*
X993650Y-3998636D01*
X1007936Y-3984350D01*
X1036507Y-3970064D01*
X1265079Y-4270064D02*
X1265079Y-4070064D01*
X1265079Y-4098636D02*
X1279364Y-4084350D01*
X1307936Y-4070064D01*
X1350793Y-4070064D01*
X1379364Y-4084350D01*
X1393650Y-4112921D01*
X1393650Y-4270064D01*
X1393650Y-4112921D02*
X1407936Y-4084350D01*
X1436507Y-4070064D01*
X1479364Y-4070064D01*
X1507936Y-4084350D01*
X1522221Y-4112921D01*
X1522221Y-4270064D01*
X1665078Y-4270064D02*
X1665078Y-4070064D01*
X1665078Y-4098636D02*
X1679364Y-4084350D01*
X1707936Y-4070064D01*
X1750793Y-4070064D01*
X1779364Y-4084350D01*
X1793650Y-4112921D01*
X1793650Y-4270064D01*
X1793650Y-4112921D02*
X1807936Y-4084350D01*
X1836507Y-4070064D01*
X1879364Y-4070064D01*
X1907936Y-4084350D01*
X1922221Y-4112921D01*
X1922221Y-4270064D01*
X2507936Y-3955779D02*
X2250793Y-4341493D01*
X2893650Y-3970064D02*
X2922221Y-3970064D01*
X2950793Y-3984350D01*
X2965078Y-3998636D01*
X2979364Y-4027207D01*
X2993650Y-4084350D01*
X2993650Y-4155779D01*
X2979364Y-4212922D01*
X2965078Y-4241493D01*
X2950793Y-4255779D01*
X2922221Y-4270064D01*
X2893650Y-4270064D01*
X2865078Y-4255779D01*
X2850793Y-4241493D01*
X2836507Y-4212922D01*
X2822221Y-4155779D01*
X2822221Y-4084350D01*
X2836507Y-4027207D01*
X2850793Y-3998636D01*
X2865078Y-3984350D01*
X2893650Y-3970064D01*
X3122221Y-4241493D02*
X3136507Y-4255779D01*
X3122221Y-4270064D01*
X3107936Y-4255779D01*
X3122221Y-4241493D01*
X3122221Y-4270064D01*
X3322221Y-3970064D02*
X3350793Y-3970064D01*
X3379364Y-3984350D01*
X3393650Y-3998636D01*
X3407935Y-4027207D01*
X3422221Y-4084350D01*
X3422221Y-4155779D01*
X3407935Y-4212922D01*
X3393650Y-4241493D01*
X3379364Y-4255779D01*
X3350793Y-4270064D01*
X3322221Y-4270064D01*
X3293650Y-4255779D01*
X3279364Y-4241493D01*
X3265078Y-4212922D01*
X3250793Y-4155779D01*
X3250793Y-4084350D01*
X3265078Y-4027207D01*
X3279364Y-3998636D01*
X3293650Y-3984350D01*
X3322221Y-3970064D01*
X3679364Y-4070064D02*
X3679364Y-4270064D01*
X3607935Y-3955779D02*
X3536507Y-4170064D01*
X3722221Y-4170064D01*
X3807935Y-3970064D02*
X4007935Y-3970064D01*
X3879364Y-4270064D01*
X4107936Y-3970064D02*
X4107936Y-4027207D01*
X4222221Y-3970064D02*
X4222221Y-4027207D01*
X4665078Y-4384350D02*
X4650793Y-4370064D01*
X4622221Y-4327207D01*
X4607936Y-4298636D01*
X4593650Y-4255779D01*
X4579364Y-4184350D01*
X4579364Y-4127207D01*
X4593650Y-4055779D01*
X4607936Y-4012921D01*
X4622221Y-3984350D01*
X4650793Y-3941493D01*
X4665078Y-3927207D01*
X4765078Y-3998636D02*
X4779364Y-3984350D01*
X4807936Y-3970064D01*
X4879364Y-3970064D01*
X4907936Y-3984350D01*
X4922221Y-3998636D01*
X4936507Y-4027207D01*
X4936507Y-4055779D01*
X4922221Y-4098636D01*
X4750793Y-4270064D01*
X4936507Y-4270064D01*
X5293650Y-4270064D02*
X5293650Y-3970064D01*
X5422221Y-4270064D02*
X5422221Y-4112921D01*
X5407936Y-4084350D01*
X5379364Y-4070064D01*
X5336507Y-4070064D01*
X5307936Y-4084350D01*
X5293650Y-4098636D01*
X5607935Y-4270064D02*
X5579364Y-4255779D01*
X5565078Y-4241493D01*
X5550793Y-4212922D01*
X5550793Y-4127207D01*
X5565078Y-4098636D01*
X5579364Y-4084350D01*
X5607935Y-4070064D01*
X5650793Y-4070064D01*
X5679364Y-4084350D01*
X5693650Y-4098636D01*
X5707935Y-4127207D01*
X5707935Y-4212922D01*
X5693650Y-4241493D01*
X5679364Y-4255779D01*
X5650793Y-4270064D01*
X5607935Y-4270064D01*
X5879364Y-4270064D02*
X5850793Y-4255779D01*
X5836507Y-4227207D01*
X5836507Y-3970064D01*
X6107936Y-4255779D02*
X6079364Y-4270064D01*
X6022221Y-4270064D01*
X5993650Y-4255779D01*
X5979364Y-4227207D01*
X5979364Y-4112921D01*
X5993650Y-4084350D01*
X6022221Y-4070064D01*
X6079364Y-4070064D01*
X6107936Y-4084350D01*
X6122221Y-4112921D01*
X6122221Y-4141493D01*
X5979364Y-4170064D01*
X6236507Y-4255779D02*
X6265078Y-4270064D01*
X6322221Y-4270064D01*
X6350793Y-4255779D01*
X6365078Y-4227207D01*
X6365078Y-4212922D01*
X6350793Y-4184350D01*
X6322221Y-4170064D01*
X6279364Y-4170064D01*
X6250793Y-4155779D01*
X6236507Y-4127207D01*
X6236507Y-4112921D01*
X6250793Y-4084350D01*
X6279364Y-4070064D01*
X6322221Y-4070064D01*
X6350793Y-4084350D01*
X6465078Y-4384350D02*
X6479364Y-4370064D01*
X6507936Y-4327207D01*
X6522221Y-4298636D01*
X6536507Y-4255779D01*
X6550793Y-4184350D01*
X6550793Y-4127207D01*
X6536507Y-4055779D01*
X6522221Y-4012921D01*
X6507936Y-3984350D01*
X6479364Y-3941493D01*
X6465078Y-3927207D01*
X7007936Y-4384350D02*
X6993650Y-4370064D01*
X6965078Y-4327207D01*
X6950793Y-4298636D01*
X6936507Y-4255779D01*
X6922221Y-4184350D01*
X6922221Y-4127207D01*
X6936507Y-4055779D01*
X6950793Y-4012921D01*
X6965078Y-3984350D01*
X6993650Y-3941493D01*
X7007936Y-3927207D01*
X7122221Y-4070064D02*
X7122221Y-4270064D01*
X7122221Y-4098636D02*
X7136507Y-4084350D01*
X7165078Y-4070064D01*
X7207936Y-4070064D01*
X7236507Y-4084350D01*
X7250793Y-4112921D01*
X7250793Y-4270064D01*
X7436507Y-4270064D02*
X7407936Y-4255779D01*
X7393650Y-4241493D01*
X7379364Y-4212922D01*
X7379364Y-4127207D01*
X7393650Y-4098636D01*
X7407936Y-4084350D01*
X7436507Y-4070064D01*
X7479364Y-4070064D01*
X7507936Y-4084350D01*
X7522221Y-4098636D01*
X7536507Y-4127207D01*
X7536507Y-4212922D01*
X7522221Y-4241493D01*
X7507936Y-4255779D01*
X7479364Y-4270064D01*
X7436507Y-4270064D01*
X7622221Y-4070064D02*
X7736507Y-4070064D01*
X7665078Y-3970064D02*
X7665078Y-4227207D01*
X7679364Y-4255779D01*
X7707936Y-4270064D01*
X7736507Y-4270064D01*
X8065078Y-4070064D02*
X8065078Y-4370064D01*
X8065078Y-4084350D02*
X8093650Y-4070064D01*
X8150793Y-4070064D01*
X8179364Y-4084350D01*
X8193650Y-4098636D01*
X8207936Y-4127207D01*
X8207936Y-4212922D01*
X8193650Y-4241493D01*
X8179364Y-4255779D01*
X8150793Y-4270064D01*
X8093650Y-4270064D01*
X8065078Y-4255779D01*
X8379364Y-4270064D02*
X8350793Y-4255779D01*
X8336507Y-4227207D01*
X8336507Y-3970064D01*
X8622221Y-4270064D02*
X8622221Y-4112921D01*
X8607936Y-4084350D01*
X8579364Y-4070064D01*
X8522221Y-4070064D01*
X8493650Y-4084350D01*
X8622221Y-4255779D02*
X8593650Y-4270064D01*
X8522221Y-4270064D01*
X8493650Y-4255779D01*
X8479364Y-4227207D01*
X8479364Y-4198636D01*
X8493650Y-4170064D01*
X8522221Y-4155779D01*
X8593650Y-4155779D01*
X8622221Y-4141493D01*
X8722221Y-4070064D02*
X8836507Y-4070064D01*
X8765079Y-3970064D02*
X8765079Y-4227207D01*
X8779364Y-4255779D01*
X8807936Y-4270064D01*
X8836507Y-4270064D01*
X9050793Y-4255779D02*
X9022222Y-4270064D01*
X8965079Y-4270064D01*
X8936507Y-4255779D01*
X8922222Y-4227207D01*
X8922222Y-4112921D01*
X8936507Y-4084350D01*
X8965079Y-4070064D01*
X9022222Y-4070064D01*
X9050793Y-4084350D01*
X9065079Y-4112921D01*
X9065079Y-4141493D01*
X8922222Y-4170064D01*
X9322222Y-4270064D02*
X9322222Y-3970064D01*
X9322222Y-4255779D02*
X9293650Y-4270064D01*
X9236507Y-4270064D01*
X9207936Y-4255779D01*
X9193650Y-4241493D01*
X9179364Y-4212922D01*
X9179364Y-4127207D01*
X9193650Y-4098636D01*
X9207936Y-4084350D01*
X9236507Y-4070064D01*
X9293650Y-4070064D01*
X9322222Y-4084350D01*
X9436507Y-4384350D02*
X9450793Y-4370064D01*
X9479364Y-4327207D01*
X9493650Y-4298636D01*
X9507936Y-4255779D01*
X9522222Y-4184350D01*
X9522222Y-4127207D01*
X9507936Y-4055779D01*
X9493650Y-4012921D01*
X9479364Y-3984350D01*
X9450793Y-3941493D01*
X9436507Y-3927207D01*
M02*
