%TF.GenerationSoftware,KiCad,Pcbnew,4.0.1-stable*%
%TF.CreationDate,2016-02-23T23:31:04-05:00*%
%TF.ProjectId,USB Breakout v3.0,55534220427265616B6F75742076332E,3.0.1*%
%TF.FileFunction,Drawing*%
%FSLAX46Y46*%
G04 Gerber Fmt 4.6, Leading zero omitted, Abs format (unit mm)*
G04 Created by KiCad (PCBNEW 4.0.1-stable) date 2016-02-23 23:31:04*
%MOMM*%
G01*
G04 APERTURE LIST*
%ADD10C,0.025400*%
%ADD11C,0.127000*%
%ADD12C,0.076200*%
G04 APERTURE END LIST*
D10*
D11*
X71632838Y35233428D02*
X71632838Y36176857D01*
X72406933Y35668857D01*
X72406933Y35886571D01*
X72503695Y36031714D01*
X72600457Y36104285D01*
X72793981Y36176857D01*
X73277790Y36176857D01*
X73471314Y36104285D01*
X73568076Y36031714D01*
X73664838Y35886571D01*
X73664838Y35451143D01*
X73568076Y35306000D01*
X73471314Y35233428D01*
X73471314Y36830000D02*
X73568076Y36902572D01*
X73664838Y36830000D01*
X73568076Y36757429D01*
X73471314Y36830000D01*
X73664838Y36830000D01*
X71826362Y37483143D02*
X71729600Y37555714D01*
X71632838Y37700857D01*
X71632838Y38063714D01*
X71729600Y38208857D01*
X71826362Y38281428D01*
X72019886Y38354000D01*
X72213410Y38354000D01*
X72503695Y38281428D01*
X73664838Y37410571D01*
X73664838Y38354000D01*
X71632838Y39297429D02*
X71632838Y39442572D01*
X71729600Y39587715D01*
X71826362Y39660286D01*
X72019886Y39732857D01*
X72406933Y39805429D01*
X72890743Y39805429D01*
X73277790Y39732857D01*
X73471314Y39660286D01*
X73568076Y39587715D01*
X73664838Y39442572D01*
X73664838Y39297429D01*
X73568076Y39152286D01*
X73471314Y39079715D01*
X73277790Y39007143D01*
X72890743Y38934572D01*
X72406933Y38934572D01*
X72019886Y39007143D01*
X71826362Y39079715D01*
X71729600Y39152286D01*
X71632838Y39297429D01*
X71632838Y40748858D02*
X71632838Y40894001D01*
X71729600Y41039144D01*
X71826362Y41111715D01*
X72019886Y41184286D01*
X72406933Y41256858D01*
X72890743Y41256858D01*
X73277790Y41184286D01*
X73471314Y41111715D01*
X73568076Y41039144D01*
X73664838Y40894001D01*
X73664838Y40748858D01*
X73568076Y40603715D01*
X73471314Y40531144D01*
X73277790Y40458572D01*
X72890743Y40386001D01*
X72406933Y40386001D01*
X72019886Y40458572D01*
X71826362Y40531144D01*
X71729600Y40603715D01*
X71632838Y40748858D01*
X71632838Y42200287D02*
X71632838Y42345430D01*
X71729600Y42490573D01*
X71826362Y42563144D01*
X72019886Y42635715D01*
X72406933Y42708287D01*
X72890743Y42708287D01*
X73277790Y42635715D01*
X73471314Y42563144D01*
X73568076Y42490573D01*
X73664838Y42345430D01*
X73664838Y42200287D01*
X73568076Y42055144D01*
X73471314Y41982573D01*
X73277790Y41910001D01*
X72890743Y41837430D01*
X72406933Y41837430D01*
X72019886Y41910001D01*
X71826362Y41982573D01*
X71729600Y42055144D01*
X71632838Y42200287D01*
X73664838Y44522573D02*
X72310171Y44522573D01*
X71632838Y44522573D02*
X71729600Y44450002D01*
X71826362Y44522573D01*
X71729600Y44595145D01*
X71632838Y44522573D01*
X71826362Y44522573D01*
X72310171Y45248287D02*
X73664838Y45248287D01*
X72503695Y45248287D02*
X72406933Y45320859D01*
X72310171Y45466001D01*
X72310171Y45683716D01*
X72406933Y45828859D01*
X72600457Y45901430D01*
X73664838Y45901430D01*
X71120000Y0D02*
X71120000Y81280000D01*
X62230000Y0D02*
X74371200Y0D01*
X62230000Y81280000D02*
X74371200Y81280000D01*
X71120000Y81280000D02*
X71706421Y80153496D01*
X71120000Y81280000D02*
X70533579Y80153496D01*
X71120000Y0D02*
X71706421Y1126504D01*
X71120000Y0D02*
X70533579Y1126504D01*
X66746362Y23241000D02*
X66649600Y23313571D01*
X66552838Y23458714D01*
X66552838Y23821571D01*
X66649600Y23966714D01*
X66746362Y24039285D01*
X66939886Y24111857D01*
X67133410Y24111857D01*
X67423695Y24039285D01*
X68584838Y23168428D01*
X68584838Y24111857D01*
X68391314Y24765000D02*
X68488076Y24837572D01*
X68584838Y24765000D01*
X68488076Y24692429D01*
X68391314Y24765000D01*
X68584838Y24765000D01*
X66746362Y25418143D02*
X66649600Y25490714D01*
X66552838Y25635857D01*
X66552838Y25998714D01*
X66649600Y26143857D01*
X66746362Y26216428D01*
X66939886Y26289000D01*
X67133410Y26289000D01*
X67423695Y26216428D01*
X68584838Y25345571D01*
X68584838Y26289000D01*
X66552838Y27667857D02*
X66552838Y26942143D01*
X67520457Y26869572D01*
X67423695Y26942143D01*
X67326933Y27087286D01*
X67326933Y27450143D01*
X67423695Y27595286D01*
X67520457Y27667857D01*
X67713981Y27740429D01*
X68197790Y27740429D01*
X68391314Y27667857D01*
X68488076Y27595286D01*
X68584838Y27450143D01*
X68584838Y27087286D01*
X68488076Y26942143D01*
X68391314Y26869572D01*
X66552838Y28683858D02*
X66552838Y28829001D01*
X66649600Y28974144D01*
X66746362Y29046715D01*
X66939886Y29119286D01*
X67326933Y29191858D01*
X67810743Y29191858D01*
X68197790Y29119286D01*
X68391314Y29046715D01*
X68488076Y28974144D01*
X68584838Y28829001D01*
X68584838Y28683858D01*
X68488076Y28538715D01*
X68391314Y28466144D01*
X68197790Y28393572D01*
X67810743Y28321001D01*
X67326933Y28321001D01*
X66939886Y28393572D01*
X66746362Y28466144D01*
X66649600Y28538715D01*
X66552838Y28683858D01*
X66552838Y30135287D02*
X66552838Y30280430D01*
X66649600Y30425573D01*
X66746362Y30498144D01*
X66939886Y30570715D01*
X67326933Y30643287D01*
X67810743Y30643287D01*
X68197790Y30570715D01*
X68391314Y30498144D01*
X68488076Y30425573D01*
X68584838Y30280430D01*
X68584838Y30135287D01*
X68488076Y29990144D01*
X68391314Y29917573D01*
X68197790Y29845001D01*
X67810743Y29772430D01*
X67326933Y29772430D01*
X66939886Y29845001D01*
X66746362Y29917573D01*
X66649600Y29990144D01*
X66552838Y30135287D01*
X68584838Y32457573D02*
X67230171Y32457573D01*
X66552838Y32457573D02*
X66649600Y32385002D01*
X66746362Y32457573D01*
X66649600Y32530145D01*
X66552838Y32457573D01*
X66746362Y32457573D01*
X67230171Y33183287D02*
X68584838Y33183287D01*
X67423695Y33183287D02*
X67326933Y33255859D01*
X67230171Y33401001D01*
X67230171Y33618716D01*
X67326933Y33763859D01*
X67520457Y33836430D01*
X68584838Y33836430D01*
X66040000Y0D02*
X66040000Y57150000D01*
X62230000Y0D02*
X69291200Y0D01*
X62230000Y57150000D02*
X69291200Y57150000D01*
X66040000Y57150000D02*
X66626421Y56023496D01*
X66040000Y57150000D02*
X65453579Y56023496D01*
X66040000Y0D02*
X66626421Y1126504D01*
X66040000Y0D02*
X65453579Y1126504D01*
X62230000Y81280000D02*
X38100000Y81280000D01*
X25146000Y93984838D02*
X25218571Y94081600D01*
X25363714Y94178362D01*
X25726571Y94178362D01*
X25871714Y94081600D01*
X25944285Y93984838D01*
X26016857Y93791314D01*
X26016857Y93597790D01*
X25944285Y93307505D01*
X25073428Y92146362D01*
X26016857Y92146362D01*
X26670000Y92339886D02*
X26742572Y92243124D01*
X26670000Y92146362D01*
X26597429Y92243124D01*
X26670000Y92339886D01*
X26670000Y92146362D01*
X28048857Y93501029D02*
X28048857Y92146362D01*
X27686000Y94275124D02*
X27323143Y92823695D01*
X28266571Y92823695D01*
X29137429Y94178362D02*
X29282572Y94178362D01*
X29427715Y94081600D01*
X29500286Y93984838D01*
X29572857Y93791314D01*
X29645429Y93404267D01*
X29645429Y92920457D01*
X29572857Y92533410D01*
X29500286Y92339886D01*
X29427715Y92243124D01*
X29282572Y92146362D01*
X29137429Y92146362D01*
X28992286Y92243124D01*
X28919715Y92339886D01*
X28847143Y92533410D01*
X28774572Y92920457D01*
X28774572Y93404267D01*
X28847143Y93791314D01*
X28919715Y93984838D01*
X28992286Y94081600D01*
X29137429Y94178362D01*
X30588858Y94178362D02*
X30734001Y94178362D01*
X30879144Y94081600D01*
X30951715Y93984838D01*
X31024286Y93791314D01*
X31096858Y93404267D01*
X31096858Y92920457D01*
X31024286Y92533410D01*
X30951715Y92339886D01*
X30879144Y92243124D01*
X30734001Y92146362D01*
X30588858Y92146362D01*
X30443715Y92243124D01*
X30371144Y92339886D01*
X30298572Y92533410D01*
X30226001Y92920457D01*
X30226001Y93404267D01*
X30298572Y93791314D01*
X30371144Y93984838D01*
X30443715Y94081600D01*
X30588858Y94178362D01*
X32040287Y94178362D02*
X32185430Y94178362D01*
X32330573Y94081600D01*
X32403144Y93984838D01*
X32475715Y93791314D01*
X32548287Y93404267D01*
X32548287Y92920457D01*
X32475715Y92533410D01*
X32403144Y92339886D01*
X32330573Y92243124D01*
X32185430Y92146362D01*
X32040287Y92146362D01*
X31895144Y92243124D01*
X31822573Y92339886D01*
X31750001Y92533410D01*
X31677430Y92920457D01*
X31677430Y93404267D01*
X31750001Y93791314D01*
X31822573Y93984838D01*
X31895144Y94081600D01*
X32040287Y94178362D01*
X34362573Y92146362D02*
X34362573Y93501029D01*
X34362573Y94178362D02*
X34290002Y94081600D01*
X34362573Y93984838D01*
X34435145Y94081600D01*
X34362573Y94178362D01*
X34362573Y93984838D01*
X35088287Y93501029D02*
X35088287Y92146362D01*
X35088287Y93307505D02*
X35160859Y93404267D01*
X35306001Y93501029D01*
X35523716Y93501029D01*
X35668859Y93404267D01*
X35741430Y93210743D01*
X35741430Y92146362D01*
X60960000Y91440000D02*
X0Y91440000D01*
X60960000Y58420000D02*
X60960000Y94691200D01*
X0Y58420000D02*
X0Y94691200D01*
X0Y91440000D02*
X1126503Y92026420D01*
X0Y91440000D02*
X1126503Y90853580D01*
X60960000Y91440000D02*
X59833497Y92026420D01*
X60960000Y91440000D02*
X59833497Y90853580D01*
X25508857Y89098362D02*
X25654000Y89098362D01*
X25799143Y89001600D01*
X25871714Y88904838D01*
X25944285Y88711314D01*
X26016857Y88324267D01*
X26016857Y87840457D01*
X25944285Y87453410D01*
X25871714Y87259886D01*
X25799143Y87163124D01*
X25654000Y87066362D01*
X25508857Y87066362D01*
X25363714Y87163124D01*
X25291143Y87259886D01*
X25218571Y87453410D01*
X25146000Y87840457D01*
X25146000Y88324267D01*
X25218571Y88711314D01*
X25291143Y88904838D01*
X25363714Y89001600D01*
X25508857Y89098362D01*
X26670000Y87259886D02*
X26742572Y87163124D01*
X26670000Y87066362D01*
X26597429Y87163124D01*
X26670000Y87259886D01*
X26670000Y87066362D01*
X28121428Y89098362D02*
X27395714Y89098362D01*
X27323143Y88130743D01*
X27395714Y88227505D01*
X27540857Y88324267D01*
X27903714Y88324267D01*
X28048857Y88227505D01*
X28121428Y88130743D01*
X28194000Y87937219D01*
X28194000Y87453410D01*
X28121428Y87259886D01*
X28048857Y87163124D01*
X27903714Y87066362D01*
X27540857Y87066362D01*
X27395714Y87163124D01*
X27323143Y87259886D01*
X29137429Y89098362D02*
X29282572Y89098362D01*
X29427715Y89001600D01*
X29500286Y88904838D01*
X29572857Y88711314D01*
X29645429Y88324267D01*
X29645429Y87840457D01*
X29572857Y87453410D01*
X29500286Y87259886D01*
X29427715Y87163124D01*
X29282572Y87066362D01*
X29137429Y87066362D01*
X28992286Y87163124D01*
X28919715Y87259886D01*
X28847143Y87453410D01*
X28774572Y87840457D01*
X28774572Y88324267D01*
X28847143Y88711314D01*
X28919715Y88904838D01*
X28992286Y89001600D01*
X29137429Y89098362D01*
X30588858Y89098362D02*
X30734001Y89098362D01*
X30879144Y89001600D01*
X30951715Y88904838D01*
X31024286Y88711314D01*
X31096858Y88324267D01*
X31096858Y87840457D01*
X31024286Y87453410D01*
X30951715Y87259886D01*
X30879144Y87163124D01*
X30734001Y87066362D01*
X30588858Y87066362D01*
X30443715Y87163124D01*
X30371144Y87259886D01*
X30298572Y87453410D01*
X30226001Y87840457D01*
X30226001Y88324267D01*
X30298572Y88711314D01*
X30371144Y88904838D01*
X30443715Y89001600D01*
X30588858Y89098362D01*
X32040287Y89098362D02*
X32185430Y89098362D01*
X32330573Y89001600D01*
X32403144Y88904838D01*
X32475715Y88711314D01*
X32548287Y88324267D01*
X32548287Y87840457D01*
X32475715Y87453410D01*
X32403144Y87259886D01*
X32330573Y87163124D01*
X32185430Y87066362D01*
X32040287Y87066362D01*
X31895144Y87163124D01*
X31822573Y87259886D01*
X31750001Y87453410D01*
X31677430Y87840457D01*
X31677430Y88324267D01*
X31750001Y88711314D01*
X31822573Y88904838D01*
X31895144Y89001600D01*
X32040287Y89098362D01*
X34362573Y87066362D02*
X34362573Y88421029D01*
X34362573Y89098362D02*
X34290002Y89001600D01*
X34362573Y88904838D01*
X34435145Y89001600D01*
X34362573Y89098362D01*
X34362573Y88904838D01*
X35088287Y88421029D02*
X35088287Y87066362D01*
X35088287Y88227505D02*
X35160859Y88324267D01*
X35306001Y88421029D01*
X35523716Y88421029D01*
X35668859Y88324267D01*
X35741430Y88130743D01*
X35741430Y87066362D01*
X36830000Y86360000D02*
X24130000Y86360000D01*
X36830000Y82550000D02*
X36830000Y89611200D01*
X24130000Y82550000D02*
X24130000Y89611200D01*
X24130000Y86360000D02*
X25256503Y86946420D01*
X24130000Y86360000D02*
X25256503Y85773580D01*
X36830000Y86360000D02*
X35703497Y86946420D01*
X36830000Y86360000D02*
X35703497Y85773580D01*
D12*
X6760000Y48310000D02*
X6760000Y35510000D01*
X6760000Y35510000D02*
X13560000Y35510000D01*
X13560000Y35510000D02*
X13560000Y48310000D01*
X13560000Y48310000D02*
X6760000Y48310000D01*
X9525000Y39370000D02*
X9525000Y40005000D01*
X9525000Y40005000D02*
X10795000Y40005000D01*
X10795000Y40005000D02*
X10795000Y39370000D01*
X10796220Y39370305D02*
G75*
G03X9525000Y39370000I-636220J2539695D01*
G01*
X47400000Y48310000D02*
X47400000Y35510000D01*
X47400000Y35510000D02*
X54200000Y35510000D01*
X54200000Y35510000D02*
X54200000Y48310000D01*
X54200000Y48310000D02*
X47400000Y48310000D01*
X50165000Y39370000D02*
X50165000Y40005000D01*
X50165000Y40005000D02*
X51435000Y40005000D01*
X51435000Y40005000D02*
X51435000Y39370000D01*
X51436220Y39370305D02*
G75*
G03X50165000Y39370000I-636220J2539695D01*
G01*
X27440000Y37110000D02*
X33520000Y37110000D01*
X33520000Y37110000D02*
X33520000Y46710000D01*
X33520000Y46710000D02*
X27440000Y46710000D01*
X27440000Y37110000D02*
X27440000Y46710000D01*
X29464000Y39370000D02*
G75*
G03X29464000Y39370000I-254000J0D01*
G01*
X37600000Y37110000D02*
X43680000Y37110000D01*
X43680000Y37110000D02*
X43680000Y46710000D01*
X43680000Y46710000D02*
X37600000Y46710000D01*
X37600000Y37110000D02*
X37600000Y46710000D01*
X39624000Y39370000D02*
G75*
G03X39624000Y39370000I-254000J0D01*
G01*
X17280000Y37110000D02*
X23360000Y37110000D01*
X23360000Y37110000D02*
X23360000Y46710000D01*
X23360000Y46710000D02*
X17280000Y46710000D01*
X17280000Y37110000D02*
X17280000Y46710000D01*
X19304000Y39370000D02*
G75*
G03X19304000Y39370000I-254000J0D01*
G01*
X24380000Y74380000D02*
X24380000Y96580000D01*
X24380000Y96580000D02*
X36580000Y96580000D01*
X36580000Y96580000D02*
X36580000Y74380000D01*
X36580000Y74380000D02*
X24380000Y74380000D01*
D10*
X30480000Y80780000D02*
X30480000Y81780000D01*
X24980000Y81280000D02*
X35980000Y81280000D01*
D12*
X37480000Y11500000D02*
X37480000Y-5100000D01*
X37480000Y-5100000D02*
X23480000Y-5100000D01*
X23480000Y-5100000D02*
X23480000Y11500000D01*
X23480000Y11500000D02*
X37480000Y11500000D01*
D10*
X30480000Y500000D02*
X30480000Y-500000D01*
X36980000Y0D02*
X23980000Y0D01*
D12*
X14605000Y25400000D02*
G75*
G03X14605000Y25400000I-1905000J0D01*
G01*
X14605000Y20320000D02*
G75*
G03X14605000Y20320000I-1905000J0D01*
G01*
X29845000Y25400000D02*
G75*
G03X29845000Y25400000I-1905000J0D01*
G01*
X29845000Y20320000D02*
G75*
G03X29845000Y20320000I-1905000J0D01*
G01*
X34925000Y25400000D02*
G75*
G03X34925000Y25400000I-1905000J0D01*
G01*
X34925000Y20320000D02*
G75*
G03X34925000Y20320000I-1905000J0D01*
G01*
X50165000Y25400000D02*
G75*
G03X50165000Y25400000I-1905000J0D01*
G01*
X50165000Y20320000D02*
G75*
G03X50165000Y20320000I-1905000J0D01*
G01*
X45085000Y25400000D02*
G75*
G03X45085000Y25400000I-1905000J0D01*
G01*
X45085000Y20320000D02*
G75*
G03X45085000Y20320000I-1905000J0D01*
G01*
X40005000Y25400000D02*
G75*
G03X40005000Y25400000I-1905000J0D01*
G01*
X40005000Y20320000D02*
G75*
G03X40005000Y20320000I-1905000J0D01*
G01*
X24765000Y25400000D02*
G75*
G03X24765000Y25400000I-1905000J0D01*
G01*
X24765000Y20320000D02*
G75*
G03X24765000Y20320000I-1905000J0D01*
G01*
X19685000Y25400000D02*
G75*
G03X19685000Y25400000I-1905000J0D01*
G01*
X19685000Y20320000D02*
G75*
G03X19685000Y20320000I-1905000J0D01*
G01*
X14605000Y63500000D02*
G75*
G03X14605000Y63500000I-1905000J0D01*
G01*
X14605000Y58420000D02*
G75*
G03X14605000Y58420000I-1905000J0D01*
G01*
X29845000Y63500000D02*
G75*
G03X29845000Y63500000I-1905000J0D01*
G01*
X29845000Y58420000D02*
G75*
G03X29845000Y58420000I-1905000J0D01*
G01*
X34925000Y63500000D02*
G75*
G03X34925000Y63500000I-1905000J0D01*
G01*
X34925000Y58420000D02*
G75*
G03X34925000Y58420000I-1905000J0D01*
G01*
X50165000Y63500000D02*
G75*
G03X50165000Y63500000I-1905000J0D01*
G01*
X50165000Y58420000D02*
G75*
G03X50165000Y58420000I-1905000J0D01*
G01*
X45085000Y63500000D02*
G75*
G03X45085000Y63500000I-1905000J0D01*
G01*
X45085000Y58420000D02*
G75*
G03X45085000Y58420000I-1905000J0D01*
G01*
X40005000Y63500000D02*
G75*
G03X40005000Y63500000I-1905000J0D01*
G01*
X40005000Y58420000D02*
G75*
G03X40005000Y58420000I-1905000J0D01*
G01*
X24765000Y63500000D02*
G75*
G03X24765000Y63500000I-1905000J0D01*
G01*
X24765000Y58420000D02*
G75*
G03X24765000Y58420000I-1905000J0D01*
G01*
X19685000Y63500000D02*
G75*
G03X19685000Y63500000I-1905000J0D01*
G01*
X19685000Y58420000D02*
G75*
G03X19685000Y58420000I-1905000J0D01*
G01*
M02*
