%FSLAX34Y34*%
G04 Gerber Fmt 3.4, Leading zero omitted, Abs format*
G04 (created by PCBNEW (2013-12-12 BZR 4550)-product) date 14/12/2013 00:12:03*
%MOIN*%
G01*
G70*
G90*
G04 APERTURE LIST*
%ADD10C,0.005000*%
%ADD11C,0.015000*%
%ADD12C,0.007874*%
%ADD13C,0.011811*%
G04 APERTURE END LIST*
G54D10*
G54D11*
X0Y27500D02*
X0Y0D01*
X24000Y27500D02*
X24000Y0D01*
X9500Y37000D02*
X14500Y37000D01*
X14500Y37000D02*
X24000Y27500D01*
X9500Y37000D02*
X0Y27500D01*
X24000Y0D02*
X0Y0D01*
G54D12*
X10897Y36143D02*
X11330Y35710D01*
X11330Y36143D02*
X10897Y35710D01*
X12669Y36143D02*
X13102Y35710D01*
X13102Y36143D02*
X12669Y35710D01*
G54D13*
X993Y-1908D02*
X993Y-727D01*
X1274Y-727D01*
X1443Y-783D01*
X1556Y-896D01*
X1612Y-1008D01*
X1668Y-1233D01*
X1668Y-1402D01*
X1612Y-1627D01*
X1556Y-1739D01*
X1443Y-1852D01*
X1274Y-1908D01*
X993Y-1908D01*
X2174Y-1908D02*
X2174Y-1121D01*
X2174Y-1346D02*
X2230Y-1233D01*
X2287Y-1177D01*
X2399Y-1121D01*
X2512Y-1121D01*
X2905Y-1908D02*
X2905Y-1121D01*
X2905Y-727D02*
X2849Y-783D01*
X2905Y-839D01*
X2962Y-783D01*
X2905Y-727D01*
X2905Y-839D01*
X3637Y-1908D02*
X3524Y-1852D01*
X3468Y-1739D01*
X3468Y-727D01*
X4255Y-1908D02*
X4143Y-1852D01*
X4086Y-1739D01*
X4086Y-727D01*
X5605Y-1908D02*
X5605Y-727D01*
X5999Y-1571D01*
X6392Y-727D01*
X6392Y-1908D01*
X7461Y-1908D02*
X7461Y-1289D01*
X7405Y-1177D01*
X7292Y-1121D01*
X7067Y-1121D01*
X6955Y-1177D01*
X7461Y-1852D02*
X7349Y-1908D01*
X7067Y-1908D01*
X6955Y-1852D01*
X6899Y-1739D01*
X6899Y-1627D01*
X6955Y-1514D01*
X7067Y-1458D01*
X7349Y-1458D01*
X7461Y-1402D01*
X8023Y-1121D02*
X8023Y-2302D01*
X8023Y-1177D02*
X8136Y-1121D01*
X8361Y-1121D01*
X8473Y-1177D01*
X8530Y-1233D01*
X8586Y-1346D01*
X8586Y-1683D01*
X8530Y-1796D01*
X8473Y-1852D01*
X8361Y-1908D01*
X8136Y-1908D01*
X8023Y-1852D01*
X9092Y-1796D02*
X9148Y-1852D01*
X9092Y-1908D01*
X9036Y-1852D01*
X9092Y-1796D01*
X9092Y-1908D01*
X9092Y-1177D02*
X9148Y-1233D01*
X9092Y-1289D01*
X9036Y-1233D01*
X9092Y-1177D01*
X9092Y-1289D01*
X-508Y-3638D02*
X-75Y-4071D01*
X-75Y-3638D02*
X-508Y-4071D01*
X1612Y-4388D02*
X937Y-4388D01*
X1274Y-4388D02*
X1274Y-3207D01*
X1162Y-3376D01*
X1049Y-3488D01*
X937Y-3545D01*
X2118Y-4276D02*
X2174Y-4332D01*
X2118Y-4388D01*
X2062Y-4332D01*
X2118Y-4276D01*
X2118Y-4388D01*
X3299Y-4388D02*
X2624Y-4388D01*
X2962Y-4388D02*
X2962Y-3207D01*
X2849Y-3376D01*
X2737Y-3488D01*
X2624Y-3545D01*
X4030Y-3207D02*
X4143Y-3207D01*
X4255Y-3263D01*
X4311Y-3320D01*
X4368Y-3432D01*
X4424Y-3657D01*
X4424Y-3938D01*
X4368Y-4163D01*
X4311Y-4276D01*
X4255Y-4332D01*
X4143Y-4388D01*
X4030Y-4388D01*
X3918Y-4332D01*
X3862Y-4276D01*
X3805Y-4163D01*
X3749Y-3938D01*
X3749Y-3657D01*
X3805Y-3432D01*
X3862Y-3320D01*
X3918Y-3263D01*
X4030Y-3207D01*
X4930Y-4388D02*
X4930Y-3601D01*
X4930Y-3713D02*
X4986Y-3657D01*
X5099Y-3601D01*
X5268Y-3601D01*
X5380Y-3657D01*
X5436Y-3770D01*
X5436Y-4388D01*
X5436Y-3770D02*
X5493Y-3657D01*
X5605Y-3601D01*
X5774Y-3601D01*
X5886Y-3657D01*
X5942Y-3770D01*
X5942Y-4388D01*
X6505Y-4388D02*
X6505Y-3601D01*
X6505Y-3713D02*
X6561Y-3657D01*
X6674Y-3601D01*
X6842Y-3601D01*
X6955Y-3657D01*
X7011Y-3770D01*
X7011Y-4388D01*
X7011Y-3770D02*
X7067Y-3657D01*
X7180Y-3601D01*
X7349Y-3601D01*
X7461Y-3657D01*
X7517Y-3770D01*
X7517Y-4388D01*
X9823Y-3151D02*
X8811Y-4670D01*
X11342Y-3207D02*
X11454Y-3207D01*
X11567Y-3263D01*
X11623Y-3320D01*
X11679Y-3432D01*
X11736Y-3657D01*
X11736Y-3938D01*
X11679Y-4163D01*
X11623Y-4276D01*
X11567Y-4332D01*
X11454Y-4388D01*
X11342Y-4388D01*
X11229Y-4332D01*
X11173Y-4276D01*
X11117Y-4163D01*
X11061Y-3938D01*
X11061Y-3657D01*
X11117Y-3432D01*
X11173Y-3320D01*
X11229Y-3263D01*
X11342Y-3207D01*
X12242Y-4276D02*
X12298Y-4332D01*
X12242Y-4388D01*
X12185Y-4332D01*
X12242Y-4276D01*
X12242Y-4388D01*
X13029Y-3207D02*
X13142Y-3207D01*
X13254Y-3263D01*
X13310Y-3320D01*
X13367Y-3432D01*
X13423Y-3657D01*
X13423Y-3938D01*
X13367Y-4163D01*
X13310Y-4276D01*
X13254Y-4332D01*
X13142Y-4388D01*
X13029Y-4388D01*
X12917Y-4332D01*
X12860Y-4276D01*
X12804Y-4163D01*
X12748Y-3938D01*
X12748Y-3657D01*
X12804Y-3432D01*
X12860Y-3320D01*
X12917Y-3263D01*
X13029Y-3207D01*
X14435Y-3601D02*
X14435Y-4388D01*
X14154Y-3151D02*
X13873Y-3995D01*
X14604Y-3995D01*
X14941Y-3207D02*
X15673Y-3207D01*
X15279Y-3657D01*
X15448Y-3657D01*
X15560Y-3713D01*
X15616Y-3770D01*
X15673Y-3882D01*
X15673Y-4163D01*
X15616Y-4276D01*
X15560Y-4332D01*
X15448Y-4388D01*
X15110Y-4388D01*
X14998Y-4332D01*
X14941Y-4276D01*
X16122Y-3207D02*
X16122Y-3432D01*
X16572Y-3207D02*
X16572Y-3432D01*
X18316Y-4838D02*
X18260Y-4782D01*
X18147Y-4613D01*
X18091Y-4501D01*
X18035Y-4332D01*
X17978Y-4051D01*
X17978Y-3826D01*
X18035Y-3545D01*
X18091Y-3376D01*
X18147Y-3263D01*
X18260Y-3095D01*
X18316Y-3039D01*
X18710Y-3320D02*
X18766Y-3263D01*
X18878Y-3207D01*
X19160Y-3207D01*
X19272Y-3263D01*
X19328Y-3320D01*
X19385Y-3432D01*
X19385Y-3545D01*
X19328Y-3713D01*
X18653Y-4388D01*
X19385Y-4388D01*
X20791Y-4388D02*
X20791Y-3207D01*
X21297Y-4388D02*
X21297Y-3770D01*
X21241Y-3657D01*
X21128Y-3601D01*
X20959Y-3601D01*
X20847Y-3657D01*
X20791Y-3713D01*
X22028Y-4388D02*
X21916Y-4332D01*
X21859Y-4276D01*
X21803Y-4163D01*
X21803Y-3826D01*
X21859Y-3713D01*
X21916Y-3657D01*
X22028Y-3601D01*
X22197Y-3601D01*
X22309Y-3657D01*
X22365Y-3713D01*
X22422Y-3826D01*
X22422Y-4163D01*
X22365Y-4276D01*
X22309Y-4332D01*
X22197Y-4388D01*
X22028Y-4388D01*
X23097Y-4388D02*
X22984Y-4332D01*
X22928Y-4220D01*
X22928Y-3207D01*
X23996Y-4332D02*
X23884Y-4388D01*
X23659Y-4388D01*
X23547Y-4332D01*
X23490Y-4220D01*
X23490Y-3770D01*
X23547Y-3657D01*
X23659Y-3601D01*
X23884Y-3601D01*
X23996Y-3657D01*
X24053Y-3770D01*
X24053Y-3882D01*
X23490Y-3995D01*
X24503Y-4332D02*
X24615Y-4388D01*
X24840Y-4388D01*
X24953Y-4332D01*
X25009Y-4220D01*
X25009Y-4163D01*
X24953Y-4051D01*
X24840Y-3995D01*
X24671Y-3995D01*
X24559Y-3938D01*
X24503Y-3826D01*
X24503Y-3770D01*
X24559Y-3657D01*
X24671Y-3601D01*
X24840Y-3601D01*
X24953Y-3657D01*
X25403Y-4838D02*
X25459Y-4782D01*
X25571Y-4613D01*
X25628Y-4501D01*
X25684Y-4332D01*
X25740Y-4051D01*
X25740Y-3826D01*
X25684Y-3545D01*
X25628Y-3376D01*
X25571Y-3263D01*
X25459Y-3095D01*
X25403Y-3039D01*
M02*
