%FSLAX34Y34*%
G04 Gerber Fmt 3.4, Leading zero omitted, Abs format*
G04 (created by PCBNEW (2014-04-11 BZR 4798)-product) date 21/04/2014 04:41:56*
%MOIN*%
G01*
G70*
G90*
G04 APERTURE LIST*
%ADD10C,0.005906*%
%ADD11C,0.010000*%
%ADD12C,0.012000*%
%ADD13C,0.008000*%
%ADD14C,0.000100*%
%ADD15C,0.015000*%
%ADD16C,0.005000*%
%ADD17C,0.006000*%
%ADD18R,0.086200X0.086200*%
%ADD19O,0.079100X0.086200*%
%ADD20C,0.086200*%
%ADD21O,0.089400X0.148400*%
%ADD22C,0.063300*%
%ADD23C,0.133000*%
%ADD24C,0.143000*%
%ADD25C,0.140600*%
G04 APERTURE END LIST*
G54D10*
G54D11*
X2261Y1947D02*
X2333Y1923D01*
X2452Y1923D01*
X2500Y1947D01*
X2523Y1971D01*
X2547Y2019D01*
X2547Y2066D01*
X2523Y2114D01*
X2500Y2138D01*
X2452Y2161D01*
X2357Y2185D01*
X2309Y2209D01*
X2285Y2233D01*
X2261Y2280D01*
X2261Y2328D01*
X2285Y2376D01*
X2309Y2400D01*
X2357Y2423D01*
X2476Y2423D01*
X2547Y2400D01*
X3047Y1971D02*
X3023Y1947D01*
X2952Y1923D01*
X2904Y1923D01*
X2833Y1947D01*
X2785Y1995D01*
X2761Y2042D01*
X2738Y2138D01*
X2738Y2209D01*
X2761Y2304D01*
X2785Y2352D01*
X2833Y2400D01*
X2904Y2423D01*
X2952Y2423D01*
X3023Y2400D01*
X3047Y2376D01*
X3261Y1923D02*
X3261Y2423D01*
X3428Y2066D01*
X3595Y2423D01*
X3595Y1923D01*
X4142Y2423D02*
X4309Y1923D01*
X4476Y2423D01*
X4833Y1947D02*
X4785Y1923D01*
X4690Y1923D01*
X4642Y1947D01*
X4619Y1995D01*
X4619Y2185D01*
X4642Y2233D01*
X4690Y2257D01*
X4785Y2257D01*
X4833Y2233D01*
X4857Y2185D01*
X4857Y2138D01*
X4619Y2090D01*
X5071Y1923D02*
X5071Y2257D01*
X5071Y2161D02*
X5095Y2209D01*
X5119Y2233D01*
X5166Y2257D01*
X5214Y2257D01*
X5738Y2376D02*
X5761Y2400D01*
X5809Y2423D01*
X5928Y2423D01*
X5976Y2400D01*
X6000Y2376D01*
X6023Y2328D01*
X6023Y2280D01*
X6000Y2209D01*
X5714Y1923D01*
X6023Y1923D01*
X6238Y1971D02*
X6261Y1947D01*
X6238Y1923D01*
X6214Y1947D01*
X6238Y1971D01*
X6238Y1923D01*
X6571Y2423D02*
X6619Y2423D01*
X6666Y2400D01*
X6690Y2376D01*
X6714Y2328D01*
X6738Y2233D01*
X6738Y2114D01*
X6714Y2019D01*
X6690Y1971D01*
X6666Y1947D01*
X6619Y1923D01*
X6571Y1923D01*
X6523Y1947D01*
X6500Y1971D01*
X6476Y2019D01*
X6452Y2114D01*
X6452Y2233D01*
X6476Y2328D01*
X6500Y2376D01*
X6523Y2400D01*
X6571Y2423D01*
X2309Y1123D02*
X2309Y1623D01*
X2500Y1623D01*
X2547Y1600D01*
X2571Y1576D01*
X2595Y1528D01*
X2595Y1457D01*
X2571Y1409D01*
X2547Y1385D01*
X2500Y1361D01*
X2309Y1361D01*
X3095Y1171D02*
X3071Y1147D01*
X3000Y1123D01*
X2952Y1123D01*
X2880Y1147D01*
X2833Y1195D01*
X2809Y1242D01*
X2785Y1338D01*
X2785Y1409D01*
X2809Y1504D01*
X2833Y1552D01*
X2880Y1600D01*
X2952Y1623D01*
X3000Y1623D01*
X3071Y1600D01*
X3095Y1576D01*
X3476Y1385D02*
X3547Y1361D01*
X3571Y1338D01*
X3595Y1290D01*
X3595Y1219D01*
X3571Y1171D01*
X3547Y1147D01*
X3500Y1123D01*
X3309Y1123D01*
X3309Y1623D01*
X3476Y1623D01*
X3523Y1600D01*
X3547Y1576D01*
X3571Y1528D01*
X3571Y1480D01*
X3547Y1433D01*
X3523Y1409D01*
X3476Y1385D01*
X3309Y1385D01*
X4119Y1623D02*
X4285Y1123D01*
X4452Y1623D01*
X4809Y1147D02*
X4761Y1123D01*
X4666Y1123D01*
X4619Y1147D01*
X4595Y1195D01*
X4595Y1385D01*
X4619Y1433D01*
X4666Y1457D01*
X4761Y1457D01*
X4809Y1433D01*
X4833Y1385D01*
X4833Y1338D01*
X4595Y1290D01*
X5047Y1123D02*
X5047Y1457D01*
X5047Y1361D02*
X5071Y1409D01*
X5095Y1433D01*
X5142Y1457D01*
X5190Y1457D01*
X5714Y1576D02*
X5738Y1600D01*
X5785Y1623D01*
X5904Y1623D01*
X5952Y1600D01*
X5976Y1576D01*
X5999Y1528D01*
X5999Y1480D01*
X5976Y1409D01*
X5690Y1123D01*
X5999Y1123D01*
X6214Y1171D02*
X6238Y1147D01*
X6214Y1123D01*
X6190Y1147D01*
X6214Y1171D01*
X6214Y1123D01*
X6547Y1623D02*
X6595Y1623D01*
X6642Y1600D01*
X6666Y1576D01*
X6690Y1528D01*
X6714Y1433D01*
X6714Y1314D01*
X6690Y1219D01*
X6666Y1171D01*
X6642Y1147D01*
X6595Y1123D01*
X6547Y1123D01*
X6499Y1147D01*
X6476Y1171D01*
X6452Y1219D01*
X6428Y1314D01*
X6428Y1433D01*
X6452Y1528D01*
X6476Y1576D01*
X6499Y1600D01*
X6547Y1623D01*
G54D12*
X17114Y31557D02*
X17200Y31519D01*
X17228Y31480D01*
X17257Y31404D01*
X17257Y31290D01*
X17228Y31214D01*
X17200Y31176D01*
X17142Y31138D01*
X16914Y31138D01*
X16914Y31938D01*
X17114Y31938D01*
X17171Y31900D01*
X17200Y31861D01*
X17228Y31785D01*
X17228Y31709D01*
X17200Y31633D01*
X17171Y31595D01*
X17114Y31557D01*
X16914Y31557D01*
X17600Y31138D02*
X17542Y31176D01*
X17514Y31252D01*
X17514Y31938D01*
X18085Y31138D02*
X18085Y31557D01*
X18057Y31633D01*
X18000Y31671D01*
X17885Y31671D01*
X17828Y31633D01*
X18085Y31176D02*
X18028Y31138D01*
X17885Y31138D01*
X17828Y31176D01*
X17800Y31252D01*
X17800Y31328D01*
X17828Y31404D01*
X17885Y31442D01*
X18028Y31442D01*
X18085Y31480D01*
X18628Y31176D02*
X18571Y31138D01*
X18457Y31138D01*
X18400Y31176D01*
X18371Y31214D01*
X18342Y31290D01*
X18342Y31519D01*
X18371Y31595D01*
X18400Y31633D01*
X18457Y31671D01*
X18571Y31671D01*
X18628Y31633D01*
X18885Y31138D02*
X18885Y31938D01*
X18942Y31442D02*
X19114Y31138D01*
X19114Y31671D02*
X18885Y31366D01*
X13185Y31900D02*
X13128Y31938D01*
X13042Y31938D01*
X12957Y31900D01*
X12900Y31823D01*
X12871Y31747D01*
X12842Y31595D01*
X12842Y31480D01*
X12871Y31328D01*
X12900Y31252D01*
X12957Y31176D01*
X13042Y31138D01*
X13100Y31138D01*
X13185Y31176D01*
X13214Y31214D01*
X13214Y31480D01*
X13100Y31480D01*
X13471Y31138D02*
X13471Y31671D01*
X13471Y31519D02*
X13500Y31595D01*
X13528Y31633D01*
X13585Y31671D01*
X13642Y31671D01*
X14071Y31176D02*
X14014Y31138D01*
X13900Y31138D01*
X13842Y31176D01*
X13814Y31252D01*
X13814Y31557D01*
X13842Y31633D01*
X13900Y31671D01*
X14014Y31671D01*
X14071Y31633D01*
X14100Y31557D01*
X14100Y31480D01*
X13814Y31404D01*
X14585Y31176D02*
X14528Y31138D01*
X14414Y31138D01*
X14357Y31176D01*
X14328Y31252D01*
X14328Y31557D01*
X14357Y31633D01*
X14414Y31671D01*
X14528Y31671D01*
X14585Y31633D01*
X14614Y31557D01*
X14614Y31480D01*
X14328Y31404D01*
X14871Y31671D02*
X14871Y31138D01*
X14871Y31595D02*
X14900Y31633D01*
X14957Y31671D01*
X15042Y31671D01*
X15100Y31633D01*
X15128Y31557D01*
X15128Y31138D01*
X8900Y31938D02*
X9042Y31138D01*
X9157Y31709D01*
X9271Y31138D01*
X9414Y31938D01*
X9642Y31138D02*
X9642Y31938D01*
X9900Y31138D02*
X9900Y31557D01*
X9871Y31633D01*
X9814Y31671D01*
X9728Y31671D01*
X9671Y31633D01*
X9642Y31595D01*
X10185Y31138D02*
X10185Y31671D01*
X10185Y31938D02*
X10157Y31900D01*
X10185Y31861D01*
X10214Y31900D01*
X10185Y31938D01*
X10185Y31861D01*
X10385Y31671D02*
X10614Y31671D01*
X10471Y31938D02*
X10471Y31252D01*
X10500Y31176D01*
X10557Y31138D01*
X10614Y31138D01*
X11042Y31176D02*
X10985Y31138D01*
X10871Y31138D01*
X10814Y31176D01*
X10785Y31252D01*
X10785Y31557D01*
X10814Y31633D01*
X10871Y31671D01*
X10985Y31671D01*
X11042Y31633D01*
X11071Y31557D01*
X11071Y31480D01*
X10785Y31404D01*
X5657Y31138D02*
X5457Y31519D01*
X5314Y31138D02*
X5314Y31938D01*
X5542Y31938D01*
X5600Y31900D01*
X5628Y31861D01*
X5657Y31785D01*
X5657Y31671D01*
X5628Y31595D01*
X5600Y31557D01*
X5542Y31519D01*
X5314Y31519D01*
X6142Y31176D02*
X6085Y31138D01*
X5971Y31138D01*
X5914Y31176D01*
X5885Y31252D01*
X5885Y31557D01*
X5914Y31633D01*
X5971Y31671D01*
X6085Y31671D01*
X6142Y31633D01*
X6171Y31557D01*
X6171Y31480D01*
X5885Y31404D01*
X6685Y31138D02*
X6685Y31938D01*
X6685Y31176D02*
X6628Y31138D01*
X6514Y31138D01*
X6457Y31176D01*
X6428Y31214D01*
X6400Y31290D01*
X6400Y31519D01*
X6428Y31595D01*
X6457Y31633D01*
X6514Y31671D01*
X6628Y31671D01*
X6685Y31633D01*
X17428Y15938D02*
X17542Y15938D01*
X17600Y15900D01*
X17657Y15823D01*
X17685Y15671D01*
X17685Y15404D01*
X17657Y15252D01*
X17600Y15176D01*
X17542Y15138D01*
X17428Y15138D01*
X17371Y15176D01*
X17314Y15252D01*
X17285Y15404D01*
X17285Y15671D01*
X17314Y15823D01*
X17371Y15900D01*
X17428Y15938D01*
X18142Y15557D02*
X17942Y15557D01*
X17942Y15138D02*
X17942Y15938D01*
X18228Y15938D01*
X18657Y15557D02*
X18457Y15557D01*
X18457Y15138D02*
X18457Y15938D01*
X18742Y15938D01*
X13428Y15938D02*
X13542Y15938D01*
X13600Y15900D01*
X13657Y15823D01*
X13685Y15671D01*
X13685Y15404D01*
X13657Y15252D01*
X13600Y15176D01*
X13542Y15138D01*
X13428Y15138D01*
X13371Y15176D01*
X13314Y15252D01*
X13285Y15404D01*
X13285Y15671D01*
X13314Y15823D01*
X13371Y15900D01*
X13428Y15938D01*
X14142Y15557D02*
X13942Y15557D01*
X13942Y15138D02*
X13942Y15938D01*
X14228Y15938D01*
X14657Y15557D02*
X14457Y15557D01*
X14457Y15138D02*
X14457Y15938D01*
X14742Y15938D01*
X9428Y15938D02*
X9542Y15938D01*
X9600Y15900D01*
X9657Y15823D01*
X9685Y15671D01*
X9685Y15404D01*
X9657Y15252D01*
X9600Y15176D01*
X9542Y15138D01*
X9428Y15138D01*
X9371Y15176D01*
X9314Y15252D01*
X9285Y15404D01*
X9285Y15671D01*
X9314Y15823D01*
X9371Y15900D01*
X9428Y15938D01*
X10142Y15557D02*
X9942Y15557D01*
X9942Y15138D02*
X9942Y15938D01*
X10228Y15938D01*
X10657Y15557D02*
X10457Y15557D01*
X10457Y15138D02*
X10457Y15938D01*
X10742Y15938D01*
X17628Y22938D02*
X17742Y22938D01*
X17800Y22900D01*
X17857Y22823D01*
X17885Y22671D01*
X17885Y22404D01*
X17857Y22252D01*
X17800Y22176D01*
X17742Y22138D01*
X17628Y22138D01*
X17571Y22176D01*
X17514Y22252D01*
X17485Y22404D01*
X17485Y22671D01*
X17514Y22823D01*
X17571Y22900D01*
X17628Y22938D01*
X18142Y22138D02*
X18142Y22938D01*
X18485Y22138D01*
X18485Y22938D01*
X13628Y22938D02*
X13742Y22938D01*
X13800Y22900D01*
X13857Y22823D01*
X13885Y22671D01*
X13885Y22404D01*
X13857Y22252D01*
X13800Y22176D01*
X13742Y22138D01*
X13628Y22138D01*
X13571Y22176D01*
X13514Y22252D01*
X13485Y22404D01*
X13485Y22671D01*
X13514Y22823D01*
X13571Y22900D01*
X13628Y22938D01*
X14142Y22138D02*
X14142Y22938D01*
X14485Y22138D01*
X14485Y22938D01*
X9628Y22938D02*
X9742Y22938D01*
X9800Y22900D01*
X9857Y22823D01*
X9885Y22671D01*
X9885Y22404D01*
X9857Y22252D01*
X9800Y22176D01*
X9742Y22138D01*
X9628Y22138D01*
X9571Y22176D01*
X9514Y22252D01*
X9485Y22404D01*
X9485Y22671D01*
X9514Y22823D01*
X9571Y22900D01*
X9628Y22938D01*
X10142Y22138D02*
X10142Y22938D01*
X10485Y22138D01*
X10485Y22938D01*
X5628Y22938D02*
X5742Y22938D01*
X5800Y22900D01*
X5857Y22823D01*
X5885Y22671D01*
X5885Y22404D01*
X5857Y22252D01*
X5800Y22176D01*
X5742Y22138D01*
X5628Y22138D01*
X5571Y22176D01*
X5514Y22252D01*
X5485Y22404D01*
X5485Y22671D01*
X5514Y22823D01*
X5571Y22900D01*
X5628Y22938D01*
X6142Y22138D02*
X6142Y22938D01*
X6485Y22138D01*
X6485Y22938D01*
X5428Y15938D02*
X5542Y15938D01*
X5600Y15900D01*
X5657Y15823D01*
X5685Y15671D01*
X5685Y15404D01*
X5657Y15252D01*
X5600Y15176D01*
X5542Y15138D01*
X5428Y15138D01*
X5371Y15176D01*
X5314Y15252D01*
X5285Y15404D01*
X5285Y15671D01*
X5314Y15823D01*
X5371Y15900D01*
X5428Y15938D01*
X6142Y15557D02*
X5942Y15557D01*
X5942Y15138D02*
X5942Y15938D01*
X6228Y15938D01*
X6657Y15557D02*
X6457Y15557D01*
X6457Y15138D02*
X6457Y15938D01*
X6742Y15938D01*
X17390Y26500D02*
X17314Y26547D01*
X17200Y26547D01*
X17085Y26500D01*
X17009Y26404D01*
X16971Y26309D01*
X16933Y26119D01*
X16933Y25976D01*
X16971Y25785D01*
X17009Y25690D01*
X17085Y25595D01*
X17200Y25547D01*
X17276Y25547D01*
X17390Y25595D01*
X17428Y25642D01*
X17428Y25976D01*
X17276Y25976D01*
X17771Y25547D02*
X17771Y26547D01*
X18228Y25547D01*
X18228Y26547D01*
X18609Y25547D02*
X18609Y26547D01*
X18800Y26547D01*
X18914Y26500D01*
X18990Y26404D01*
X19028Y26309D01*
X19066Y26119D01*
X19066Y25976D01*
X19028Y25785D01*
X18990Y25690D01*
X18914Y25595D01*
X18800Y25547D01*
X18609Y25547D01*
X13295Y25547D02*
X13295Y26547D01*
X13485Y26547D01*
X13600Y26500D01*
X13676Y26404D01*
X13714Y26309D01*
X13752Y26119D01*
X13752Y25976D01*
X13714Y25785D01*
X13676Y25690D01*
X13600Y25595D01*
X13485Y25547D01*
X13295Y25547D01*
X14095Y25928D02*
X14704Y25928D01*
X14400Y25547D02*
X14400Y26309D01*
X9295Y25547D02*
X9295Y26547D01*
X9485Y26547D01*
X9600Y26500D01*
X9676Y26404D01*
X9714Y26309D01*
X9752Y26119D01*
X9752Y25976D01*
X9714Y25785D01*
X9676Y25690D01*
X9600Y25595D01*
X9485Y25547D01*
X9295Y25547D01*
X10095Y25928D02*
X10704Y25928D01*
X4533Y26547D02*
X4800Y25547D01*
X5066Y26547D01*
X5600Y26071D02*
X5714Y26023D01*
X5752Y25976D01*
X5790Y25880D01*
X5790Y25738D01*
X5752Y25642D01*
X5714Y25595D01*
X5638Y25547D01*
X5333Y25547D01*
X5333Y26547D01*
X5600Y26547D01*
X5676Y26500D01*
X5714Y26452D01*
X5752Y26357D01*
X5752Y26261D01*
X5714Y26166D01*
X5676Y26119D01*
X5600Y26071D01*
X5333Y26071D01*
X6133Y26547D02*
X6133Y25738D01*
X6171Y25642D01*
X6209Y25595D01*
X6285Y25547D01*
X6438Y25547D01*
X6514Y25595D01*
X6552Y25642D01*
X6590Y25738D01*
X6590Y26547D01*
X6933Y25595D02*
X7047Y25547D01*
X7238Y25547D01*
X7314Y25595D01*
X7352Y25642D01*
X7390Y25738D01*
X7390Y25833D01*
X7352Y25928D01*
X7314Y25976D01*
X7238Y26023D01*
X7085Y26071D01*
X7009Y26119D01*
X6971Y26166D01*
X6933Y26261D01*
X6933Y26357D01*
X6971Y26452D01*
X7009Y26500D01*
X7085Y26547D01*
X7276Y26547D01*
X7390Y26500D01*
X17390Y12500D02*
X17314Y12547D01*
X17200Y12547D01*
X17085Y12500D01*
X17009Y12404D01*
X16971Y12309D01*
X16933Y12119D01*
X16933Y11976D01*
X16971Y11785D01*
X17009Y11690D01*
X17085Y11595D01*
X17200Y11547D01*
X17276Y11547D01*
X17390Y11595D01*
X17428Y11642D01*
X17428Y11976D01*
X17276Y11976D01*
X17771Y11547D02*
X17771Y12547D01*
X18228Y11547D01*
X18228Y12547D01*
X18609Y11547D02*
X18609Y12547D01*
X18800Y12547D01*
X18914Y12500D01*
X18990Y12404D01*
X19028Y12309D01*
X19066Y12119D01*
X19066Y11976D01*
X19028Y11785D01*
X18990Y11690D01*
X18914Y11595D01*
X18800Y11547D01*
X18609Y11547D01*
X13295Y11547D02*
X13295Y12547D01*
X13485Y12547D01*
X13600Y12500D01*
X13676Y12404D01*
X13714Y12309D01*
X13752Y12119D01*
X13752Y11976D01*
X13714Y11785D01*
X13676Y11690D01*
X13600Y11595D01*
X13485Y11547D01*
X13295Y11547D01*
X14095Y11928D02*
X14704Y11928D01*
X14400Y11547D02*
X14400Y12309D01*
X9295Y11547D02*
X9295Y12547D01*
X9485Y12547D01*
X9600Y12500D01*
X9676Y12404D01*
X9714Y12309D01*
X9752Y12119D01*
X9752Y11976D01*
X9714Y11785D01*
X9676Y11690D01*
X9600Y11595D01*
X9485Y11547D01*
X9295Y11547D01*
X10095Y11928D02*
X10704Y11928D01*
X4533Y12547D02*
X4800Y11547D01*
X5066Y12547D01*
X5600Y12071D02*
X5714Y12023D01*
X5752Y11976D01*
X5790Y11880D01*
X5790Y11738D01*
X5752Y11642D01*
X5714Y11595D01*
X5638Y11547D01*
X5333Y11547D01*
X5333Y12547D01*
X5600Y12547D01*
X5676Y12500D01*
X5714Y12452D01*
X5752Y12357D01*
X5752Y12261D01*
X5714Y12166D01*
X5676Y12119D01*
X5600Y12071D01*
X5333Y12071D01*
X6133Y12547D02*
X6133Y11738D01*
X6171Y11642D01*
X6209Y11595D01*
X6285Y11547D01*
X6438Y11547D01*
X6514Y11595D01*
X6552Y11642D01*
X6590Y11738D01*
X6590Y12547D01*
X6933Y11595D02*
X7047Y11547D01*
X7238Y11547D01*
X7314Y11595D01*
X7352Y11642D01*
X7390Y11738D01*
X7390Y11833D01*
X7352Y11928D01*
X7314Y11976D01*
X7238Y12023D01*
X7085Y12071D01*
X7009Y12119D01*
X6971Y12166D01*
X6933Y12261D01*
X6933Y12357D01*
X6971Y12452D01*
X7009Y12500D01*
X7085Y12547D01*
X7276Y12547D01*
X7390Y12500D01*
X742Y6928D02*
X742Y6280D01*
X771Y6204D01*
X800Y6166D01*
X857Y6128D01*
X971Y6128D01*
X1028Y6166D01*
X1057Y6204D01*
X1085Y6280D01*
X1085Y6928D01*
X1342Y6166D02*
X1428Y6128D01*
X1571Y6128D01*
X1628Y6166D01*
X1657Y6204D01*
X1685Y6280D01*
X1685Y6356D01*
X1657Y6432D01*
X1628Y6470D01*
X1571Y6509D01*
X1457Y6547D01*
X1400Y6585D01*
X1371Y6623D01*
X1342Y6699D01*
X1342Y6775D01*
X1371Y6851D01*
X1400Y6890D01*
X1457Y6928D01*
X1600Y6928D01*
X1685Y6890D01*
X2142Y6547D02*
X2228Y6509D01*
X2257Y6470D01*
X2285Y6394D01*
X2285Y6280D01*
X2257Y6204D01*
X2228Y6166D01*
X2171Y6128D01*
X1942Y6128D01*
X1942Y6928D01*
X2142Y6928D01*
X2200Y6890D01*
X2228Y6851D01*
X2257Y6775D01*
X2257Y6699D01*
X2228Y6623D01*
X2200Y6585D01*
X2142Y6547D01*
X1942Y6547D01*
X3000Y6128D02*
X3000Y6928D01*
X3228Y6928D01*
X3285Y6890D01*
X3314Y6851D01*
X3342Y6775D01*
X3342Y6661D01*
X3314Y6585D01*
X3285Y6547D01*
X3228Y6509D01*
X3000Y6509D01*
X3857Y6128D02*
X3857Y6547D01*
X3828Y6623D01*
X3771Y6661D01*
X3657Y6661D01*
X3600Y6623D01*
X3857Y6166D02*
X3800Y6128D01*
X3657Y6128D01*
X3600Y6166D01*
X3571Y6242D01*
X3571Y6318D01*
X3600Y6394D01*
X3657Y6432D01*
X3800Y6432D01*
X3857Y6470D01*
X4114Y6166D02*
X4171Y6128D01*
X4285Y6128D01*
X4342Y6166D01*
X4371Y6242D01*
X4371Y6280D01*
X4342Y6356D01*
X4285Y6394D01*
X4200Y6394D01*
X4142Y6432D01*
X4114Y6509D01*
X4114Y6547D01*
X4142Y6623D01*
X4200Y6661D01*
X4285Y6661D01*
X4342Y6623D01*
X4600Y6166D02*
X4657Y6128D01*
X4771Y6128D01*
X4828Y6166D01*
X4857Y6242D01*
X4857Y6280D01*
X4828Y6356D01*
X4771Y6394D01*
X4685Y6394D01*
X4628Y6432D01*
X4600Y6509D01*
X4600Y6547D01*
X4628Y6623D01*
X4685Y6661D01*
X4771Y6661D01*
X4828Y6623D01*
X5028Y6661D02*
X5257Y6661D01*
X5114Y6928D02*
X5114Y6242D01*
X5142Y6166D01*
X5200Y6128D01*
X5257Y6128D01*
X5457Y6128D02*
X5457Y6928D01*
X5714Y6128D02*
X5714Y6547D01*
X5685Y6623D01*
X5628Y6661D01*
X5542Y6661D01*
X5485Y6623D01*
X5457Y6585D01*
X6000Y6128D02*
X6000Y6661D01*
X6000Y6509D02*
X6028Y6585D01*
X6057Y6623D01*
X6114Y6661D01*
X6171Y6661D01*
X6457Y6128D02*
X6400Y6166D01*
X6371Y6204D01*
X6342Y6280D01*
X6342Y6509D01*
X6371Y6585D01*
X6400Y6623D01*
X6457Y6661D01*
X6542Y6661D01*
X6600Y6623D01*
X6628Y6585D01*
X6657Y6509D01*
X6657Y6280D01*
X6628Y6204D01*
X6600Y6166D01*
X6542Y6128D01*
X6457Y6128D01*
X7171Y6661D02*
X7171Y6128D01*
X6914Y6661D02*
X6914Y6242D01*
X6942Y6166D01*
X7000Y6128D01*
X7085Y6128D01*
X7142Y6166D01*
X7171Y6204D01*
X7714Y6661D02*
X7714Y6013D01*
X7685Y5937D01*
X7657Y5899D01*
X7600Y5861D01*
X7514Y5861D01*
X7457Y5899D01*
X7714Y6166D02*
X7657Y6128D01*
X7542Y6128D01*
X7485Y6166D01*
X7457Y6204D01*
X7428Y6280D01*
X7428Y6509D01*
X7457Y6585D01*
X7485Y6623D01*
X7542Y6661D01*
X7657Y6661D01*
X7714Y6623D01*
X8000Y6128D02*
X8000Y6928D01*
X8257Y6128D02*
X8257Y6547D01*
X8228Y6623D01*
X8171Y6661D01*
X8085Y6661D01*
X8028Y6623D01*
X8000Y6585D01*
X4757Y4888D02*
X4728Y4888D01*
X4671Y4926D01*
X4585Y5040D01*
X4442Y5269D01*
X4385Y5383D01*
X4357Y5497D01*
X4357Y5573D01*
X4385Y5650D01*
X4442Y5688D01*
X4471Y5688D01*
X4528Y5650D01*
X4557Y5573D01*
X4557Y5535D01*
X4528Y5459D01*
X4500Y5421D01*
X4328Y5269D01*
X4300Y5230D01*
X4271Y5154D01*
X4271Y5040D01*
X4300Y4964D01*
X4328Y4926D01*
X4385Y4888D01*
X4471Y4888D01*
X4528Y4926D01*
X4557Y4964D01*
X4642Y5116D01*
X4671Y5230D01*
X4671Y5307D01*
X957Y4067D02*
X1042Y4029D01*
X1071Y3990D01*
X1100Y3914D01*
X1100Y3800D01*
X1071Y3724D01*
X1042Y3686D01*
X985Y3648D01*
X757Y3648D01*
X757Y4448D01*
X957Y4448D01*
X1014Y4410D01*
X1042Y4371D01*
X1071Y4295D01*
X1071Y4219D01*
X1042Y4143D01*
X1014Y4105D01*
X957Y4067D01*
X757Y4067D01*
X1357Y3648D02*
X1357Y4181D01*
X1357Y4029D02*
X1385Y4105D01*
X1414Y4143D01*
X1471Y4181D01*
X1528Y4181D01*
X1957Y3686D02*
X1900Y3648D01*
X1785Y3648D01*
X1728Y3686D01*
X1700Y3762D01*
X1700Y4067D01*
X1728Y4143D01*
X1785Y4181D01*
X1900Y4181D01*
X1957Y4143D01*
X1985Y4067D01*
X1985Y3990D01*
X1700Y3914D01*
X2500Y3648D02*
X2500Y4067D01*
X2471Y4143D01*
X2414Y4181D01*
X2300Y4181D01*
X2242Y4143D01*
X2500Y3686D02*
X2442Y3648D01*
X2300Y3648D01*
X2242Y3686D01*
X2214Y3762D01*
X2214Y3838D01*
X2242Y3914D01*
X2300Y3952D01*
X2442Y3952D01*
X2500Y3990D01*
X2785Y3648D02*
X2785Y4448D01*
X2842Y3952D02*
X3014Y3648D01*
X3014Y4181D02*
X2785Y3876D01*
X3357Y3648D02*
X3300Y3686D01*
X3271Y3724D01*
X3242Y3800D01*
X3242Y4029D01*
X3271Y4105D01*
X3300Y4143D01*
X3357Y4181D01*
X3442Y4181D01*
X3500Y4143D01*
X3528Y4105D01*
X3557Y4029D01*
X3557Y3800D01*
X3528Y3724D01*
X3500Y3686D01*
X3442Y3648D01*
X3357Y3648D01*
X4071Y4181D02*
X4071Y3648D01*
X3814Y4181D02*
X3814Y3762D01*
X3842Y3686D01*
X3900Y3648D01*
X3985Y3648D01*
X4042Y3686D01*
X4071Y3724D01*
X4271Y4181D02*
X4500Y4181D01*
X4357Y4448D02*
X4357Y3762D01*
X4385Y3686D01*
X4442Y3648D01*
X4500Y3648D01*
X5128Y3876D02*
X5414Y3876D01*
X5071Y3648D02*
X5271Y4448D01*
X5471Y3648D01*
X5928Y3648D02*
X5928Y4448D01*
X5928Y3686D02*
X5871Y3648D01*
X5757Y3648D01*
X5700Y3686D01*
X5671Y3724D01*
X5642Y3800D01*
X5642Y4029D01*
X5671Y4105D01*
X5700Y4143D01*
X5757Y4181D01*
X5871Y4181D01*
X5928Y4143D01*
X6471Y3648D02*
X6471Y4067D01*
X6442Y4143D01*
X6385Y4181D01*
X6271Y4181D01*
X6214Y4143D01*
X6471Y3686D02*
X6414Y3648D01*
X6271Y3648D01*
X6214Y3686D01*
X6185Y3762D01*
X6185Y3838D01*
X6214Y3914D01*
X6271Y3952D01*
X6414Y3952D01*
X6471Y3990D01*
X6757Y4181D02*
X6757Y3381D01*
X6757Y4143D02*
X6814Y4181D01*
X6928Y4181D01*
X6985Y4143D01*
X7014Y4105D01*
X7042Y4029D01*
X7042Y3800D01*
X7014Y3724D01*
X6985Y3686D01*
X6928Y3648D01*
X6814Y3648D01*
X6757Y3686D01*
X7214Y4181D02*
X7442Y4181D01*
X7300Y4448D02*
X7300Y3762D01*
X7328Y3686D01*
X7385Y3648D01*
X7442Y3648D01*
X7871Y3686D02*
X7814Y3648D01*
X7700Y3648D01*
X7642Y3686D01*
X7614Y3762D01*
X7614Y4067D01*
X7642Y4143D01*
X7700Y4181D01*
X7814Y4181D01*
X7871Y4143D01*
X7900Y4067D01*
X7900Y3990D01*
X7614Y3914D01*
X8157Y3648D02*
X8157Y4181D01*
X8157Y4029D02*
X8185Y4105D01*
X8214Y4143D01*
X8271Y4181D01*
X8328Y4181D01*
X17129Y6046D02*
X17210Y6008D01*
X17352Y6008D01*
X17414Y6046D01*
X17448Y6084D01*
X17486Y6160D01*
X17495Y6236D01*
X17476Y6312D01*
X17452Y6350D01*
X17400Y6389D01*
X17291Y6427D01*
X17238Y6465D01*
X17214Y6503D01*
X17195Y6579D01*
X17205Y6655D01*
X17243Y6731D01*
X17276Y6770D01*
X17338Y6808D01*
X17481Y6808D01*
X17562Y6770D01*
X17957Y6046D02*
X17895Y6008D01*
X17781Y6008D01*
X17729Y6046D01*
X17710Y6122D01*
X17748Y6427D01*
X17786Y6503D01*
X17848Y6541D01*
X17962Y6541D01*
X18014Y6503D01*
X18033Y6427D01*
X18024Y6350D01*
X17729Y6274D01*
X18238Y6008D02*
X18305Y6541D01*
X18295Y6465D02*
X18329Y6503D01*
X18391Y6541D01*
X18476Y6541D01*
X18529Y6503D01*
X18548Y6427D01*
X18495Y6008D01*
X18548Y6427D02*
X18586Y6503D01*
X18648Y6541D01*
X18733Y6541D01*
X18786Y6503D01*
X18805Y6427D01*
X18752Y6008D01*
X19038Y6008D02*
X19138Y6808D01*
X19100Y6503D02*
X19162Y6541D01*
X19276Y6541D01*
X19329Y6503D01*
X19352Y6465D01*
X19372Y6389D01*
X19343Y6160D01*
X19305Y6084D01*
X19272Y6046D01*
X19210Y6008D01*
X19095Y6008D01*
X19043Y6046D01*
X19838Y6008D02*
X19891Y6427D01*
X19872Y6503D01*
X19819Y6541D01*
X19705Y6541D01*
X19643Y6503D01*
X19843Y6046D02*
X19781Y6008D01*
X19638Y6008D01*
X19586Y6046D01*
X19567Y6122D01*
X19576Y6198D01*
X19614Y6274D01*
X19676Y6312D01*
X19819Y6312D01*
X19881Y6350D01*
X20133Y6541D02*
X20448Y6541D01*
X20067Y6008D01*
X20381Y6008D01*
X20933Y6541D02*
X20867Y6008D01*
X20676Y6541D02*
X20624Y6122D01*
X20643Y6046D01*
X20695Y6008D01*
X20781Y6008D01*
X20843Y6046D01*
X20876Y6084D01*
X21152Y6008D02*
X21219Y6541D01*
X21200Y6389D02*
X21238Y6465D01*
X21272Y6503D01*
X21333Y6541D01*
X21391Y6541D01*
X21848Y6541D02*
X21781Y6008D01*
X21591Y6541D02*
X21538Y6122D01*
X21557Y6046D01*
X21610Y6008D01*
X21695Y6008D01*
X21757Y6046D01*
X21791Y6084D01*
X18248Y4844D02*
X18214Y4806D01*
X18124Y4768D01*
X18067Y4768D01*
X17986Y4806D01*
X17938Y4882D01*
X17919Y4958D01*
X17910Y5110D01*
X17924Y5225D01*
X17972Y5377D01*
X18010Y5453D01*
X18076Y5530D01*
X18167Y5568D01*
X18224Y5568D01*
X18305Y5530D01*
X18329Y5491D01*
X18495Y4768D02*
X18562Y5301D01*
X18595Y5568D02*
X18562Y5530D01*
X18586Y5491D01*
X18619Y5530D01*
X18595Y5568D01*
X18586Y5491D01*
X18781Y4768D02*
X18848Y5301D01*
X18829Y5149D02*
X18867Y5225D01*
X18900Y5263D01*
X18962Y5301D01*
X19019Y5301D01*
X19414Y4806D02*
X19352Y4768D01*
X19238Y4768D01*
X19186Y4806D01*
X19162Y4844D01*
X19143Y4920D01*
X19172Y5149D01*
X19210Y5225D01*
X19243Y5263D01*
X19305Y5301D01*
X19419Y5301D01*
X19472Y5263D01*
X19991Y5301D02*
X19924Y4768D01*
X19733Y5301D02*
X19681Y4882D01*
X19700Y4806D01*
X19752Y4768D01*
X19838Y4768D01*
X19900Y4806D01*
X19933Y4844D01*
X20210Y4768D02*
X20276Y5301D01*
X20310Y5568D02*
X20276Y5530D01*
X20300Y5491D01*
X20333Y5530D01*
X20310Y5568D01*
X20300Y5491D01*
X20476Y5301D02*
X20705Y5301D01*
X20595Y5568D02*
X20510Y4882D01*
X20529Y4806D01*
X20581Y4768D01*
X20638Y4768D01*
X20814Y4806D02*
X20867Y4768D01*
X20981Y4768D01*
X21043Y4806D01*
X21081Y4882D01*
X21086Y4920D01*
X21067Y4996D01*
X21014Y5034D01*
X20929Y5034D01*
X20876Y5072D01*
X20857Y5149D01*
X20862Y5187D01*
X20900Y5263D01*
X20962Y5301D01*
X21048Y5301D01*
X21100Y5263D01*
G54D13*
X10386Y35533D02*
X13614Y35533D01*
X9480Y36596D02*
X9480Y42935D01*
X14520Y36596D02*
X14520Y42935D01*
X14520Y42935D02*
X9480Y42935D01*
G54D14*
G36*
X23753Y1608D02*
X23751Y1595D01*
X23731Y1592D01*
X23691Y1596D01*
X23608Y1605D01*
X23498Y1613D01*
X23365Y1620D01*
X23215Y1625D01*
X23050Y1630D01*
X22876Y1633D01*
X22696Y1635D01*
X22515Y1634D01*
X22411Y1634D01*
X22411Y2055D01*
X22398Y2067D01*
X22364Y2093D01*
X22311Y2129D01*
X22245Y2172D01*
X22170Y2220D01*
X22090Y2269D01*
X22010Y2318D01*
X21973Y2340D01*
X21846Y2412D01*
X21721Y2476D01*
X21606Y2531D01*
X21506Y2571D01*
X21474Y2582D01*
X21414Y2600D01*
X21369Y2608D01*
X21323Y2607D01*
X21262Y2598D01*
X21259Y2598D01*
X21161Y2579D01*
X21039Y2551D01*
X20899Y2516D01*
X20747Y2475D01*
X20684Y2456D01*
X20639Y2444D01*
X20601Y2431D01*
X20563Y2416D01*
X20524Y2398D01*
X20480Y2373D01*
X20427Y2341D01*
X20383Y2313D01*
X20383Y2737D01*
X20374Y2751D01*
X20343Y2773D01*
X20298Y2798D01*
X20246Y2821D01*
X20194Y2839D01*
X20179Y2844D01*
X20123Y2854D01*
X20078Y2852D01*
X20048Y2843D01*
X19992Y2819D01*
X19913Y2777D01*
X19815Y2722D01*
X19700Y2653D01*
X19572Y2571D01*
X19547Y2554D01*
X19347Y2424D01*
X19357Y2282D01*
X19366Y2167D01*
X19374Y2079D01*
X19381Y2017D01*
X19388Y1976D01*
X19395Y1954D01*
X19403Y1947D01*
X19425Y1957D01*
X19455Y1980D01*
X19459Y1983D01*
X19480Y2002D01*
X19522Y2036D01*
X19582Y2086D01*
X19657Y2147D01*
X19745Y2217D01*
X19842Y2295D01*
X19939Y2373D01*
X20038Y2453D01*
X20132Y2528D01*
X20214Y2595D01*
X20283Y2651D01*
X20336Y2695D01*
X20370Y2725D01*
X20383Y2737D01*
X20383Y2313D01*
X20361Y2299D01*
X20278Y2245D01*
X20177Y2176D01*
X20096Y2123D01*
X19994Y2054D01*
X19901Y1990D01*
X19818Y1933D01*
X19751Y1886D01*
X19700Y1850D01*
X19670Y1828D01*
X19663Y1822D01*
X19674Y1813D01*
X19712Y1807D01*
X19770Y1803D01*
X19845Y1801D01*
X19932Y1801D01*
X20026Y1802D01*
X20123Y1805D01*
X20217Y1811D01*
X20306Y1817D01*
X20382Y1825D01*
X20425Y1832D01*
X20501Y1846D01*
X20590Y1864D01*
X20675Y1883D01*
X20688Y1886D01*
X20913Y1933D01*
X21150Y1974D01*
X21392Y2007D01*
X21632Y2032D01*
X21862Y2048D01*
X22076Y2054D01*
X22211Y2052D01*
X22286Y2050D01*
X22347Y2050D01*
X22391Y2052D01*
X22410Y2054D01*
X22411Y2055D01*
X22411Y1634D01*
X22357Y1633D01*
X22178Y1630D01*
X22023Y1625D01*
X21889Y1620D01*
X21770Y1613D01*
X21659Y1604D01*
X21552Y1592D01*
X21443Y1576D01*
X21326Y1556D01*
X21196Y1531D01*
X21051Y1503D01*
X20842Y1460D01*
X20754Y1190D01*
X20724Y1104D01*
X20698Y1027D01*
X20676Y966D01*
X20659Y923D01*
X20651Y907D01*
X20626Y895D01*
X20577Y879D01*
X20509Y860D01*
X20427Y840D01*
X20337Y820D01*
X20243Y800D01*
X20153Y783D01*
X20072Y769D01*
X20004Y760D01*
X19957Y757D01*
X19956Y756D01*
X19902Y759D01*
X19855Y769D01*
X19803Y789D01*
X19744Y819D01*
X19624Y880D01*
X19504Y803D01*
X19429Y756D01*
X19341Y701D01*
X19245Y642D01*
X19145Y582D01*
X19048Y524D01*
X18957Y470D01*
X18878Y425D01*
X18816Y390D01*
X18780Y371D01*
X18714Y339D01*
X18669Y321D01*
X18640Y317D01*
X18640Y3095D01*
X18639Y3111D01*
X18639Y3112D01*
X18623Y3116D01*
X18580Y3124D01*
X18513Y3137D01*
X18427Y3152D01*
X18325Y3171D01*
X18210Y3191D01*
X18122Y3205D01*
X17915Y3241D01*
X17737Y3271D01*
X17585Y3297D01*
X17459Y3319D01*
X17355Y3337D01*
X17274Y3351D01*
X17212Y3362D01*
X17168Y3370D01*
X17139Y3376D01*
X17130Y3378D01*
X17102Y3379D01*
X17097Y3366D01*
X17108Y3351D01*
X17139Y3317D01*
X17188Y3266D01*
X17253Y3198D01*
X17332Y3119D01*
X17422Y3028D01*
X17521Y2928D01*
X17628Y2821D01*
X17659Y2791D01*
X18218Y2239D01*
X18348Y2321D01*
X18408Y2359D01*
X18462Y2394D01*
X18502Y2420D01*
X18515Y2429D01*
X18531Y2444D01*
X18543Y2466D01*
X18555Y2500D01*
X18565Y2553D01*
X18578Y2631D01*
X18580Y2645D01*
X18601Y2789D01*
X18618Y2905D01*
X18630Y2994D01*
X18638Y3057D01*
X18640Y3095D01*
X18640Y317D01*
X18637Y316D01*
X18613Y321D01*
X18607Y325D01*
X18585Y348D01*
X18566Y388D01*
X18563Y398D01*
X18550Y440D01*
X18540Y470D01*
X18539Y474D01*
X18525Y481D01*
X18491Y470D01*
X18466Y458D01*
X18466Y1836D01*
X18452Y1838D01*
X18424Y1825D01*
X18389Y1800D01*
X18349Y1766D01*
X18310Y1726D01*
X18276Y1684D01*
X18260Y1660D01*
X18220Y1591D01*
X18268Y1402D01*
X18291Y1315D01*
X18307Y1254D01*
X18318Y1213D01*
X18326Y1190D01*
X18332Y1178D01*
X18338Y1174D01*
X18343Y1174D01*
X18349Y1189D01*
X18358Y1229D01*
X18371Y1291D01*
X18386Y1370D01*
X18402Y1461D01*
X18405Y1482D01*
X18421Y1577D01*
X18435Y1663D01*
X18448Y1734D01*
X18458Y1785D01*
X18464Y1812D01*
X18464Y1814D01*
X18466Y1836D01*
X18466Y458D01*
X18456Y453D01*
X18400Y429D01*
X18345Y414D01*
X18320Y410D01*
X18283Y414D01*
X18255Y430D01*
X18233Y460D01*
X18217Y509D01*
X18205Y580D01*
X18197Y676D01*
X18191Y771D01*
X18186Y864D01*
X18181Y935D01*
X18174Y992D01*
X18163Y1045D01*
X18147Y1101D01*
X18124Y1170D01*
X18109Y1213D01*
X18074Y1318D01*
X18049Y1399D01*
X18033Y1463D01*
X18027Y1514D01*
X18028Y1558D01*
X18037Y1600D01*
X18044Y1622D01*
X18069Y1699D01*
X18005Y1827D01*
X17971Y1890D01*
X17938Y1948D01*
X17910Y1991D01*
X17902Y2001D01*
X17884Y2020D01*
X17847Y2060D01*
X17792Y2117D01*
X17722Y2189D01*
X17638Y2276D01*
X17542Y2375D01*
X17437Y2483D01*
X17323Y2598D01*
X17205Y2719D01*
X17205Y2720D01*
X17039Y2889D01*
X16893Y3038D01*
X16765Y3167D01*
X16657Y3279D01*
X16563Y3375D01*
X16486Y3454D01*
X16422Y3520D01*
X16371Y3574D01*
X16331Y3616D01*
X16301Y3649D01*
X16279Y3672D01*
X16265Y3689D01*
X16257Y3701D01*
X16254Y3708D01*
X16254Y3711D01*
X16256Y3714D01*
X16257Y3714D01*
X16279Y3716D01*
X16321Y3713D01*
X16355Y3708D01*
X16391Y3702D01*
X16454Y3692D01*
X16537Y3680D01*
X16637Y3666D01*
X16749Y3650D01*
X16868Y3634D01*
X16893Y3630D01*
X17117Y3600D01*
X17334Y3569D01*
X17541Y3540D01*
X17737Y3512D01*
X17918Y3486D01*
X18081Y3462D01*
X18224Y3441D01*
X18344Y3423D01*
X18437Y3408D01*
X18485Y3400D01*
X18556Y3389D01*
X18615Y3381D01*
X18656Y3378D01*
X18673Y3380D01*
X18678Y3399D01*
X18686Y3441D01*
X18695Y3497D01*
X18704Y3561D01*
X18711Y3622D01*
X18716Y3675D01*
X18718Y3706D01*
X18716Y3720D01*
X18710Y3729D01*
X18696Y3732D01*
X18669Y3728D01*
X18624Y3715D01*
X18559Y3694D01*
X18470Y3664D01*
X18455Y3659D01*
X18357Y3629D01*
X18262Y3606D01*
X18183Y3592D01*
X18165Y3589D01*
X18107Y3585D01*
X18074Y3586D01*
X18057Y3591D01*
X18053Y3604D01*
X18053Y3609D01*
X18063Y3630D01*
X18096Y3659D01*
X18153Y3700D01*
X18219Y3743D01*
X18289Y3787D01*
X18343Y3822D01*
X18386Y3852D01*
X18423Y3884D01*
X18460Y3920D01*
X18503Y3968D01*
X18556Y4030D01*
X18604Y4087D01*
X18662Y4155D01*
X18716Y4218D01*
X18764Y4270D01*
X18798Y4307D01*
X18808Y4317D01*
X18856Y4362D01*
X19029Y4329D01*
X19127Y4308D01*
X19197Y4288D01*
X19241Y4268D01*
X19265Y4246D01*
X19268Y4221D01*
X19266Y4213D01*
X19258Y4181D01*
X19252Y4145D01*
X19248Y4102D01*
X19248Y4048D01*
X19250Y3981D01*
X19254Y3898D01*
X19262Y3795D01*
X19273Y3670D01*
X19288Y3520D01*
X19302Y3376D01*
X19313Y3267D01*
X19390Y3250D01*
X19446Y3238D01*
X19517Y3225D01*
X19579Y3214D01*
X19626Y3206D01*
X19658Y3199D01*
X19680Y3187D01*
X19694Y3165D01*
X19704Y3127D01*
X19713Y3069D01*
X19724Y2986D01*
X19732Y2923D01*
X19741Y2875D01*
X19748Y2847D01*
X19750Y2842D01*
X19766Y2850D01*
X19802Y2870D01*
X19853Y2898D01*
X19882Y2915D01*
X19951Y2953D01*
X20004Y2977D01*
X20054Y2990D01*
X20095Y2994D01*
X20186Y3001D01*
X20329Y3173D01*
X20382Y3238D01*
X20448Y3320D01*
X20524Y3414D01*
X20603Y3512D01*
X20680Y3608D01*
X20703Y3637D01*
X20891Y3874D01*
X21061Y4087D01*
X21213Y4278D01*
X21348Y4446D01*
X21467Y4595D01*
X21571Y4723D01*
X21659Y4833D01*
X21734Y4924D01*
X21795Y4999D01*
X21844Y5057D01*
X21881Y5100D01*
X21907Y5128D01*
X21922Y5143D01*
X21928Y5146D01*
X21924Y5124D01*
X21906Y5075D01*
X21878Y4999D01*
X21838Y4897D01*
X21786Y4769D01*
X21724Y4617D01*
X21651Y4441D01*
X21567Y4241D01*
X21538Y4172D01*
X21500Y4086D01*
X21449Y3976D01*
X21387Y3848D01*
X21316Y3704D01*
X21237Y3549D01*
X21154Y3387D01*
X21067Y3221D01*
X20979Y3056D01*
X20944Y2990D01*
X20902Y2913D01*
X20867Y2845D01*
X20840Y2792D01*
X20823Y2757D01*
X20819Y2747D01*
X20831Y2737D01*
X20855Y2738D01*
X20874Y2748D01*
X20896Y2760D01*
X20941Y2780D01*
X21003Y2805D01*
X21076Y2833D01*
X21153Y2861D01*
X21227Y2887D01*
X21244Y2892D01*
X21354Y2919D01*
X21470Y2928D01*
X21476Y2928D01*
X21528Y2927D01*
X21570Y2923D01*
X21610Y2915D01*
X21654Y2899D01*
X21711Y2873D01*
X21779Y2841D01*
X21867Y2796D01*
X21963Y2744D01*
X22055Y2692D01*
X22111Y2658D01*
X22217Y2592D01*
X22343Y2512D01*
X22487Y2421D01*
X22643Y2323D01*
X22806Y2220D01*
X22972Y2116D01*
X23135Y2013D01*
X23292Y1914D01*
X23352Y1877D01*
X23451Y1815D01*
X23542Y1756D01*
X23620Y1704D01*
X23683Y1662D01*
X23728Y1630D01*
X23751Y1611D01*
X23753Y1608D01*
X23753Y1608D01*
X23753Y1608D01*
G37*
G54D11*
X5750Y18000D02*
X5750Y18250D01*
X5750Y18250D02*
X6250Y18250D01*
X6250Y18250D02*
X6250Y18000D01*
X6250Y18000D02*
G75*
G03X5750Y18000I-250J999D01*
G74*
G01*
X5600Y21250D02*
X5600Y20250D01*
X5850Y21000D02*
X5600Y21250D01*
X5600Y21250D02*
X5350Y21000D01*
G54D15*
X4661Y21519D02*
X4661Y16480D01*
X4661Y16480D02*
X7338Y16480D01*
X7338Y16480D02*
X7338Y21519D01*
X7338Y21519D02*
X4661Y21519D01*
G54D11*
X17750Y18000D02*
X17750Y18250D01*
X17750Y18250D02*
X18250Y18250D01*
X18250Y18250D02*
X18250Y18000D01*
X18250Y18000D02*
G75*
G03X17750Y18000I-250J999D01*
G74*
G01*
X17600Y21250D02*
X17600Y20250D01*
X17850Y21000D02*
X17600Y21250D01*
X17600Y21250D02*
X17350Y21000D01*
G54D15*
X16661Y21519D02*
X16661Y16480D01*
X16661Y16480D02*
X19338Y16480D01*
X19338Y16480D02*
X19338Y21519D01*
X19338Y21519D02*
X16661Y21519D01*
G54D11*
X13750Y18000D02*
X13750Y18250D01*
X13750Y18250D02*
X14250Y18250D01*
X14250Y18250D02*
X14250Y18000D01*
X14250Y18000D02*
G75*
G03X13750Y18000I-250J999D01*
G74*
G01*
X13600Y21250D02*
X13600Y20250D01*
X13850Y21000D02*
X13600Y21250D01*
X13600Y21250D02*
X13350Y21000D01*
G54D15*
X12661Y21519D02*
X12661Y16480D01*
X12661Y16480D02*
X15338Y16480D01*
X15338Y16480D02*
X15338Y21519D01*
X15338Y21519D02*
X12661Y21519D01*
G54D11*
X9750Y18000D02*
X9750Y18250D01*
X9750Y18250D02*
X10250Y18250D01*
X10250Y18250D02*
X10250Y18000D01*
X10250Y18000D02*
G75*
G03X9750Y18000I-250J999D01*
G74*
G01*
X9600Y21250D02*
X9600Y20250D01*
X9850Y21000D02*
X9600Y21250D01*
X9600Y21250D02*
X9350Y21000D01*
G54D15*
X8661Y21519D02*
X8661Y16480D01*
X8661Y16480D02*
X11338Y16480D01*
X11338Y16480D02*
X11338Y21519D01*
X11338Y21519D02*
X8661Y21519D01*
G54D16*
X14750Y8000D02*
X14750Y10000D01*
X13250Y10000D02*
X13250Y8000D01*
X14000Y7250D02*
G75*
G03X14750Y8000I0J750D01*
G74*
G01*
X13250Y8000D02*
G75*
G03X14000Y7250I750J0D01*
G74*
G01*
X14000Y10750D02*
G75*
G03X13250Y10000I0J-750D01*
G74*
G01*
X14750Y10000D02*
G75*
G03X14000Y10750I-750J0D01*
G74*
G01*
X6750Y28000D02*
X6750Y30000D01*
X5250Y30000D02*
X5250Y28000D01*
X6000Y27250D02*
G75*
G03X6750Y28000I0J750D01*
G74*
G01*
X5250Y28000D02*
G75*
G03X6000Y27250I750J0D01*
G74*
G01*
X6000Y30750D02*
G75*
G03X5250Y30000I0J-750D01*
G74*
G01*
X6750Y30000D02*
G75*
G03X6000Y30750I-750J0D01*
G74*
G01*
X18750Y8000D02*
X18750Y10000D01*
X17250Y10000D02*
X17250Y8000D01*
X18000Y7250D02*
G75*
G03X18750Y8000I0J750D01*
G74*
G01*
X17250Y8000D02*
G75*
G03X18000Y7250I750J0D01*
G74*
G01*
X18000Y10750D02*
G75*
G03X17250Y10000I0J-750D01*
G74*
G01*
X18750Y10000D02*
G75*
G03X18000Y10750I-750J0D01*
G74*
G01*
X10750Y8000D02*
X10750Y10000D01*
X9250Y10000D02*
X9250Y8000D01*
X10000Y7250D02*
G75*
G03X10750Y8000I0J750D01*
G74*
G01*
X9250Y8000D02*
G75*
G03X10000Y7250I750J0D01*
G74*
G01*
X10000Y10750D02*
G75*
G03X9250Y10000I0J-750D01*
G74*
G01*
X10750Y10000D02*
G75*
G03X10000Y10750I-750J0D01*
G74*
G01*
X18750Y28000D02*
X18750Y30000D01*
X17250Y30000D02*
X17250Y28000D01*
X18000Y27250D02*
G75*
G03X18750Y28000I0J750D01*
G74*
G01*
X17250Y28000D02*
G75*
G03X18000Y27250I750J0D01*
G74*
G01*
X18000Y30750D02*
G75*
G03X17250Y30000I0J-750D01*
G74*
G01*
X18750Y30000D02*
G75*
G03X18000Y30750I-750J0D01*
G74*
G01*
X14750Y28000D02*
X14750Y30000D01*
X13250Y30000D02*
X13250Y28000D01*
X14000Y27250D02*
G75*
G03X14750Y28000I0J750D01*
G74*
G01*
X13250Y28000D02*
G75*
G03X14000Y27250I750J0D01*
G74*
G01*
X14000Y30750D02*
G75*
G03X13250Y30000I0J-750D01*
G74*
G01*
X14750Y30000D02*
G75*
G03X14000Y30750I-750J0D01*
G74*
G01*
X10750Y28000D02*
X10750Y30000D01*
X9250Y30000D02*
X9250Y28000D01*
X10000Y27250D02*
G75*
G03X10750Y28000I0J750D01*
G74*
G01*
X9250Y28000D02*
G75*
G03X10000Y27250I750J0D01*
G74*
G01*
X10000Y30750D02*
G75*
G03X9250Y30000I0J-750D01*
G74*
G01*
X10750Y30000D02*
G75*
G03X10000Y30750I-750J0D01*
G74*
G01*
X6750Y8000D02*
X6750Y10000D01*
X5250Y10000D02*
X5250Y8000D01*
X6000Y7250D02*
G75*
G03X6750Y8000I0J750D01*
G74*
G01*
X5250Y8000D02*
G75*
G03X6000Y7250I750J0D01*
G74*
G01*
X6000Y10750D02*
G75*
G03X5250Y10000I0J-750D01*
G74*
G01*
X6750Y10000D02*
G75*
G03X6000Y10750I-750J0D01*
G74*
G01*
G54D13*
X14953Y1307D02*
X14953Y-2118D01*
X14953Y3433D02*
X14953Y2567D01*
X9047Y3433D02*
X14953Y3433D01*
X9047Y2567D02*
X9047Y3433D01*
X9047Y-2118D02*
X9047Y1307D01*
X14953Y-2118D02*
X9047Y-2118D01*
X23164Y27292D02*
X22457Y26585D01*
X23164Y27292D02*
X22457Y28000D01*
X21750Y27292D02*
X22457Y28000D01*
X21750Y27292D02*
X22457Y26585D01*
X15083Y35273D02*
X15083Y34916D01*
X15059Y34845D01*
X15011Y34797D01*
X14940Y34773D01*
X14892Y34773D01*
X15297Y35226D02*
X15321Y35250D01*
X15369Y35273D01*
X15488Y35273D01*
X15535Y35250D01*
X15559Y35226D01*
X15583Y35178D01*
X15583Y35130D01*
X15559Y35059D01*
X15273Y34773D01*
X15583Y34773D01*
X9964Y34273D02*
X9964Y33869D01*
X9988Y33821D01*
X10011Y33797D01*
X10059Y33773D01*
X10154Y33773D01*
X10202Y33797D01*
X10226Y33821D01*
X10250Y33869D01*
X10250Y34273D01*
X10464Y33797D02*
X10535Y33773D01*
X10654Y33773D01*
X10702Y33797D01*
X10726Y33821D01*
X10750Y33869D01*
X10750Y33916D01*
X10726Y33964D01*
X10702Y33988D01*
X10654Y34011D01*
X10559Y34035D01*
X10511Y34059D01*
X10488Y34083D01*
X10464Y34130D01*
X10464Y34178D01*
X10488Y34226D01*
X10511Y34250D01*
X10559Y34273D01*
X10678Y34273D01*
X10750Y34250D01*
X11130Y34035D02*
X11202Y34011D01*
X11226Y33988D01*
X11250Y33940D01*
X11250Y33869D01*
X11226Y33821D01*
X11202Y33797D01*
X11154Y33773D01*
X10964Y33773D01*
X10964Y34273D01*
X11130Y34273D01*
X11178Y34250D01*
X11202Y34226D01*
X11226Y34178D01*
X11226Y34130D01*
X11202Y34083D01*
X11178Y34059D01*
X11130Y34035D01*
X10964Y34035D01*
X11821Y33916D02*
X12059Y33916D01*
X11773Y33773D02*
X11940Y34273D01*
X12107Y33773D01*
X12654Y34107D02*
X12654Y33607D01*
X12654Y34083D02*
X12702Y34107D01*
X12797Y34107D01*
X12845Y34083D01*
X12869Y34059D01*
X12892Y34011D01*
X12892Y33869D01*
X12869Y33821D01*
X12845Y33797D01*
X12797Y33773D01*
X12702Y33773D01*
X12654Y33797D01*
X13178Y33773D02*
X13130Y33797D01*
X13107Y33845D01*
X13107Y34273D01*
X13583Y34107D02*
X13583Y33773D01*
X13369Y34107D02*
X13369Y33845D01*
X13392Y33797D01*
X13440Y33773D01*
X13511Y33773D01*
X13559Y33797D01*
X13583Y33821D01*
X14035Y34107D02*
X14035Y33702D01*
X14011Y33654D01*
X13988Y33630D01*
X13940Y33607D01*
X13869Y33607D01*
X13821Y33630D01*
X14035Y33797D02*
X13988Y33773D01*
X13892Y33773D01*
X13845Y33797D01*
X13821Y33821D01*
X13797Y33869D01*
X13797Y34011D01*
X13821Y34059D01*
X13845Y34083D01*
X13892Y34107D01*
X13988Y34107D01*
X14035Y34083D01*
X7952Y20083D02*
X7976Y20154D01*
X7976Y20273D01*
X7952Y20321D01*
X7928Y20345D01*
X7880Y20369D01*
X7833Y20369D01*
X7785Y20345D01*
X7761Y20321D01*
X7738Y20273D01*
X7714Y20178D01*
X7690Y20130D01*
X7666Y20107D01*
X7619Y20083D01*
X7571Y20083D01*
X7523Y20107D01*
X7500Y20130D01*
X7476Y20178D01*
X7476Y20297D01*
X7500Y20369D01*
X7476Y20535D02*
X7976Y20654D01*
X7619Y20750D01*
X7976Y20845D01*
X7476Y20964D01*
X7976Y21416D02*
X7976Y21130D01*
X7976Y21273D02*
X7476Y21273D01*
X7547Y21226D01*
X7595Y21178D01*
X7619Y21130D01*
X7952Y16428D02*
X7976Y16500D01*
X7976Y16619D01*
X7952Y16666D01*
X7928Y16690D01*
X7880Y16714D01*
X7833Y16714D01*
X7785Y16690D01*
X7761Y16666D01*
X7738Y16619D01*
X7714Y16523D01*
X7690Y16476D01*
X7666Y16452D01*
X7619Y16428D01*
X7571Y16428D01*
X7523Y16452D01*
X7500Y16476D01*
X7476Y16523D01*
X7476Y16642D01*
X7500Y16714D01*
X7976Y16928D02*
X7476Y16928D01*
X7476Y17119D01*
X7500Y17166D01*
X7523Y17190D01*
X7571Y17214D01*
X7642Y17214D01*
X7690Y17190D01*
X7714Y17166D01*
X7738Y17119D01*
X7738Y16928D01*
X7952Y17404D02*
X7976Y17476D01*
X7976Y17595D01*
X7952Y17642D01*
X7928Y17666D01*
X7880Y17690D01*
X7833Y17690D01*
X7785Y17666D01*
X7761Y17642D01*
X7738Y17595D01*
X7714Y17500D01*
X7690Y17452D01*
X7666Y17428D01*
X7619Y17404D01*
X7571Y17404D01*
X7523Y17428D01*
X7500Y17452D01*
X7476Y17500D01*
X7476Y17619D01*
X7500Y17690D01*
X7476Y17833D02*
X7476Y18119D01*
X7976Y17976D02*
X7476Y17976D01*
G54D11*
X6071Y20378D02*
X6071Y20492D01*
X6100Y20550D01*
X6157Y20607D01*
X6271Y20635D01*
X6471Y20635D01*
X6585Y20607D01*
X6642Y20550D01*
X6671Y20492D01*
X6671Y20378D01*
X6642Y20321D01*
X6585Y20264D01*
X6471Y20235D01*
X6271Y20235D01*
X6157Y20264D01*
X6100Y20321D01*
X6071Y20378D01*
X6671Y20892D02*
X6071Y20892D01*
X6671Y21235D01*
X6071Y21235D01*
G54D13*
X19952Y20083D02*
X19976Y20154D01*
X19976Y20273D01*
X19952Y20321D01*
X19928Y20345D01*
X19880Y20369D01*
X19833Y20369D01*
X19785Y20345D01*
X19761Y20321D01*
X19738Y20273D01*
X19714Y20178D01*
X19690Y20130D01*
X19666Y20107D01*
X19619Y20083D01*
X19571Y20083D01*
X19523Y20107D01*
X19500Y20130D01*
X19476Y20178D01*
X19476Y20297D01*
X19500Y20369D01*
X19476Y20535D02*
X19976Y20654D01*
X19619Y20750D01*
X19976Y20845D01*
X19476Y20964D01*
X19642Y21369D02*
X19976Y21369D01*
X19452Y21250D02*
X19809Y21130D01*
X19809Y21440D01*
X19952Y16428D02*
X19976Y16500D01*
X19976Y16619D01*
X19952Y16666D01*
X19928Y16690D01*
X19880Y16714D01*
X19833Y16714D01*
X19785Y16690D01*
X19761Y16666D01*
X19738Y16619D01*
X19714Y16523D01*
X19690Y16476D01*
X19666Y16452D01*
X19619Y16428D01*
X19571Y16428D01*
X19523Y16452D01*
X19500Y16476D01*
X19476Y16523D01*
X19476Y16642D01*
X19500Y16714D01*
X19976Y16928D02*
X19476Y16928D01*
X19476Y17119D01*
X19500Y17166D01*
X19523Y17190D01*
X19571Y17214D01*
X19642Y17214D01*
X19690Y17190D01*
X19714Y17166D01*
X19738Y17119D01*
X19738Y16928D01*
X19952Y17404D02*
X19976Y17476D01*
X19976Y17595D01*
X19952Y17642D01*
X19928Y17666D01*
X19880Y17690D01*
X19833Y17690D01*
X19785Y17666D01*
X19761Y17642D01*
X19738Y17595D01*
X19714Y17500D01*
X19690Y17452D01*
X19666Y17428D01*
X19619Y17404D01*
X19571Y17404D01*
X19523Y17428D01*
X19500Y17452D01*
X19476Y17500D01*
X19476Y17619D01*
X19500Y17690D01*
X19476Y17833D02*
X19476Y18119D01*
X19976Y17976D02*
X19476Y17976D01*
G54D11*
X18071Y20378D02*
X18071Y20492D01*
X18100Y20550D01*
X18157Y20607D01*
X18271Y20635D01*
X18471Y20635D01*
X18585Y20607D01*
X18642Y20550D01*
X18671Y20492D01*
X18671Y20378D01*
X18642Y20321D01*
X18585Y20264D01*
X18471Y20235D01*
X18271Y20235D01*
X18157Y20264D01*
X18100Y20321D01*
X18071Y20378D01*
X18671Y20892D02*
X18071Y20892D01*
X18671Y21235D01*
X18071Y21235D01*
G54D13*
X15952Y20083D02*
X15976Y20154D01*
X15976Y20273D01*
X15952Y20321D01*
X15928Y20345D01*
X15880Y20369D01*
X15833Y20369D01*
X15785Y20345D01*
X15761Y20321D01*
X15738Y20273D01*
X15714Y20178D01*
X15690Y20130D01*
X15666Y20107D01*
X15619Y20083D01*
X15571Y20083D01*
X15523Y20107D01*
X15500Y20130D01*
X15476Y20178D01*
X15476Y20297D01*
X15500Y20369D01*
X15476Y20535D02*
X15976Y20654D01*
X15619Y20750D01*
X15976Y20845D01*
X15476Y20964D01*
X15476Y21107D02*
X15476Y21416D01*
X15666Y21250D01*
X15666Y21321D01*
X15690Y21369D01*
X15714Y21392D01*
X15761Y21416D01*
X15880Y21416D01*
X15928Y21392D01*
X15952Y21369D01*
X15976Y21321D01*
X15976Y21178D01*
X15952Y21130D01*
X15928Y21107D01*
X15952Y16428D02*
X15976Y16500D01*
X15976Y16619D01*
X15952Y16666D01*
X15928Y16690D01*
X15880Y16714D01*
X15833Y16714D01*
X15785Y16690D01*
X15761Y16666D01*
X15738Y16619D01*
X15714Y16523D01*
X15690Y16476D01*
X15666Y16452D01*
X15619Y16428D01*
X15571Y16428D01*
X15523Y16452D01*
X15500Y16476D01*
X15476Y16523D01*
X15476Y16642D01*
X15500Y16714D01*
X15976Y16928D02*
X15476Y16928D01*
X15476Y17119D01*
X15500Y17166D01*
X15523Y17190D01*
X15571Y17214D01*
X15642Y17214D01*
X15690Y17190D01*
X15714Y17166D01*
X15738Y17119D01*
X15738Y16928D01*
X15952Y17404D02*
X15976Y17476D01*
X15976Y17595D01*
X15952Y17642D01*
X15928Y17666D01*
X15880Y17690D01*
X15833Y17690D01*
X15785Y17666D01*
X15761Y17642D01*
X15738Y17595D01*
X15714Y17500D01*
X15690Y17452D01*
X15666Y17428D01*
X15619Y17404D01*
X15571Y17404D01*
X15523Y17428D01*
X15500Y17452D01*
X15476Y17500D01*
X15476Y17619D01*
X15500Y17690D01*
X15476Y17833D02*
X15476Y18119D01*
X15976Y17976D02*
X15476Y17976D01*
G54D11*
X14071Y20378D02*
X14071Y20492D01*
X14100Y20550D01*
X14157Y20607D01*
X14271Y20635D01*
X14471Y20635D01*
X14585Y20607D01*
X14642Y20550D01*
X14671Y20492D01*
X14671Y20378D01*
X14642Y20321D01*
X14585Y20264D01*
X14471Y20235D01*
X14271Y20235D01*
X14157Y20264D01*
X14100Y20321D01*
X14071Y20378D01*
X14671Y20892D02*
X14071Y20892D01*
X14671Y21235D01*
X14071Y21235D01*
G54D13*
X11952Y20083D02*
X11976Y20154D01*
X11976Y20273D01*
X11952Y20321D01*
X11928Y20345D01*
X11880Y20369D01*
X11833Y20369D01*
X11785Y20345D01*
X11761Y20321D01*
X11738Y20273D01*
X11714Y20178D01*
X11690Y20130D01*
X11666Y20107D01*
X11619Y20083D01*
X11571Y20083D01*
X11523Y20107D01*
X11500Y20130D01*
X11476Y20178D01*
X11476Y20297D01*
X11500Y20369D01*
X11476Y20535D02*
X11976Y20654D01*
X11619Y20750D01*
X11976Y20845D01*
X11476Y20964D01*
X11523Y21130D02*
X11500Y21154D01*
X11476Y21202D01*
X11476Y21321D01*
X11500Y21369D01*
X11523Y21392D01*
X11571Y21416D01*
X11619Y21416D01*
X11690Y21392D01*
X11976Y21107D01*
X11976Y21416D01*
X11952Y16428D02*
X11976Y16500D01*
X11976Y16619D01*
X11952Y16666D01*
X11928Y16690D01*
X11880Y16714D01*
X11833Y16714D01*
X11785Y16690D01*
X11761Y16666D01*
X11738Y16619D01*
X11714Y16523D01*
X11690Y16476D01*
X11666Y16452D01*
X11619Y16428D01*
X11571Y16428D01*
X11523Y16452D01*
X11500Y16476D01*
X11476Y16523D01*
X11476Y16642D01*
X11500Y16714D01*
X11976Y16928D02*
X11476Y16928D01*
X11476Y17119D01*
X11500Y17166D01*
X11523Y17190D01*
X11571Y17214D01*
X11642Y17214D01*
X11690Y17190D01*
X11714Y17166D01*
X11738Y17119D01*
X11738Y16928D01*
X11952Y17404D02*
X11976Y17476D01*
X11976Y17595D01*
X11952Y17642D01*
X11928Y17666D01*
X11880Y17690D01*
X11833Y17690D01*
X11785Y17666D01*
X11761Y17642D01*
X11738Y17595D01*
X11714Y17500D01*
X11690Y17452D01*
X11666Y17428D01*
X11619Y17404D01*
X11571Y17404D01*
X11523Y17428D01*
X11500Y17452D01*
X11476Y17500D01*
X11476Y17619D01*
X11500Y17690D01*
X11476Y17833D02*
X11476Y18119D01*
X11976Y17976D02*
X11476Y17976D01*
G54D11*
X10071Y20378D02*
X10071Y20492D01*
X10100Y20550D01*
X10157Y20607D01*
X10271Y20635D01*
X10471Y20635D01*
X10585Y20607D01*
X10642Y20550D01*
X10671Y20492D01*
X10671Y20378D01*
X10642Y20321D01*
X10585Y20264D01*
X10471Y20235D01*
X10271Y20235D01*
X10157Y20264D01*
X10100Y20321D01*
X10071Y20378D01*
X10671Y20892D02*
X10071Y20892D01*
X10671Y21235D01*
X10071Y21235D01*
G54D13*
X12476Y8226D02*
X12476Y8511D01*
X12976Y8369D02*
X12476Y8369D01*
X12976Y8678D02*
X12476Y8678D01*
X12476Y8869D01*
X12500Y8916D01*
X12523Y8940D01*
X12571Y8964D01*
X12642Y8964D01*
X12690Y8940D01*
X12714Y8916D01*
X12738Y8869D01*
X12738Y8678D01*
X12642Y9107D02*
X12642Y9297D01*
X12976Y9178D02*
X12547Y9178D01*
X12500Y9202D01*
X12476Y9250D01*
X12476Y9297D01*
X12476Y9416D02*
X12476Y9726D01*
X12666Y9559D01*
X12666Y9630D01*
X12690Y9678D01*
X12714Y9702D01*
X12761Y9726D01*
X12880Y9726D01*
X12928Y9702D01*
X12952Y9678D01*
X12976Y9630D01*
X12976Y9488D01*
X12952Y9440D01*
X12928Y9416D01*
G54D17*
X15000Y8321D02*
X14976Y8273D01*
X14976Y8202D01*
X15000Y8130D01*
X15047Y8083D01*
X15095Y8059D01*
X15190Y8035D01*
X15261Y8035D01*
X15357Y8059D01*
X15404Y8083D01*
X15452Y8130D01*
X15476Y8202D01*
X15476Y8250D01*
X15452Y8321D01*
X15428Y8345D01*
X15261Y8345D01*
X15261Y8250D01*
X15476Y8559D02*
X15142Y8559D01*
X15238Y8559D02*
X15190Y8583D01*
X15166Y8607D01*
X15142Y8654D01*
X15142Y8702D01*
X15452Y9059D02*
X15476Y9011D01*
X15476Y8916D01*
X15452Y8869D01*
X15404Y8845D01*
X15214Y8845D01*
X15166Y8869D01*
X15142Y8916D01*
X15142Y9011D01*
X15166Y9059D01*
X15214Y9083D01*
X15261Y9083D01*
X15309Y8845D01*
X15452Y9488D02*
X15476Y9440D01*
X15476Y9345D01*
X15452Y9297D01*
X15404Y9273D01*
X15214Y9273D01*
X15166Y9297D01*
X15142Y9345D01*
X15142Y9440D01*
X15166Y9488D01*
X15214Y9511D01*
X15261Y9511D01*
X15309Y9273D01*
X15142Y9726D02*
X15476Y9726D01*
X15190Y9726D02*
X15166Y9749D01*
X15142Y9797D01*
X15142Y9869D01*
X15166Y9916D01*
X15214Y9940D01*
X15476Y9940D01*
G54D13*
X4476Y28035D02*
X4476Y28321D01*
X4976Y28178D02*
X4476Y28178D01*
X4976Y28488D02*
X4476Y28488D01*
X4476Y28678D01*
X4500Y28726D01*
X4523Y28750D01*
X4571Y28773D01*
X4642Y28773D01*
X4690Y28750D01*
X4714Y28726D01*
X4738Y28678D01*
X4738Y28488D01*
X4976Y28988D02*
X4642Y28988D01*
X4690Y28988D02*
X4666Y29011D01*
X4642Y29059D01*
X4642Y29130D01*
X4666Y29178D01*
X4714Y29202D01*
X4976Y29202D01*
X4714Y29202D02*
X4666Y29226D01*
X4642Y29273D01*
X4642Y29345D01*
X4666Y29392D01*
X4714Y29416D01*
X4976Y29416D01*
X4976Y29916D02*
X4976Y29630D01*
X4976Y29773D02*
X4476Y29773D01*
X4547Y29726D01*
X4595Y29678D01*
X4619Y29630D01*
G54D17*
X7476Y28714D02*
X7238Y28547D01*
X7476Y28428D02*
X6976Y28428D01*
X6976Y28619D01*
X7000Y28666D01*
X7023Y28690D01*
X7071Y28714D01*
X7142Y28714D01*
X7190Y28690D01*
X7214Y28666D01*
X7238Y28619D01*
X7238Y28428D01*
X7452Y29119D02*
X7476Y29071D01*
X7476Y28976D01*
X7452Y28928D01*
X7404Y28904D01*
X7214Y28904D01*
X7166Y28928D01*
X7142Y28976D01*
X7142Y29071D01*
X7166Y29119D01*
X7214Y29142D01*
X7261Y29142D01*
X7309Y28904D01*
X7476Y29571D02*
X6976Y29571D01*
X7452Y29571D02*
X7476Y29523D01*
X7476Y29428D01*
X7452Y29380D01*
X7428Y29357D01*
X7380Y29333D01*
X7238Y29333D01*
X7190Y29357D01*
X7166Y29380D01*
X7142Y29428D01*
X7142Y29523D01*
X7166Y29571D01*
G54D13*
X16476Y8226D02*
X16476Y8511D01*
X16976Y8369D02*
X16476Y8369D01*
X16976Y8678D02*
X16476Y8678D01*
X16476Y8869D01*
X16500Y8916D01*
X16523Y8940D01*
X16571Y8964D01*
X16642Y8964D01*
X16690Y8940D01*
X16714Y8916D01*
X16738Y8869D01*
X16738Y8678D01*
X16642Y9107D02*
X16642Y9297D01*
X16976Y9178D02*
X16547Y9178D01*
X16500Y9202D01*
X16476Y9250D01*
X16476Y9297D01*
X16642Y9678D02*
X16976Y9678D01*
X16452Y9559D02*
X16809Y9440D01*
X16809Y9750D01*
G54D17*
X19214Y8261D02*
X19238Y8333D01*
X19261Y8357D01*
X19309Y8380D01*
X19380Y8380D01*
X19428Y8357D01*
X19452Y8333D01*
X19476Y8285D01*
X19476Y8095D01*
X18976Y8095D01*
X18976Y8261D01*
X19000Y8309D01*
X19023Y8333D01*
X19071Y8357D01*
X19119Y8357D01*
X19166Y8333D01*
X19190Y8309D01*
X19214Y8261D01*
X19214Y8095D01*
X19476Y8666D02*
X19452Y8619D01*
X19404Y8595D01*
X18976Y8595D01*
X19476Y9071D02*
X19214Y9071D01*
X19166Y9047D01*
X19142Y9000D01*
X19142Y8904D01*
X19166Y8857D01*
X19452Y9071D02*
X19476Y9023D01*
X19476Y8904D01*
X19452Y8857D01*
X19404Y8833D01*
X19357Y8833D01*
X19309Y8857D01*
X19285Y8904D01*
X19285Y9023D01*
X19261Y9071D01*
X19452Y9523D02*
X19476Y9476D01*
X19476Y9380D01*
X19452Y9333D01*
X19428Y9309D01*
X19380Y9285D01*
X19238Y9285D01*
X19190Y9309D01*
X19166Y9333D01*
X19142Y9380D01*
X19142Y9476D01*
X19166Y9523D01*
X19476Y9738D02*
X18976Y9738D01*
X19285Y9785D02*
X19476Y9928D01*
X19142Y9928D02*
X19333Y9738D01*
G54D13*
X8476Y8226D02*
X8476Y8511D01*
X8976Y8369D02*
X8476Y8369D01*
X8976Y8678D02*
X8476Y8678D01*
X8476Y8869D01*
X8500Y8916D01*
X8523Y8940D01*
X8571Y8964D01*
X8642Y8964D01*
X8690Y8940D01*
X8714Y8916D01*
X8738Y8869D01*
X8738Y8678D01*
X8642Y9107D02*
X8642Y9297D01*
X8976Y9178D02*
X8547Y9178D01*
X8500Y9202D01*
X8476Y9250D01*
X8476Y9297D01*
X8523Y9440D02*
X8500Y9464D01*
X8476Y9511D01*
X8476Y9630D01*
X8500Y9678D01*
X8523Y9702D01*
X8571Y9726D01*
X8619Y9726D01*
X8690Y9702D01*
X8976Y9416D01*
X8976Y9726D01*
G54D17*
X10976Y8083D02*
X11476Y8202D01*
X11119Y8297D01*
X11476Y8392D01*
X10976Y8511D01*
X11476Y8702D02*
X10976Y8702D01*
X11476Y8916D02*
X11214Y8916D01*
X11166Y8892D01*
X11142Y8845D01*
X11142Y8773D01*
X11166Y8726D01*
X11190Y8702D01*
X11476Y9154D02*
X11142Y9154D01*
X10976Y9154D02*
X11000Y9130D01*
X11023Y9154D01*
X11000Y9178D01*
X10976Y9154D01*
X11023Y9154D01*
X11142Y9321D02*
X11142Y9511D01*
X10976Y9392D02*
X11404Y9392D01*
X11452Y9416D01*
X11476Y9464D01*
X11476Y9511D01*
X11452Y9869D02*
X11476Y9821D01*
X11476Y9726D01*
X11452Y9678D01*
X11404Y9654D01*
X11214Y9654D01*
X11166Y9678D01*
X11142Y9726D01*
X11142Y9821D01*
X11166Y9869D01*
X11214Y9892D01*
X11261Y9892D01*
X11309Y9654D01*
G54D13*
X16476Y28035D02*
X16476Y28321D01*
X16976Y28178D02*
X16476Y28178D01*
X16976Y28488D02*
X16476Y28488D01*
X16476Y28678D01*
X16500Y28726D01*
X16523Y28750D01*
X16571Y28773D01*
X16642Y28773D01*
X16690Y28750D01*
X16714Y28726D01*
X16738Y28678D01*
X16738Y28488D01*
X16976Y28988D02*
X16642Y28988D01*
X16690Y28988D02*
X16666Y29011D01*
X16642Y29059D01*
X16642Y29130D01*
X16666Y29178D01*
X16714Y29202D01*
X16976Y29202D01*
X16714Y29202D02*
X16666Y29226D01*
X16642Y29273D01*
X16642Y29345D01*
X16666Y29392D01*
X16714Y29416D01*
X16976Y29416D01*
X16642Y29869D02*
X16976Y29869D01*
X16452Y29750D02*
X16809Y29630D01*
X16809Y29940D01*
G54D17*
X19214Y28261D02*
X19238Y28333D01*
X19261Y28357D01*
X19309Y28380D01*
X19380Y28380D01*
X19428Y28357D01*
X19452Y28333D01*
X19476Y28285D01*
X19476Y28095D01*
X18976Y28095D01*
X18976Y28261D01*
X19000Y28309D01*
X19023Y28333D01*
X19071Y28357D01*
X19119Y28357D01*
X19166Y28333D01*
X19190Y28309D01*
X19214Y28261D01*
X19214Y28095D01*
X19476Y28666D02*
X19452Y28619D01*
X19404Y28595D01*
X18976Y28595D01*
X19476Y29071D02*
X19214Y29071D01*
X19166Y29047D01*
X19142Y29000D01*
X19142Y28904D01*
X19166Y28857D01*
X19452Y29071D02*
X19476Y29023D01*
X19476Y28904D01*
X19452Y28857D01*
X19404Y28833D01*
X19357Y28833D01*
X19309Y28857D01*
X19285Y28904D01*
X19285Y29023D01*
X19261Y29071D01*
X19452Y29523D02*
X19476Y29476D01*
X19476Y29380D01*
X19452Y29333D01*
X19428Y29309D01*
X19380Y29285D01*
X19238Y29285D01*
X19190Y29309D01*
X19166Y29333D01*
X19142Y29380D01*
X19142Y29476D01*
X19166Y29523D01*
X19476Y29738D02*
X18976Y29738D01*
X19285Y29785D02*
X19476Y29928D01*
X19142Y29928D02*
X19333Y29738D01*
G54D13*
X12476Y28035D02*
X12476Y28321D01*
X12976Y28178D02*
X12476Y28178D01*
X12976Y28488D02*
X12476Y28488D01*
X12476Y28678D01*
X12500Y28726D01*
X12523Y28750D01*
X12571Y28773D01*
X12642Y28773D01*
X12690Y28750D01*
X12714Y28726D01*
X12738Y28678D01*
X12738Y28488D01*
X12976Y28988D02*
X12642Y28988D01*
X12690Y28988D02*
X12666Y29011D01*
X12642Y29059D01*
X12642Y29130D01*
X12666Y29178D01*
X12714Y29202D01*
X12976Y29202D01*
X12714Y29202D02*
X12666Y29226D01*
X12642Y29273D01*
X12642Y29345D01*
X12666Y29392D01*
X12714Y29416D01*
X12976Y29416D01*
X12476Y29607D02*
X12476Y29916D01*
X12666Y29750D01*
X12666Y29821D01*
X12690Y29869D01*
X12714Y29892D01*
X12761Y29916D01*
X12880Y29916D01*
X12928Y29892D01*
X12952Y29869D01*
X12976Y29821D01*
X12976Y29678D01*
X12952Y29630D01*
X12928Y29607D01*
G54D17*
X15000Y28321D02*
X14976Y28273D01*
X14976Y28202D01*
X15000Y28130D01*
X15047Y28083D01*
X15095Y28059D01*
X15190Y28035D01*
X15261Y28035D01*
X15357Y28059D01*
X15404Y28083D01*
X15452Y28130D01*
X15476Y28202D01*
X15476Y28250D01*
X15452Y28321D01*
X15428Y28345D01*
X15261Y28345D01*
X15261Y28250D01*
X15476Y28559D02*
X15142Y28559D01*
X15238Y28559D02*
X15190Y28583D01*
X15166Y28607D01*
X15142Y28654D01*
X15142Y28702D01*
X15452Y29059D02*
X15476Y29011D01*
X15476Y28916D01*
X15452Y28869D01*
X15404Y28845D01*
X15214Y28845D01*
X15166Y28869D01*
X15142Y28916D01*
X15142Y29011D01*
X15166Y29059D01*
X15214Y29083D01*
X15261Y29083D01*
X15309Y28845D01*
X15452Y29488D02*
X15476Y29440D01*
X15476Y29345D01*
X15452Y29297D01*
X15404Y29273D01*
X15214Y29273D01*
X15166Y29297D01*
X15142Y29345D01*
X15142Y29440D01*
X15166Y29488D01*
X15214Y29511D01*
X15261Y29511D01*
X15309Y29273D01*
X15142Y29726D02*
X15476Y29726D01*
X15190Y29726D02*
X15166Y29749D01*
X15142Y29797D01*
X15142Y29869D01*
X15166Y29916D01*
X15214Y29940D01*
X15476Y29940D01*
G54D13*
X8476Y28035D02*
X8476Y28321D01*
X8976Y28178D02*
X8476Y28178D01*
X8976Y28488D02*
X8476Y28488D01*
X8476Y28678D01*
X8500Y28726D01*
X8523Y28750D01*
X8571Y28773D01*
X8642Y28773D01*
X8690Y28750D01*
X8714Y28726D01*
X8738Y28678D01*
X8738Y28488D01*
X8976Y28988D02*
X8642Y28988D01*
X8690Y28988D02*
X8666Y29011D01*
X8642Y29059D01*
X8642Y29130D01*
X8666Y29178D01*
X8714Y29202D01*
X8976Y29202D01*
X8714Y29202D02*
X8666Y29226D01*
X8642Y29273D01*
X8642Y29345D01*
X8666Y29392D01*
X8714Y29416D01*
X8976Y29416D01*
X8523Y29630D02*
X8500Y29654D01*
X8476Y29702D01*
X8476Y29821D01*
X8500Y29869D01*
X8523Y29892D01*
X8571Y29916D01*
X8619Y29916D01*
X8690Y29892D01*
X8976Y29607D01*
X8976Y29916D01*
G54D17*
X10976Y28083D02*
X11476Y28202D01*
X11119Y28297D01*
X11476Y28392D01*
X10976Y28511D01*
X11476Y28702D02*
X10976Y28702D01*
X11476Y28916D02*
X11214Y28916D01*
X11166Y28892D01*
X11142Y28845D01*
X11142Y28773D01*
X11166Y28726D01*
X11190Y28702D01*
X11476Y29154D02*
X11142Y29154D01*
X10976Y29154D02*
X11000Y29130D01*
X11023Y29154D01*
X11000Y29178D01*
X10976Y29154D01*
X11023Y29154D01*
X11142Y29321D02*
X11142Y29511D01*
X10976Y29392D02*
X11404Y29392D01*
X11452Y29416D01*
X11476Y29464D01*
X11476Y29511D01*
X11452Y29869D02*
X11476Y29821D01*
X11476Y29726D01*
X11452Y29678D01*
X11404Y29654D01*
X11214Y29654D01*
X11166Y29678D01*
X11142Y29726D01*
X11142Y29821D01*
X11166Y29869D01*
X11214Y29892D01*
X11261Y29892D01*
X11309Y29654D01*
G54D13*
X4476Y8226D02*
X4476Y8511D01*
X4976Y8369D02*
X4476Y8369D01*
X4976Y8678D02*
X4476Y8678D01*
X4476Y8869D01*
X4500Y8916D01*
X4523Y8940D01*
X4571Y8964D01*
X4642Y8964D01*
X4690Y8940D01*
X4714Y8916D01*
X4738Y8869D01*
X4738Y8678D01*
X4642Y9107D02*
X4642Y9297D01*
X4976Y9178D02*
X4547Y9178D01*
X4500Y9202D01*
X4476Y9250D01*
X4476Y9297D01*
X4976Y9726D02*
X4976Y9440D01*
X4976Y9583D02*
X4476Y9583D01*
X4547Y9535D01*
X4595Y9488D01*
X4619Y9440D01*
G54D17*
X7476Y8714D02*
X7238Y8547D01*
X7476Y8428D02*
X6976Y8428D01*
X6976Y8619D01*
X7000Y8666D01*
X7023Y8690D01*
X7071Y8714D01*
X7142Y8714D01*
X7190Y8690D01*
X7214Y8666D01*
X7238Y8619D01*
X7238Y8428D01*
X7452Y9119D02*
X7476Y9071D01*
X7476Y8976D01*
X7452Y8928D01*
X7404Y8904D01*
X7214Y8904D01*
X7166Y8928D01*
X7142Y8976D01*
X7142Y9071D01*
X7166Y9119D01*
X7214Y9142D01*
X7261Y9142D01*
X7309Y8904D01*
X7476Y9571D02*
X6976Y9571D01*
X7452Y9571D02*
X7476Y9523D01*
X7476Y9428D01*
X7452Y9380D01*
X7428Y9357D01*
X7380Y9333D01*
X7238Y9333D01*
X7190Y9357D01*
X7166Y9380D01*
X7142Y9428D01*
X7142Y9523D01*
X7166Y9571D01*
G54D13*
X15583Y3273D02*
X15583Y2916D01*
X15559Y2845D01*
X15511Y2797D01*
X15440Y2773D01*
X15392Y2773D01*
X16083Y2773D02*
X15797Y2773D01*
X15940Y2773D02*
X15940Y3273D01*
X15892Y3202D01*
X15845Y3154D01*
X15797Y3130D01*
X8821Y4273D02*
X8821Y3869D01*
X8845Y3821D01*
X8869Y3797D01*
X8916Y3773D01*
X9011Y3773D01*
X9059Y3797D01*
X9083Y3821D01*
X9107Y3869D01*
X9107Y4273D01*
X9321Y3797D02*
X9392Y3773D01*
X9511Y3773D01*
X9559Y3797D01*
X9583Y3821D01*
X9607Y3869D01*
X9607Y3916D01*
X9583Y3964D01*
X9559Y3988D01*
X9511Y4011D01*
X9416Y4035D01*
X9369Y4059D01*
X9345Y4083D01*
X9321Y4130D01*
X9321Y4178D01*
X9345Y4226D01*
X9369Y4250D01*
X9416Y4273D01*
X9535Y4273D01*
X9607Y4250D01*
X9988Y4035D02*
X10059Y4011D01*
X10083Y3988D01*
X10107Y3940D01*
X10107Y3869D01*
X10083Y3821D01*
X10059Y3797D01*
X10011Y3773D01*
X9821Y3773D01*
X9821Y4273D01*
X9988Y4273D01*
X10035Y4250D01*
X10059Y4226D01*
X10083Y4178D01*
X10083Y4130D01*
X10059Y4083D01*
X10035Y4059D01*
X9988Y4035D01*
X9821Y4035D01*
X10678Y3916D02*
X10916Y3916D01*
X10630Y3773D02*
X10797Y4273D01*
X10964Y3773D01*
X11511Y3773D02*
X11511Y4107D01*
X11511Y4011D02*
X11535Y4059D01*
X11559Y4083D01*
X11607Y4107D01*
X11654Y4107D01*
X12011Y3797D02*
X11964Y3773D01*
X11869Y3773D01*
X11821Y3797D01*
X11797Y3845D01*
X11797Y4035D01*
X11821Y4083D01*
X11869Y4107D01*
X11964Y4107D01*
X12011Y4083D01*
X12035Y4035D01*
X12035Y3988D01*
X11797Y3940D01*
X12464Y3797D02*
X12416Y3773D01*
X12321Y3773D01*
X12273Y3797D01*
X12250Y3821D01*
X12226Y3869D01*
X12226Y4011D01*
X12250Y4059D01*
X12273Y4083D01*
X12321Y4107D01*
X12416Y4107D01*
X12464Y4083D01*
X12869Y3797D02*
X12821Y3773D01*
X12726Y3773D01*
X12678Y3797D01*
X12654Y3845D01*
X12654Y4035D01*
X12678Y4083D01*
X12726Y4107D01*
X12821Y4107D01*
X12869Y4083D01*
X12892Y4035D01*
X12892Y3988D01*
X12654Y3940D01*
X13107Y4107D02*
X13107Y3607D01*
X13107Y4083D02*
X13154Y4107D01*
X13249Y4107D01*
X13297Y4083D01*
X13321Y4059D01*
X13345Y4011D01*
X13345Y3869D01*
X13321Y3821D01*
X13297Y3797D01*
X13249Y3773D01*
X13154Y3773D01*
X13107Y3797D01*
X13488Y4107D02*
X13678Y4107D01*
X13559Y4273D02*
X13559Y3845D01*
X13583Y3797D01*
X13630Y3773D01*
X13678Y3773D01*
X14059Y3773D02*
X14059Y4035D01*
X14035Y4083D01*
X13988Y4107D01*
X13892Y4107D01*
X13845Y4083D01*
X14059Y3797D02*
X14011Y3773D01*
X13892Y3773D01*
X13845Y3797D01*
X13821Y3845D01*
X13821Y3892D01*
X13845Y3940D01*
X13892Y3964D01*
X14011Y3964D01*
X14059Y3988D01*
X14511Y3797D02*
X14464Y3773D01*
X14369Y3773D01*
X14321Y3797D01*
X14297Y3821D01*
X14273Y3869D01*
X14273Y4011D01*
X14297Y4059D01*
X14321Y4083D01*
X14369Y4107D01*
X14464Y4107D01*
X14511Y4083D01*
X14797Y3773D02*
X14749Y3797D01*
X14726Y3845D01*
X14726Y4273D01*
X15178Y3797D02*
X15130Y3773D01*
X15035Y3773D01*
X14988Y3797D01*
X14964Y3845D01*
X14964Y4035D01*
X14988Y4083D01*
X15035Y4107D01*
X15130Y4107D01*
X15178Y4083D01*
X15202Y4035D01*
X15202Y3988D01*
X14964Y3940D01*
X22345Y27393D02*
X22239Y27499D01*
X22017Y27277D02*
X22441Y27702D01*
X22593Y27550D01*
X22295Y27040D02*
X22320Y26974D01*
X22396Y26898D01*
X22447Y26888D01*
X22482Y26893D01*
X22537Y26919D01*
X22578Y26959D01*
X22603Y27015D01*
X22608Y27050D01*
X22598Y27100D01*
X22558Y27181D01*
X22548Y27232D01*
X22553Y27267D01*
X22578Y27323D01*
X22618Y27363D01*
X22674Y27388D01*
X22709Y27393D01*
X22760Y27383D01*
X22835Y27308D01*
X22861Y27242D01*
%LPC*%
G54D18*
X10622Y35100D03*
G54D19*
X11606Y35100D03*
X12394Y35100D03*
G54D20*
X13378Y35100D03*
G54D21*
X9756Y35927D03*
X14244Y35927D03*
G54D22*
X11114Y35927D03*
X12886Y35927D03*
G54D23*
X6000Y19000D03*
X6000Y17150D03*
X18000Y19000D03*
X18000Y17150D03*
X14000Y19000D03*
X14000Y17150D03*
X10000Y19000D03*
X10000Y17150D03*
G54D24*
X14000Y8000D03*
X14000Y10000D03*
X6000Y28000D03*
X6000Y30000D03*
X18000Y8000D03*
X18000Y10000D03*
X10000Y8000D03*
X10000Y10000D03*
X18000Y28000D03*
X18000Y30000D03*
X14000Y28000D03*
X14000Y30000D03*
X10000Y28000D03*
X10000Y30000D03*
X6000Y8000D03*
X6000Y10000D03*
G54D20*
X13400Y3000D03*
G54D19*
X12400Y3000D03*
X11600Y3000D03*
G54D18*
X10600Y3000D03*
G54D25*
X14587Y1933D03*
X9413Y1933D03*
M02*
