%FSLAX34Y34*%
G04 Gerber Fmt 3.4, Leading zero omitted, Abs format*
G04 (created by PCBNEW (2013-12-12 BZR 4550)-product) date 14/12/2013 00:12:03*
%MOIN*%
G01*
G70*
G90*
G04 APERTURE LIST*
%ADD10C,0.005000*%
%ADD11C,0.015000*%
%ADD12C,0.007874*%
%ADD13C,0.011811*%
G04 APERTURE END LIST*
G54D10*
G54D11*
X0Y27500D02*
X0Y0D01*
X24000Y27500D02*
X24000Y0D01*
X9500Y37000D02*
X14500Y37000D01*
X14500Y37000D02*
X24000Y27500D01*
X9500Y37000D02*
X0Y27500D01*
X24000Y0D02*
X0Y0D01*
G54D12*
X10419Y3181D02*
X10781Y2819D01*
X10781Y3181D02*
X10419Y2819D01*
X10441Y35281D02*
X10803Y34919D01*
X10803Y35281D02*
X10441Y34919D01*
X11419Y3181D02*
X11781Y2819D01*
X11781Y3181D02*
X11419Y2819D01*
X11425Y35281D02*
X11787Y34919D01*
X11787Y35281D02*
X11425Y34919D01*
X12213Y35281D02*
X12575Y34919D01*
X12575Y35281D02*
X12213Y34919D01*
X12219Y3181D02*
X12581Y2819D01*
X12581Y3181D02*
X12219Y2819D01*
X13197Y35281D02*
X13559Y34919D01*
X13559Y35281D02*
X13197Y34919D01*
X13219Y3181D02*
X13581Y2819D01*
X13581Y3181D02*
X13219Y2819D01*
X9953Y35927D02*
G75*
G03X9953Y35927I-197J0D01*
G74*
G01*
X9913Y35632D02*
X9913Y36222D01*
X9598Y35632D02*
X9598Y36222D01*
X9913Y36222D02*
G75*
G03X9598Y36222I-157J0D01*
G74*
G01*
X9598Y35632D02*
G75*
G03X9913Y35632I157J0D01*
G74*
G01*
X14441Y35927D02*
G75*
G03X14441Y35927I-197J0D01*
G74*
G01*
X14401Y35632D02*
X14401Y36222D01*
X14086Y35632D02*
X14086Y36222D01*
X14401Y36222D02*
G75*
G03X14086Y36222I-157J0D01*
G74*
G01*
X14086Y35632D02*
G75*
G03X14401Y35632I157J0D01*
G74*
G01*
X6000Y30315D02*
X6000Y29685D01*
X5685Y30000D02*
X6315Y30000D01*
X6000Y28315D02*
X6000Y27685D01*
X5685Y28000D02*
X6315Y28000D01*
X6000Y10315D02*
X6000Y9685D01*
X5685Y10000D02*
X6315Y10000D01*
X6000Y8315D02*
X6000Y7685D01*
X5685Y8000D02*
X6315Y8000D01*
X10000Y30315D02*
X10000Y29685D01*
X9685Y30000D02*
X10315Y30000D01*
X10000Y28315D02*
X10000Y27685D01*
X9685Y28000D02*
X10315Y28000D01*
X10000Y10315D02*
X10000Y9685D01*
X9685Y10000D02*
X10315Y10000D01*
X10000Y8315D02*
X10000Y7685D01*
X9685Y8000D02*
X10315Y8000D01*
X14000Y30315D02*
X14000Y29685D01*
X13685Y30000D02*
X14315Y30000D01*
X14000Y28315D02*
X14000Y27685D01*
X13685Y28000D02*
X14315Y28000D01*
X14000Y10315D02*
X14000Y9685D01*
X13685Y10000D02*
X14315Y10000D01*
X14000Y8315D02*
X14000Y7685D01*
X13685Y8000D02*
X14315Y8000D01*
X18000Y30315D02*
X18000Y29685D01*
X17685Y30000D02*
X18315Y30000D01*
X18000Y28315D02*
X18000Y27685D01*
X17685Y28000D02*
X18315Y28000D01*
X18000Y10315D02*
X18000Y9685D01*
X17685Y10000D02*
X18315Y10000D01*
X18000Y8315D02*
X18000Y7685D01*
X17685Y8000D02*
X18315Y8000D01*
X6258Y18741D02*
X6258Y19258D01*
X5741Y19258D01*
X5741Y18741D01*
X6258Y18741D01*
X6258Y16891D02*
X6258Y17408D01*
X5741Y17408D01*
X5741Y16891D01*
X6258Y16891D01*
X10258Y18741D02*
X10258Y19258D01*
X9741Y19258D01*
X9741Y18741D01*
X10258Y18741D01*
X10258Y16891D02*
X10258Y17408D01*
X9741Y17408D01*
X9741Y16891D01*
X10258Y16891D01*
X14258Y18741D02*
X14258Y19258D01*
X13741Y19258D01*
X13741Y18741D01*
X14258Y18741D01*
X14258Y16891D02*
X14258Y17408D01*
X13741Y17408D01*
X13741Y16891D01*
X14258Y16891D01*
X18258Y18741D02*
X18258Y19258D01*
X17741Y19258D01*
X17741Y18741D01*
X18258Y18741D01*
X18258Y16891D02*
X18258Y17408D01*
X17741Y17408D01*
X17741Y16891D01*
X18258Y16891D01*
X9413Y1480D02*
X9866Y1933D01*
X9413Y2386D01*
X8960Y1933D01*
X9413Y1480D01*
X14587Y1480D02*
X15040Y1933D01*
X14587Y2386D01*
X14134Y1933D01*
X14587Y1480D01*
G54D13*
X993Y-1908D02*
X993Y-727D01*
X1274Y-727D01*
X1443Y-783D01*
X1556Y-896D01*
X1612Y-1008D01*
X1668Y-1233D01*
X1668Y-1402D01*
X1612Y-1627D01*
X1556Y-1739D01*
X1443Y-1852D01*
X1274Y-1908D01*
X993Y-1908D01*
X2174Y-1908D02*
X2174Y-1121D01*
X2174Y-1346D02*
X2230Y-1233D01*
X2287Y-1177D01*
X2399Y-1121D01*
X2512Y-1121D01*
X2905Y-1908D02*
X2905Y-1121D01*
X2905Y-727D02*
X2849Y-783D01*
X2905Y-839D01*
X2962Y-783D01*
X2905Y-727D01*
X2905Y-839D01*
X3637Y-1908D02*
X3524Y-1852D01*
X3468Y-1739D01*
X3468Y-727D01*
X4255Y-1908D02*
X4143Y-1852D01*
X4086Y-1739D01*
X4086Y-727D01*
X5605Y-1908D02*
X5605Y-727D01*
X5999Y-1571D01*
X6392Y-727D01*
X6392Y-1908D01*
X7461Y-1908D02*
X7461Y-1289D01*
X7405Y-1177D01*
X7292Y-1121D01*
X7067Y-1121D01*
X6955Y-1177D01*
X7461Y-1852D02*
X7349Y-1908D01*
X7067Y-1908D01*
X6955Y-1852D01*
X6899Y-1739D01*
X6899Y-1627D01*
X6955Y-1514D01*
X7067Y-1458D01*
X7349Y-1458D01*
X7461Y-1402D01*
X8023Y-1121D02*
X8023Y-2302D01*
X8023Y-1177D02*
X8136Y-1121D01*
X8361Y-1121D01*
X8473Y-1177D01*
X8530Y-1233D01*
X8586Y-1346D01*
X8586Y-1683D01*
X8530Y-1796D01*
X8473Y-1852D01*
X8361Y-1908D01*
X8136Y-1908D01*
X8023Y-1852D01*
X9092Y-1796D02*
X9148Y-1852D01*
X9092Y-1908D01*
X9036Y-1852D01*
X9092Y-1796D01*
X9092Y-1908D01*
X9092Y-1177D02*
X9148Y-1233D01*
X9092Y-1289D01*
X9036Y-1233D01*
X9092Y-1177D01*
X9092Y-1289D01*
X-437Y-3673D02*
X-75Y-4035D01*
X-75Y-3673D02*
X-437Y-4035D01*
X1218Y-3207D02*
X1331Y-3207D01*
X1443Y-3263D01*
X1499Y-3320D01*
X1556Y-3432D01*
X1612Y-3657D01*
X1612Y-3938D01*
X1556Y-4163D01*
X1499Y-4276D01*
X1443Y-4332D01*
X1331Y-4388D01*
X1218Y-4388D01*
X1106Y-4332D01*
X1049Y-4276D01*
X993Y-4163D01*
X937Y-3938D01*
X937Y-3657D01*
X993Y-3432D01*
X1049Y-3320D01*
X1106Y-3263D01*
X1218Y-3207D01*
X2118Y-4276D02*
X2174Y-4332D01*
X2118Y-4388D01*
X2062Y-4332D01*
X2118Y-4276D01*
X2118Y-4388D01*
X2737Y-4388D02*
X2962Y-4388D01*
X3074Y-4332D01*
X3130Y-4276D01*
X3243Y-4107D01*
X3299Y-3882D01*
X3299Y-3432D01*
X3243Y-3320D01*
X3187Y-3263D01*
X3074Y-3207D01*
X2849Y-3207D01*
X2737Y-3263D01*
X2680Y-3320D01*
X2624Y-3432D01*
X2624Y-3713D01*
X2680Y-3826D01*
X2737Y-3882D01*
X2849Y-3938D01*
X3074Y-3938D01*
X3187Y-3882D01*
X3243Y-3826D01*
X3299Y-3713D01*
X3749Y-3320D02*
X3805Y-3263D01*
X3918Y-3207D01*
X4199Y-3207D01*
X4311Y-3263D01*
X4368Y-3320D01*
X4424Y-3432D01*
X4424Y-3545D01*
X4368Y-3713D01*
X3693Y-4388D01*
X4424Y-4388D01*
X4930Y-4388D02*
X4930Y-3601D01*
X4930Y-3713D02*
X4986Y-3657D01*
X5099Y-3601D01*
X5268Y-3601D01*
X5380Y-3657D01*
X5436Y-3770D01*
X5436Y-4388D01*
X5436Y-3770D02*
X5493Y-3657D01*
X5605Y-3601D01*
X5774Y-3601D01*
X5886Y-3657D01*
X5942Y-3770D01*
X5942Y-4388D01*
X6505Y-4388D02*
X6505Y-3601D01*
X6505Y-3713D02*
X6561Y-3657D01*
X6674Y-3601D01*
X6842Y-3601D01*
X6955Y-3657D01*
X7011Y-3770D01*
X7011Y-4388D01*
X7011Y-3770D02*
X7067Y-3657D01*
X7180Y-3601D01*
X7349Y-3601D01*
X7461Y-3657D01*
X7517Y-3770D01*
X7517Y-4388D01*
X9823Y-3151D02*
X8811Y-4670D01*
X11342Y-3207D02*
X11454Y-3207D01*
X11567Y-3263D01*
X11623Y-3320D01*
X11679Y-3432D01*
X11736Y-3657D01*
X11736Y-3938D01*
X11679Y-4163D01*
X11623Y-4276D01*
X11567Y-4332D01*
X11454Y-4388D01*
X11342Y-4388D01*
X11229Y-4332D01*
X11173Y-4276D01*
X11117Y-4163D01*
X11061Y-3938D01*
X11061Y-3657D01*
X11117Y-3432D01*
X11173Y-3320D01*
X11229Y-3263D01*
X11342Y-3207D01*
X12242Y-4276D02*
X12298Y-4332D01*
X12242Y-4388D01*
X12185Y-4332D01*
X12242Y-4276D01*
X12242Y-4388D01*
X13029Y-3207D02*
X13142Y-3207D01*
X13254Y-3263D01*
X13310Y-3320D01*
X13367Y-3432D01*
X13423Y-3657D01*
X13423Y-3938D01*
X13367Y-4163D01*
X13310Y-4276D01*
X13254Y-4332D01*
X13142Y-4388D01*
X13029Y-4388D01*
X12917Y-4332D01*
X12860Y-4276D01*
X12804Y-4163D01*
X12748Y-3938D01*
X12748Y-3657D01*
X12804Y-3432D01*
X12860Y-3320D01*
X12917Y-3263D01*
X13029Y-3207D01*
X13817Y-3207D02*
X14548Y-3207D01*
X14154Y-3657D01*
X14323Y-3657D01*
X14435Y-3713D01*
X14491Y-3770D01*
X14548Y-3882D01*
X14548Y-4163D01*
X14491Y-4276D01*
X14435Y-4332D01*
X14323Y-4388D01*
X13985Y-4388D01*
X13873Y-4332D01*
X13817Y-4276D01*
X15560Y-3207D02*
X15335Y-3207D01*
X15223Y-3263D01*
X15166Y-3320D01*
X15054Y-3488D01*
X14998Y-3713D01*
X14998Y-4163D01*
X15054Y-4276D01*
X15110Y-4332D01*
X15223Y-4388D01*
X15448Y-4388D01*
X15560Y-4332D01*
X15616Y-4276D01*
X15673Y-4163D01*
X15673Y-3882D01*
X15616Y-3770D01*
X15560Y-3713D01*
X15448Y-3657D01*
X15223Y-3657D01*
X15110Y-3713D01*
X15054Y-3770D01*
X14998Y-3882D01*
X16122Y-3207D02*
X16122Y-3432D01*
X16572Y-3207D02*
X16572Y-3432D01*
X18316Y-4838D02*
X18260Y-4782D01*
X18147Y-4613D01*
X18091Y-4501D01*
X18035Y-4332D01*
X17978Y-4051D01*
X17978Y-3826D01*
X18035Y-3545D01*
X18091Y-3376D01*
X18147Y-3263D01*
X18260Y-3095D01*
X18316Y-3039D01*
X18935Y-3713D02*
X18822Y-3657D01*
X18766Y-3601D01*
X18710Y-3488D01*
X18710Y-3432D01*
X18766Y-3320D01*
X18822Y-3263D01*
X18935Y-3207D01*
X19160Y-3207D01*
X19272Y-3263D01*
X19328Y-3320D01*
X19385Y-3432D01*
X19385Y-3488D01*
X19328Y-3601D01*
X19272Y-3657D01*
X19160Y-3713D01*
X18935Y-3713D01*
X18822Y-3770D01*
X18766Y-3826D01*
X18710Y-3938D01*
X18710Y-4163D01*
X18766Y-4276D01*
X18822Y-4332D01*
X18935Y-4388D01*
X19160Y-4388D01*
X19272Y-4332D01*
X19328Y-4276D01*
X19385Y-4163D01*
X19385Y-3938D01*
X19328Y-3826D01*
X19272Y-3770D01*
X19160Y-3713D01*
X20791Y-4388D02*
X20791Y-3207D01*
X21297Y-4388D02*
X21297Y-3770D01*
X21241Y-3657D01*
X21128Y-3601D01*
X20959Y-3601D01*
X20847Y-3657D01*
X20791Y-3713D01*
X22028Y-4388D02*
X21916Y-4332D01*
X21859Y-4276D01*
X21803Y-4163D01*
X21803Y-3826D01*
X21859Y-3713D01*
X21916Y-3657D01*
X22028Y-3601D01*
X22197Y-3601D01*
X22309Y-3657D01*
X22365Y-3713D01*
X22422Y-3826D01*
X22422Y-4163D01*
X22365Y-4276D01*
X22309Y-4332D01*
X22197Y-4388D01*
X22028Y-4388D01*
X23097Y-4388D02*
X22984Y-4332D01*
X22928Y-4220D01*
X22928Y-3207D01*
X23996Y-4332D02*
X23884Y-4388D01*
X23659Y-4388D01*
X23547Y-4332D01*
X23490Y-4220D01*
X23490Y-3770D01*
X23547Y-3657D01*
X23659Y-3601D01*
X23884Y-3601D01*
X23996Y-3657D01*
X24053Y-3770D01*
X24053Y-3882D01*
X23490Y-3995D01*
X24503Y-4332D02*
X24615Y-4388D01*
X24840Y-4388D01*
X24953Y-4332D01*
X25009Y-4220D01*
X25009Y-4163D01*
X24953Y-4051D01*
X24840Y-3995D01*
X24671Y-3995D01*
X24559Y-3938D01*
X24503Y-3826D01*
X24503Y-3770D01*
X24559Y-3657D01*
X24671Y-3601D01*
X24840Y-3601D01*
X24953Y-3657D01*
X25403Y-4838D02*
X25459Y-4782D01*
X25571Y-4613D01*
X25628Y-4501D01*
X25684Y-4332D01*
X25740Y-4051D01*
X25740Y-3826D01*
X25684Y-3545D01*
X25628Y-3376D01*
X25571Y-3263D01*
X25459Y-3095D01*
X25403Y-3039D01*
G54D12*
X-75Y-5413D02*
G75*
G03X-75Y-5413I-197J0D01*
G74*
G01*
G54D13*
X1612Y-5947D02*
X937Y-5947D01*
X1274Y-5947D02*
X1274Y-4766D01*
X1162Y-4935D01*
X1049Y-5048D01*
X937Y-5104D01*
X2118Y-5835D02*
X2174Y-5891D01*
X2118Y-5947D01*
X2062Y-5891D01*
X2118Y-5835D01*
X2118Y-5947D01*
X2905Y-4766D02*
X3018Y-4766D01*
X3130Y-4823D01*
X3187Y-4879D01*
X3243Y-4991D01*
X3299Y-5216D01*
X3299Y-5497D01*
X3243Y-5722D01*
X3187Y-5835D01*
X3130Y-5891D01*
X3018Y-5947D01*
X2905Y-5947D01*
X2793Y-5891D01*
X2737Y-5835D01*
X2680Y-5722D01*
X2624Y-5497D01*
X2624Y-5216D01*
X2680Y-4991D01*
X2737Y-4879D01*
X2793Y-4823D01*
X2905Y-4766D01*
X4030Y-4766D02*
X4143Y-4766D01*
X4255Y-4823D01*
X4311Y-4879D01*
X4368Y-4991D01*
X4424Y-5216D01*
X4424Y-5497D01*
X4368Y-5722D01*
X4311Y-5835D01*
X4255Y-5891D01*
X4143Y-5947D01*
X4030Y-5947D01*
X3918Y-5891D01*
X3862Y-5835D01*
X3805Y-5722D01*
X3749Y-5497D01*
X3749Y-5216D01*
X3805Y-4991D01*
X3862Y-4879D01*
X3918Y-4823D01*
X4030Y-4766D01*
X4930Y-5947D02*
X4930Y-5160D01*
X4930Y-5272D02*
X4986Y-5216D01*
X5099Y-5160D01*
X5268Y-5160D01*
X5380Y-5216D01*
X5436Y-5329D01*
X5436Y-5947D01*
X5436Y-5329D02*
X5493Y-5216D01*
X5605Y-5160D01*
X5774Y-5160D01*
X5886Y-5216D01*
X5942Y-5329D01*
X5942Y-5947D01*
X6505Y-5947D02*
X6505Y-5160D01*
X6505Y-5272D02*
X6561Y-5216D01*
X6674Y-5160D01*
X6842Y-5160D01*
X6955Y-5216D01*
X7011Y-5329D01*
X7011Y-5947D01*
X7011Y-5329D02*
X7067Y-5216D01*
X7180Y-5160D01*
X7349Y-5160D01*
X7461Y-5216D01*
X7517Y-5329D01*
X7517Y-5947D01*
X9823Y-4710D02*
X8811Y-6229D01*
X11342Y-4766D02*
X11454Y-4766D01*
X11567Y-4823D01*
X11623Y-4879D01*
X11679Y-4991D01*
X11736Y-5216D01*
X11736Y-5497D01*
X11679Y-5722D01*
X11623Y-5835D01*
X11567Y-5891D01*
X11454Y-5947D01*
X11342Y-5947D01*
X11229Y-5891D01*
X11173Y-5835D01*
X11117Y-5722D01*
X11061Y-5497D01*
X11061Y-5216D01*
X11117Y-4991D01*
X11173Y-4879D01*
X11229Y-4823D01*
X11342Y-4766D01*
X12242Y-5835D02*
X12298Y-5891D01*
X12242Y-5947D01*
X12185Y-5891D01*
X12242Y-5835D01*
X12242Y-5947D01*
X13029Y-4766D02*
X13142Y-4766D01*
X13254Y-4823D01*
X13310Y-4879D01*
X13367Y-4991D01*
X13423Y-5216D01*
X13423Y-5497D01*
X13367Y-5722D01*
X13310Y-5835D01*
X13254Y-5891D01*
X13142Y-5947D01*
X13029Y-5947D01*
X12917Y-5891D01*
X12860Y-5835D01*
X12804Y-5722D01*
X12748Y-5497D01*
X12748Y-5216D01*
X12804Y-4991D01*
X12860Y-4879D01*
X12917Y-4823D01*
X13029Y-4766D01*
X13817Y-4766D02*
X14548Y-4766D01*
X14154Y-5216D01*
X14323Y-5216D01*
X14435Y-5272D01*
X14491Y-5329D01*
X14548Y-5441D01*
X14548Y-5722D01*
X14491Y-5835D01*
X14435Y-5891D01*
X14323Y-5947D01*
X13985Y-5947D01*
X13873Y-5891D01*
X13817Y-5835D01*
X15110Y-5947D02*
X15335Y-5947D01*
X15448Y-5891D01*
X15504Y-5835D01*
X15616Y-5666D01*
X15673Y-5441D01*
X15673Y-4991D01*
X15616Y-4879D01*
X15560Y-4823D01*
X15448Y-4766D01*
X15223Y-4766D01*
X15110Y-4823D01*
X15054Y-4879D01*
X14998Y-4991D01*
X14998Y-5272D01*
X15054Y-5385D01*
X15110Y-5441D01*
X15223Y-5497D01*
X15448Y-5497D01*
X15560Y-5441D01*
X15616Y-5385D01*
X15673Y-5272D01*
X16122Y-4766D02*
X16122Y-4991D01*
X16572Y-4766D02*
X16572Y-4991D01*
X18316Y-6397D02*
X18260Y-6341D01*
X18147Y-6172D01*
X18091Y-6060D01*
X18035Y-5891D01*
X17978Y-5610D01*
X17978Y-5385D01*
X18035Y-5104D01*
X18091Y-4935D01*
X18147Y-4823D01*
X18260Y-4654D01*
X18316Y-4598D01*
X18991Y-4766D02*
X19103Y-4766D01*
X19216Y-4823D01*
X19272Y-4879D01*
X19328Y-4991D01*
X19385Y-5216D01*
X19385Y-5497D01*
X19328Y-5722D01*
X19272Y-5835D01*
X19216Y-5891D01*
X19103Y-5947D01*
X18991Y-5947D01*
X18878Y-5891D01*
X18822Y-5835D01*
X18766Y-5722D01*
X18710Y-5497D01*
X18710Y-5216D01*
X18766Y-4991D01*
X18822Y-4879D01*
X18878Y-4823D01*
X18991Y-4766D01*
X20791Y-5947D02*
X20791Y-4766D01*
X21297Y-5947D02*
X21297Y-5329D01*
X21241Y-5216D01*
X21128Y-5160D01*
X20959Y-5160D01*
X20847Y-5216D01*
X20791Y-5272D01*
X22028Y-5947D02*
X21916Y-5891D01*
X21859Y-5835D01*
X21803Y-5722D01*
X21803Y-5385D01*
X21859Y-5272D01*
X21916Y-5216D01*
X22028Y-5160D01*
X22197Y-5160D01*
X22309Y-5216D01*
X22365Y-5272D01*
X22422Y-5385D01*
X22422Y-5722D01*
X22365Y-5835D01*
X22309Y-5891D01*
X22197Y-5947D01*
X22028Y-5947D01*
X23097Y-5947D02*
X22984Y-5891D01*
X22928Y-5779D01*
X22928Y-4766D01*
X23996Y-5891D02*
X23884Y-5947D01*
X23659Y-5947D01*
X23547Y-5891D01*
X23490Y-5779D01*
X23490Y-5329D01*
X23547Y-5216D01*
X23659Y-5160D01*
X23884Y-5160D01*
X23996Y-5216D01*
X24053Y-5329D01*
X24053Y-5441D01*
X23490Y-5554D01*
X24503Y-5891D02*
X24615Y-5947D01*
X24840Y-5947D01*
X24953Y-5891D01*
X25009Y-5779D01*
X25009Y-5722D01*
X24953Y-5610D01*
X24840Y-5554D01*
X24671Y-5554D01*
X24559Y-5497D01*
X24503Y-5385D01*
X24503Y-5329D01*
X24559Y-5216D01*
X24671Y-5160D01*
X24840Y-5160D01*
X24953Y-5216D01*
X26415Y-5497D02*
X27315Y-5497D01*
X26865Y-5947D02*
X26865Y-5048D01*
X28721Y-4879D02*
X28777Y-4823D01*
X28890Y-4766D01*
X29171Y-4766D01*
X29283Y-4823D01*
X29340Y-4879D01*
X29396Y-4991D01*
X29396Y-5104D01*
X29340Y-5272D01*
X28665Y-5947D01*
X29396Y-5947D01*
X30746Y-5891D02*
X30858Y-5947D01*
X31083Y-5947D01*
X31196Y-5891D01*
X31252Y-5779D01*
X31252Y-5722D01*
X31196Y-5610D01*
X31083Y-5554D01*
X30914Y-5554D01*
X30802Y-5497D01*
X30746Y-5385D01*
X30746Y-5329D01*
X30802Y-5216D01*
X30914Y-5160D01*
X31083Y-5160D01*
X31196Y-5216D01*
X31927Y-5947D02*
X31814Y-5891D01*
X31758Y-5779D01*
X31758Y-4766D01*
X32545Y-5947D02*
X32433Y-5891D01*
X32377Y-5835D01*
X32320Y-5722D01*
X32320Y-5385D01*
X32377Y-5272D01*
X32433Y-5216D01*
X32545Y-5160D01*
X32714Y-5160D01*
X32827Y-5216D01*
X32883Y-5272D01*
X32939Y-5385D01*
X32939Y-5722D01*
X32883Y-5835D01*
X32827Y-5891D01*
X32714Y-5947D01*
X32545Y-5947D01*
X33277Y-5160D02*
X33727Y-5160D01*
X33445Y-4766D02*
X33445Y-5779D01*
X33502Y-5891D01*
X33614Y-5947D01*
X33727Y-5947D01*
X34064Y-5891D02*
X34176Y-5947D01*
X34401Y-5947D01*
X34514Y-5891D01*
X34570Y-5779D01*
X34570Y-5722D01*
X34514Y-5610D01*
X34401Y-5554D01*
X34233Y-5554D01*
X34120Y-5497D01*
X34064Y-5385D01*
X34064Y-5329D01*
X34120Y-5216D01*
X34233Y-5160D01*
X34401Y-5160D01*
X34514Y-5216D01*
X34964Y-6397D02*
X35020Y-6341D01*
X35133Y-6172D01*
X35189Y-6060D01*
X35245Y-5891D01*
X35301Y-5610D01*
X35301Y-5385D01*
X35245Y-5104D01*
X35189Y-4935D01*
X35133Y-4823D01*
X35020Y-4654D01*
X34964Y-4598D01*
X-390Y-6657D02*
X-390Y-7287D01*
X-705Y-6972D02*
X-75Y-6972D01*
X1612Y-7506D02*
X937Y-7506D01*
X1274Y-7506D02*
X1274Y-6325D01*
X1162Y-6494D01*
X1049Y-6607D01*
X937Y-6663D01*
X2118Y-7394D02*
X2174Y-7450D01*
X2118Y-7506D01*
X2062Y-7450D01*
X2118Y-7394D01*
X2118Y-7506D01*
X3187Y-6325D02*
X2962Y-6325D01*
X2849Y-6382D01*
X2793Y-6438D01*
X2680Y-6607D01*
X2624Y-6832D01*
X2624Y-7281D01*
X2680Y-7394D01*
X2737Y-7450D01*
X2849Y-7506D01*
X3074Y-7506D01*
X3187Y-7450D01*
X3243Y-7394D01*
X3299Y-7281D01*
X3299Y-7000D01*
X3243Y-6888D01*
X3187Y-6832D01*
X3074Y-6775D01*
X2849Y-6775D01*
X2737Y-6832D01*
X2680Y-6888D01*
X2624Y-7000D01*
X4030Y-6325D02*
X4143Y-6325D01*
X4255Y-6382D01*
X4311Y-6438D01*
X4368Y-6550D01*
X4424Y-6775D01*
X4424Y-7057D01*
X4368Y-7281D01*
X4311Y-7394D01*
X4255Y-7450D01*
X4143Y-7506D01*
X4030Y-7506D01*
X3918Y-7450D01*
X3862Y-7394D01*
X3805Y-7281D01*
X3749Y-7057D01*
X3749Y-6775D01*
X3805Y-6550D01*
X3862Y-6438D01*
X3918Y-6382D01*
X4030Y-6325D01*
X4930Y-7506D02*
X4930Y-6719D01*
X4930Y-6832D02*
X4986Y-6775D01*
X5099Y-6719D01*
X5268Y-6719D01*
X5380Y-6775D01*
X5436Y-6888D01*
X5436Y-7506D01*
X5436Y-6888D02*
X5493Y-6775D01*
X5605Y-6719D01*
X5774Y-6719D01*
X5886Y-6775D01*
X5942Y-6888D01*
X5942Y-7506D01*
X6505Y-7506D02*
X6505Y-6719D01*
X6505Y-6832D02*
X6561Y-6775D01*
X6674Y-6719D01*
X6842Y-6719D01*
X6955Y-6775D01*
X7011Y-6888D01*
X7011Y-7506D01*
X7011Y-6888D02*
X7067Y-6775D01*
X7180Y-6719D01*
X7349Y-6719D01*
X7461Y-6775D01*
X7517Y-6888D01*
X7517Y-7506D01*
X9823Y-6269D02*
X8811Y-7788D01*
X11342Y-6325D02*
X11454Y-6325D01*
X11567Y-6382D01*
X11623Y-6438D01*
X11679Y-6550D01*
X11736Y-6775D01*
X11736Y-7057D01*
X11679Y-7281D01*
X11623Y-7394D01*
X11567Y-7450D01*
X11454Y-7506D01*
X11342Y-7506D01*
X11229Y-7450D01*
X11173Y-7394D01*
X11117Y-7281D01*
X11061Y-7057D01*
X11061Y-6775D01*
X11117Y-6550D01*
X11173Y-6438D01*
X11229Y-6382D01*
X11342Y-6325D01*
X12242Y-7394D02*
X12298Y-7450D01*
X12242Y-7506D01*
X12185Y-7450D01*
X12242Y-7394D01*
X12242Y-7506D01*
X13029Y-6325D02*
X13142Y-6325D01*
X13254Y-6382D01*
X13310Y-6438D01*
X13367Y-6550D01*
X13423Y-6775D01*
X13423Y-7057D01*
X13367Y-7281D01*
X13310Y-7394D01*
X13254Y-7450D01*
X13142Y-7506D01*
X13029Y-7506D01*
X12917Y-7450D01*
X12860Y-7394D01*
X12804Y-7281D01*
X12748Y-7057D01*
X12748Y-6775D01*
X12804Y-6550D01*
X12860Y-6438D01*
X12917Y-6382D01*
X13029Y-6325D01*
X14435Y-6325D02*
X14210Y-6325D01*
X14098Y-6382D01*
X14041Y-6438D01*
X13929Y-6607D01*
X13873Y-6832D01*
X13873Y-7281D01*
X13929Y-7394D01*
X13985Y-7450D01*
X14098Y-7506D01*
X14323Y-7506D01*
X14435Y-7450D01*
X14491Y-7394D01*
X14548Y-7281D01*
X14548Y-7000D01*
X14491Y-6888D01*
X14435Y-6832D01*
X14323Y-6775D01*
X14098Y-6775D01*
X13985Y-6832D01*
X13929Y-6888D01*
X13873Y-7000D01*
X14941Y-6325D02*
X15673Y-6325D01*
X15279Y-6775D01*
X15448Y-6775D01*
X15560Y-6832D01*
X15616Y-6888D01*
X15673Y-7000D01*
X15673Y-7281D01*
X15616Y-7394D01*
X15560Y-7450D01*
X15448Y-7506D01*
X15110Y-7506D01*
X14998Y-7450D01*
X14941Y-7394D01*
X16122Y-6325D02*
X16122Y-6550D01*
X16572Y-6325D02*
X16572Y-6550D01*
X18316Y-7956D02*
X18260Y-7900D01*
X18147Y-7731D01*
X18091Y-7619D01*
X18035Y-7450D01*
X17978Y-7169D01*
X17978Y-6944D01*
X18035Y-6663D01*
X18091Y-6494D01*
X18147Y-6382D01*
X18260Y-6213D01*
X18316Y-6157D01*
X19385Y-7506D02*
X18710Y-7506D01*
X19047Y-7506D02*
X19047Y-6325D01*
X18935Y-6494D01*
X18822Y-6607D01*
X18710Y-6663D01*
X20397Y-6325D02*
X20172Y-6325D01*
X20059Y-6382D01*
X20003Y-6438D01*
X19891Y-6607D01*
X19835Y-6832D01*
X19835Y-7281D01*
X19891Y-7394D01*
X19947Y-7450D01*
X20059Y-7506D01*
X20284Y-7506D01*
X20397Y-7450D01*
X20453Y-7394D01*
X20509Y-7281D01*
X20509Y-7000D01*
X20453Y-6888D01*
X20397Y-6832D01*
X20284Y-6775D01*
X20059Y-6775D01*
X19947Y-6832D01*
X19891Y-6888D01*
X19835Y-7000D01*
X21916Y-7506D02*
X21916Y-6325D01*
X22422Y-7506D02*
X22422Y-6888D01*
X22365Y-6775D01*
X22253Y-6719D01*
X22084Y-6719D01*
X21972Y-6775D01*
X21916Y-6832D01*
X23153Y-7506D02*
X23040Y-7450D01*
X22984Y-7394D01*
X22928Y-7281D01*
X22928Y-6944D01*
X22984Y-6832D01*
X23040Y-6775D01*
X23153Y-6719D01*
X23322Y-6719D01*
X23434Y-6775D01*
X23490Y-6832D01*
X23547Y-6944D01*
X23547Y-7281D01*
X23490Y-7394D01*
X23434Y-7450D01*
X23322Y-7506D01*
X23153Y-7506D01*
X24221Y-7506D02*
X24109Y-7450D01*
X24053Y-7338D01*
X24053Y-6325D01*
X25121Y-7450D02*
X25009Y-7506D01*
X24784Y-7506D01*
X24671Y-7450D01*
X24615Y-7338D01*
X24615Y-6888D01*
X24671Y-6775D01*
X24784Y-6719D01*
X25009Y-6719D01*
X25121Y-6775D01*
X25178Y-6888D01*
X25178Y-7000D01*
X24615Y-7113D01*
X25628Y-7450D02*
X25740Y-7506D01*
X25965Y-7506D01*
X26077Y-7450D01*
X26134Y-7338D01*
X26134Y-7281D01*
X26077Y-7169D01*
X25965Y-7113D01*
X25796Y-7113D01*
X25684Y-7057D01*
X25628Y-6944D01*
X25628Y-6888D01*
X25684Y-6775D01*
X25796Y-6719D01*
X25965Y-6719D01*
X26077Y-6775D01*
X26527Y-7956D02*
X26584Y-7900D01*
X26696Y-7731D01*
X26752Y-7619D01*
X26809Y-7450D01*
X26865Y-7169D01*
X26865Y-6944D01*
X26809Y-6663D01*
X26752Y-6494D01*
X26696Y-6382D01*
X26584Y-6213D01*
X26527Y-6157D01*
G54D12*
X-181Y-8789D02*
X-181Y-8273D01*
X-698Y-8273D01*
X-698Y-8789D01*
X-181Y-8789D01*
G54D13*
X1612Y-9066D02*
X937Y-9066D01*
X1274Y-9066D02*
X1274Y-7884D01*
X1162Y-8053D01*
X1049Y-8166D01*
X937Y-8222D01*
X2118Y-8953D02*
X2174Y-9009D01*
X2118Y-9066D01*
X2062Y-9009D01*
X2118Y-8953D01*
X2118Y-9066D01*
X2849Y-8391D02*
X2737Y-8334D01*
X2680Y-8278D01*
X2624Y-8166D01*
X2624Y-8109D01*
X2680Y-7997D01*
X2737Y-7941D01*
X2849Y-7884D01*
X3074Y-7884D01*
X3187Y-7941D01*
X3243Y-7997D01*
X3299Y-8109D01*
X3299Y-8166D01*
X3243Y-8278D01*
X3187Y-8334D01*
X3074Y-8391D01*
X2849Y-8391D01*
X2737Y-8447D01*
X2680Y-8503D01*
X2624Y-8616D01*
X2624Y-8841D01*
X2680Y-8953D01*
X2737Y-9009D01*
X2849Y-9066D01*
X3074Y-9066D01*
X3187Y-9009D01*
X3243Y-8953D01*
X3299Y-8841D01*
X3299Y-8616D01*
X3243Y-8503D01*
X3187Y-8447D01*
X3074Y-8391D01*
X4368Y-7884D02*
X3805Y-7884D01*
X3749Y-8447D01*
X3805Y-8391D01*
X3918Y-8334D01*
X4199Y-8334D01*
X4311Y-8391D01*
X4368Y-8447D01*
X4424Y-8559D01*
X4424Y-8841D01*
X4368Y-8953D01*
X4311Y-9009D01*
X4199Y-9066D01*
X3918Y-9066D01*
X3805Y-9009D01*
X3749Y-8953D01*
X4930Y-9066D02*
X4930Y-8278D01*
X4930Y-8391D02*
X4986Y-8334D01*
X5099Y-8278D01*
X5268Y-8278D01*
X5380Y-8334D01*
X5436Y-8447D01*
X5436Y-9066D01*
X5436Y-8447D02*
X5493Y-8334D01*
X5605Y-8278D01*
X5774Y-8278D01*
X5886Y-8334D01*
X5942Y-8447D01*
X5942Y-9066D01*
X6505Y-9066D02*
X6505Y-8278D01*
X6505Y-8391D02*
X6561Y-8334D01*
X6674Y-8278D01*
X6842Y-8278D01*
X6955Y-8334D01*
X7011Y-8447D01*
X7011Y-9066D01*
X7011Y-8447D02*
X7067Y-8334D01*
X7180Y-8278D01*
X7349Y-8278D01*
X7461Y-8334D01*
X7517Y-8447D01*
X7517Y-9066D01*
X9823Y-7828D02*
X8811Y-9347D01*
X11342Y-7884D02*
X11454Y-7884D01*
X11567Y-7941D01*
X11623Y-7997D01*
X11679Y-8109D01*
X11736Y-8334D01*
X11736Y-8616D01*
X11679Y-8841D01*
X11623Y-8953D01*
X11567Y-9009D01*
X11454Y-9066D01*
X11342Y-9066D01*
X11229Y-9009D01*
X11173Y-8953D01*
X11117Y-8841D01*
X11061Y-8616D01*
X11061Y-8334D01*
X11117Y-8109D01*
X11173Y-7997D01*
X11229Y-7941D01*
X11342Y-7884D01*
X12242Y-8953D02*
X12298Y-9009D01*
X12242Y-9066D01*
X12185Y-9009D01*
X12242Y-8953D01*
X12242Y-9066D01*
X13029Y-7884D02*
X13142Y-7884D01*
X13254Y-7941D01*
X13310Y-7997D01*
X13367Y-8109D01*
X13423Y-8334D01*
X13423Y-8616D01*
X13367Y-8841D01*
X13310Y-8953D01*
X13254Y-9009D01*
X13142Y-9066D01*
X13029Y-9066D01*
X12917Y-9009D01*
X12860Y-8953D01*
X12804Y-8841D01*
X12748Y-8616D01*
X12748Y-8334D01*
X12804Y-8109D01*
X12860Y-7997D01*
X12917Y-7941D01*
X13029Y-7884D01*
X13817Y-7884D02*
X14604Y-7884D01*
X14098Y-9066D01*
X14941Y-7884D02*
X15673Y-7884D01*
X15279Y-8334D01*
X15448Y-8334D01*
X15560Y-8391D01*
X15616Y-8447D01*
X15673Y-8559D01*
X15673Y-8841D01*
X15616Y-8953D01*
X15560Y-9009D01*
X15448Y-9066D01*
X15110Y-9066D01*
X14998Y-9009D01*
X14941Y-8953D01*
X16122Y-7884D02*
X16122Y-8109D01*
X16572Y-7884D02*
X16572Y-8109D01*
X18316Y-9515D02*
X18260Y-9459D01*
X18147Y-9290D01*
X18091Y-9178D01*
X18035Y-9009D01*
X17978Y-8728D01*
X17978Y-8503D01*
X18035Y-8222D01*
X18091Y-8053D01*
X18147Y-7941D01*
X18260Y-7772D01*
X18316Y-7716D01*
X18935Y-8391D02*
X18822Y-8334D01*
X18766Y-8278D01*
X18710Y-8166D01*
X18710Y-8109D01*
X18766Y-7997D01*
X18822Y-7941D01*
X18935Y-7884D01*
X19160Y-7884D01*
X19272Y-7941D01*
X19328Y-7997D01*
X19385Y-8109D01*
X19385Y-8166D01*
X19328Y-8278D01*
X19272Y-8334D01*
X19160Y-8391D01*
X18935Y-8391D01*
X18822Y-8447D01*
X18766Y-8503D01*
X18710Y-8616D01*
X18710Y-8841D01*
X18766Y-8953D01*
X18822Y-9009D01*
X18935Y-9066D01*
X19160Y-9066D01*
X19272Y-9009D01*
X19328Y-8953D01*
X19385Y-8841D01*
X19385Y-8616D01*
X19328Y-8503D01*
X19272Y-8447D01*
X19160Y-8391D01*
X20791Y-9066D02*
X20791Y-7884D01*
X21297Y-9066D02*
X21297Y-8447D01*
X21241Y-8334D01*
X21128Y-8278D01*
X20959Y-8278D01*
X20847Y-8334D01*
X20791Y-8391D01*
X22028Y-9066D02*
X21916Y-9009D01*
X21859Y-8953D01*
X21803Y-8841D01*
X21803Y-8503D01*
X21859Y-8391D01*
X21916Y-8334D01*
X22028Y-8278D01*
X22197Y-8278D01*
X22309Y-8334D01*
X22365Y-8391D01*
X22422Y-8503D01*
X22422Y-8841D01*
X22365Y-8953D01*
X22309Y-9009D01*
X22197Y-9066D01*
X22028Y-9066D01*
X23097Y-9066D02*
X22984Y-9009D01*
X22928Y-8897D01*
X22928Y-7884D01*
X23996Y-9009D02*
X23884Y-9066D01*
X23659Y-9066D01*
X23547Y-9009D01*
X23490Y-8897D01*
X23490Y-8447D01*
X23547Y-8334D01*
X23659Y-8278D01*
X23884Y-8278D01*
X23996Y-8334D01*
X24053Y-8447D01*
X24053Y-8559D01*
X23490Y-8672D01*
X24503Y-9009D02*
X24615Y-9066D01*
X24840Y-9066D01*
X24953Y-9009D01*
X25009Y-8897D01*
X25009Y-8841D01*
X24953Y-8728D01*
X24840Y-8672D01*
X24671Y-8672D01*
X24559Y-8616D01*
X24503Y-8503D01*
X24503Y-8447D01*
X24559Y-8334D01*
X24671Y-8278D01*
X24840Y-8278D01*
X24953Y-8334D01*
X25403Y-9515D02*
X25459Y-9459D01*
X25571Y-9290D01*
X25628Y-9178D01*
X25684Y-9009D01*
X25740Y-8728D01*
X25740Y-8503D01*
X25684Y-8222D01*
X25628Y-8053D01*
X25571Y-7941D01*
X25459Y-7772D01*
X25403Y-7716D01*
G54D12*
X-528Y-10543D02*
X-75Y-10090D01*
X-528Y-9637D01*
X-981Y-10090D01*
X-528Y-10543D01*
G54D13*
X937Y-9556D02*
X993Y-9500D01*
X1106Y-9443D01*
X1387Y-9443D01*
X1499Y-9500D01*
X1556Y-9556D01*
X1612Y-9668D01*
X1612Y-9781D01*
X1556Y-9950D01*
X881Y-10625D01*
X1612Y-10625D01*
X2118Y-10512D02*
X2174Y-10568D01*
X2118Y-10625D01*
X2062Y-10568D01*
X2118Y-10512D01*
X2118Y-10625D01*
X2568Y-9443D02*
X3299Y-9443D01*
X2905Y-9893D01*
X3074Y-9893D01*
X3187Y-9950D01*
X3243Y-10006D01*
X3299Y-10118D01*
X3299Y-10400D01*
X3243Y-10512D01*
X3187Y-10568D01*
X3074Y-10625D01*
X2737Y-10625D01*
X2624Y-10568D01*
X2568Y-10512D01*
X4030Y-9443D02*
X4143Y-9443D01*
X4255Y-9500D01*
X4311Y-9556D01*
X4368Y-9668D01*
X4424Y-9893D01*
X4424Y-10175D01*
X4368Y-10400D01*
X4311Y-10512D01*
X4255Y-10568D01*
X4143Y-10625D01*
X4030Y-10625D01*
X3918Y-10568D01*
X3862Y-10512D01*
X3805Y-10400D01*
X3749Y-10175D01*
X3749Y-9893D01*
X3805Y-9668D01*
X3862Y-9556D01*
X3918Y-9500D01*
X4030Y-9443D01*
X4930Y-10625D02*
X4930Y-9837D01*
X4930Y-9950D02*
X4986Y-9893D01*
X5099Y-9837D01*
X5268Y-9837D01*
X5380Y-9893D01*
X5436Y-10006D01*
X5436Y-10625D01*
X5436Y-10006D02*
X5493Y-9893D01*
X5605Y-9837D01*
X5774Y-9837D01*
X5886Y-9893D01*
X5942Y-10006D01*
X5942Y-10625D01*
X6505Y-10625D02*
X6505Y-9837D01*
X6505Y-9950D02*
X6561Y-9893D01*
X6674Y-9837D01*
X6842Y-9837D01*
X6955Y-9893D01*
X7011Y-10006D01*
X7011Y-10625D01*
X7011Y-10006D02*
X7067Y-9893D01*
X7180Y-9837D01*
X7349Y-9837D01*
X7461Y-9893D01*
X7517Y-10006D01*
X7517Y-10625D01*
X9823Y-9387D02*
X8811Y-10906D01*
X11342Y-9443D02*
X11454Y-9443D01*
X11567Y-9500D01*
X11623Y-9556D01*
X11679Y-9668D01*
X11736Y-9893D01*
X11736Y-10175D01*
X11679Y-10400D01*
X11623Y-10512D01*
X11567Y-10568D01*
X11454Y-10625D01*
X11342Y-10625D01*
X11229Y-10568D01*
X11173Y-10512D01*
X11117Y-10400D01*
X11061Y-10175D01*
X11061Y-9893D01*
X11117Y-9668D01*
X11173Y-9556D01*
X11229Y-9500D01*
X11342Y-9443D01*
X12242Y-10512D02*
X12298Y-10568D01*
X12242Y-10625D01*
X12185Y-10568D01*
X12242Y-10512D01*
X12242Y-10625D01*
X13029Y-9443D02*
X13142Y-9443D01*
X13254Y-9500D01*
X13310Y-9556D01*
X13367Y-9668D01*
X13423Y-9893D01*
X13423Y-10175D01*
X13367Y-10400D01*
X13310Y-10512D01*
X13254Y-10568D01*
X13142Y-10625D01*
X13029Y-10625D01*
X12917Y-10568D01*
X12860Y-10512D01*
X12804Y-10400D01*
X12748Y-10175D01*
X12748Y-9893D01*
X12804Y-9668D01*
X12860Y-9556D01*
X12917Y-9500D01*
X13029Y-9443D01*
X13985Y-10625D02*
X14210Y-10625D01*
X14323Y-10568D01*
X14379Y-10512D01*
X14491Y-10343D01*
X14548Y-10118D01*
X14548Y-9668D01*
X14491Y-9556D01*
X14435Y-9500D01*
X14323Y-9443D01*
X14098Y-9443D01*
X13985Y-9500D01*
X13929Y-9556D01*
X13873Y-9668D01*
X13873Y-9950D01*
X13929Y-10062D01*
X13985Y-10118D01*
X14098Y-10175D01*
X14323Y-10175D01*
X14435Y-10118D01*
X14491Y-10062D01*
X14548Y-9950D01*
X15673Y-10625D02*
X14998Y-10625D01*
X15335Y-10625D02*
X15335Y-9443D01*
X15223Y-9612D01*
X15110Y-9725D01*
X14998Y-9781D01*
X16122Y-9443D02*
X16122Y-9668D01*
X16572Y-9443D02*
X16572Y-9668D01*
X18316Y-11075D02*
X18260Y-11018D01*
X18147Y-10850D01*
X18091Y-10737D01*
X18035Y-10568D01*
X17978Y-10287D01*
X17978Y-10062D01*
X18035Y-9781D01*
X18091Y-9612D01*
X18147Y-9500D01*
X18260Y-9331D01*
X18316Y-9275D01*
X18710Y-9556D02*
X18766Y-9500D01*
X18878Y-9443D01*
X19160Y-9443D01*
X19272Y-9500D01*
X19328Y-9556D01*
X19385Y-9668D01*
X19385Y-9781D01*
X19328Y-9950D01*
X18653Y-10625D01*
X19385Y-10625D01*
X20791Y-10625D02*
X20791Y-9443D01*
X21297Y-10625D02*
X21297Y-10006D01*
X21241Y-9893D01*
X21128Y-9837D01*
X20959Y-9837D01*
X20847Y-9893D01*
X20791Y-9950D01*
X22028Y-10625D02*
X21916Y-10568D01*
X21859Y-10512D01*
X21803Y-10400D01*
X21803Y-10062D01*
X21859Y-9950D01*
X21916Y-9893D01*
X22028Y-9837D01*
X22197Y-9837D01*
X22309Y-9893D01*
X22365Y-9950D01*
X22422Y-10062D01*
X22422Y-10400D01*
X22365Y-10512D01*
X22309Y-10568D01*
X22197Y-10625D01*
X22028Y-10625D01*
X23097Y-10625D02*
X22984Y-10568D01*
X22928Y-10456D01*
X22928Y-9443D01*
X23996Y-10568D02*
X23884Y-10625D01*
X23659Y-10625D01*
X23547Y-10568D01*
X23490Y-10456D01*
X23490Y-10006D01*
X23547Y-9893D01*
X23659Y-9837D01*
X23884Y-9837D01*
X23996Y-9893D01*
X24053Y-10006D01*
X24053Y-10118D01*
X23490Y-10231D01*
X24503Y-10568D02*
X24615Y-10625D01*
X24840Y-10625D01*
X24953Y-10568D01*
X25009Y-10456D01*
X25009Y-10400D01*
X24953Y-10287D01*
X24840Y-10231D01*
X24671Y-10231D01*
X24559Y-10175D01*
X24503Y-10062D01*
X24503Y-10006D01*
X24559Y-9893D01*
X24671Y-9837D01*
X24840Y-9837D01*
X24953Y-9893D01*
X25403Y-11075D02*
X25459Y-11018D01*
X25571Y-10850D01*
X25628Y-10737D01*
X25684Y-10568D01*
X25740Y-10287D01*
X25740Y-10062D01*
X25684Y-9781D01*
X25628Y-9612D01*
X25571Y-9500D01*
X25459Y-9331D01*
X25403Y-9275D01*
M02*
