%FSLAX34Y34*%
G04 Gerber Fmt 3.4, Leading zero omitted, Abs format*
G04 (created by PCBNEW (2014-04-11 BZR 4798)-product) date 21/04/2014 04:41:56*
%MOIN*%
G01*
G70*
G90*
G04 APERTURE LIST*
%ADD10C,0.005906*%
%ADD11C,0.010000*%
%ADD12R,0.066200X0.066200*%
%ADD13O,0.059100X0.066200*%
%ADD14C,0.066200*%
%ADD15O,0.069400X0.128400*%
%ADD16C,0.113000*%
%ADD17C,0.123000*%
%ADD18C,0.120600*%
%ADD19C,0.050000*%
%ADD20C,0.020000*%
G04 APERTURE END LIST*
G54D10*
G54D11*
X22482Y27257D02*
X22522Y27176D01*
X22522Y27136D01*
X22502Y27075D01*
X22441Y27015D01*
X22381Y26994D01*
X22340Y26994D01*
X22280Y27015D01*
X22118Y27176D01*
X22542Y27600D01*
X22684Y27459D01*
X22704Y27398D01*
X22704Y27358D01*
X22684Y27297D01*
X22643Y27257D01*
X22583Y27237D01*
X22542Y27237D01*
X22482Y27257D01*
X22340Y27398D01*
X22457Y28000D02*
X23164Y27292D01*
X23164Y27292D02*
X22457Y26585D01*
X22457Y26585D02*
X21750Y27292D01*
X21750Y27292D02*
X22457Y28000D01*
G54D12*
X10622Y35100D03*
G54D13*
X11606Y35100D03*
X12394Y35100D03*
G54D14*
X13378Y35100D03*
G54D15*
X9756Y35927D03*
X14244Y35927D03*
G54D16*
X6000Y19000D03*
X6000Y17150D03*
X18000Y19000D03*
X18000Y17150D03*
X14000Y19000D03*
X14000Y17150D03*
X10000Y19000D03*
X10000Y17150D03*
G54D17*
X14000Y8000D03*
X14000Y10000D03*
X6000Y28000D03*
X6000Y30000D03*
X18000Y8000D03*
X18000Y10000D03*
X10000Y8000D03*
X10000Y10000D03*
X18000Y28000D03*
X18000Y30000D03*
X14000Y28000D03*
X14000Y30000D03*
X10000Y28000D03*
X10000Y30000D03*
X6000Y8000D03*
X6000Y10000D03*
G54D14*
X13400Y3000D03*
G54D13*
X12400Y3000D03*
X11600Y3000D03*
G54D12*
X10600Y3000D03*
G54D18*
X14587Y1933D03*
X9413Y1933D03*
G54D19*
X14000Y10000D02*
X14000Y8000D01*
G54D20*
X14000Y7000D02*
X12400Y5400D01*
X12400Y5400D02*
X12400Y3000D01*
X14000Y8000D02*
X14000Y7000D01*
X14000Y10000D02*
X14000Y17150D01*
G54D19*
X14000Y28000D02*
X14000Y30000D01*
G54D20*
X14000Y31000D02*
X12394Y32606D01*
X12394Y32606D02*
X12394Y35100D01*
X14000Y30000D02*
X14000Y31000D01*
X14000Y28000D02*
X14000Y19000D01*
G54D19*
X10000Y10000D02*
X10000Y8000D01*
G54D20*
X10000Y7000D02*
X11600Y5400D01*
X11600Y5400D02*
X11600Y3000D01*
X10000Y8000D02*
X10000Y7000D01*
X10000Y17150D02*
X10000Y10000D01*
G54D19*
X10000Y28000D02*
X10000Y30000D01*
G54D20*
X10000Y31000D02*
X11606Y32606D01*
X11606Y32606D02*
X11606Y35100D01*
X10000Y30000D02*
X10000Y31000D01*
X10000Y19000D02*
X10000Y28000D01*
G54D19*
X13400Y3000D02*
X13400Y4400D01*
X13400Y4400D02*
X14000Y5000D01*
X14000Y5000D02*
X16000Y5000D01*
X18000Y10000D02*
X18000Y8000D01*
X18000Y7000D02*
X16000Y5000D01*
X18000Y8000D02*
X18000Y7000D01*
X18000Y17150D02*
X18000Y10000D01*
X13378Y33622D02*
X14000Y33000D01*
X13378Y35100D02*
X13378Y33622D01*
X14000Y33000D02*
X16000Y33000D01*
X18000Y28000D02*
X18000Y30000D01*
X18000Y31000D02*
X16000Y33000D01*
X18000Y30000D02*
X18000Y31000D01*
X18000Y28000D02*
X18000Y19000D01*
X10600Y3000D02*
X10600Y4400D01*
X10000Y5000D02*
X8000Y5000D01*
X10600Y4400D02*
X10000Y5000D01*
X6000Y10000D02*
X6000Y8000D01*
X6000Y7000D02*
X8000Y5000D01*
X6000Y8000D02*
X6000Y7000D01*
X6000Y10000D02*
X6000Y17150D01*
X10622Y35100D02*
X10622Y33622D01*
X10000Y33000D02*
X8000Y33000D01*
X10622Y33622D02*
X10000Y33000D01*
X6000Y28000D02*
X6000Y30000D01*
X6000Y31000D02*
X8000Y33000D01*
X6000Y30000D02*
X6000Y31000D01*
X6000Y28000D02*
X6000Y19000D01*
G54D10*
G36*
X23675Y745D02*
X23464Y534D01*
X23464Y27292D01*
X23441Y27407D01*
X23441Y27407D01*
X23376Y27505D01*
X23376Y27505D01*
X23376Y27505D01*
X22669Y28212D01*
X22669Y28212D01*
X22571Y28277D01*
X22457Y28300D01*
X22342Y28277D01*
X22244Y28212D01*
X21537Y27505D01*
X21472Y27407D01*
X21450Y27292D01*
X21472Y27178D01*
X21537Y27080D01*
X22244Y26373D01*
X22342Y26308D01*
X22457Y26285D01*
X22457Y26285D01*
X22571Y26308D01*
X22571Y26308D01*
X22669Y26373D01*
X22669Y26373D01*
X23376Y27080D01*
X23376Y27080D01*
X23376Y27080D01*
X23441Y27178D01*
X23441Y27178D01*
X23464Y27292D01*
X23464Y534D01*
X23254Y325D01*
X18865Y325D01*
X18865Y8171D01*
X18733Y8489D01*
X18500Y8723D01*
X18500Y9276D01*
X18732Y9509D01*
X18864Y9827D01*
X18865Y10171D01*
X18865Y28171D01*
X18733Y28489D01*
X18500Y28723D01*
X18500Y29276D01*
X18732Y29509D01*
X18864Y29827D01*
X18865Y30171D01*
X18733Y30489D01*
X18500Y30723D01*
X18500Y30999D01*
X18500Y31000D01*
X18500Y31000D01*
X18461Y31191D01*
X18353Y31353D01*
X16353Y33353D01*
X16191Y33461D01*
X16000Y33500D01*
X15999Y33500D01*
X14841Y33500D01*
X14841Y35582D01*
X14841Y35877D01*
X14294Y35877D01*
X14294Y35099D01*
X14386Y35052D01*
X14426Y35061D01*
X14630Y35174D01*
X14776Y35357D01*
X14841Y35582D01*
X14841Y33500D01*
X14207Y33500D01*
X13878Y33829D01*
X13878Y34789D01*
X13958Y34983D01*
X13959Y35118D01*
X14061Y35061D01*
X14101Y35052D01*
X14194Y35099D01*
X14194Y35877D01*
X13647Y35877D01*
X13647Y35617D01*
X13494Y35680D01*
X13289Y35681D01*
X13352Y35833D01*
X13352Y36019D01*
X13281Y36190D01*
X13150Y36322D01*
X12979Y36393D01*
X12793Y36393D01*
X12622Y36322D01*
X12490Y36191D01*
X12419Y36020D01*
X12419Y35834D01*
X12485Y35674D01*
X12394Y35692D01*
X12185Y35650D01*
X12008Y35532D01*
X12000Y35520D01*
X11991Y35532D01*
X11814Y35650D01*
X11606Y35692D01*
X11514Y35674D01*
X11580Y35833D01*
X11580Y36019D01*
X11509Y36190D01*
X11378Y36322D01*
X11207Y36393D01*
X11021Y36393D01*
X10850Y36322D01*
X10718Y36191D01*
X10647Y36020D01*
X10647Y35834D01*
X10710Y35681D01*
X10353Y35681D01*
X10353Y35877D01*
X9806Y35877D01*
X9806Y35099D01*
X9898Y35052D01*
X9938Y35061D01*
X10041Y35118D01*
X10041Y34719D01*
X10079Y34627D01*
X10122Y34584D01*
X10122Y33829D01*
X9792Y33500D01*
X9706Y33500D01*
X9706Y35099D01*
X9706Y35877D01*
X9159Y35877D01*
X9159Y35582D01*
X9223Y35357D01*
X9369Y35174D01*
X9573Y35061D01*
X9613Y35052D01*
X9706Y35099D01*
X9706Y33500D01*
X8000Y33500D01*
X8000Y33500D01*
X7808Y33461D01*
X7646Y33353D01*
X5646Y31353D01*
X5538Y31191D01*
X5499Y31000D01*
X5500Y30999D01*
X5500Y30723D01*
X5267Y30490D01*
X5135Y30172D01*
X5134Y29828D01*
X5266Y29510D01*
X5500Y29276D01*
X5500Y28723D01*
X5267Y28490D01*
X5135Y28172D01*
X5134Y27828D01*
X5266Y27510D01*
X5500Y27276D01*
X5500Y19652D01*
X5309Y19462D01*
X5185Y19162D01*
X5184Y18838D01*
X5308Y18538D01*
X5537Y18309D01*
X5837Y18185D01*
X6161Y18184D01*
X6461Y18308D01*
X6690Y18537D01*
X6814Y18837D01*
X6815Y19161D01*
X6691Y19461D01*
X6500Y19652D01*
X6500Y27276D01*
X6732Y27509D01*
X6864Y27827D01*
X6865Y28171D01*
X6733Y28489D01*
X6500Y28723D01*
X6500Y29276D01*
X6732Y29509D01*
X6864Y29827D01*
X6865Y30171D01*
X6733Y30489D01*
X6500Y30723D01*
X6500Y30792D01*
X8207Y32500D01*
X9999Y32500D01*
X10000Y32499D01*
X10000Y32500D01*
X10191Y32538D01*
X10353Y32646D01*
X10975Y33268D01*
X10975Y33268D01*
X10975Y33268D01*
X11083Y33430D01*
X11122Y33622D01*
X11122Y33622D01*
X11122Y33622D01*
X11122Y34584D01*
X11164Y34627D01*
X11196Y34703D01*
X11220Y34667D01*
X11256Y34643D01*
X11256Y32750D01*
X9752Y31247D01*
X9676Y31133D01*
X9650Y31000D01*
X9650Y30791D01*
X9510Y30733D01*
X9267Y30490D01*
X9135Y30172D01*
X9134Y29828D01*
X9266Y29510D01*
X9500Y29276D01*
X9500Y28723D01*
X9267Y28490D01*
X9135Y28172D01*
X9134Y27828D01*
X9266Y27510D01*
X9509Y27267D01*
X9650Y27208D01*
X9650Y19737D01*
X9538Y19691D01*
X9309Y19462D01*
X9185Y19162D01*
X9184Y18838D01*
X9308Y18538D01*
X9537Y18309D01*
X9837Y18185D01*
X10161Y18184D01*
X10461Y18308D01*
X10690Y18537D01*
X10814Y18837D01*
X10815Y19161D01*
X10691Y19461D01*
X10462Y19690D01*
X10350Y19737D01*
X10350Y27208D01*
X10489Y27266D01*
X10732Y27509D01*
X10864Y27827D01*
X10865Y28171D01*
X10733Y28489D01*
X10500Y28723D01*
X10500Y29276D01*
X10732Y29509D01*
X10864Y29827D01*
X10865Y30171D01*
X10733Y30489D01*
X10490Y30732D01*
X10350Y30791D01*
X10350Y30855D01*
X11853Y32358D01*
X11929Y32472D01*
X11929Y32472D01*
X11956Y32606D01*
X11956Y34643D01*
X11991Y34667D01*
X12000Y34679D01*
X12008Y34667D01*
X12044Y34643D01*
X12044Y32606D01*
X12070Y32472D01*
X12146Y32358D01*
X13650Y30855D01*
X13650Y30791D01*
X13510Y30733D01*
X13267Y30490D01*
X13135Y30172D01*
X13134Y29828D01*
X13266Y29510D01*
X13500Y29276D01*
X13500Y28723D01*
X13267Y28490D01*
X13135Y28172D01*
X13134Y27828D01*
X13266Y27510D01*
X13509Y27267D01*
X13650Y27208D01*
X13650Y19737D01*
X13538Y19691D01*
X13309Y19462D01*
X13185Y19162D01*
X13184Y18838D01*
X13308Y18538D01*
X13537Y18309D01*
X13837Y18185D01*
X14161Y18184D01*
X14461Y18308D01*
X14690Y18537D01*
X14814Y18837D01*
X14815Y19161D01*
X14691Y19461D01*
X14462Y19690D01*
X14350Y19737D01*
X14350Y27208D01*
X14489Y27266D01*
X14732Y27509D01*
X14864Y27827D01*
X14865Y28171D01*
X14733Y28489D01*
X14500Y28723D01*
X14500Y29276D01*
X14732Y29509D01*
X14864Y29827D01*
X14865Y30171D01*
X14733Y30489D01*
X14490Y30732D01*
X14350Y30791D01*
X14350Y31000D01*
X14323Y31133D01*
X14323Y31133D01*
X14247Y31247D01*
X12744Y32750D01*
X12744Y34643D01*
X12779Y34667D01*
X12871Y34804D01*
X12878Y34788D01*
X12878Y33622D01*
X12877Y33622D01*
X12916Y33430D01*
X13024Y33268D01*
X13646Y32646D01*
X13646Y32646D01*
X13646Y32646D01*
X13808Y32538D01*
X14000Y32499D01*
X14000Y32500D01*
X14000Y32500D01*
X15792Y32500D01*
X17500Y30792D01*
X17500Y30723D01*
X17267Y30490D01*
X17135Y30172D01*
X17134Y29828D01*
X17266Y29510D01*
X17500Y29276D01*
X17500Y28723D01*
X17267Y28490D01*
X17135Y28172D01*
X17134Y27828D01*
X17266Y27510D01*
X17500Y27276D01*
X17500Y19652D01*
X17309Y19462D01*
X17185Y19162D01*
X17184Y18838D01*
X17308Y18538D01*
X17537Y18309D01*
X17837Y18185D01*
X18161Y18184D01*
X18461Y18308D01*
X18690Y18537D01*
X18814Y18837D01*
X18815Y19161D01*
X18691Y19461D01*
X18500Y19652D01*
X18500Y27276D01*
X18732Y27509D01*
X18864Y27827D01*
X18865Y28171D01*
X18865Y10171D01*
X18733Y10489D01*
X18500Y10723D01*
X18500Y16497D01*
X18690Y16687D01*
X18814Y16987D01*
X18815Y17311D01*
X18691Y17611D01*
X18462Y17840D01*
X18162Y17964D01*
X17838Y17965D01*
X17538Y17841D01*
X17309Y17612D01*
X17185Y17312D01*
X17184Y16988D01*
X17308Y16688D01*
X17500Y16497D01*
X17500Y10723D01*
X17267Y10490D01*
X17135Y10172D01*
X17134Y9828D01*
X17266Y9510D01*
X17500Y9276D01*
X17500Y8723D01*
X17267Y8490D01*
X17135Y8172D01*
X17134Y7828D01*
X17266Y7510D01*
X17500Y7276D01*
X17500Y7207D01*
X15792Y5500D01*
X14000Y5500D01*
X13808Y5461D01*
X13646Y5353D01*
X13646Y5353D01*
X13046Y4753D01*
X12938Y4591D01*
X12899Y4400D01*
X12900Y4399D01*
X12900Y3310D01*
X12887Y3280D01*
X12785Y3432D01*
X12750Y3456D01*
X12750Y5255D01*
X14247Y6752D01*
X14323Y6866D01*
X14323Y6866D01*
X14350Y7000D01*
X14350Y7208D01*
X14489Y7266D01*
X14732Y7509D01*
X14864Y7827D01*
X14865Y8171D01*
X14733Y8489D01*
X14500Y8723D01*
X14500Y9276D01*
X14732Y9509D01*
X14864Y9827D01*
X14865Y10171D01*
X14733Y10489D01*
X14490Y10732D01*
X14350Y10791D01*
X14350Y16412D01*
X14461Y16458D01*
X14690Y16687D01*
X14814Y16987D01*
X14815Y17311D01*
X14691Y17611D01*
X14462Y17840D01*
X14162Y17964D01*
X13838Y17965D01*
X13538Y17841D01*
X13309Y17612D01*
X13185Y17312D01*
X13184Y16988D01*
X13308Y16688D01*
X13537Y16459D01*
X13650Y16412D01*
X13650Y10791D01*
X13510Y10733D01*
X13267Y10490D01*
X13135Y10172D01*
X13134Y9828D01*
X13266Y9510D01*
X13500Y9276D01*
X13500Y8723D01*
X13267Y8490D01*
X13135Y8172D01*
X13134Y7828D01*
X13266Y7510D01*
X13509Y7267D01*
X13650Y7208D01*
X13650Y7144D01*
X12152Y5647D01*
X12076Y5533D01*
X12050Y5400D01*
X12050Y3456D01*
X12014Y3432D01*
X12000Y3411D01*
X11985Y3432D01*
X11950Y3456D01*
X11950Y5400D01*
X11923Y5533D01*
X11923Y5533D01*
X11847Y5647D01*
X10350Y7144D01*
X10350Y7208D01*
X10489Y7266D01*
X10732Y7509D01*
X10864Y7827D01*
X10865Y8171D01*
X10733Y8489D01*
X10500Y8723D01*
X10500Y9276D01*
X10732Y9509D01*
X10864Y9827D01*
X10865Y10171D01*
X10733Y10489D01*
X10490Y10732D01*
X10350Y10791D01*
X10350Y16412D01*
X10461Y16458D01*
X10690Y16687D01*
X10814Y16987D01*
X10815Y17311D01*
X10691Y17611D01*
X10462Y17840D01*
X10162Y17964D01*
X9838Y17965D01*
X9538Y17841D01*
X9309Y17612D01*
X9185Y17312D01*
X9184Y16988D01*
X9308Y16688D01*
X9537Y16459D01*
X9650Y16412D01*
X9650Y10791D01*
X9510Y10733D01*
X9267Y10490D01*
X9135Y10172D01*
X9134Y9828D01*
X9266Y9510D01*
X9500Y9276D01*
X9500Y8723D01*
X9267Y8490D01*
X9135Y8172D01*
X9134Y7828D01*
X9266Y7510D01*
X9509Y7267D01*
X9650Y7208D01*
X9650Y7000D01*
X9676Y6866D01*
X9752Y6752D01*
X11250Y5255D01*
X11250Y3456D01*
X11214Y3432D01*
X11180Y3382D01*
X11142Y3472D01*
X11100Y3515D01*
X11100Y4400D01*
X11061Y4591D01*
X10953Y4753D01*
X10953Y4753D01*
X10353Y5353D01*
X10191Y5461D01*
X10000Y5500D01*
X9999Y5500D01*
X8207Y5500D01*
X6500Y7207D01*
X6500Y7276D01*
X6732Y7509D01*
X6864Y7827D01*
X6865Y8171D01*
X6733Y8489D01*
X6500Y8723D01*
X6500Y9276D01*
X6732Y9509D01*
X6864Y9827D01*
X6865Y10171D01*
X6733Y10489D01*
X6500Y10723D01*
X6500Y16497D01*
X6690Y16687D01*
X6814Y16987D01*
X6815Y17311D01*
X6691Y17611D01*
X6462Y17840D01*
X6162Y17964D01*
X5838Y17965D01*
X5538Y17841D01*
X5309Y17612D01*
X5185Y17312D01*
X5184Y16988D01*
X5308Y16688D01*
X5500Y16497D01*
X5500Y10723D01*
X5267Y10490D01*
X5135Y10172D01*
X5134Y9828D01*
X5266Y9510D01*
X5500Y9276D01*
X5500Y8723D01*
X5267Y8490D01*
X5135Y8172D01*
X5134Y7828D01*
X5266Y7510D01*
X5500Y7276D01*
X5500Y7000D01*
X5499Y7000D01*
X5538Y6808D01*
X5646Y6646D01*
X7646Y4646D01*
X7808Y4538D01*
X8000Y4499D01*
X8000Y4500D01*
X8000Y4500D01*
X9792Y4500D01*
X10100Y4192D01*
X10100Y3515D01*
X10057Y3472D01*
X10019Y3380D01*
X10019Y3281D01*
X10019Y2619D01*
X10057Y2527D01*
X10127Y2457D01*
X10219Y2419D01*
X10318Y2419D01*
X10980Y2419D01*
X11072Y2457D01*
X11142Y2527D01*
X11180Y2617D01*
X11214Y2567D01*
X11391Y2449D01*
X11600Y2407D01*
X11808Y2449D01*
X11985Y2567D01*
X12000Y2588D01*
X12014Y2567D01*
X12191Y2449D01*
X12400Y2407D01*
X12608Y2449D01*
X12785Y2567D01*
X12887Y2719D01*
X12907Y2671D01*
X13070Y2507D01*
X13283Y2419D01*
X13515Y2418D01*
X13728Y2507D01*
X13892Y2670D01*
X13980Y2883D01*
X13981Y3115D01*
X13900Y3311D01*
X13900Y4192D01*
X14207Y4500D01*
X15999Y4500D01*
X16000Y4499D01*
X16000Y4500D01*
X16191Y4538D01*
X16353Y4646D01*
X18353Y6646D01*
X18461Y6808D01*
X18500Y7000D01*
X18500Y7000D01*
X18500Y7000D01*
X18500Y7276D01*
X18732Y7509D01*
X18864Y7827D01*
X18865Y8171D01*
X18865Y325D01*
X15442Y325D01*
X15442Y1778D01*
X15436Y2118D01*
X15318Y2402D01*
X15192Y2467D01*
X15121Y2396D01*
X15121Y2538D01*
X15056Y2664D01*
X14741Y2788D01*
X14401Y2782D01*
X14117Y2664D01*
X14052Y2538D01*
X14587Y2003D01*
X15121Y2538D01*
X15121Y2396D01*
X14657Y1933D01*
X15192Y1398D01*
X15318Y1463D01*
X15442Y1778D01*
X15442Y325D01*
X15121Y325D01*
X15121Y1327D01*
X14587Y1862D01*
X14516Y1791D01*
X14516Y1933D01*
X13981Y2467D01*
X13855Y2402D01*
X13731Y2087D01*
X13737Y1747D01*
X13855Y1463D01*
X13981Y1398D01*
X14516Y1933D01*
X14516Y1791D01*
X14052Y1327D01*
X14117Y1201D01*
X14432Y1077D01*
X14772Y1083D01*
X15056Y1201D01*
X15121Y1327D01*
X15121Y325D01*
X10268Y325D01*
X10268Y1778D01*
X10262Y2118D01*
X10144Y2402D01*
X10018Y2467D01*
X9947Y2396D01*
X9947Y2538D01*
X9882Y2664D01*
X9567Y2788D01*
X9227Y2782D01*
X8943Y2664D01*
X8878Y2538D01*
X9413Y2003D01*
X9947Y2538D01*
X9947Y2396D01*
X9483Y1933D01*
X10018Y1398D01*
X10144Y1463D01*
X10268Y1778D01*
X10268Y325D01*
X9947Y325D01*
X9947Y1327D01*
X9413Y1862D01*
X9342Y1791D01*
X9342Y1933D01*
X8807Y2467D01*
X8681Y2402D01*
X8557Y2087D01*
X8563Y1747D01*
X8681Y1463D01*
X8807Y1398D01*
X9342Y1933D01*
X9342Y1791D01*
X8878Y1327D01*
X8943Y1201D01*
X9258Y1077D01*
X9598Y1083D01*
X9882Y1201D01*
X9947Y1327D01*
X9947Y325D01*
X745Y325D01*
X325Y745D01*
X325Y27365D01*
X9159Y36199D01*
X9159Y35977D01*
X9706Y35977D01*
X9706Y35984D01*
X9806Y35984D01*
X9806Y35977D01*
X10353Y35977D01*
X10353Y36272D01*
X10288Y36496D01*
X10146Y36675D01*
X13853Y36675D01*
X13711Y36496D01*
X13647Y36272D01*
X13647Y35977D01*
X14194Y35977D01*
X14194Y35984D01*
X14294Y35984D01*
X14294Y35977D01*
X14841Y35977D01*
X14841Y36199D01*
X23675Y27365D01*
X23675Y745D01*
X23675Y745D01*
G37*
G54D11*
X23675Y745D02*
X23464Y534D01*
X23464Y27292D01*
X23441Y27407D01*
X23441Y27407D01*
X23376Y27505D01*
X23376Y27505D01*
X23376Y27505D01*
X22669Y28212D01*
X22669Y28212D01*
X22571Y28277D01*
X22457Y28300D01*
X22342Y28277D01*
X22244Y28212D01*
X21537Y27505D01*
X21472Y27407D01*
X21450Y27292D01*
X21472Y27178D01*
X21537Y27080D01*
X22244Y26373D01*
X22342Y26308D01*
X22457Y26285D01*
X22457Y26285D01*
X22571Y26308D01*
X22571Y26308D01*
X22669Y26373D01*
X22669Y26373D01*
X23376Y27080D01*
X23376Y27080D01*
X23376Y27080D01*
X23441Y27178D01*
X23441Y27178D01*
X23464Y27292D01*
X23464Y534D01*
X23254Y325D01*
X18865Y325D01*
X18865Y8171D01*
X18733Y8489D01*
X18500Y8723D01*
X18500Y9276D01*
X18732Y9509D01*
X18864Y9827D01*
X18865Y10171D01*
X18865Y28171D01*
X18733Y28489D01*
X18500Y28723D01*
X18500Y29276D01*
X18732Y29509D01*
X18864Y29827D01*
X18865Y30171D01*
X18733Y30489D01*
X18500Y30723D01*
X18500Y30999D01*
X18500Y31000D01*
X18500Y31000D01*
X18461Y31191D01*
X18353Y31353D01*
X16353Y33353D01*
X16191Y33461D01*
X16000Y33500D01*
X15999Y33500D01*
X14841Y33500D01*
X14841Y35582D01*
X14841Y35877D01*
X14294Y35877D01*
X14294Y35099D01*
X14386Y35052D01*
X14426Y35061D01*
X14630Y35174D01*
X14776Y35357D01*
X14841Y35582D01*
X14841Y33500D01*
X14207Y33500D01*
X13878Y33829D01*
X13878Y34789D01*
X13958Y34983D01*
X13959Y35118D01*
X14061Y35061D01*
X14101Y35052D01*
X14194Y35099D01*
X14194Y35877D01*
X13647Y35877D01*
X13647Y35617D01*
X13494Y35680D01*
X13289Y35681D01*
X13352Y35833D01*
X13352Y36019D01*
X13281Y36190D01*
X13150Y36322D01*
X12979Y36393D01*
X12793Y36393D01*
X12622Y36322D01*
X12490Y36191D01*
X12419Y36020D01*
X12419Y35834D01*
X12485Y35674D01*
X12394Y35692D01*
X12185Y35650D01*
X12008Y35532D01*
X12000Y35520D01*
X11991Y35532D01*
X11814Y35650D01*
X11606Y35692D01*
X11514Y35674D01*
X11580Y35833D01*
X11580Y36019D01*
X11509Y36190D01*
X11378Y36322D01*
X11207Y36393D01*
X11021Y36393D01*
X10850Y36322D01*
X10718Y36191D01*
X10647Y36020D01*
X10647Y35834D01*
X10710Y35681D01*
X10353Y35681D01*
X10353Y35877D01*
X9806Y35877D01*
X9806Y35099D01*
X9898Y35052D01*
X9938Y35061D01*
X10041Y35118D01*
X10041Y34719D01*
X10079Y34627D01*
X10122Y34584D01*
X10122Y33829D01*
X9792Y33500D01*
X9706Y33500D01*
X9706Y35099D01*
X9706Y35877D01*
X9159Y35877D01*
X9159Y35582D01*
X9223Y35357D01*
X9369Y35174D01*
X9573Y35061D01*
X9613Y35052D01*
X9706Y35099D01*
X9706Y33500D01*
X8000Y33500D01*
X8000Y33500D01*
X7808Y33461D01*
X7646Y33353D01*
X5646Y31353D01*
X5538Y31191D01*
X5499Y31000D01*
X5500Y30999D01*
X5500Y30723D01*
X5267Y30490D01*
X5135Y30172D01*
X5134Y29828D01*
X5266Y29510D01*
X5500Y29276D01*
X5500Y28723D01*
X5267Y28490D01*
X5135Y28172D01*
X5134Y27828D01*
X5266Y27510D01*
X5500Y27276D01*
X5500Y19652D01*
X5309Y19462D01*
X5185Y19162D01*
X5184Y18838D01*
X5308Y18538D01*
X5537Y18309D01*
X5837Y18185D01*
X6161Y18184D01*
X6461Y18308D01*
X6690Y18537D01*
X6814Y18837D01*
X6815Y19161D01*
X6691Y19461D01*
X6500Y19652D01*
X6500Y27276D01*
X6732Y27509D01*
X6864Y27827D01*
X6865Y28171D01*
X6733Y28489D01*
X6500Y28723D01*
X6500Y29276D01*
X6732Y29509D01*
X6864Y29827D01*
X6865Y30171D01*
X6733Y30489D01*
X6500Y30723D01*
X6500Y30792D01*
X8207Y32500D01*
X9999Y32500D01*
X10000Y32499D01*
X10000Y32500D01*
X10191Y32538D01*
X10353Y32646D01*
X10975Y33268D01*
X10975Y33268D01*
X10975Y33268D01*
X11083Y33430D01*
X11122Y33622D01*
X11122Y33622D01*
X11122Y33622D01*
X11122Y34584D01*
X11164Y34627D01*
X11196Y34703D01*
X11220Y34667D01*
X11256Y34643D01*
X11256Y32750D01*
X9752Y31247D01*
X9676Y31133D01*
X9650Y31000D01*
X9650Y30791D01*
X9510Y30733D01*
X9267Y30490D01*
X9135Y30172D01*
X9134Y29828D01*
X9266Y29510D01*
X9500Y29276D01*
X9500Y28723D01*
X9267Y28490D01*
X9135Y28172D01*
X9134Y27828D01*
X9266Y27510D01*
X9509Y27267D01*
X9650Y27208D01*
X9650Y19737D01*
X9538Y19691D01*
X9309Y19462D01*
X9185Y19162D01*
X9184Y18838D01*
X9308Y18538D01*
X9537Y18309D01*
X9837Y18185D01*
X10161Y18184D01*
X10461Y18308D01*
X10690Y18537D01*
X10814Y18837D01*
X10815Y19161D01*
X10691Y19461D01*
X10462Y19690D01*
X10350Y19737D01*
X10350Y27208D01*
X10489Y27266D01*
X10732Y27509D01*
X10864Y27827D01*
X10865Y28171D01*
X10733Y28489D01*
X10500Y28723D01*
X10500Y29276D01*
X10732Y29509D01*
X10864Y29827D01*
X10865Y30171D01*
X10733Y30489D01*
X10490Y30732D01*
X10350Y30791D01*
X10350Y30855D01*
X11853Y32358D01*
X11929Y32472D01*
X11929Y32472D01*
X11956Y32606D01*
X11956Y34643D01*
X11991Y34667D01*
X12000Y34679D01*
X12008Y34667D01*
X12044Y34643D01*
X12044Y32606D01*
X12070Y32472D01*
X12146Y32358D01*
X13650Y30855D01*
X13650Y30791D01*
X13510Y30733D01*
X13267Y30490D01*
X13135Y30172D01*
X13134Y29828D01*
X13266Y29510D01*
X13500Y29276D01*
X13500Y28723D01*
X13267Y28490D01*
X13135Y28172D01*
X13134Y27828D01*
X13266Y27510D01*
X13509Y27267D01*
X13650Y27208D01*
X13650Y19737D01*
X13538Y19691D01*
X13309Y19462D01*
X13185Y19162D01*
X13184Y18838D01*
X13308Y18538D01*
X13537Y18309D01*
X13837Y18185D01*
X14161Y18184D01*
X14461Y18308D01*
X14690Y18537D01*
X14814Y18837D01*
X14815Y19161D01*
X14691Y19461D01*
X14462Y19690D01*
X14350Y19737D01*
X14350Y27208D01*
X14489Y27266D01*
X14732Y27509D01*
X14864Y27827D01*
X14865Y28171D01*
X14733Y28489D01*
X14500Y28723D01*
X14500Y29276D01*
X14732Y29509D01*
X14864Y29827D01*
X14865Y30171D01*
X14733Y30489D01*
X14490Y30732D01*
X14350Y30791D01*
X14350Y31000D01*
X14323Y31133D01*
X14323Y31133D01*
X14247Y31247D01*
X12744Y32750D01*
X12744Y34643D01*
X12779Y34667D01*
X12871Y34804D01*
X12878Y34788D01*
X12878Y33622D01*
X12877Y33622D01*
X12916Y33430D01*
X13024Y33268D01*
X13646Y32646D01*
X13646Y32646D01*
X13646Y32646D01*
X13808Y32538D01*
X14000Y32499D01*
X14000Y32500D01*
X14000Y32500D01*
X15792Y32500D01*
X17500Y30792D01*
X17500Y30723D01*
X17267Y30490D01*
X17135Y30172D01*
X17134Y29828D01*
X17266Y29510D01*
X17500Y29276D01*
X17500Y28723D01*
X17267Y28490D01*
X17135Y28172D01*
X17134Y27828D01*
X17266Y27510D01*
X17500Y27276D01*
X17500Y19652D01*
X17309Y19462D01*
X17185Y19162D01*
X17184Y18838D01*
X17308Y18538D01*
X17537Y18309D01*
X17837Y18185D01*
X18161Y18184D01*
X18461Y18308D01*
X18690Y18537D01*
X18814Y18837D01*
X18815Y19161D01*
X18691Y19461D01*
X18500Y19652D01*
X18500Y27276D01*
X18732Y27509D01*
X18864Y27827D01*
X18865Y28171D01*
X18865Y10171D01*
X18733Y10489D01*
X18500Y10723D01*
X18500Y16497D01*
X18690Y16687D01*
X18814Y16987D01*
X18815Y17311D01*
X18691Y17611D01*
X18462Y17840D01*
X18162Y17964D01*
X17838Y17965D01*
X17538Y17841D01*
X17309Y17612D01*
X17185Y17312D01*
X17184Y16988D01*
X17308Y16688D01*
X17500Y16497D01*
X17500Y10723D01*
X17267Y10490D01*
X17135Y10172D01*
X17134Y9828D01*
X17266Y9510D01*
X17500Y9276D01*
X17500Y8723D01*
X17267Y8490D01*
X17135Y8172D01*
X17134Y7828D01*
X17266Y7510D01*
X17500Y7276D01*
X17500Y7207D01*
X15792Y5500D01*
X14000Y5500D01*
X13808Y5461D01*
X13646Y5353D01*
X13646Y5353D01*
X13046Y4753D01*
X12938Y4591D01*
X12899Y4400D01*
X12900Y4399D01*
X12900Y3310D01*
X12887Y3280D01*
X12785Y3432D01*
X12750Y3456D01*
X12750Y5255D01*
X14247Y6752D01*
X14323Y6866D01*
X14323Y6866D01*
X14350Y7000D01*
X14350Y7208D01*
X14489Y7266D01*
X14732Y7509D01*
X14864Y7827D01*
X14865Y8171D01*
X14733Y8489D01*
X14500Y8723D01*
X14500Y9276D01*
X14732Y9509D01*
X14864Y9827D01*
X14865Y10171D01*
X14733Y10489D01*
X14490Y10732D01*
X14350Y10791D01*
X14350Y16412D01*
X14461Y16458D01*
X14690Y16687D01*
X14814Y16987D01*
X14815Y17311D01*
X14691Y17611D01*
X14462Y17840D01*
X14162Y17964D01*
X13838Y17965D01*
X13538Y17841D01*
X13309Y17612D01*
X13185Y17312D01*
X13184Y16988D01*
X13308Y16688D01*
X13537Y16459D01*
X13650Y16412D01*
X13650Y10791D01*
X13510Y10733D01*
X13267Y10490D01*
X13135Y10172D01*
X13134Y9828D01*
X13266Y9510D01*
X13500Y9276D01*
X13500Y8723D01*
X13267Y8490D01*
X13135Y8172D01*
X13134Y7828D01*
X13266Y7510D01*
X13509Y7267D01*
X13650Y7208D01*
X13650Y7144D01*
X12152Y5647D01*
X12076Y5533D01*
X12050Y5400D01*
X12050Y3456D01*
X12014Y3432D01*
X12000Y3411D01*
X11985Y3432D01*
X11950Y3456D01*
X11950Y5400D01*
X11923Y5533D01*
X11923Y5533D01*
X11847Y5647D01*
X10350Y7144D01*
X10350Y7208D01*
X10489Y7266D01*
X10732Y7509D01*
X10864Y7827D01*
X10865Y8171D01*
X10733Y8489D01*
X10500Y8723D01*
X10500Y9276D01*
X10732Y9509D01*
X10864Y9827D01*
X10865Y10171D01*
X10733Y10489D01*
X10490Y10732D01*
X10350Y10791D01*
X10350Y16412D01*
X10461Y16458D01*
X10690Y16687D01*
X10814Y16987D01*
X10815Y17311D01*
X10691Y17611D01*
X10462Y17840D01*
X10162Y17964D01*
X9838Y17965D01*
X9538Y17841D01*
X9309Y17612D01*
X9185Y17312D01*
X9184Y16988D01*
X9308Y16688D01*
X9537Y16459D01*
X9650Y16412D01*
X9650Y10791D01*
X9510Y10733D01*
X9267Y10490D01*
X9135Y10172D01*
X9134Y9828D01*
X9266Y9510D01*
X9500Y9276D01*
X9500Y8723D01*
X9267Y8490D01*
X9135Y8172D01*
X9134Y7828D01*
X9266Y7510D01*
X9509Y7267D01*
X9650Y7208D01*
X9650Y7000D01*
X9676Y6866D01*
X9752Y6752D01*
X11250Y5255D01*
X11250Y3456D01*
X11214Y3432D01*
X11180Y3382D01*
X11142Y3472D01*
X11100Y3515D01*
X11100Y4400D01*
X11061Y4591D01*
X10953Y4753D01*
X10953Y4753D01*
X10353Y5353D01*
X10191Y5461D01*
X10000Y5500D01*
X9999Y5500D01*
X8207Y5500D01*
X6500Y7207D01*
X6500Y7276D01*
X6732Y7509D01*
X6864Y7827D01*
X6865Y8171D01*
X6733Y8489D01*
X6500Y8723D01*
X6500Y9276D01*
X6732Y9509D01*
X6864Y9827D01*
X6865Y10171D01*
X6733Y10489D01*
X6500Y10723D01*
X6500Y16497D01*
X6690Y16687D01*
X6814Y16987D01*
X6815Y17311D01*
X6691Y17611D01*
X6462Y17840D01*
X6162Y17964D01*
X5838Y17965D01*
X5538Y17841D01*
X5309Y17612D01*
X5185Y17312D01*
X5184Y16988D01*
X5308Y16688D01*
X5500Y16497D01*
X5500Y10723D01*
X5267Y10490D01*
X5135Y10172D01*
X5134Y9828D01*
X5266Y9510D01*
X5500Y9276D01*
X5500Y8723D01*
X5267Y8490D01*
X5135Y8172D01*
X5134Y7828D01*
X5266Y7510D01*
X5500Y7276D01*
X5500Y7000D01*
X5499Y7000D01*
X5538Y6808D01*
X5646Y6646D01*
X7646Y4646D01*
X7808Y4538D01*
X8000Y4499D01*
X8000Y4500D01*
X8000Y4500D01*
X9792Y4500D01*
X10100Y4192D01*
X10100Y3515D01*
X10057Y3472D01*
X10019Y3380D01*
X10019Y3281D01*
X10019Y2619D01*
X10057Y2527D01*
X10127Y2457D01*
X10219Y2419D01*
X10318Y2419D01*
X10980Y2419D01*
X11072Y2457D01*
X11142Y2527D01*
X11180Y2617D01*
X11214Y2567D01*
X11391Y2449D01*
X11600Y2407D01*
X11808Y2449D01*
X11985Y2567D01*
X12000Y2588D01*
X12014Y2567D01*
X12191Y2449D01*
X12400Y2407D01*
X12608Y2449D01*
X12785Y2567D01*
X12887Y2719D01*
X12907Y2671D01*
X13070Y2507D01*
X13283Y2419D01*
X13515Y2418D01*
X13728Y2507D01*
X13892Y2670D01*
X13980Y2883D01*
X13981Y3115D01*
X13900Y3311D01*
X13900Y4192D01*
X14207Y4500D01*
X15999Y4500D01*
X16000Y4499D01*
X16000Y4500D01*
X16191Y4538D01*
X16353Y4646D01*
X18353Y6646D01*
X18461Y6808D01*
X18500Y7000D01*
X18500Y7000D01*
X18500Y7000D01*
X18500Y7276D01*
X18732Y7509D01*
X18864Y7827D01*
X18865Y8171D01*
X18865Y325D01*
X15442Y325D01*
X15442Y1778D01*
X15436Y2118D01*
X15318Y2402D01*
X15192Y2467D01*
X15121Y2396D01*
X15121Y2538D01*
X15056Y2664D01*
X14741Y2788D01*
X14401Y2782D01*
X14117Y2664D01*
X14052Y2538D01*
X14587Y2003D01*
X15121Y2538D01*
X15121Y2396D01*
X14657Y1933D01*
X15192Y1398D01*
X15318Y1463D01*
X15442Y1778D01*
X15442Y325D01*
X15121Y325D01*
X15121Y1327D01*
X14587Y1862D01*
X14516Y1791D01*
X14516Y1933D01*
X13981Y2467D01*
X13855Y2402D01*
X13731Y2087D01*
X13737Y1747D01*
X13855Y1463D01*
X13981Y1398D01*
X14516Y1933D01*
X14516Y1791D01*
X14052Y1327D01*
X14117Y1201D01*
X14432Y1077D01*
X14772Y1083D01*
X15056Y1201D01*
X15121Y1327D01*
X15121Y325D01*
X10268Y325D01*
X10268Y1778D01*
X10262Y2118D01*
X10144Y2402D01*
X10018Y2467D01*
X9947Y2396D01*
X9947Y2538D01*
X9882Y2664D01*
X9567Y2788D01*
X9227Y2782D01*
X8943Y2664D01*
X8878Y2538D01*
X9413Y2003D01*
X9947Y2538D01*
X9947Y2396D01*
X9483Y1933D01*
X10018Y1398D01*
X10144Y1463D01*
X10268Y1778D01*
X10268Y325D01*
X9947Y325D01*
X9947Y1327D01*
X9413Y1862D01*
X9342Y1791D01*
X9342Y1933D01*
X8807Y2467D01*
X8681Y2402D01*
X8557Y2087D01*
X8563Y1747D01*
X8681Y1463D01*
X8807Y1398D01*
X9342Y1933D01*
X9342Y1791D01*
X8878Y1327D01*
X8943Y1201D01*
X9258Y1077D01*
X9598Y1083D01*
X9882Y1201D01*
X9947Y1327D01*
X9947Y325D01*
X745Y325D01*
X325Y745D01*
X325Y27365D01*
X9159Y36199D01*
X9159Y35977D01*
X9706Y35977D01*
X9706Y35984D01*
X9806Y35984D01*
X9806Y35977D01*
X10353Y35977D01*
X10353Y36272D01*
X10288Y36496D01*
X10146Y36675D01*
X13853Y36675D01*
X13711Y36496D01*
X13647Y36272D01*
X13647Y35977D01*
X14194Y35977D01*
X14194Y35984D01*
X14294Y35984D01*
X14294Y35977D01*
X14841Y35977D01*
X14841Y36199D01*
X23675Y27365D01*
X23675Y745D01*
M02*
