M48
;DRILL file {pcbnew (2014-04-11 BZR 4798)-product} date 21/04/2014 04:42:05
;FORMAT={2:4/ absolute / inch / keep zeros}
FMAT,2
INCH,TZ
T1C0.036
T2C0.039
T3C0.063
T4C0.073
T5C0.091
%
G90
G05
M72
T1
X010600Y003000
X010622Y035100
X011600Y003000
X011606Y035100
X012394Y035100
X012400Y003000
X013378Y035100
X013400Y003000
T3
X006000Y030000
X006000Y028000
X006000Y010000
X006000Y008000
X010000Y030000
X010000Y028000
X010000Y010000
X010000Y008000
X014000Y030000
X014000Y028000
X014000Y010000
X014000Y008000
X018000Y030000
X018000Y028000
X018000Y010000
X018000Y008000
T4
X006000Y019000
X006000Y017150
X010000Y019000
X010000Y017150
X014000Y019000
X014000Y017150
X018000Y019000
X018000Y017150
T5
X009413Y001933
X014587Y001933
T2
X009756Y035632G85X009756Y036222
G05
X014244Y035632G85X014244Y036222
G05
T0
M30
