G04 (created by PCBNEW (2012-01-19 BZR 3256)-stable) date 15/08/2012 23:22:33*
G01*
G70*
G90*
%MOIN*%
G04 Gerber Fmt 3.4, Leading zero omitted, Abs format*
%FSLAX34Y34*%
G04 APERTURE LIST*
%ADD10C,0.001000*%
%ADD11C,0.010000*%
%ADD12C,0.015000*%
%ADD13C,0.008000*%
G04 APERTURE END LIST*
G54D10*
G54D11*
X38562Y-22250D02*
X38556Y-22310D01*
X38538Y-22368D01*
X38509Y-22422D01*
X38471Y-22469D01*
X38424Y-22508D01*
X38370Y-22537D01*
X38312Y-22555D01*
X38252Y-22561D01*
X38192Y-22556D01*
X38134Y-22539D01*
X38080Y-22511D01*
X38032Y-22472D01*
X37993Y-22426D01*
X37964Y-22372D01*
X37945Y-22314D01*
X37939Y-22254D01*
X37944Y-22194D01*
X37960Y-22136D01*
X37988Y-22081D01*
X38026Y-22034D01*
X38072Y-21994D01*
X38126Y-21965D01*
X38184Y-21946D01*
X38244Y-21939D01*
X38304Y-21943D01*
X38362Y-21960D01*
X38417Y-21987D01*
X38465Y-22025D01*
X38504Y-22071D01*
X38535Y-22124D01*
X38554Y-22181D01*
X38561Y-22242D01*
X38562Y-22250D01*
X37375Y-21375D02*
X39125Y-23125D01*
X37375Y-23125D02*
X39125Y-21375D01*
X38875Y-01750D02*
X38863Y-01871D01*
X38827Y-01988D01*
X38770Y-02095D01*
X38693Y-02190D01*
X38599Y-02268D01*
X38492Y-02326D01*
X38375Y-02362D01*
X38254Y-02374D01*
X38133Y-02363D01*
X38016Y-02329D01*
X37908Y-02272D01*
X37813Y-02196D01*
X37735Y-02103D01*
X37676Y-01996D01*
X37639Y-01879D01*
X37626Y-01758D01*
X37636Y-01638D01*
X37669Y-01520D01*
X37725Y-01412D01*
X37801Y-01316D01*
X37894Y-01237D01*
X38000Y-01178D01*
X38116Y-01140D01*
X38237Y-01126D01*
X38358Y-01135D01*
X38476Y-01168D01*
X38584Y-01223D01*
X38681Y-01298D01*
X38760Y-01390D01*
X38820Y-01496D01*
X38859Y-01612D01*
X38874Y-01733D01*
X38875Y-01750D01*
X37000Y-01750D02*
X39500Y-01750D01*
X38250Y-00500D02*
X38250Y-03000D01*
G54D12*
X40000Y-24000D02*
X00000Y-24000D01*
X00000Y00000D02*
X40000Y00000D01*
X00000Y-24000D02*
X00000Y00000D01*
X40000Y00000D02*
X40000Y-24000D01*
G54D10*
X02819Y-10419D02*
X03181Y-10781D01*
X03181Y-10419D02*
X02819Y-10781D01*
X02819Y-11419D02*
X03181Y-11781D01*
X03181Y-11419D02*
X02819Y-11781D01*
X02819Y-12219D02*
X03181Y-12581D01*
X03181Y-12219D02*
X02819Y-12581D01*
X02819Y-13219D02*
X03181Y-13581D01*
X03181Y-13219D02*
X02819Y-13581D01*
X37919Y-10441D02*
X38281Y-10803D01*
X38281Y-10441D02*
X37919Y-10803D01*
X37919Y-11425D02*
X38281Y-11787D01*
X38281Y-11425D02*
X37919Y-11787D01*
X37919Y-12213D02*
X38281Y-12575D01*
X38281Y-12213D02*
X37919Y-12575D01*
X37919Y-13197D02*
X38281Y-13559D01*
X38281Y-13197D02*
X37919Y-13559D01*
X39124Y-09756D02*
X39120Y-09794D01*
X39109Y-09831D01*
X39091Y-09865D01*
X39066Y-09894D01*
X39037Y-09919D01*
X39003Y-09937D01*
X38966Y-09948D01*
X38928Y-09952D01*
X38891Y-09949D01*
X38854Y-09938D01*
X38820Y-09920D01*
X38790Y-09896D01*
X38765Y-09867D01*
X38746Y-09833D01*
X38735Y-09796D01*
X38731Y-09758D01*
X38734Y-09721D01*
X38744Y-09684D01*
X38762Y-09650D01*
X38786Y-09620D01*
X38815Y-09595D01*
X38849Y-09576D01*
X38885Y-09564D01*
X38923Y-09560D01*
X38961Y-09562D01*
X38998Y-09573D01*
X39032Y-09590D01*
X39062Y-09614D01*
X39087Y-09643D01*
X39106Y-09676D01*
X39119Y-09713D01*
X39123Y-09751D01*
X39124Y-09756D01*
X38632Y-09948D02*
X39222Y-09948D01*
X38632Y-09564D02*
X39222Y-09564D01*
X39222Y-09948D02*
X39238Y-09947D01*
X39255Y-09945D01*
X39271Y-09941D01*
X39287Y-09936D01*
X39303Y-09930D01*
X39318Y-09922D01*
X39332Y-09913D01*
X39345Y-09903D01*
X39357Y-09891D01*
X39369Y-09879D01*
X39379Y-09866D01*
X39388Y-09852D01*
X39396Y-09837D01*
X39402Y-09821D01*
X39407Y-09805D01*
X39411Y-09789D01*
X39413Y-09772D01*
X39414Y-09756D01*
X39413Y-09740D01*
X39411Y-09723D01*
X39407Y-09707D01*
X39402Y-09691D01*
X39396Y-09675D01*
X39388Y-09660D01*
X39379Y-09646D01*
X39369Y-09633D01*
X39357Y-09621D01*
X39345Y-09609D01*
X39332Y-09599D01*
X39318Y-09590D01*
X39303Y-09582D01*
X39287Y-09576D01*
X39271Y-09571D01*
X39255Y-09567D01*
X39238Y-09565D01*
X39222Y-09564D01*
X38632Y-09564D02*
X38616Y-09565D01*
X38599Y-09567D01*
X38583Y-09571D01*
X38567Y-09576D01*
X38551Y-09582D01*
X38537Y-09590D01*
X38522Y-09599D01*
X38509Y-09609D01*
X38497Y-09621D01*
X38485Y-09633D01*
X38475Y-09646D01*
X38466Y-09661D01*
X38458Y-09675D01*
X38452Y-09691D01*
X38447Y-09707D01*
X38443Y-09723D01*
X38441Y-09740D01*
X38440Y-09756D01*
X38441Y-09772D01*
X38443Y-09789D01*
X38447Y-09805D01*
X38452Y-09821D01*
X38458Y-09837D01*
X38466Y-09851D01*
X38475Y-09866D01*
X38485Y-09879D01*
X38497Y-09891D01*
X38509Y-09903D01*
X38522Y-09913D01*
X38536Y-09922D01*
X38551Y-09930D01*
X38567Y-09936D01*
X38583Y-09941D01*
X38599Y-09945D01*
X38616Y-09947D01*
X38632Y-09948D01*
X39124Y-14244D02*
X39120Y-14282D01*
X39109Y-14319D01*
X39091Y-14353D01*
X39066Y-14382D01*
X39037Y-14407D01*
X39003Y-14425D01*
X38966Y-14436D01*
X38928Y-14440D01*
X38891Y-14437D01*
X38854Y-14426D01*
X38820Y-14408D01*
X38790Y-14384D01*
X38765Y-14355D01*
X38746Y-14321D01*
X38735Y-14284D01*
X38731Y-14246D01*
X38734Y-14209D01*
X38744Y-14172D01*
X38762Y-14138D01*
X38786Y-14108D01*
X38815Y-14083D01*
X38849Y-14064D01*
X38885Y-14052D01*
X38923Y-14048D01*
X38961Y-14050D01*
X38998Y-14061D01*
X39032Y-14078D01*
X39062Y-14102D01*
X39087Y-14131D01*
X39106Y-14164D01*
X39119Y-14201D01*
X39123Y-14239D01*
X39124Y-14244D01*
X38632Y-14436D02*
X39222Y-14436D01*
X38632Y-14052D02*
X39222Y-14052D01*
X39222Y-14436D02*
X39238Y-14435D01*
X39255Y-14433D01*
X39271Y-14429D01*
X39287Y-14424D01*
X39303Y-14418D01*
X39318Y-14410D01*
X39332Y-14401D01*
X39345Y-14391D01*
X39357Y-14379D01*
X39369Y-14367D01*
X39379Y-14354D01*
X39388Y-14340D01*
X39396Y-14325D01*
X39402Y-14309D01*
X39407Y-14293D01*
X39411Y-14277D01*
X39413Y-14260D01*
X39414Y-14244D01*
X39413Y-14228D01*
X39411Y-14211D01*
X39407Y-14195D01*
X39402Y-14179D01*
X39396Y-14163D01*
X39388Y-14148D01*
X39379Y-14134D01*
X39369Y-14121D01*
X39357Y-14109D01*
X39345Y-14097D01*
X39332Y-14087D01*
X39318Y-14078D01*
X39303Y-14070D01*
X39287Y-14064D01*
X39271Y-14059D01*
X39255Y-14055D01*
X39238Y-14053D01*
X39222Y-14052D01*
X38632Y-14052D02*
X38616Y-14053D01*
X38599Y-14055D01*
X38583Y-14059D01*
X38567Y-14064D01*
X38551Y-14070D01*
X38537Y-14078D01*
X38522Y-14087D01*
X38509Y-14097D01*
X38497Y-14109D01*
X38485Y-14121D01*
X38475Y-14134D01*
X38466Y-14149D01*
X38458Y-14163D01*
X38452Y-14179D01*
X38447Y-14195D01*
X38443Y-14211D01*
X38441Y-14228D01*
X38440Y-14244D01*
X38441Y-14260D01*
X38443Y-14277D01*
X38447Y-14293D01*
X38452Y-14309D01*
X38458Y-14325D01*
X38466Y-14339D01*
X38475Y-14354D01*
X38485Y-14367D01*
X38497Y-14379D01*
X38509Y-14391D01*
X38522Y-14401D01*
X38536Y-14410D01*
X38551Y-14418D01*
X38567Y-14424D01*
X38583Y-14429D01*
X38599Y-14433D01*
X38616Y-14435D01*
X38632Y-14436D01*
X38927Y-10898D02*
X38927Y-11330D01*
X39143Y-11114D02*
X38711Y-11114D01*
X38986Y-12611D02*
X38986Y-13043D01*
X39202Y-12827D02*
X38770Y-12827D01*
X08315Y-02000D02*
X08309Y-02061D01*
X08291Y-02120D01*
X08262Y-02174D01*
X08223Y-02221D01*
X08176Y-02261D01*
X08122Y-02290D01*
X08063Y-02308D01*
X08002Y-02314D01*
X07941Y-02309D01*
X07882Y-02292D01*
X07828Y-02263D01*
X07780Y-02225D01*
X07741Y-02177D01*
X07711Y-02124D01*
X07692Y-02065D01*
X07686Y-02004D01*
X07691Y-01944D01*
X07708Y-01885D01*
X07736Y-01830D01*
X07774Y-01782D01*
X07821Y-01742D01*
X07874Y-01712D01*
X07933Y-01693D01*
X07994Y-01686D01*
X08054Y-01690D01*
X08113Y-01707D01*
X08168Y-01735D01*
X08217Y-01772D01*
X08257Y-01819D01*
X08287Y-01872D01*
X08307Y-01931D01*
X08314Y-01992D01*
X08315Y-02000D01*
X07685Y-01685D02*
X08315Y-02315D01*
X08315Y-01685D02*
X07685Y-02315D01*
X08315Y-04000D02*
X08309Y-04061D01*
X08291Y-04120D01*
X08262Y-04174D01*
X08223Y-04221D01*
X08176Y-04261D01*
X08122Y-04290D01*
X08063Y-04308D01*
X08002Y-04314D01*
X07941Y-04309D01*
X07882Y-04292D01*
X07828Y-04263D01*
X07780Y-04225D01*
X07741Y-04177D01*
X07711Y-04124D01*
X07692Y-04065D01*
X07686Y-04004D01*
X07691Y-03944D01*
X07708Y-03885D01*
X07736Y-03830D01*
X07774Y-03782D01*
X07821Y-03742D01*
X07874Y-03712D01*
X07933Y-03693D01*
X07994Y-03686D01*
X08054Y-03690D01*
X08113Y-03707D01*
X08168Y-03735D01*
X08217Y-03772D01*
X08257Y-03819D01*
X08287Y-03872D01*
X08307Y-03931D01*
X08314Y-03992D01*
X08315Y-04000D01*
X07685Y-03685D02*
X08315Y-04315D01*
X08315Y-03685D02*
X07685Y-04315D01*
X08315Y-08000D02*
X08309Y-08061D01*
X08291Y-08120D01*
X08262Y-08174D01*
X08223Y-08221D01*
X08176Y-08261D01*
X08122Y-08290D01*
X08063Y-08308D01*
X08002Y-08314D01*
X07941Y-08309D01*
X07882Y-08292D01*
X07828Y-08263D01*
X07780Y-08225D01*
X07741Y-08177D01*
X07711Y-08124D01*
X07692Y-08065D01*
X07686Y-08004D01*
X07691Y-07944D01*
X07708Y-07885D01*
X07736Y-07830D01*
X07774Y-07782D01*
X07821Y-07742D01*
X07874Y-07712D01*
X07933Y-07693D01*
X07994Y-07686D01*
X08054Y-07690D01*
X08113Y-07707D01*
X08168Y-07735D01*
X08217Y-07772D01*
X08257Y-07819D01*
X08287Y-07872D01*
X08307Y-07931D01*
X08314Y-07992D01*
X08315Y-08000D01*
X07685Y-07685D02*
X08315Y-08315D01*
X08315Y-07685D02*
X07685Y-08315D01*
X08315Y-10000D02*
X08309Y-10061D01*
X08291Y-10120D01*
X08262Y-10174D01*
X08223Y-10221D01*
X08176Y-10261D01*
X08122Y-10290D01*
X08063Y-10308D01*
X08002Y-10314D01*
X07941Y-10309D01*
X07882Y-10292D01*
X07828Y-10263D01*
X07780Y-10225D01*
X07741Y-10177D01*
X07711Y-10124D01*
X07692Y-10065D01*
X07686Y-10004D01*
X07691Y-09944D01*
X07708Y-09885D01*
X07736Y-09830D01*
X07774Y-09782D01*
X07821Y-09742D01*
X07874Y-09712D01*
X07933Y-09693D01*
X07994Y-09686D01*
X08054Y-09690D01*
X08113Y-09707D01*
X08168Y-09735D01*
X08217Y-09772D01*
X08257Y-09819D01*
X08287Y-09872D01*
X08307Y-09931D01*
X08314Y-09992D01*
X08315Y-10000D01*
X07685Y-09685D02*
X08315Y-10315D01*
X08315Y-09685D02*
X07685Y-10315D01*
X08315Y-14000D02*
X08309Y-14061D01*
X08291Y-14120D01*
X08262Y-14174D01*
X08223Y-14221D01*
X08176Y-14261D01*
X08122Y-14290D01*
X08063Y-14308D01*
X08002Y-14314D01*
X07941Y-14309D01*
X07882Y-14292D01*
X07828Y-14263D01*
X07780Y-14225D01*
X07741Y-14177D01*
X07711Y-14124D01*
X07692Y-14065D01*
X07686Y-14004D01*
X07691Y-13944D01*
X07708Y-13885D01*
X07736Y-13830D01*
X07774Y-13782D01*
X07821Y-13742D01*
X07874Y-13712D01*
X07933Y-13693D01*
X07994Y-13686D01*
X08054Y-13690D01*
X08113Y-13707D01*
X08168Y-13735D01*
X08217Y-13772D01*
X08257Y-13819D01*
X08287Y-13872D01*
X08307Y-13931D01*
X08314Y-13992D01*
X08315Y-14000D01*
X07685Y-13685D02*
X08315Y-14315D01*
X08315Y-13685D02*
X07685Y-14315D01*
X08315Y-16000D02*
X08309Y-16061D01*
X08291Y-16120D01*
X08262Y-16174D01*
X08223Y-16221D01*
X08176Y-16261D01*
X08122Y-16290D01*
X08063Y-16308D01*
X08002Y-16314D01*
X07941Y-16309D01*
X07882Y-16292D01*
X07828Y-16263D01*
X07780Y-16225D01*
X07741Y-16177D01*
X07711Y-16124D01*
X07692Y-16065D01*
X07686Y-16004D01*
X07691Y-15944D01*
X07708Y-15885D01*
X07736Y-15830D01*
X07774Y-15782D01*
X07821Y-15742D01*
X07874Y-15712D01*
X07933Y-15693D01*
X07994Y-15686D01*
X08054Y-15690D01*
X08113Y-15707D01*
X08168Y-15735D01*
X08217Y-15772D01*
X08257Y-15819D01*
X08287Y-15872D01*
X08307Y-15931D01*
X08314Y-15992D01*
X08315Y-16000D01*
X07685Y-15685D02*
X08315Y-16315D01*
X08315Y-15685D02*
X07685Y-16315D01*
X08315Y-20000D02*
X08309Y-20061D01*
X08291Y-20120D01*
X08262Y-20174D01*
X08223Y-20221D01*
X08176Y-20261D01*
X08122Y-20290D01*
X08063Y-20308D01*
X08002Y-20314D01*
X07941Y-20309D01*
X07882Y-20292D01*
X07828Y-20263D01*
X07780Y-20225D01*
X07741Y-20177D01*
X07711Y-20124D01*
X07692Y-20065D01*
X07686Y-20004D01*
X07691Y-19944D01*
X07708Y-19885D01*
X07736Y-19830D01*
X07774Y-19782D01*
X07821Y-19742D01*
X07874Y-19712D01*
X07933Y-19693D01*
X07994Y-19686D01*
X08054Y-19690D01*
X08113Y-19707D01*
X08168Y-19735D01*
X08217Y-19772D01*
X08257Y-19819D01*
X08287Y-19872D01*
X08307Y-19931D01*
X08314Y-19992D01*
X08315Y-20000D01*
X07685Y-19685D02*
X08315Y-20315D01*
X08315Y-19685D02*
X07685Y-20315D01*
X08315Y-22000D02*
X08309Y-22061D01*
X08291Y-22120D01*
X08262Y-22174D01*
X08223Y-22221D01*
X08176Y-22261D01*
X08122Y-22290D01*
X08063Y-22308D01*
X08002Y-22314D01*
X07941Y-22309D01*
X07882Y-22292D01*
X07828Y-22263D01*
X07780Y-22225D01*
X07741Y-22177D01*
X07711Y-22124D01*
X07692Y-22065D01*
X07686Y-22004D01*
X07691Y-21944D01*
X07708Y-21885D01*
X07736Y-21830D01*
X07774Y-21782D01*
X07821Y-21742D01*
X07874Y-21712D01*
X07933Y-21693D01*
X07994Y-21686D01*
X08054Y-21690D01*
X08113Y-21707D01*
X08168Y-21735D01*
X08217Y-21772D01*
X08257Y-21819D01*
X08287Y-21872D01*
X08307Y-21931D01*
X08314Y-21992D01*
X08315Y-22000D01*
X07685Y-21685D02*
X08315Y-22315D01*
X08315Y-21685D02*
X07685Y-22315D01*
X32315Y-02000D02*
X32309Y-02061D01*
X32291Y-02120D01*
X32262Y-02174D01*
X32223Y-02221D01*
X32176Y-02261D01*
X32122Y-02290D01*
X32063Y-02308D01*
X32002Y-02314D01*
X31941Y-02309D01*
X31882Y-02292D01*
X31828Y-02263D01*
X31780Y-02225D01*
X31741Y-02177D01*
X31711Y-02124D01*
X31692Y-02065D01*
X31686Y-02004D01*
X31691Y-01944D01*
X31708Y-01885D01*
X31736Y-01830D01*
X31774Y-01782D01*
X31821Y-01742D01*
X31874Y-01712D01*
X31933Y-01693D01*
X31994Y-01686D01*
X32054Y-01690D01*
X32113Y-01707D01*
X32168Y-01735D01*
X32217Y-01772D01*
X32257Y-01819D01*
X32287Y-01872D01*
X32307Y-01931D01*
X32314Y-01992D01*
X32315Y-02000D01*
X31685Y-01685D02*
X32315Y-02315D01*
X32315Y-01685D02*
X31685Y-02315D01*
X32315Y-04000D02*
X32309Y-04061D01*
X32291Y-04120D01*
X32262Y-04174D01*
X32223Y-04221D01*
X32176Y-04261D01*
X32122Y-04290D01*
X32063Y-04308D01*
X32002Y-04314D01*
X31941Y-04309D01*
X31882Y-04292D01*
X31828Y-04263D01*
X31780Y-04225D01*
X31741Y-04177D01*
X31711Y-04124D01*
X31692Y-04065D01*
X31686Y-04004D01*
X31691Y-03944D01*
X31708Y-03885D01*
X31736Y-03830D01*
X31774Y-03782D01*
X31821Y-03742D01*
X31874Y-03712D01*
X31933Y-03693D01*
X31994Y-03686D01*
X32054Y-03690D01*
X32113Y-03707D01*
X32168Y-03735D01*
X32217Y-03772D01*
X32257Y-03819D01*
X32287Y-03872D01*
X32307Y-03931D01*
X32314Y-03992D01*
X32315Y-04000D01*
X31685Y-03685D02*
X32315Y-04315D01*
X32315Y-03685D02*
X31685Y-04315D01*
X32315Y-08000D02*
X32309Y-08061D01*
X32291Y-08120D01*
X32262Y-08174D01*
X32223Y-08221D01*
X32176Y-08261D01*
X32122Y-08290D01*
X32063Y-08308D01*
X32002Y-08314D01*
X31941Y-08309D01*
X31882Y-08292D01*
X31828Y-08263D01*
X31780Y-08225D01*
X31741Y-08177D01*
X31711Y-08124D01*
X31692Y-08065D01*
X31686Y-08004D01*
X31691Y-07944D01*
X31708Y-07885D01*
X31736Y-07830D01*
X31774Y-07782D01*
X31821Y-07742D01*
X31874Y-07712D01*
X31933Y-07693D01*
X31994Y-07686D01*
X32054Y-07690D01*
X32113Y-07707D01*
X32168Y-07735D01*
X32217Y-07772D01*
X32257Y-07819D01*
X32287Y-07872D01*
X32307Y-07931D01*
X32314Y-07992D01*
X32315Y-08000D01*
X31685Y-07685D02*
X32315Y-08315D01*
X32315Y-07685D02*
X31685Y-08315D01*
X32315Y-10000D02*
X32309Y-10061D01*
X32291Y-10120D01*
X32262Y-10174D01*
X32223Y-10221D01*
X32176Y-10261D01*
X32122Y-10290D01*
X32063Y-10308D01*
X32002Y-10314D01*
X31941Y-10309D01*
X31882Y-10292D01*
X31828Y-10263D01*
X31780Y-10225D01*
X31741Y-10177D01*
X31711Y-10124D01*
X31692Y-10065D01*
X31686Y-10004D01*
X31691Y-09944D01*
X31708Y-09885D01*
X31736Y-09830D01*
X31774Y-09782D01*
X31821Y-09742D01*
X31874Y-09712D01*
X31933Y-09693D01*
X31994Y-09686D01*
X32054Y-09690D01*
X32113Y-09707D01*
X32168Y-09735D01*
X32217Y-09772D01*
X32257Y-09819D01*
X32287Y-09872D01*
X32307Y-09931D01*
X32314Y-09992D01*
X32315Y-10000D01*
X31685Y-09685D02*
X32315Y-10315D01*
X32315Y-09685D02*
X31685Y-10315D01*
X32315Y-14000D02*
X32309Y-14061D01*
X32291Y-14120D01*
X32262Y-14174D01*
X32223Y-14221D01*
X32176Y-14261D01*
X32122Y-14290D01*
X32063Y-14308D01*
X32002Y-14314D01*
X31941Y-14309D01*
X31882Y-14292D01*
X31828Y-14263D01*
X31780Y-14225D01*
X31741Y-14177D01*
X31711Y-14124D01*
X31692Y-14065D01*
X31686Y-14004D01*
X31691Y-13944D01*
X31708Y-13885D01*
X31736Y-13830D01*
X31774Y-13782D01*
X31821Y-13742D01*
X31874Y-13712D01*
X31933Y-13693D01*
X31994Y-13686D01*
X32054Y-13690D01*
X32113Y-13707D01*
X32168Y-13735D01*
X32217Y-13772D01*
X32257Y-13819D01*
X32287Y-13872D01*
X32307Y-13931D01*
X32314Y-13992D01*
X32315Y-14000D01*
X31685Y-13685D02*
X32315Y-14315D01*
X32315Y-13685D02*
X31685Y-14315D01*
X32315Y-16000D02*
X32309Y-16061D01*
X32291Y-16120D01*
X32262Y-16174D01*
X32223Y-16221D01*
X32176Y-16261D01*
X32122Y-16290D01*
X32063Y-16308D01*
X32002Y-16314D01*
X31941Y-16309D01*
X31882Y-16292D01*
X31828Y-16263D01*
X31780Y-16225D01*
X31741Y-16177D01*
X31711Y-16124D01*
X31692Y-16065D01*
X31686Y-16004D01*
X31691Y-15944D01*
X31708Y-15885D01*
X31736Y-15830D01*
X31774Y-15782D01*
X31821Y-15742D01*
X31874Y-15712D01*
X31933Y-15693D01*
X31994Y-15686D01*
X32054Y-15690D01*
X32113Y-15707D01*
X32168Y-15735D01*
X32217Y-15772D01*
X32257Y-15819D01*
X32287Y-15872D01*
X32307Y-15931D01*
X32314Y-15992D01*
X32315Y-16000D01*
X31685Y-15685D02*
X32315Y-16315D01*
X32315Y-15685D02*
X31685Y-16315D01*
X32315Y-20000D02*
X32309Y-20061D01*
X32291Y-20120D01*
X32262Y-20174D01*
X32223Y-20221D01*
X32176Y-20261D01*
X32122Y-20290D01*
X32063Y-20308D01*
X32002Y-20314D01*
X31941Y-20309D01*
X31882Y-20292D01*
X31828Y-20263D01*
X31780Y-20225D01*
X31741Y-20177D01*
X31711Y-20124D01*
X31692Y-20065D01*
X31686Y-20004D01*
X31691Y-19944D01*
X31708Y-19885D01*
X31736Y-19830D01*
X31774Y-19782D01*
X31821Y-19742D01*
X31874Y-19712D01*
X31933Y-19693D01*
X31994Y-19686D01*
X32054Y-19690D01*
X32113Y-19707D01*
X32168Y-19735D01*
X32217Y-19772D01*
X32257Y-19819D01*
X32287Y-19872D01*
X32307Y-19931D01*
X32314Y-19992D01*
X32315Y-20000D01*
X31685Y-19685D02*
X32315Y-20315D01*
X32315Y-19685D02*
X31685Y-20315D01*
X32315Y-22000D02*
X32309Y-22061D01*
X32291Y-22120D01*
X32262Y-22174D01*
X32223Y-22221D01*
X32176Y-22261D01*
X32122Y-22290D01*
X32063Y-22308D01*
X32002Y-22314D01*
X31941Y-22309D01*
X31882Y-22292D01*
X31828Y-22263D01*
X31780Y-22225D01*
X31741Y-22177D01*
X31711Y-22124D01*
X31692Y-22065D01*
X31686Y-22004D01*
X31691Y-21944D01*
X31708Y-21885D01*
X31736Y-21830D01*
X31774Y-21782D01*
X31821Y-21742D01*
X31874Y-21712D01*
X31933Y-21693D01*
X31994Y-21686D01*
X32054Y-21690D01*
X32113Y-21707D01*
X32168Y-21735D01*
X32217Y-21772D01*
X32257Y-21819D01*
X32287Y-21872D01*
X32307Y-21931D01*
X32314Y-21992D01*
X32315Y-22000D01*
X31685Y-21685D02*
X32315Y-22315D01*
X32315Y-21685D02*
X31685Y-22315D01*
X17865Y-01500D02*
X17858Y-01570D01*
X17837Y-01639D01*
X17804Y-01701D01*
X17758Y-01757D01*
X17704Y-01802D01*
X17641Y-01836D01*
X17573Y-01857D01*
X17502Y-01864D01*
X17432Y-01858D01*
X17364Y-01838D01*
X17301Y-01805D01*
X17245Y-01760D01*
X17199Y-01706D01*
X17165Y-01643D01*
X17143Y-01575D01*
X17136Y-01505D01*
X17141Y-01435D01*
X17161Y-01366D01*
X17194Y-01303D01*
X17238Y-01247D01*
X17292Y-01201D01*
X17354Y-01166D01*
X17422Y-01144D01*
X17493Y-01136D01*
X17563Y-01141D01*
X17631Y-01160D01*
X17695Y-01192D01*
X17751Y-01236D01*
X17798Y-01290D01*
X17833Y-01352D01*
X17855Y-01420D01*
X17864Y-01490D01*
X17865Y-01500D01*
X17135Y-01500D02*
X17865Y-01500D01*
X17865Y-04500D02*
X17858Y-04570D01*
X17837Y-04639D01*
X17804Y-04701D01*
X17758Y-04757D01*
X17704Y-04802D01*
X17641Y-04836D01*
X17573Y-04857D01*
X17502Y-04864D01*
X17432Y-04858D01*
X17364Y-04838D01*
X17301Y-04805D01*
X17245Y-04760D01*
X17199Y-04706D01*
X17165Y-04643D01*
X17143Y-04575D01*
X17136Y-04505D01*
X17141Y-04435D01*
X17161Y-04366D01*
X17194Y-04303D01*
X17238Y-04247D01*
X17292Y-04201D01*
X17354Y-04166D01*
X17422Y-04144D01*
X17493Y-04136D01*
X17563Y-04141D01*
X17631Y-04160D01*
X17695Y-04192D01*
X17751Y-04236D01*
X17798Y-04290D01*
X17833Y-04352D01*
X17855Y-04420D01*
X17864Y-04490D01*
X17865Y-04500D01*
X17135Y-04500D02*
X17865Y-04500D01*
X17865Y-07500D02*
X17858Y-07570D01*
X17837Y-07639D01*
X17804Y-07701D01*
X17758Y-07757D01*
X17704Y-07802D01*
X17641Y-07836D01*
X17573Y-07857D01*
X17502Y-07864D01*
X17432Y-07858D01*
X17364Y-07838D01*
X17301Y-07805D01*
X17245Y-07760D01*
X17199Y-07706D01*
X17165Y-07643D01*
X17143Y-07575D01*
X17136Y-07505D01*
X17141Y-07435D01*
X17161Y-07366D01*
X17194Y-07303D01*
X17238Y-07247D01*
X17292Y-07201D01*
X17354Y-07166D01*
X17422Y-07144D01*
X17493Y-07136D01*
X17563Y-07141D01*
X17631Y-07160D01*
X17695Y-07192D01*
X17751Y-07236D01*
X17798Y-07290D01*
X17833Y-07352D01*
X17855Y-07420D01*
X17864Y-07490D01*
X17865Y-07500D01*
X17135Y-07500D02*
X17865Y-07500D01*
X17865Y-10500D02*
X17858Y-10570D01*
X17837Y-10639D01*
X17804Y-10701D01*
X17758Y-10757D01*
X17704Y-10802D01*
X17641Y-10836D01*
X17573Y-10857D01*
X17502Y-10864D01*
X17432Y-10858D01*
X17364Y-10838D01*
X17301Y-10805D01*
X17245Y-10760D01*
X17199Y-10706D01*
X17165Y-10643D01*
X17143Y-10575D01*
X17136Y-10505D01*
X17141Y-10435D01*
X17161Y-10366D01*
X17194Y-10303D01*
X17238Y-10247D01*
X17292Y-10201D01*
X17354Y-10166D01*
X17422Y-10144D01*
X17493Y-10136D01*
X17563Y-10141D01*
X17631Y-10160D01*
X17695Y-10192D01*
X17751Y-10236D01*
X17798Y-10290D01*
X17833Y-10352D01*
X17855Y-10420D01*
X17864Y-10490D01*
X17865Y-10500D01*
X17135Y-10500D02*
X17865Y-10500D01*
X17865Y-13500D02*
X17858Y-13570D01*
X17837Y-13639D01*
X17804Y-13701D01*
X17758Y-13757D01*
X17704Y-13802D01*
X17641Y-13836D01*
X17573Y-13857D01*
X17502Y-13864D01*
X17432Y-13858D01*
X17364Y-13838D01*
X17301Y-13805D01*
X17245Y-13760D01*
X17199Y-13706D01*
X17165Y-13643D01*
X17143Y-13575D01*
X17136Y-13505D01*
X17141Y-13435D01*
X17161Y-13366D01*
X17194Y-13303D01*
X17238Y-13247D01*
X17292Y-13201D01*
X17354Y-13166D01*
X17422Y-13144D01*
X17493Y-13136D01*
X17563Y-13141D01*
X17631Y-13160D01*
X17695Y-13192D01*
X17751Y-13236D01*
X17798Y-13290D01*
X17833Y-13352D01*
X17855Y-13420D01*
X17864Y-13490D01*
X17865Y-13500D01*
X17135Y-13500D02*
X17865Y-13500D01*
X17865Y-16500D02*
X17858Y-16570D01*
X17837Y-16639D01*
X17804Y-16701D01*
X17758Y-16757D01*
X17704Y-16802D01*
X17641Y-16836D01*
X17573Y-16857D01*
X17502Y-16864D01*
X17432Y-16858D01*
X17364Y-16838D01*
X17301Y-16805D01*
X17245Y-16760D01*
X17199Y-16706D01*
X17165Y-16643D01*
X17143Y-16575D01*
X17136Y-16505D01*
X17141Y-16435D01*
X17161Y-16366D01*
X17194Y-16303D01*
X17238Y-16247D01*
X17292Y-16201D01*
X17354Y-16166D01*
X17422Y-16144D01*
X17493Y-16136D01*
X17563Y-16141D01*
X17631Y-16160D01*
X17695Y-16192D01*
X17751Y-16236D01*
X17798Y-16290D01*
X17833Y-16352D01*
X17855Y-16420D01*
X17864Y-16490D01*
X17865Y-16500D01*
X17135Y-16500D02*
X17865Y-16500D01*
X17865Y-19500D02*
X17858Y-19570D01*
X17837Y-19639D01*
X17804Y-19701D01*
X17758Y-19757D01*
X17704Y-19802D01*
X17641Y-19836D01*
X17573Y-19857D01*
X17502Y-19864D01*
X17432Y-19858D01*
X17364Y-19838D01*
X17301Y-19805D01*
X17245Y-19760D01*
X17199Y-19706D01*
X17165Y-19643D01*
X17143Y-19575D01*
X17136Y-19505D01*
X17141Y-19435D01*
X17161Y-19366D01*
X17194Y-19303D01*
X17238Y-19247D01*
X17292Y-19201D01*
X17354Y-19166D01*
X17422Y-19144D01*
X17493Y-19136D01*
X17563Y-19141D01*
X17631Y-19160D01*
X17695Y-19192D01*
X17751Y-19236D01*
X17798Y-19290D01*
X17833Y-19352D01*
X17855Y-19420D01*
X17864Y-19490D01*
X17865Y-19500D01*
X17135Y-19500D02*
X17865Y-19500D01*
X17865Y-22500D02*
X17858Y-22570D01*
X17837Y-22639D01*
X17804Y-22701D01*
X17758Y-22757D01*
X17704Y-22802D01*
X17641Y-22836D01*
X17573Y-22857D01*
X17502Y-22864D01*
X17432Y-22858D01*
X17364Y-22838D01*
X17301Y-22805D01*
X17245Y-22760D01*
X17199Y-22706D01*
X17165Y-22643D01*
X17143Y-22575D01*
X17136Y-22505D01*
X17141Y-22435D01*
X17161Y-22366D01*
X17194Y-22303D01*
X17238Y-22247D01*
X17292Y-22201D01*
X17354Y-22166D01*
X17422Y-22144D01*
X17493Y-22136D01*
X17563Y-22141D01*
X17631Y-22160D01*
X17695Y-22192D01*
X17751Y-22236D01*
X17798Y-22290D01*
X17833Y-22352D01*
X17855Y-22420D01*
X17864Y-22490D01*
X17865Y-22500D01*
X17135Y-22500D02*
X17865Y-22500D01*
X20365Y-01500D02*
X20358Y-01570D01*
X20337Y-01639D01*
X20304Y-01701D01*
X20258Y-01757D01*
X20204Y-01802D01*
X20141Y-01836D01*
X20073Y-01857D01*
X20002Y-01864D01*
X19932Y-01858D01*
X19864Y-01838D01*
X19801Y-01805D01*
X19745Y-01760D01*
X19699Y-01706D01*
X19665Y-01643D01*
X19643Y-01575D01*
X19636Y-01505D01*
X19641Y-01435D01*
X19661Y-01366D01*
X19694Y-01303D01*
X19738Y-01247D01*
X19792Y-01201D01*
X19854Y-01166D01*
X19922Y-01144D01*
X19993Y-01136D01*
X20063Y-01141D01*
X20131Y-01160D01*
X20195Y-01192D01*
X20251Y-01236D01*
X20298Y-01290D01*
X20333Y-01352D01*
X20355Y-01420D01*
X20364Y-01490D01*
X20365Y-01500D01*
X19635Y-01500D02*
X20365Y-01500D01*
X20365Y-04500D02*
X20358Y-04570D01*
X20337Y-04639D01*
X20304Y-04701D01*
X20258Y-04757D01*
X20204Y-04802D01*
X20141Y-04836D01*
X20073Y-04857D01*
X20002Y-04864D01*
X19932Y-04858D01*
X19864Y-04838D01*
X19801Y-04805D01*
X19745Y-04760D01*
X19699Y-04706D01*
X19665Y-04643D01*
X19643Y-04575D01*
X19636Y-04505D01*
X19641Y-04435D01*
X19661Y-04366D01*
X19694Y-04303D01*
X19738Y-04247D01*
X19792Y-04201D01*
X19854Y-04166D01*
X19922Y-04144D01*
X19993Y-04136D01*
X20063Y-04141D01*
X20131Y-04160D01*
X20195Y-04192D01*
X20251Y-04236D01*
X20298Y-04290D01*
X20333Y-04352D01*
X20355Y-04420D01*
X20364Y-04490D01*
X20365Y-04500D01*
X19635Y-04500D02*
X20365Y-04500D01*
X20365Y-07500D02*
X20358Y-07570D01*
X20337Y-07639D01*
X20304Y-07701D01*
X20258Y-07757D01*
X20204Y-07802D01*
X20141Y-07836D01*
X20073Y-07857D01*
X20002Y-07864D01*
X19932Y-07858D01*
X19864Y-07838D01*
X19801Y-07805D01*
X19745Y-07760D01*
X19699Y-07706D01*
X19665Y-07643D01*
X19643Y-07575D01*
X19636Y-07505D01*
X19641Y-07435D01*
X19661Y-07366D01*
X19694Y-07303D01*
X19738Y-07247D01*
X19792Y-07201D01*
X19854Y-07166D01*
X19922Y-07144D01*
X19993Y-07136D01*
X20063Y-07141D01*
X20131Y-07160D01*
X20195Y-07192D01*
X20251Y-07236D01*
X20298Y-07290D01*
X20333Y-07352D01*
X20355Y-07420D01*
X20364Y-07490D01*
X20365Y-07500D01*
X19635Y-07500D02*
X20365Y-07500D01*
X20365Y-10500D02*
X20358Y-10570D01*
X20337Y-10639D01*
X20304Y-10701D01*
X20258Y-10757D01*
X20204Y-10802D01*
X20141Y-10836D01*
X20073Y-10857D01*
X20002Y-10864D01*
X19932Y-10858D01*
X19864Y-10838D01*
X19801Y-10805D01*
X19745Y-10760D01*
X19699Y-10706D01*
X19665Y-10643D01*
X19643Y-10575D01*
X19636Y-10505D01*
X19641Y-10435D01*
X19661Y-10366D01*
X19694Y-10303D01*
X19738Y-10247D01*
X19792Y-10201D01*
X19854Y-10166D01*
X19922Y-10144D01*
X19993Y-10136D01*
X20063Y-10141D01*
X20131Y-10160D01*
X20195Y-10192D01*
X20251Y-10236D01*
X20298Y-10290D01*
X20333Y-10352D01*
X20355Y-10420D01*
X20364Y-10490D01*
X20365Y-10500D01*
X19635Y-10500D02*
X20365Y-10500D01*
X20365Y-13500D02*
X20358Y-13570D01*
X20337Y-13639D01*
X20304Y-13701D01*
X20258Y-13757D01*
X20204Y-13802D01*
X20141Y-13836D01*
X20073Y-13857D01*
X20002Y-13864D01*
X19932Y-13858D01*
X19864Y-13838D01*
X19801Y-13805D01*
X19745Y-13760D01*
X19699Y-13706D01*
X19665Y-13643D01*
X19643Y-13575D01*
X19636Y-13505D01*
X19641Y-13435D01*
X19661Y-13366D01*
X19694Y-13303D01*
X19738Y-13247D01*
X19792Y-13201D01*
X19854Y-13166D01*
X19922Y-13144D01*
X19993Y-13136D01*
X20063Y-13141D01*
X20131Y-13160D01*
X20195Y-13192D01*
X20251Y-13236D01*
X20298Y-13290D01*
X20333Y-13352D01*
X20355Y-13420D01*
X20364Y-13490D01*
X20365Y-13500D01*
X19635Y-13500D02*
X20365Y-13500D01*
X20365Y-16500D02*
X20358Y-16570D01*
X20337Y-16639D01*
X20304Y-16701D01*
X20258Y-16757D01*
X20204Y-16802D01*
X20141Y-16836D01*
X20073Y-16857D01*
X20002Y-16864D01*
X19932Y-16858D01*
X19864Y-16838D01*
X19801Y-16805D01*
X19745Y-16760D01*
X19699Y-16706D01*
X19665Y-16643D01*
X19643Y-16575D01*
X19636Y-16505D01*
X19641Y-16435D01*
X19661Y-16366D01*
X19694Y-16303D01*
X19738Y-16247D01*
X19792Y-16201D01*
X19854Y-16166D01*
X19922Y-16144D01*
X19993Y-16136D01*
X20063Y-16141D01*
X20131Y-16160D01*
X20195Y-16192D01*
X20251Y-16236D01*
X20298Y-16290D01*
X20333Y-16352D01*
X20355Y-16420D01*
X20364Y-16490D01*
X20365Y-16500D01*
X19635Y-16500D02*
X20365Y-16500D01*
X20365Y-19500D02*
X20358Y-19570D01*
X20337Y-19639D01*
X20304Y-19701D01*
X20258Y-19757D01*
X20204Y-19802D01*
X20141Y-19836D01*
X20073Y-19857D01*
X20002Y-19864D01*
X19932Y-19858D01*
X19864Y-19838D01*
X19801Y-19805D01*
X19745Y-19760D01*
X19699Y-19706D01*
X19665Y-19643D01*
X19643Y-19575D01*
X19636Y-19505D01*
X19641Y-19435D01*
X19661Y-19366D01*
X19694Y-19303D01*
X19738Y-19247D01*
X19792Y-19201D01*
X19854Y-19166D01*
X19922Y-19144D01*
X19993Y-19136D01*
X20063Y-19141D01*
X20131Y-19160D01*
X20195Y-19192D01*
X20251Y-19236D01*
X20298Y-19290D01*
X20333Y-19352D01*
X20355Y-19420D01*
X20364Y-19490D01*
X20365Y-19500D01*
X19635Y-19500D02*
X20365Y-19500D01*
X20365Y-22500D02*
X20358Y-22570D01*
X20337Y-22639D01*
X20304Y-22701D01*
X20258Y-22757D01*
X20204Y-22802D01*
X20141Y-22836D01*
X20073Y-22857D01*
X20002Y-22864D01*
X19932Y-22858D01*
X19864Y-22838D01*
X19801Y-22805D01*
X19745Y-22760D01*
X19699Y-22706D01*
X19665Y-22643D01*
X19643Y-22575D01*
X19636Y-22505D01*
X19641Y-22435D01*
X19661Y-22366D01*
X19694Y-22303D01*
X19738Y-22247D01*
X19792Y-22201D01*
X19854Y-22166D01*
X19922Y-22144D01*
X19993Y-22136D01*
X20063Y-22141D01*
X20131Y-22160D01*
X20195Y-22192D01*
X20251Y-22236D01*
X20298Y-22290D01*
X20333Y-22352D01*
X20355Y-22420D01*
X20364Y-22490D01*
X20365Y-22500D01*
X19635Y-22500D02*
X20365Y-22500D01*
X02386Y-09413D02*
X02377Y-09500D01*
X02351Y-09585D01*
X02310Y-09663D01*
X02254Y-09732D01*
X02186Y-09788D01*
X02108Y-09830D01*
X02024Y-09856D01*
X01936Y-09865D01*
X01849Y-09857D01*
X01764Y-09833D01*
X01685Y-09792D01*
X01617Y-09736D01*
X01560Y-09668D01*
X01517Y-09591D01*
X01490Y-09507D01*
X01481Y-09419D01*
X01488Y-09332D01*
X01512Y-09247D01*
X01553Y-09168D01*
X01608Y-09099D01*
X01675Y-09042D01*
X01752Y-08998D01*
X01836Y-08971D01*
X01924Y-08961D01*
X02011Y-08967D01*
X02096Y-08991D01*
X02175Y-09031D01*
X02245Y-09085D01*
X02303Y-09152D01*
X02346Y-09229D01*
X02374Y-09313D01*
X02385Y-09401D01*
X02386Y-09413D01*
X01933Y-08960D02*
X01933Y-09866D01*
X02386Y-14587D02*
X02377Y-14674D01*
X02351Y-14759D01*
X02310Y-14837D01*
X02254Y-14906D01*
X02186Y-14962D01*
X02108Y-15004D01*
X02024Y-15030D01*
X01936Y-15039D01*
X01849Y-15031D01*
X01764Y-15007D01*
X01685Y-14966D01*
X01617Y-14910D01*
X01560Y-14842D01*
X01517Y-14765D01*
X01490Y-14681D01*
X01481Y-14593D01*
X01488Y-14506D01*
X01512Y-14421D01*
X01553Y-14342D01*
X01608Y-14273D01*
X01675Y-14216D01*
X01752Y-14172D01*
X01836Y-14145D01*
X01924Y-14135D01*
X02011Y-14141D01*
X02096Y-14165D01*
X02175Y-14205D01*
X02245Y-14259D01*
X02303Y-14326D01*
X02346Y-14403D01*
X02374Y-14487D01*
X02385Y-14575D01*
X02386Y-14587D01*
X01933Y-14134D02*
X01933Y-15040D01*
G54D13*
X-02570Y-40574D02*
X-02570Y-39774D01*
X-02379Y-39774D01*
X-02265Y-39812D01*
X-02189Y-39888D01*
X-02150Y-39964D01*
X-02112Y-40117D01*
X-02112Y-40231D01*
X-02150Y-40383D01*
X-02189Y-40460D01*
X-02265Y-40536D01*
X-02379Y-40574D01*
X-02570Y-40574D01*
X-01770Y-40574D02*
X-01770Y-40040D01*
X-01770Y-40193D02*
X-01731Y-40117D01*
X-01693Y-40079D01*
X-01617Y-40040D01*
X-01541Y-40040D01*
X-01275Y-40574D02*
X-01275Y-40040D01*
X-01275Y-39774D02*
X-01313Y-39812D01*
X-01275Y-39850D01*
X-01236Y-39812D01*
X-01275Y-39774D01*
X-01275Y-39850D01*
X-00779Y-40574D02*
X-00855Y-40536D01*
X-00894Y-40460D01*
X-00894Y-39774D01*
X-00360Y-40574D02*
X-00436Y-40536D01*
X-00475Y-40460D01*
X-00475Y-39774D01*
X00554Y-40574D02*
X00554Y-39774D01*
X00821Y-40345D01*
X01088Y-39774D01*
X01088Y-40574D01*
X01811Y-40574D02*
X01811Y-40155D01*
X01773Y-40079D01*
X01697Y-40040D01*
X01545Y-40040D01*
X01468Y-40079D01*
X01811Y-40536D02*
X01735Y-40574D01*
X01545Y-40574D01*
X01468Y-40536D01*
X01430Y-40460D01*
X01430Y-40383D01*
X01468Y-40307D01*
X01545Y-40269D01*
X01735Y-40269D01*
X01811Y-40231D01*
X02192Y-40040D02*
X02192Y-40840D01*
X02192Y-40079D02*
X02269Y-40040D01*
X02421Y-40040D01*
X02497Y-40079D01*
X02535Y-40117D01*
X02573Y-40193D01*
X02573Y-40421D01*
X02535Y-40498D01*
X02497Y-40536D01*
X02421Y-40574D01*
X02269Y-40574D01*
X02192Y-40536D01*
X02916Y-40498D02*
X02955Y-40536D01*
X02916Y-40574D01*
X02878Y-40536D01*
X02916Y-40498D01*
X02916Y-40574D01*
X02916Y-40079D02*
X02955Y-40117D01*
X02916Y-40155D01*
X02878Y-40117D01*
X02916Y-40079D01*
X02916Y-40155D01*
X-03322Y-41749D02*
X-02960Y-42111D01*
X-02960Y-41749D02*
X-03322Y-42111D01*
X-02417Y-41454D02*
X-02341Y-41454D01*
X-02265Y-41492D01*
X-02227Y-41530D01*
X-02189Y-41606D01*
X-02150Y-41759D01*
X-02150Y-41949D01*
X-02189Y-42101D01*
X-02227Y-42178D01*
X-02265Y-42216D01*
X-02341Y-42254D01*
X-02417Y-42254D01*
X-02493Y-42216D01*
X-02531Y-42178D01*
X-02570Y-42101D01*
X-02608Y-41949D01*
X-02608Y-41759D01*
X-02570Y-41606D01*
X-02531Y-41530D01*
X-02493Y-41492D01*
X-02417Y-41454D01*
X-01808Y-42178D02*
X-01769Y-42216D01*
X-01808Y-42254D01*
X-01846Y-42216D01*
X-01808Y-42178D01*
X-01808Y-42254D01*
X-01274Y-41454D02*
X-01198Y-41454D01*
X-01122Y-41492D01*
X-01084Y-41530D01*
X-01046Y-41606D01*
X-01007Y-41759D01*
X-01007Y-41949D01*
X-01046Y-42101D01*
X-01084Y-42178D01*
X-01122Y-42216D01*
X-01198Y-42254D01*
X-01274Y-42254D01*
X-01350Y-42216D01*
X-01388Y-42178D01*
X-01427Y-42101D01*
X-01465Y-41949D01*
X-01465Y-41759D01*
X-01427Y-41606D01*
X-01388Y-41530D01*
X-01350Y-41492D01*
X-01274Y-41454D01*
X-00741Y-41454D02*
X-00245Y-41454D01*
X-00512Y-41759D01*
X-00398Y-41759D01*
X-00322Y-41797D01*
X-00284Y-41835D01*
X-00245Y-41911D01*
X-00245Y-42101D01*
X-00284Y-42178D01*
X-00322Y-42216D01*
X-00398Y-42254D01*
X-00626Y-42254D01*
X-00703Y-42216D01*
X-00741Y-42178D01*
X00440Y-41454D02*
X00288Y-41454D01*
X00212Y-41492D01*
X00174Y-41530D01*
X00097Y-41644D01*
X00059Y-41797D01*
X00059Y-42101D01*
X00097Y-42178D01*
X00136Y-42216D01*
X00212Y-42254D01*
X00364Y-42254D01*
X00440Y-42216D01*
X00478Y-42178D01*
X00517Y-42101D01*
X00517Y-41911D01*
X00478Y-41835D01*
X00440Y-41797D01*
X00364Y-41759D01*
X00212Y-41759D01*
X00136Y-41797D01*
X00097Y-41835D01*
X00059Y-41911D01*
X00821Y-41454D02*
X00821Y-41606D01*
X01126Y-41454D02*
X01126Y-41606D01*
X02651Y-41416D02*
X01965Y-42444D01*
X03680Y-41454D02*
X03756Y-41454D01*
X03832Y-41492D01*
X03870Y-41530D01*
X03908Y-41606D01*
X03947Y-41759D01*
X03947Y-41949D01*
X03908Y-42101D01*
X03870Y-42178D01*
X03832Y-42216D01*
X03756Y-42254D01*
X03680Y-42254D01*
X03604Y-42216D01*
X03566Y-42178D01*
X03527Y-42101D01*
X03489Y-41949D01*
X03489Y-41759D01*
X03527Y-41606D01*
X03566Y-41530D01*
X03604Y-41492D01*
X03680Y-41454D01*
X04289Y-42178D02*
X04328Y-42216D01*
X04289Y-42254D01*
X04251Y-42216D01*
X04289Y-42178D01*
X04289Y-42254D01*
X04709Y-42254D02*
X04861Y-42254D01*
X04937Y-42216D01*
X04975Y-42178D01*
X05051Y-42063D01*
X05090Y-41911D01*
X05090Y-41606D01*
X05051Y-41530D01*
X05013Y-41492D01*
X04937Y-41454D01*
X04785Y-41454D01*
X04709Y-41492D01*
X04670Y-41530D01*
X04632Y-41606D01*
X04632Y-41797D01*
X04670Y-41873D01*
X04709Y-41911D01*
X04785Y-41949D01*
X04937Y-41949D01*
X05013Y-41911D01*
X05051Y-41873D01*
X05090Y-41797D01*
X05394Y-41530D02*
X05432Y-41492D01*
X05509Y-41454D01*
X05699Y-41454D01*
X05775Y-41492D01*
X05813Y-41530D01*
X05852Y-41606D01*
X05852Y-41682D01*
X05813Y-41797D01*
X05356Y-42254D01*
X05852Y-42254D01*
X06194Y-42254D02*
X06194Y-41720D01*
X06194Y-41797D02*
X06233Y-41759D01*
X06309Y-41720D01*
X06423Y-41720D01*
X06499Y-41759D01*
X06537Y-41835D01*
X06537Y-42254D01*
X06537Y-41835D02*
X06575Y-41759D01*
X06652Y-41720D01*
X06766Y-41720D01*
X06842Y-41759D01*
X06880Y-41835D01*
X06880Y-42254D01*
X07261Y-42254D02*
X07261Y-41720D01*
X07261Y-41797D02*
X07300Y-41759D01*
X07376Y-41720D01*
X07490Y-41720D01*
X07566Y-41759D01*
X07604Y-41835D01*
X07604Y-42254D01*
X07604Y-41835D02*
X07642Y-41759D01*
X07719Y-41720D01*
X07833Y-41720D01*
X07909Y-41759D01*
X07947Y-41835D01*
X07947Y-42254D01*
X09167Y-42559D02*
X09129Y-42520D01*
X09053Y-42406D01*
X09015Y-42330D01*
X08977Y-42216D01*
X08938Y-42025D01*
X08938Y-41873D01*
X08977Y-41682D01*
X09015Y-41568D01*
X09053Y-41492D01*
X09129Y-41378D01*
X09167Y-41340D01*
X09586Y-41797D02*
X09510Y-41759D01*
X09471Y-41720D01*
X09433Y-41644D01*
X09433Y-41606D01*
X09471Y-41530D01*
X09510Y-41492D01*
X09586Y-41454D01*
X09738Y-41454D01*
X09814Y-41492D01*
X09852Y-41530D01*
X09891Y-41606D01*
X09891Y-41644D01*
X09852Y-41720D01*
X09814Y-41759D01*
X09738Y-41797D01*
X09586Y-41797D01*
X09510Y-41835D01*
X09471Y-41873D01*
X09433Y-41949D01*
X09433Y-42101D01*
X09471Y-42178D01*
X09510Y-42216D01*
X09586Y-42254D01*
X09738Y-42254D01*
X09814Y-42216D01*
X09852Y-42178D01*
X09891Y-42101D01*
X09891Y-41949D01*
X09852Y-41873D01*
X09814Y-41835D01*
X09738Y-41797D01*
X10843Y-42254D02*
X10843Y-41454D01*
X11186Y-42254D02*
X11186Y-41835D01*
X11148Y-41759D01*
X11072Y-41720D01*
X10958Y-41720D01*
X10882Y-41759D01*
X10843Y-41797D01*
X11682Y-42254D02*
X11606Y-42216D01*
X11567Y-42178D01*
X11529Y-42101D01*
X11529Y-41873D01*
X11567Y-41797D01*
X11606Y-41759D01*
X11682Y-41720D01*
X11796Y-41720D01*
X11872Y-41759D01*
X11910Y-41797D01*
X11948Y-41873D01*
X11948Y-42101D01*
X11910Y-42178D01*
X11872Y-42216D01*
X11796Y-42254D01*
X11682Y-42254D01*
X12406Y-42254D02*
X12330Y-42216D01*
X12291Y-42140D01*
X12291Y-41454D01*
X13015Y-42216D02*
X12939Y-42254D01*
X12787Y-42254D01*
X12710Y-42216D01*
X12672Y-42140D01*
X12672Y-41835D01*
X12710Y-41759D01*
X12787Y-41720D01*
X12939Y-41720D01*
X13015Y-41759D01*
X13053Y-41835D01*
X13053Y-41911D01*
X12672Y-41987D01*
X13358Y-42216D02*
X13435Y-42254D01*
X13587Y-42254D01*
X13663Y-42216D01*
X13701Y-42140D01*
X13701Y-42101D01*
X13663Y-42025D01*
X13587Y-41987D01*
X13473Y-41987D01*
X13396Y-41949D01*
X13358Y-41873D01*
X13358Y-41835D01*
X13396Y-41759D01*
X13473Y-41720D01*
X13587Y-41720D01*
X13663Y-41759D01*
X13968Y-42559D02*
X14006Y-42520D01*
X14083Y-42406D01*
X14121Y-42330D01*
X14159Y-42216D01*
X14197Y-42025D01*
X14197Y-41873D01*
X14159Y-41682D01*
X14121Y-41568D01*
X14083Y-41492D01*
X14006Y-41378D01*
X13968Y-41340D01*
G54D10*
X-02960Y-42985D02*
X-02964Y-43023D01*
X-02975Y-43060D01*
X-02993Y-43094D01*
X-03018Y-43123D01*
X-03047Y-43148D01*
X-03081Y-43166D01*
X-03118Y-43177D01*
X-03156Y-43181D01*
X-03193Y-43178D01*
X-03230Y-43167D01*
X-03264Y-43149D01*
X-03294Y-43125D01*
X-03319Y-43096D01*
X-03338Y-43062D01*
X-03349Y-43025D01*
X-03353Y-42987D01*
X-03350Y-42950D01*
X-03340Y-42913D01*
X-03322Y-42879D01*
X-03298Y-42849D01*
X-03269Y-42824D01*
X-03235Y-42805D01*
X-03199Y-42793D01*
X-03161Y-42789D01*
X-03123Y-42791D01*
X-03086Y-42802D01*
X-03052Y-42819D01*
X-03022Y-42843D01*
X-02997Y-42872D01*
X-02978Y-42905D01*
X-02965Y-42942D01*
X-02961Y-42980D01*
X-02960Y-42985D01*
G54D13*
X-02417Y-42509D02*
X-02341Y-42509D01*
X-02265Y-42547D01*
X-02227Y-42585D01*
X-02189Y-42661D01*
X-02150Y-42814D01*
X-02150Y-43004D01*
X-02189Y-43156D01*
X-02227Y-43233D01*
X-02265Y-43271D01*
X-02341Y-43309D01*
X-02417Y-43309D01*
X-02493Y-43271D01*
X-02531Y-43233D01*
X-02570Y-43156D01*
X-02608Y-43004D01*
X-02608Y-42814D01*
X-02570Y-42661D01*
X-02531Y-42585D01*
X-02493Y-42547D01*
X-02417Y-42509D01*
X-01808Y-43233D02*
X-01769Y-43271D01*
X-01808Y-43309D01*
X-01846Y-43271D01*
X-01808Y-43233D01*
X-01808Y-43309D01*
X-01274Y-42509D02*
X-01198Y-42509D01*
X-01122Y-42547D01*
X-01084Y-42585D01*
X-01046Y-42661D01*
X-01007Y-42814D01*
X-01007Y-43004D01*
X-01046Y-43156D01*
X-01084Y-43233D01*
X-01122Y-43271D01*
X-01198Y-43309D01*
X-01274Y-43309D01*
X-01350Y-43271D01*
X-01388Y-43233D01*
X-01427Y-43156D01*
X-01465Y-43004D01*
X-01465Y-42814D01*
X-01427Y-42661D01*
X-01388Y-42585D01*
X-01350Y-42547D01*
X-01274Y-42509D01*
X-00741Y-42509D02*
X-00245Y-42509D01*
X-00512Y-42814D01*
X-00398Y-42814D01*
X-00322Y-42852D01*
X-00284Y-42890D01*
X-00245Y-42966D01*
X-00245Y-43156D01*
X-00284Y-43233D01*
X-00322Y-43271D01*
X-00398Y-43309D01*
X-00626Y-43309D01*
X-00703Y-43271D01*
X-00741Y-43233D01*
X00136Y-43309D02*
X00288Y-43309D01*
X00364Y-43271D01*
X00402Y-43233D01*
X00478Y-43118D01*
X00517Y-42966D01*
X00517Y-42661D01*
X00478Y-42585D01*
X00440Y-42547D01*
X00364Y-42509D01*
X00212Y-42509D01*
X00136Y-42547D01*
X00097Y-42585D01*
X00059Y-42661D01*
X00059Y-42852D01*
X00097Y-42928D01*
X00136Y-42966D01*
X00212Y-43004D01*
X00364Y-43004D01*
X00440Y-42966D01*
X00478Y-42928D01*
X00517Y-42852D01*
X00821Y-42509D02*
X00821Y-42661D01*
X01126Y-42509D02*
X01126Y-42661D01*
X02651Y-42471D02*
X01965Y-43499D01*
X03947Y-43309D02*
X03489Y-43309D01*
X03718Y-43309D02*
X03718Y-42509D01*
X03642Y-42623D01*
X03566Y-42699D01*
X03489Y-42737D01*
X04289Y-43233D02*
X04328Y-43271D01*
X04289Y-43309D01*
X04251Y-43271D01*
X04289Y-43233D01*
X04289Y-43309D01*
X04823Y-42509D02*
X04899Y-42509D01*
X04975Y-42547D01*
X05013Y-42585D01*
X05051Y-42661D01*
X05090Y-42814D01*
X05090Y-43004D01*
X05051Y-43156D01*
X05013Y-43233D01*
X04975Y-43271D01*
X04899Y-43309D01*
X04823Y-43309D01*
X04747Y-43271D01*
X04709Y-43233D01*
X04670Y-43156D01*
X04632Y-43004D01*
X04632Y-42814D01*
X04670Y-42661D01*
X04709Y-42585D01*
X04747Y-42547D01*
X04823Y-42509D01*
X05585Y-42509D02*
X05661Y-42509D01*
X05737Y-42547D01*
X05775Y-42585D01*
X05813Y-42661D01*
X05852Y-42814D01*
X05852Y-43004D01*
X05813Y-43156D01*
X05775Y-43233D01*
X05737Y-43271D01*
X05661Y-43309D01*
X05585Y-43309D01*
X05509Y-43271D01*
X05471Y-43233D01*
X05432Y-43156D01*
X05394Y-43004D01*
X05394Y-42814D01*
X05432Y-42661D01*
X05471Y-42585D01*
X05509Y-42547D01*
X05585Y-42509D01*
X06194Y-43309D02*
X06194Y-42775D01*
X06194Y-42852D02*
X06233Y-42814D01*
X06309Y-42775D01*
X06423Y-42775D01*
X06499Y-42814D01*
X06537Y-42890D01*
X06537Y-43309D01*
X06537Y-42890D02*
X06575Y-42814D01*
X06652Y-42775D01*
X06766Y-42775D01*
X06842Y-42814D01*
X06880Y-42890D01*
X06880Y-43309D01*
X07261Y-43309D02*
X07261Y-42775D01*
X07261Y-42852D02*
X07300Y-42814D01*
X07376Y-42775D01*
X07490Y-42775D01*
X07566Y-42814D01*
X07604Y-42890D01*
X07604Y-43309D01*
X07604Y-42890D02*
X07642Y-42814D01*
X07719Y-42775D01*
X07833Y-42775D01*
X07909Y-42814D01*
X07947Y-42890D01*
X07947Y-43309D01*
X09167Y-43614D02*
X09129Y-43575D01*
X09053Y-43461D01*
X09015Y-43385D01*
X08977Y-43271D01*
X08938Y-43080D01*
X08938Y-42928D01*
X08977Y-42737D01*
X09015Y-42623D01*
X09053Y-42547D01*
X09129Y-42433D01*
X09167Y-42395D01*
X09624Y-42509D02*
X09700Y-42509D01*
X09776Y-42547D01*
X09814Y-42585D01*
X09852Y-42661D01*
X09891Y-42814D01*
X09891Y-43004D01*
X09852Y-43156D01*
X09814Y-43233D01*
X09776Y-43271D01*
X09700Y-43309D01*
X09624Y-43309D01*
X09548Y-43271D01*
X09510Y-43233D01*
X09471Y-43156D01*
X09433Y-43004D01*
X09433Y-42814D01*
X09471Y-42661D01*
X09510Y-42585D01*
X09548Y-42547D01*
X09624Y-42509D01*
X10843Y-43309D02*
X10843Y-42509D01*
X11186Y-43309D02*
X11186Y-42890D01*
X11148Y-42814D01*
X11072Y-42775D01*
X10958Y-42775D01*
X10882Y-42814D01*
X10843Y-42852D01*
X11682Y-43309D02*
X11606Y-43271D01*
X11567Y-43233D01*
X11529Y-43156D01*
X11529Y-42928D01*
X11567Y-42852D01*
X11606Y-42814D01*
X11682Y-42775D01*
X11796Y-42775D01*
X11872Y-42814D01*
X11910Y-42852D01*
X11948Y-42928D01*
X11948Y-43156D01*
X11910Y-43233D01*
X11872Y-43271D01*
X11796Y-43309D01*
X11682Y-43309D01*
X12406Y-43309D02*
X12330Y-43271D01*
X12291Y-43195D01*
X12291Y-42509D01*
X13015Y-43271D02*
X12939Y-43309D01*
X12787Y-43309D01*
X12710Y-43271D01*
X12672Y-43195D01*
X12672Y-42890D01*
X12710Y-42814D01*
X12787Y-42775D01*
X12939Y-42775D01*
X13015Y-42814D01*
X13053Y-42890D01*
X13053Y-42966D01*
X12672Y-43042D01*
X13358Y-43271D02*
X13435Y-43309D01*
X13587Y-43309D01*
X13663Y-43271D01*
X13701Y-43195D01*
X13701Y-43156D01*
X13663Y-43080D01*
X13587Y-43042D01*
X13473Y-43042D01*
X13396Y-43004D01*
X13358Y-42928D01*
X13358Y-42890D01*
X13396Y-42814D01*
X13473Y-42775D01*
X13587Y-42775D01*
X13663Y-42814D01*
X14654Y-43004D02*
X15264Y-43004D01*
X14959Y-43309D02*
X14959Y-42699D01*
X16216Y-42585D02*
X16254Y-42547D01*
X16331Y-42509D01*
X16521Y-42509D01*
X16597Y-42547D01*
X16635Y-42585D01*
X16674Y-42661D01*
X16674Y-42737D01*
X16635Y-42852D01*
X16178Y-43309D01*
X16674Y-43309D01*
X17588Y-43271D02*
X17665Y-43309D01*
X17817Y-43309D01*
X17893Y-43271D01*
X17931Y-43195D01*
X17931Y-43156D01*
X17893Y-43080D01*
X17817Y-43042D01*
X17703Y-43042D01*
X17626Y-43004D01*
X17588Y-42928D01*
X17588Y-42890D01*
X17626Y-42814D01*
X17703Y-42775D01*
X17817Y-42775D01*
X17893Y-42814D01*
X18389Y-43309D02*
X18313Y-43271D01*
X18274Y-43195D01*
X18274Y-42509D01*
X18808Y-43309D02*
X18732Y-43271D01*
X18693Y-43233D01*
X18655Y-43156D01*
X18655Y-42928D01*
X18693Y-42852D01*
X18732Y-42814D01*
X18808Y-42775D01*
X18922Y-42775D01*
X18998Y-42814D01*
X19036Y-42852D01*
X19074Y-42928D01*
X19074Y-43156D01*
X19036Y-43233D01*
X18998Y-43271D01*
X18922Y-43309D01*
X18808Y-43309D01*
X19303Y-42775D02*
X19608Y-42775D01*
X19417Y-42509D02*
X19417Y-43195D01*
X19456Y-43271D01*
X19532Y-43309D01*
X19608Y-43309D01*
X19836Y-43271D02*
X19913Y-43309D01*
X20065Y-43309D01*
X20141Y-43271D01*
X20179Y-43195D01*
X20179Y-43156D01*
X20141Y-43080D01*
X20065Y-43042D01*
X19951Y-43042D01*
X19874Y-43004D01*
X19836Y-42928D01*
X19836Y-42890D01*
X19874Y-42814D01*
X19951Y-42775D01*
X20065Y-42775D01*
X20141Y-42814D01*
X20446Y-43614D02*
X20484Y-43575D01*
X20561Y-43461D01*
X20599Y-43385D01*
X20637Y-43271D01*
X20675Y-43080D01*
X20675Y-42928D01*
X20637Y-42737D01*
X20599Y-42623D01*
X20561Y-42547D01*
X20484Y-42433D01*
X20446Y-42395D01*
X-03177Y-43824D02*
X-03177Y-44256D01*
X-02961Y-44040D02*
X-03393Y-44040D01*
X-02417Y-43564D02*
X-02341Y-43564D01*
X-02265Y-43602D01*
X-02227Y-43640D01*
X-02189Y-43716D01*
X-02150Y-43869D01*
X-02150Y-44059D01*
X-02189Y-44211D01*
X-02227Y-44288D01*
X-02265Y-44326D01*
X-02341Y-44364D01*
X-02417Y-44364D01*
X-02493Y-44326D01*
X-02531Y-44288D01*
X-02570Y-44211D01*
X-02608Y-44059D01*
X-02608Y-43869D01*
X-02570Y-43716D01*
X-02531Y-43640D01*
X-02493Y-43602D01*
X-02417Y-43564D01*
X-01808Y-44288D02*
X-01769Y-44326D01*
X-01808Y-44364D01*
X-01846Y-44326D01*
X-01808Y-44288D01*
X-01808Y-44364D01*
X-01274Y-43564D02*
X-01198Y-43564D01*
X-01122Y-43602D01*
X-01084Y-43640D01*
X-01046Y-43716D01*
X-01007Y-43869D01*
X-01007Y-44059D01*
X-01046Y-44211D01*
X-01084Y-44288D01*
X-01122Y-44326D01*
X-01198Y-44364D01*
X-01274Y-44364D01*
X-01350Y-44326D01*
X-01388Y-44288D01*
X-01427Y-44211D01*
X-01465Y-44059D01*
X-01465Y-43869D01*
X-01427Y-43716D01*
X-01388Y-43640D01*
X-01350Y-43602D01*
X-01274Y-43564D01*
X-00322Y-43830D02*
X-00322Y-44364D01*
X-00512Y-43526D02*
X-00703Y-44097D01*
X-00207Y-44097D01*
X00021Y-43564D02*
X00517Y-43564D01*
X00250Y-43869D01*
X00364Y-43869D01*
X00440Y-43907D01*
X00478Y-43945D01*
X00517Y-44021D01*
X00517Y-44211D01*
X00478Y-44288D01*
X00440Y-44326D01*
X00364Y-44364D01*
X00136Y-44364D01*
X00059Y-44326D01*
X00021Y-44288D01*
X00821Y-43564D02*
X00821Y-43716D01*
X01126Y-43564D02*
X01126Y-43716D01*
X02651Y-43526D02*
X01965Y-44554D01*
X03947Y-44364D02*
X03489Y-44364D01*
X03718Y-44364D02*
X03718Y-43564D01*
X03642Y-43678D01*
X03566Y-43754D01*
X03489Y-43792D01*
X04289Y-44288D02*
X04328Y-44326D01*
X04289Y-44364D01*
X04251Y-44326D01*
X04289Y-44288D01*
X04289Y-44364D01*
X05090Y-44364D02*
X04632Y-44364D01*
X04861Y-44364D02*
X04861Y-43564D01*
X04785Y-43678D01*
X04709Y-43754D01*
X04632Y-43792D01*
X05585Y-43564D02*
X05661Y-43564D01*
X05737Y-43602D01*
X05775Y-43640D01*
X05813Y-43716D01*
X05852Y-43869D01*
X05852Y-44059D01*
X05813Y-44211D01*
X05775Y-44288D01*
X05737Y-44326D01*
X05661Y-44364D01*
X05585Y-44364D01*
X05509Y-44326D01*
X05471Y-44288D01*
X05432Y-44211D01*
X05394Y-44059D01*
X05394Y-43869D01*
X05432Y-43716D01*
X05471Y-43640D01*
X05509Y-43602D01*
X05585Y-43564D01*
X06194Y-44364D02*
X06194Y-43830D01*
X06194Y-43907D02*
X06233Y-43869D01*
X06309Y-43830D01*
X06423Y-43830D01*
X06499Y-43869D01*
X06537Y-43945D01*
X06537Y-44364D01*
X06537Y-43945D02*
X06575Y-43869D01*
X06652Y-43830D01*
X06766Y-43830D01*
X06842Y-43869D01*
X06880Y-43945D01*
X06880Y-44364D01*
X07261Y-44364D02*
X07261Y-43830D01*
X07261Y-43907D02*
X07300Y-43869D01*
X07376Y-43830D01*
X07490Y-43830D01*
X07566Y-43869D01*
X07604Y-43945D01*
X07604Y-44364D01*
X07604Y-43945D02*
X07642Y-43869D01*
X07719Y-43830D01*
X07833Y-43830D01*
X07909Y-43869D01*
X07947Y-43945D01*
X07947Y-44364D01*
X09167Y-44669D02*
X09129Y-44630D01*
X09053Y-44516D01*
X09015Y-44440D01*
X08977Y-44326D01*
X08938Y-44135D01*
X08938Y-43983D01*
X08977Y-43792D01*
X09015Y-43678D01*
X09053Y-43602D01*
X09129Y-43488D01*
X09167Y-43450D01*
X09433Y-43640D02*
X09471Y-43602D01*
X09548Y-43564D01*
X09738Y-43564D01*
X09814Y-43602D01*
X09852Y-43640D01*
X09891Y-43716D01*
X09891Y-43792D01*
X09852Y-43907D01*
X09395Y-44364D01*
X09891Y-44364D01*
X10843Y-44364D02*
X10843Y-43564D01*
X11186Y-44364D02*
X11186Y-43945D01*
X11148Y-43869D01*
X11072Y-43830D01*
X10958Y-43830D01*
X10882Y-43869D01*
X10843Y-43907D01*
X11682Y-44364D02*
X11606Y-44326D01*
X11567Y-44288D01*
X11529Y-44211D01*
X11529Y-43983D01*
X11567Y-43907D01*
X11606Y-43869D01*
X11682Y-43830D01*
X11796Y-43830D01*
X11872Y-43869D01*
X11910Y-43907D01*
X11948Y-43983D01*
X11948Y-44211D01*
X11910Y-44288D01*
X11872Y-44326D01*
X11796Y-44364D01*
X11682Y-44364D01*
X12406Y-44364D02*
X12330Y-44326D01*
X12291Y-44250D01*
X12291Y-43564D01*
X13015Y-44326D02*
X12939Y-44364D01*
X12787Y-44364D01*
X12710Y-44326D01*
X12672Y-44250D01*
X12672Y-43945D01*
X12710Y-43869D01*
X12787Y-43830D01*
X12939Y-43830D01*
X13015Y-43869D01*
X13053Y-43945D01*
X13053Y-44021D01*
X12672Y-44097D01*
X13358Y-44326D02*
X13435Y-44364D01*
X13587Y-44364D01*
X13663Y-44326D01*
X13701Y-44250D01*
X13701Y-44211D01*
X13663Y-44135D01*
X13587Y-44097D01*
X13473Y-44097D01*
X13396Y-44059D01*
X13358Y-43983D01*
X13358Y-43945D01*
X13396Y-43869D01*
X13473Y-43830D01*
X13587Y-43830D01*
X13663Y-43869D01*
X13968Y-44669D02*
X14006Y-44630D01*
X14083Y-44516D01*
X14121Y-44440D01*
X14159Y-44326D01*
X14197Y-44135D01*
X14197Y-43983D01*
X14159Y-43792D01*
X14121Y-43678D01*
X14083Y-43602D01*
X14006Y-43488D01*
X13968Y-43450D01*
G54D10*
X-02960Y-45095D02*
X-02966Y-45156D01*
X-02984Y-45215D01*
X-03013Y-45269D01*
X-03052Y-45316D01*
X-03099Y-45356D01*
X-03153Y-45385D01*
X-03212Y-45403D01*
X-03273Y-45409D01*
X-03334Y-45404D01*
X-03393Y-45387D01*
X-03447Y-45358D01*
X-03495Y-45320D01*
X-03534Y-45272D01*
X-03564Y-45219D01*
X-03583Y-45160D01*
X-03589Y-45099D01*
X-03584Y-45039D01*
X-03567Y-44980D01*
X-03539Y-44925D01*
X-03501Y-44877D01*
X-03454Y-44837D01*
X-03401Y-44807D01*
X-03342Y-44788D01*
X-03281Y-44781D01*
X-03221Y-44785D01*
X-03162Y-44802D01*
X-03107Y-44830D01*
X-03058Y-44867D01*
X-03018Y-44914D01*
X-02988Y-44967D01*
X-02968Y-45026D01*
X-02961Y-45087D01*
X-02960Y-45095D01*
X-03590Y-44780D02*
X-02960Y-45410D01*
X-02960Y-44780D02*
X-03590Y-45410D01*
G54D13*
X-02417Y-44619D02*
X-02341Y-44619D01*
X-02265Y-44657D01*
X-02227Y-44695D01*
X-02189Y-44771D01*
X-02150Y-44924D01*
X-02150Y-45114D01*
X-02189Y-45266D01*
X-02227Y-45343D01*
X-02265Y-45381D01*
X-02341Y-45419D01*
X-02417Y-45419D01*
X-02493Y-45381D01*
X-02531Y-45343D01*
X-02570Y-45266D01*
X-02608Y-45114D01*
X-02608Y-44924D01*
X-02570Y-44771D01*
X-02531Y-44695D01*
X-02493Y-44657D01*
X-02417Y-44619D01*
X-01808Y-45343D02*
X-01769Y-45381D01*
X-01808Y-45419D01*
X-01846Y-45381D01*
X-01808Y-45343D01*
X-01808Y-45419D01*
X-01274Y-44619D02*
X-01198Y-44619D01*
X-01122Y-44657D01*
X-01084Y-44695D01*
X-01046Y-44771D01*
X-01007Y-44924D01*
X-01007Y-45114D01*
X-01046Y-45266D01*
X-01084Y-45343D01*
X-01122Y-45381D01*
X-01198Y-45419D01*
X-01274Y-45419D01*
X-01350Y-45381D01*
X-01388Y-45343D01*
X-01427Y-45266D01*
X-01465Y-45114D01*
X-01465Y-44924D01*
X-01427Y-44771D01*
X-01388Y-44695D01*
X-01350Y-44657D01*
X-01274Y-44619D01*
X-00322Y-44619D02*
X-00474Y-44619D01*
X-00550Y-44657D01*
X-00588Y-44695D01*
X-00665Y-44809D01*
X-00703Y-44962D01*
X-00703Y-45266D01*
X-00665Y-45343D01*
X-00626Y-45381D01*
X-00550Y-45419D01*
X-00398Y-45419D01*
X-00322Y-45381D01*
X-00284Y-45343D01*
X-00245Y-45266D01*
X-00245Y-45076D01*
X-00284Y-45000D01*
X-00322Y-44962D01*
X-00398Y-44924D01*
X-00550Y-44924D01*
X-00626Y-44962D01*
X-00665Y-45000D01*
X-00703Y-45076D01*
X00021Y-44619D02*
X00517Y-44619D01*
X00250Y-44924D01*
X00364Y-44924D01*
X00440Y-44962D01*
X00478Y-45000D01*
X00517Y-45076D01*
X00517Y-45266D01*
X00478Y-45343D01*
X00440Y-45381D01*
X00364Y-45419D01*
X00136Y-45419D01*
X00059Y-45381D01*
X00021Y-45343D01*
X00821Y-44619D02*
X00821Y-44771D01*
X01126Y-44619D02*
X01126Y-44771D01*
X02651Y-44581D02*
X01965Y-45609D01*
X03947Y-45419D02*
X03489Y-45419D01*
X03718Y-45419D02*
X03718Y-44619D01*
X03642Y-44733D01*
X03566Y-44809D01*
X03489Y-44847D01*
X04289Y-45343D02*
X04328Y-45381D01*
X04289Y-45419D01*
X04251Y-45381D01*
X04289Y-45343D01*
X04289Y-45419D01*
X05013Y-44619D02*
X04861Y-44619D01*
X04785Y-44657D01*
X04747Y-44695D01*
X04670Y-44809D01*
X04632Y-44962D01*
X04632Y-45266D01*
X04670Y-45343D01*
X04709Y-45381D01*
X04785Y-45419D01*
X04937Y-45419D01*
X05013Y-45381D01*
X05051Y-45343D01*
X05090Y-45266D01*
X05090Y-45076D01*
X05051Y-45000D01*
X05013Y-44962D01*
X04937Y-44924D01*
X04785Y-44924D01*
X04709Y-44962D01*
X04670Y-45000D01*
X04632Y-45076D01*
X05585Y-44619D02*
X05661Y-44619D01*
X05737Y-44657D01*
X05775Y-44695D01*
X05813Y-44771D01*
X05852Y-44924D01*
X05852Y-45114D01*
X05813Y-45266D01*
X05775Y-45343D01*
X05737Y-45381D01*
X05661Y-45419D01*
X05585Y-45419D01*
X05509Y-45381D01*
X05471Y-45343D01*
X05432Y-45266D01*
X05394Y-45114D01*
X05394Y-44924D01*
X05432Y-44771D01*
X05471Y-44695D01*
X05509Y-44657D01*
X05585Y-44619D01*
X06194Y-45419D02*
X06194Y-44885D01*
X06194Y-44962D02*
X06233Y-44924D01*
X06309Y-44885D01*
X06423Y-44885D01*
X06499Y-44924D01*
X06537Y-45000D01*
X06537Y-45419D01*
X06537Y-45000D02*
X06575Y-44924D01*
X06652Y-44885D01*
X06766Y-44885D01*
X06842Y-44924D01*
X06880Y-45000D01*
X06880Y-45419D01*
X07261Y-45419D02*
X07261Y-44885D01*
X07261Y-44962D02*
X07300Y-44924D01*
X07376Y-44885D01*
X07490Y-44885D01*
X07566Y-44924D01*
X07604Y-45000D01*
X07604Y-45419D01*
X07604Y-45000D02*
X07642Y-44924D01*
X07719Y-44885D01*
X07833Y-44885D01*
X07909Y-44924D01*
X07947Y-45000D01*
X07947Y-45419D01*
X09167Y-45724D02*
X09129Y-45685D01*
X09053Y-45571D01*
X09015Y-45495D01*
X08977Y-45381D01*
X08938Y-45190D01*
X08938Y-45038D01*
X08977Y-44847D01*
X09015Y-44733D01*
X09053Y-44657D01*
X09129Y-44543D01*
X09167Y-44505D01*
X09891Y-45419D02*
X09433Y-45419D01*
X09662Y-45419D02*
X09662Y-44619D01*
X09586Y-44733D01*
X09510Y-44809D01*
X09433Y-44847D01*
X10576Y-44619D02*
X10424Y-44619D01*
X10348Y-44657D01*
X10310Y-44695D01*
X10233Y-44809D01*
X10195Y-44962D01*
X10195Y-45266D01*
X10233Y-45343D01*
X10272Y-45381D01*
X10348Y-45419D01*
X10500Y-45419D01*
X10576Y-45381D01*
X10614Y-45343D01*
X10653Y-45266D01*
X10653Y-45076D01*
X10614Y-45000D01*
X10576Y-44962D01*
X10500Y-44924D01*
X10348Y-44924D01*
X10272Y-44962D01*
X10233Y-45000D01*
X10195Y-45076D01*
X11605Y-45419D02*
X11605Y-44619D01*
X11948Y-45419D02*
X11948Y-45000D01*
X11910Y-44924D01*
X11834Y-44885D01*
X11720Y-44885D01*
X11644Y-44924D01*
X11605Y-44962D01*
X12444Y-45419D02*
X12368Y-45381D01*
X12329Y-45343D01*
X12291Y-45266D01*
X12291Y-45038D01*
X12329Y-44962D01*
X12368Y-44924D01*
X12444Y-44885D01*
X12558Y-44885D01*
X12634Y-44924D01*
X12672Y-44962D01*
X12710Y-45038D01*
X12710Y-45266D01*
X12672Y-45343D01*
X12634Y-45381D01*
X12558Y-45419D01*
X12444Y-45419D01*
X13168Y-45419D02*
X13092Y-45381D01*
X13053Y-45305D01*
X13053Y-44619D01*
X13777Y-45381D02*
X13701Y-45419D01*
X13549Y-45419D01*
X13472Y-45381D01*
X13434Y-45305D01*
X13434Y-45000D01*
X13472Y-44924D01*
X13549Y-44885D01*
X13701Y-44885D01*
X13777Y-44924D01*
X13815Y-45000D01*
X13815Y-45076D01*
X13434Y-45152D01*
X14120Y-45381D02*
X14197Y-45419D01*
X14349Y-45419D01*
X14425Y-45381D01*
X14463Y-45305D01*
X14463Y-45266D01*
X14425Y-45190D01*
X14349Y-45152D01*
X14235Y-45152D01*
X14158Y-45114D01*
X14120Y-45038D01*
X14120Y-45000D01*
X14158Y-44924D01*
X14235Y-44885D01*
X14349Y-44885D01*
X14425Y-44924D01*
X14730Y-45724D02*
X14768Y-45685D01*
X14845Y-45571D01*
X14883Y-45495D01*
X14921Y-45381D01*
X14959Y-45190D01*
X14959Y-45038D01*
X14921Y-44847D01*
X14883Y-44733D01*
X14845Y-44657D01*
X14768Y-44543D01*
X14730Y-44505D01*
G54D10*
X-02960Y-46150D02*
X-02967Y-46220D01*
X-02988Y-46289D01*
X-03021Y-46351D01*
X-03067Y-46407D01*
X-03121Y-46452D01*
X-03184Y-46486D01*
X-03252Y-46507D01*
X-03323Y-46514D01*
X-03393Y-46508D01*
X-03461Y-46488D01*
X-03524Y-46455D01*
X-03580Y-46410D01*
X-03626Y-46356D01*
X-03660Y-46293D01*
X-03682Y-46225D01*
X-03689Y-46155D01*
X-03684Y-46085D01*
X-03664Y-46016D01*
X-03631Y-45953D01*
X-03587Y-45897D01*
X-03533Y-45851D01*
X-03471Y-45816D01*
X-03403Y-45794D01*
X-03332Y-45786D01*
X-03262Y-45791D01*
X-03194Y-45810D01*
X-03130Y-45842D01*
X-03074Y-45886D01*
X-03027Y-45940D01*
X-02992Y-46002D01*
X-02970Y-46070D01*
X-02961Y-46140D01*
X-02960Y-46150D01*
X-03690Y-46150D02*
X-02960Y-46150D01*
G54D13*
X-02417Y-45674D02*
X-02341Y-45674D01*
X-02265Y-45712D01*
X-02227Y-45750D01*
X-02189Y-45826D01*
X-02150Y-45979D01*
X-02150Y-46169D01*
X-02189Y-46321D01*
X-02227Y-46398D01*
X-02265Y-46436D01*
X-02341Y-46474D01*
X-02417Y-46474D01*
X-02493Y-46436D01*
X-02531Y-46398D01*
X-02570Y-46321D01*
X-02608Y-46169D01*
X-02608Y-45979D01*
X-02570Y-45826D01*
X-02531Y-45750D01*
X-02493Y-45712D01*
X-02417Y-45674D01*
X-01808Y-46398D02*
X-01769Y-46436D01*
X-01808Y-46474D01*
X-01846Y-46436D01*
X-01808Y-46398D01*
X-01808Y-46474D01*
X-01274Y-45674D02*
X-01198Y-45674D01*
X-01122Y-45712D01*
X-01084Y-45750D01*
X-01046Y-45826D01*
X-01007Y-45979D01*
X-01007Y-46169D01*
X-01046Y-46321D01*
X-01084Y-46398D01*
X-01122Y-46436D01*
X-01198Y-46474D01*
X-01274Y-46474D01*
X-01350Y-46436D01*
X-01388Y-46398D01*
X-01427Y-46321D01*
X-01465Y-46169D01*
X-01465Y-45979D01*
X-01427Y-45826D01*
X-01388Y-45750D01*
X-01350Y-45712D01*
X-01274Y-45674D01*
X-00741Y-45674D02*
X-00207Y-45674D01*
X-00550Y-46474D01*
X00021Y-45674D02*
X00517Y-45674D01*
X00250Y-45979D01*
X00364Y-45979D01*
X00440Y-46017D01*
X00478Y-46055D01*
X00517Y-46131D01*
X00517Y-46321D01*
X00478Y-46398D01*
X00440Y-46436D01*
X00364Y-46474D01*
X00136Y-46474D01*
X00059Y-46436D01*
X00021Y-46398D01*
X00821Y-45674D02*
X00821Y-45826D01*
X01126Y-45674D02*
X01126Y-45826D01*
X02651Y-45636D02*
X01965Y-46664D01*
X03947Y-46474D02*
X03489Y-46474D01*
X03718Y-46474D02*
X03718Y-45674D01*
X03642Y-45788D01*
X03566Y-45864D01*
X03489Y-45902D01*
X04289Y-46398D02*
X04328Y-46436D01*
X04289Y-46474D01*
X04251Y-46436D01*
X04289Y-46398D01*
X04289Y-46474D01*
X04785Y-46017D02*
X04709Y-45979D01*
X04670Y-45940D01*
X04632Y-45864D01*
X04632Y-45826D01*
X04670Y-45750D01*
X04709Y-45712D01*
X04785Y-45674D01*
X04937Y-45674D01*
X05013Y-45712D01*
X05051Y-45750D01*
X05090Y-45826D01*
X05090Y-45864D01*
X05051Y-45940D01*
X05013Y-45979D01*
X04937Y-46017D01*
X04785Y-46017D01*
X04709Y-46055D01*
X04670Y-46093D01*
X04632Y-46169D01*
X04632Y-46321D01*
X04670Y-46398D01*
X04709Y-46436D01*
X04785Y-46474D01*
X04937Y-46474D01*
X05013Y-46436D01*
X05051Y-46398D01*
X05090Y-46321D01*
X05090Y-46169D01*
X05051Y-46093D01*
X05013Y-46055D01*
X04937Y-46017D01*
X05813Y-45674D02*
X05432Y-45674D01*
X05394Y-46055D01*
X05432Y-46017D01*
X05509Y-45979D01*
X05699Y-45979D01*
X05775Y-46017D01*
X05813Y-46055D01*
X05852Y-46131D01*
X05852Y-46321D01*
X05813Y-46398D01*
X05775Y-46436D01*
X05699Y-46474D01*
X05509Y-46474D01*
X05432Y-46436D01*
X05394Y-46398D01*
X06194Y-46474D02*
X06194Y-45940D01*
X06194Y-46017D02*
X06233Y-45979D01*
X06309Y-45940D01*
X06423Y-45940D01*
X06499Y-45979D01*
X06537Y-46055D01*
X06537Y-46474D01*
X06537Y-46055D02*
X06575Y-45979D01*
X06652Y-45940D01*
X06766Y-45940D01*
X06842Y-45979D01*
X06880Y-46055D01*
X06880Y-46474D01*
X07261Y-46474D02*
X07261Y-45940D01*
X07261Y-46017D02*
X07300Y-45979D01*
X07376Y-45940D01*
X07490Y-45940D01*
X07566Y-45979D01*
X07604Y-46055D01*
X07604Y-46474D01*
X07604Y-46055D02*
X07642Y-45979D01*
X07719Y-45940D01*
X07833Y-45940D01*
X07909Y-45979D01*
X07947Y-46055D01*
X07947Y-46474D01*
X09167Y-46779D02*
X09129Y-46740D01*
X09053Y-46626D01*
X09015Y-46550D01*
X08977Y-46436D01*
X08938Y-46245D01*
X08938Y-46093D01*
X08977Y-45902D01*
X09015Y-45788D01*
X09053Y-45712D01*
X09129Y-45598D01*
X09167Y-45560D01*
X09891Y-46474D02*
X09433Y-46474D01*
X09662Y-46474D02*
X09662Y-45674D01*
X09586Y-45788D01*
X09510Y-45864D01*
X09433Y-45902D01*
X10576Y-45674D02*
X10424Y-45674D01*
X10348Y-45712D01*
X10310Y-45750D01*
X10233Y-45864D01*
X10195Y-46017D01*
X10195Y-46321D01*
X10233Y-46398D01*
X10272Y-46436D01*
X10348Y-46474D01*
X10500Y-46474D01*
X10576Y-46436D01*
X10614Y-46398D01*
X10653Y-46321D01*
X10653Y-46131D01*
X10614Y-46055D01*
X10576Y-46017D01*
X10500Y-45979D01*
X10348Y-45979D01*
X10272Y-46017D01*
X10233Y-46055D01*
X10195Y-46131D01*
X11605Y-46474D02*
X11605Y-45674D01*
X11948Y-46474D02*
X11948Y-46055D01*
X11910Y-45979D01*
X11834Y-45940D01*
X11720Y-45940D01*
X11644Y-45979D01*
X11605Y-46017D01*
X12444Y-46474D02*
X12368Y-46436D01*
X12329Y-46398D01*
X12291Y-46321D01*
X12291Y-46093D01*
X12329Y-46017D01*
X12368Y-45979D01*
X12444Y-45940D01*
X12558Y-45940D01*
X12634Y-45979D01*
X12672Y-46017D01*
X12710Y-46093D01*
X12710Y-46321D01*
X12672Y-46398D01*
X12634Y-46436D01*
X12558Y-46474D01*
X12444Y-46474D01*
X13168Y-46474D02*
X13092Y-46436D01*
X13053Y-46360D01*
X13053Y-45674D01*
X13777Y-46436D02*
X13701Y-46474D01*
X13549Y-46474D01*
X13472Y-46436D01*
X13434Y-46360D01*
X13434Y-46055D01*
X13472Y-45979D01*
X13549Y-45940D01*
X13701Y-45940D01*
X13777Y-45979D01*
X13815Y-46055D01*
X13815Y-46131D01*
X13434Y-46207D01*
X14120Y-46436D02*
X14197Y-46474D01*
X14349Y-46474D01*
X14425Y-46436D01*
X14463Y-46360D01*
X14463Y-46321D01*
X14425Y-46245D01*
X14349Y-46207D01*
X14235Y-46207D01*
X14158Y-46169D01*
X14120Y-46093D01*
X14120Y-46055D01*
X14158Y-45979D01*
X14235Y-45940D01*
X14349Y-45940D01*
X14425Y-45979D01*
X14730Y-46779D02*
X14768Y-46740D01*
X14845Y-46626D01*
X14883Y-46550D01*
X14921Y-46436D01*
X14959Y-46245D01*
X14959Y-46093D01*
X14921Y-45902D01*
X14883Y-45788D01*
X14845Y-45712D01*
X14768Y-45598D01*
X14730Y-45560D01*
G54D10*
X-02960Y-47205D02*
X-02969Y-47292D01*
X-02995Y-47377D01*
X-03036Y-47455D01*
X-03092Y-47524D01*
X-03160Y-47580D01*
X-03238Y-47622D01*
X-03322Y-47648D01*
X-03410Y-47657D01*
X-03497Y-47649D01*
X-03582Y-47625D01*
X-03661Y-47584D01*
X-03729Y-47528D01*
X-03786Y-47460D01*
X-03829Y-47383D01*
X-03856Y-47299D01*
X-03865Y-47211D01*
X-03858Y-47124D01*
X-03834Y-47039D01*
X-03793Y-46960D01*
X-03738Y-46891D01*
X-03671Y-46834D01*
X-03594Y-46790D01*
X-03510Y-46763D01*
X-03422Y-46753D01*
X-03335Y-46759D01*
X-03250Y-46783D01*
X-03171Y-46823D01*
X-03101Y-46877D01*
X-03043Y-46944D01*
X-03000Y-47021D01*
X-02972Y-47105D01*
X-02961Y-47193D01*
X-02960Y-47205D01*
X-03413Y-46752D02*
X-03413Y-47658D01*
G54D13*
X-02417Y-46729D02*
X-02341Y-46729D01*
X-02265Y-46767D01*
X-02227Y-46805D01*
X-02189Y-46881D01*
X-02150Y-47034D01*
X-02150Y-47224D01*
X-02189Y-47376D01*
X-02227Y-47453D01*
X-02265Y-47491D01*
X-02341Y-47529D01*
X-02417Y-47529D01*
X-02493Y-47491D01*
X-02531Y-47453D01*
X-02570Y-47376D01*
X-02608Y-47224D01*
X-02608Y-47034D01*
X-02570Y-46881D01*
X-02531Y-46805D01*
X-02493Y-46767D01*
X-02417Y-46729D01*
X-01808Y-47453D02*
X-01769Y-47491D01*
X-01808Y-47529D01*
X-01846Y-47491D01*
X-01808Y-47453D01*
X-01808Y-47529D01*
X-01274Y-46729D02*
X-01198Y-46729D01*
X-01122Y-46767D01*
X-01084Y-46805D01*
X-01046Y-46881D01*
X-01007Y-47034D01*
X-01007Y-47224D01*
X-01046Y-47376D01*
X-01084Y-47453D01*
X-01122Y-47491D01*
X-01198Y-47529D01*
X-01274Y-47529D01*
X-01350Y-47491D01*
X-01388Y-47453D01*
X-01427Y-47376D01*
X-01465Y-47224D01*
X-01465Y-47034D01*
X-01427Y-46881D01*
X-01388Y-46805D01*
X-01350Y-46767D01*
X-01274Y-46729D01*
X-00626Y-47529D02*
X-00474Y-47529D01*
X-00398Y-47491D01*
X-00360Y-47453D01*
X-00284Y-47338D01*
X-00245Y-47186D01*
X-00245Y-46881D01*
X-00284Y-46805D01*
X-00322Y-46767D01*
X-00398Y-46729D01*
X-00550Y-46729D01*
X-00626Y-46767D01*
X-00665Y-46805D01*
X-00703Y-46881D01*
X-00703Y-47072D01*
X-00665Y-47148D01*
X-00626Y-47186D01*
X-00550Y-47224D01*
X-00398Y-47224D01*
X-00322Y-47186D01*
X-00284Y-47148D01*
X-00245Y-47072D01*
X00517Y-47529D02*
X00059Y-47529D01*
X00288Y-47529D02*
X00288Y-46729D01*
X00212Y-46843D01*
X00136Y-46919D01*
X00059Y-46957D01*
X00821Y-46729D02*
X00821Y-46881D01*
X01126Y-46729D02*
X01126Y-46881D01*
X02651Y-46691D02*
X01965Y-47719D01*
X03489Y-46805D02*
X03527Y-46767D01*
X03604Y-46729D01*
X03794Y-46729D01*
X03870Y-46767D01*
X03908Y-46805D01*
X03947Y-46881D01*
X03947Y-46957D01*
X03908Y-47072D01*
X03451Y-47529D01*
X03947Y-47529D01*
X04289Y-47453D02*
X04328Y-47491D01*
X04289Y-47529D01*
X04251Y-47491D01*
X04289Y-47453D01*
X04289Y-47529D01*
X04594Y-46729D02*
X05090Y-46729D01*
X04823Y-47034D01*
X04937Y-47034D01*
X05013Y-47072D01*
X05051Y-47110D01*
X05090Y-47186D01*
X05090Y-47376D01*
X05051Y-47453D01*
X05013Y-47491D01*
X04937Y-47529D01*
X04709Y-47529D01*
X04632Y-47491D01*
X04594Y-47453D01*
X05585Y-46729D02*
X05661Y-46729D01*
X05737Y-46767D01*
X05775Y-46805D01*
X05813Y-46881D01*
X05852Y-47034D01*
X05852Y-47224D01*
X05813Y-47376D01*
X05775Y-47453D01*
X05737Y-47491D01*
X05661Y-47529D01*
X05585Y-47529D01*
X05509Y-47491D01*
X05471Y-47453D01*
X05432Y-47376D01*
X05394Y-47224D01*
X05394Y-47034D01*
X05432Y-46881D01*
X05471Y-46805D01*
X05509Y-46767D01*
X05585Y-46729D01*
X06194Y-47529D02*
X06194Y-46995D01*
X06194Y-47072D02*
X06233Y-47034D01*
X06309Y-46995D01*
X06423Y-46995D01*
X06499Y-47034D01*
X06537Y-47110D01*
X06537Y-47529D01*
X06537Y-47110D02*
X06575Y-47034D01*
X06652Y-46995D01*
X06766Y-46995D01*
X06842Y-47034D01*
X06880Y-47110D01*
X06880Y-47529D01*
X07261Y-47529D02*
X07261Y-46995D01*
X07261Y-47072D02*
X07300Y-47034D01*
X07376Y-46995D01*
X07490Y-46995D01*
X07566Y-47034D01*
X07604Y-47110D01*
X07604Y-47529D01*
X07604Y-47110D02*
X07642Y-47034D01*
X07719Y-46995D01*
X07833Y-46995D01*
X07909Y-47034D01*
X07947Y-47110D01*
X07947Y-47529D01*
X09167Y-47834D02*
X09129Y-47795D01*
X09053Y-47681D01*
X09015Y-47605D01*
X08977Y-47491D01*
X08938Y-47300D01*
X08938Y-47148D01*
X08977Y-46957D01*
X09015Y-46843D01*
X09053Y-46767D01*
X09129Y-46653D01*
X09167Y-46615D01*
X09433Y-46805D02*
X09471Y-46767D01*
X09548Y-46729D01*
X09738Y-46729D01*
X09814Y-46767D01*
X09852Y-46805D01*
X09891Y-46881D01*
X09891Y-46957D01*
X09852Y-47072D01*
X09395Y-47529D01*
X09891Y-47529D01*
X10843Y-47529D02*
X10843Y-46729D01*
X11186Y-47529D02*
X11186Y-47110D01*
X11148Y-47034D01*
X11072Y-46995D01*
X10958Y-46995D01*
X10882Y-47034D01*
X10843Y-47072D01*
X11682Y-47529D02*
X11606Y-47491D01*
X11567Y-47453D01*
X11529Y-47376D01*
X11529Y-47148D01*
X11567Y-47072D01*
X11606Y-47034D01*
X11682Y-46995D01*
X11796Y-46995D01*
X11872Y-47034D01*
X11910Y-47072D01*
X11948Y-47148D01*
X11948Y-47376D01*
X11910Y-47453D01*
X11872Y-47491D01*
X11796Y-47529D01*
X11682Y-47529D01*
X12406Y-47529D02*
X12330Y-47491D01*
X12291Y-47415D01*
X12291Y-46729D01*
X13015Y-47491D02*
X12939Y-47529D01*
X12787Y-47529D01*
X12710Y-47491D01*
X12672Y-47415D01*
X12672Y-47110D01*
X12710Y-47034D01*
X12787Y-46995D01*
X12939Y-46995D01*
X13015Y-47034D01*
X13053Y-47110D01*
X13053Y-47186D01*
X12672Y-47262D01*
X13358Y-47491D02*
X13435Y-47529D01*
X13587Y-47529D01*
X13663Y-47491D01*
X13701Y-47415D01*
X13701Y-47376D01*
X13663Y-47300D01*
X13587Y-47262D01*
X13473Y-47262D01*
X13396Y-47224D01*
X13358Y-47148D01*
X13358Y-47110D01*
X13396Y-47034D01*
X13473Y-46995D01*
X13587Y-46995D01*
X13663Y-47034D01*
X13968Y-47834D02*
X14006Y-47795D01*
X14083Y-47681D01*
X14121Y-47605D01*
X14159Y-47491D01*
X14197Y-47300D01*
X14197Y-47148D01*
X14159Y-46957D01*
X14121Y-46843D01*
X14083Y-46767D01*
X14006Y-46653D01*
X13968Y-46615D01*
M02*
