M48
;DRILL file {Pcbnew (2012-01-19 BZR 3256)-stable} date 28/09/2012 17:59:45
;FORMAT={2:4/ absolute / inch / keep zeros}
FMAT,2
INCH,TZ
T1C0.036
T2C0.039
T3C0.063
T4C0.068
T5C0.091
%
G90
G05
M72
T1
X003000Y-010600
X003000Y-011600
X003000Y-012400
X003000Y-013400
X038100Y-010622
X038100Y-011606
X038100Y-012394
X038100Y-013378
T3
X008000Y-002000
X008000Y-004000
X008000Y-008000
X008000Y-010000
X008000Y-014000
X008000Y-016000
X008000Y-020000
X008000Y-022000
X032000Y-002000
X032000Y-004000
X032000Y-008000
X032000Y-010000
X032000Y-014000
X032000Y-016000
X032000Y-020000
X032000Y-022000
T4
X017500Y-001500
X017500Y-004500
X017500Y-007500
X017500Y-010500
X017500Y-013500
X017500Y-016500
X017500Y-019500
X017500Y-022500
X020000Y-001500
X020000Y-004500
X020000Y-007500
X020000Y-010500
X020000Y-013500
X020000Y-016500
X020000Y-019500
X020000Y-022500
T5
X001933Y-009413
X001933Y-014587
T2
X038632Y-009756G85X039222Y-009756
G05
X038632Y-014244G85X039222Y-014244
G05
T0
M30
