G04 (created by PCBNEW-RS274X (2012-01-19 BZR 3256)-stable) date 28/09/2012 17:59:23*
G01*
G70*
G90*
%MOIN*%
G04 Gerber Fmt 3.4, Leading zero omitted, Abs format*
%FSLAX34Y34*%
G04 APERTURE LIST*
%ADD10C,0.006000*%
%ADD11C,0.012000*%
%ADD12C,0.010000*%
%ADD13C,0.015000*%
%ADD14R,0.120000X0.120000*%
%ADD15C,0.120000*%
%ADD16R,0.086200X0.086200*%
%ADD17O,0.086200X0.079100*%
%ADD18C,0.086200*%
%ADD19O,0.148400X0.089400*%
%ADD20C,0.063300*%
%ADD21C,0.140600*%
%ADD22C,0.143000*%
G04 APERTURE END LIST*
G54D10*
X-30500Y36750D02*
X71500Y36750D01*
X71500Y-40250D01*
X-30500Y-40250D01*
X-30500Y36750D01*
X-29800Y36050D02*
X70800Y36050D01*
X70800Y-39550D01*
X-29800Y-39550D01*
X-29800Y36050D01*
X-10100Y36750D02*
X-10100Y36050D01*
X-20157Y36198D02*
X-20443Y36198D01*
X-20300Y36198D02*
X-20300Y36698D01*
X-20348Y36626D01*
X-20395Y36579D01*
X-20443Y36555D01*
X-10100Y-40250D02*
X-10100Y-39550D01*
X-20157Y-40102D02*
X-20443Y-40102D01*
X-20300Y-40102D02*
X-20300Y-39602D01*
X-20348Y-39674D01*
X-20395Y-39721D01*
X-20443Y-39745D01*
X10300Y36750D02*
X10300Y36050D01*
X-00043Y36650D02*
X-00019Y36674D01*
X00029Y36698D01*
X00148Y36698D01*
X00195Y36674D01*
X00219Y36650D01*
X00243Y36602D01*
X00243Y36555D01*
X00219Y36483D01*
X-00067Y36198D01*
X00243Y36198D01*
X10300Y-40250D02*
X10300Y-39550D01*
X-00043Y-39650D02*
X-00019Y-39626D01*
X00029Y-39602D01*
X00148Y-39602D01*
X00195Y-39626D01*
X00219Y-39650D01*
X00243Y-39698D01*
X00243Y-39745D01*
X00219Y-39817D01*
X-00067Y-40102D01*
X00243Y-40102D01*
X30700Y36750D02*
X30700Y36050D01*
X20333Y36698D02*
X20643Y36698D01*
X20476Y36507D01*
X20548Y36507D01*
X20595Y36483D01*
X20619Y36460D01*
X20643Y36412D01*
X20643Y36293D01*
X20619Y36245D01*
X20595Y36221D01*
X20548Y36198D01*
X20405Y36198D01*
X20357Y36221D01*
X20333Y36245D01*
X30700Y-40250D02*
X30700Y-39550D01*
X20333Y-39602D02*
X20643Y-39602D01*
X20476Y-39793D01*
X20548Y-39793D01*
X20595Y-39817D01*
X20619Y-39840D01*
X20643Y-39888D01*
X20643Y-40007D01*
X20619Y-40055D01*
X20595Y-40079D01*
X20548Y-40102D01*
X20405Y-40102D01*
X20357Y-40079D01*
X20333Y-40055D01*
X51100Y36750D02*
X51100Y36050D01*
X40995Y36531D02*
X40995Y36198D01*
X40876Y36721D02*
X40757Y36364D01*
X41067Y36364D01*
X51100Y-40250D02*
X51100Y-39550D01*
X40995Y-39769D02*
X40995Y-40102D01*
X40876Y-39579D02*
X40757Y-39936D01*
X41067Y-39936D01*
X61419Y36698D02*
X61181Y36698D01*
X61157Y36460D01*
X61181Y36483D01*
X61229Y36507D01*
X61348Y36507D01*
X61395Y36483D01*
X61419Y36460D01*
X61443Y36412D01*
X61443Y36293D01*
X61419Y36245D01*
X61395Y36221D01*
X61348Y36198D01*
X61229Y36198D01*
X61181Y36221D01*
X61157Y36245D01*
X61419Y-39602D02*
X61181Y-39602D01*
X61157Y-39840D01*
X61181Y-39817D01*
X61229Y-39793D01*
X61348Y-39793D01*
X61395Y-39817D01*
X61419Y-39840D01*
X61443Y-39888D01*
X61443Y-40007D01*
X61419Y-40055D01*
X61395Y-40079D01*
X61348Y-40102D01*
X61229Y-40102D01*
X61181Y-40079D01*
X61157Y-40055D01*
X-30500Y11090D02*
X-29800Y11090D01*
X-30269Y23860D02*
X-30031Y23860D01*
X-30316Y23718D02*
X-30150Y24218D01*
X-29983Y23718D01*
X71500Y11090D02*
X70800Y11090D01*
X71031Y23860D02*
X71269Y23860D01*
X70984Y23718D02*
X71150Y24218D01*
X71317Y23718D01*
X-30500Y-14570D02*
X-29800Y-14570D01*
X-30114Y-01680D02*
X-30043Y-01704D01*
X-30019Y-01728D01*
X-29995Y-01776D01*
X-29995Y-01847D01*
X-30019Y-01895D01*
X-30043Y-01919D01*
X-30090Y-01942D01*
X-30281Y-01942D01*
X-30281Y-01442D01*
X-30114Y-01442D01*
X-30067Y-01466D01*
X-30043Y-01490D01*
X-30019Y-01538D01*
X-30019Y-01585D01*
X-30043Y-01633D01*
X-30067Y-01657D01*
X-30114Y-01680D01*
X-30281Y-01680D01*
X71500Y-14570D02*
X70800Y-14570D01*
X71186Y-01680D02*
X71257Y-01704D01*
X71281Y-01728D01*
X71305Y-01776D01*
X71305Y-01847D01*
X71281Y-01895D01*
X71257Y-01919D01*
X71210Y-01942D01*
X71019Y-01942D01*
X71019Y-01442D01*
X71186Y-01442D01*
X71233Y-01466D01*
X71257Y-01490D01*
X71281Y-01538D01*
X71281Y-01585D01*
X71257Y-01633D01*
X71233Y-01657D01*
X71186Y-01680D01*
X71019Y-01680D01*
X-29995Y-27555D02*
X-30019Y-27579D01*
X-30090Y-27602D01*
X-30138Y-27602D01*
X-30210Y-27579D01*
X-30257Y-27531D01*
X-30281Y-27483D01*
X-30305Y-27388D01*
X-30305Y-27317D01*
X-30281Y-27221D01*
X-30257Y-27174D01*
X-30210Y-27126D01*
X-30138Y-27102D01*
X-30090Y-27102D01*
X-30019Y-27126D01*
X-29995Y-27150D01*
X71305Y-27555D02*
X71281Y-27579D01*
X71210Y-27602D01*
X71162Y-27602D01*
X71090Y-27579D01*
X71043Y-27531D01*
X71019Y-27483D01*
X70995Y-27388D01*
X70995Y-27317D01*
X71019Y-27221D01*
X71043Y-27174D01*
X71090Y-27126D01*
X71162Y-27102D01*
X71210Y-27102D01*
X71281Y-27126D01*
X71305Y-27150D01*
G54D11*
X37943Y-37993D02*
X37943Y-37393D01*
X38086Y-37393D01*
X38171Y-37421D01*
X38229Y-37479D01*
X38257Y-37536D01*
X38286Y-37650D01*
X38286Y-37736D01*
X38257Y-37850D01*
X38229Y-37907D01*
X38171Y-37964D01*
X38086Y-37993D01*
X37943Y-37993D01*
X38800Y-37993D02*
X38800Y-37679D01*
X38771Y-37621D01*
X38714Y-37593D01*
X38600Y-37593D01*
X38543Y-37621D01*
X38800Y-37964D02*
X38743Y-37993D01*
X38600Y-37993D01*
X38543Y-37964D01*
X38514Y-37907D01*
X38514Y-37850D01*
X38543Y-37793D01*
X38600Y-37764D01*
X38743Y-37764D01*
X38800Y-37736D01*
X39000Y-37593D02*
X39229Y-37593D01*
X39086Y-37393D02*
X39086Y-37907D01*
X39114Y-37964D01*
X39172Y-37993D01*
X39229Y-37993D01*
X39657Y-37964D02*
X39600Y-37993D01*
X39486Y-37993D01*
X39429Y-37964D01*
X39400Y-37907D01*
X39400Y-37679D01*
X39429Y-37621D01*
X39486Y-37593D01*
X39600Y-37593D01*
X39657Y-37621D01*
X39686Y-37679D01*
X39686Y-37736D01*
X39400Y-37793D01*
X39943Y-37936D02*
X39971Y-37964D01*
X39943Y-37993D01*
X39914Y-37964D01*
X39943Y-37936D01*
X39943Y-37993D01*
X39943Y-37621D02*
X39971Y-37650D01*
X39943Y-37679D01*
X39914Y-37650D01*
X39943Y-37621D01*
X39943Y-37679D01*
X40657Y-37450D02*
X40686Y-37421D01*
X40743Y-37393D01*
X40886Y-37393D01*
X40943Y-37421D01*
X40972Y-37450D01*
X41000Y-37507D01*
X41000Y-37564D01*
X40972Y-37650D01*
X40629Y-37993D01*
X41000Y-37993D01*
X41343Y-37650D02*
X41285Y-37621D01*
X41257Y-37593D01*
X41228Y-37536D01*
X41228Y-37507D01*
X41257Y-37450D01*
X41285Y-37421D01*
X41343Y-37393D01*
X41457Y-37393D01*
X41514Y-37421D01*
X41543Y-37450D01*
X41571Y-37507D01*
X41571Y-37536D01*
X41543Y-37593D01*
X41514Y-37621D01*
X41457Y-37650D01*
X41343Y-37650D01*
X41285Y-37679D01*
X41257Y-37707D01*
X41228Y-37764D01*
X41228Y-37879D01*
X41257Y-37936D01*
X41285Y-37964D01*
X41343Y-37993D01*
X41457Y-37993D01*
X41514Y-37964D01*
X41543Y-37936D01*
X41571Y-37879D01*
X41571Y-37764D01*
X41543Y-37707D01*
X41514Y-37679D01*
X41457Y-37650D01*
X42256Y-37964D02*
X42313Y-37993D01*
X42428Y-37993D01*
X42485Y-37964D01*
X42513Y-37907D01*
X42513Y-37879D01*
X42485Y-37821D01*
X42428Y-37793D01*
X42342Y-37793D01*
X42285Y-37764D01*
X42256Y-37707D01*
X42256Y-37679D01*
X42285Y-37621D01*
X42342Y-37593D01*
X42428Y-37593D01*
X42485Y-37621D01*
X42999Y-37964D02*
X42942Y-37993D01*
X42828Y-37993D01*
X42771Y-37964D01*
X42742Y-37907D01*
X42742Y-37679D01*
X42771Y-37621D01*
X42828Y-37593D01*
X42942Y-37593D01*
X42999Y-37621D01*
X43028Y-37679D01*
X43028Y-37736D01*
X42742Y-37793D01*
X43285Y-37593D02*
X43285Y-38193D01*
X43285Y-37621D02*
X43342Y-37593D01*
X43456Y-37593D01*
X43513Y-37621D01*
X43542Y-37650D01*
X43571Y-37707D01*
X43571Y-37879D01*
X43542Y-37936D01*
X43513Y-37964D01*
X43456Y-37993D01*
X43342Y-37993D01*
X43285Y-37964D01*
X44256Y-37450D02*
X44285Y-37421D01*
X44342Y-37393D01*
X44485Y-37393D01*
X44542Y-37421D01*
X44571Y-37450D01*
X44599Y-37507D01*
X44599Y-37564D01*
X44571Y-37650D01*
X44228Y-37993D01*
X44599Y-37993D01*
X44970Y-37393D02*
X45027Y-37393D01*
X45084Y-37421D01*
X45113Y-37450D01*
X45142Y-37507D01*
X45170Y-37621D01*
X45170Y-37764D01*
X45142Y-37879D01*
X45113Y-37936D01*
X45084Y-37964D01*
X45027Y-37993D01*
X44970Y-37993D01*
X44913Y-37964D01*
X44884Y-37936D01*
X44856Y-37879D01*
X44827Y-37764D01*
X44827Y-37621D01*
X44856Y-37507D01*
X44884Y-37450D01*
X44913Y-37421D01*
X44970Y-37393D01*
X45741Y-37993D02*
X45398Y-37993D01*
X45570Y-37993D02*
X45570Y-37393D01*
X45513Y-37479D01*
X45455Y-37536D01*
X45398Y-37564D01*
X45969Y-37450D02*
X45998Y-37421D01*
X46055Y-37393D01*
X46198Y-37393D01*
X46255Y-37421D01*
X46284Y-37450D01*
X46312Y-37507D01*
X46312Y-37564D01*
X46284Y-37650D01*
X45941Y-37993D01*
X46312Y-37993D01*
G54D10*
X29543Y-39193D02*
X29543Y-38593D01*
X29886Y-39193D02*
X29629Y-38850D01*
X29886Y-38593D02*
X29543Y-38936D01*
X30143Y-39193D02*
X30143Y-38793D01*
X30143Y-38593D02*
X30114Y-38621D01*
X30143Y-38650D01*
X30171Y-38621D01*
X30143Y-38593D01*
X30143Y-38650D01*
X30772Y-39136D02*
X30743Y-39164D01*
X30657Y-39193D01*
X30600Y-39193D01*
X30515Y-39164D01*
X30457Y-39107D01*
X30429Y-39050D01*
X30400Y-38936D01*
X30400Y-38850D01*
X30429Y-38736D01*
X30457Y-38679D01*
X30515Y-38621D01*
X30600Y-38593D01*
X30657Y-38593D01*
X30743Y-38621D01*
X30772Y-38650D01*
X31286Y-39193D02*
X31286Y-38879D01*
X31257Y-38821D01*
X31200Y-38793D01*
X31086Y-38793D01*
X31029Y-38821D01*
X31286Y-39164D02*
X31229Y-39193D01*
X31086Y-39193D01*
X31029Y-39164D01*
X31000Y-39107D01*
X31000Y-39050D01*
X31029Y-38993D01*
X31086Y-38964D01*
X31229Y-38964D01*
X31286Y-38936D01*
X31829Y-39193D02*
X31829Y-38593D01*
X31829Y-39164D02*
X31772Y-39193D01*
X31658Y-39193D01*
X31600Y-39164D01*
X31572Y-39136D01*
X31543Y-39079D01*
X31543Y-38907D01*
X31572Y-38850D01*
X31600Y-38821D01*
X31658Y-38793D01*
X31772Y-38793D01*
X31829Y-38821D01*
X32572Y-38879D02*
X32772Y-38879D01*
X32858Y-39193D02*
X32572Y-39193D01*
X32572Y-38593D01*
X32858Y-38593D01*
X33115Y-39136D02*
X33143Y-39164D01*
X33115Y-39193D01*
X33086Y-39164D01*
X33115Y-39136D01*
X33115Y-39193D01*
X33401Y-39193D02*
X33401Y-38593D01*
X33544Y-38593D01*
X33629Y-38621D01*
X33687Y-38679D01*
X33715Y-38736D01*
X33744Y-38850D01*
X33744Y-38936D01*
X33715Y-39050D01*
X33687Y-39107D01*
X33629Y-39164D01*
X33544Y-39193D01*
X33401Y-39193D01*
X34001Y-39136D02*
X34029Y-39164D01*
X34001Y-39193D01*
X33972Y-39164D01*
X34001Y-39136D01*
X34001Y-39193D01*
X34258Y-39021D02*
X34544Y-39021D01*
X34201Y-39193D02*
X34401Y-38593D01*
X34601Y-39193D01*
X34801Y-39136D02*
X34829Y-39164D01*
X34801Y-39193D01*
X34772Y-39164D01*
X34801Y-39136D01*
X34801Y-39193D01*
G54D11*
X63086Y-37993D02*
X62886Y-37707D01*
X62743Y-37993D02*
X62743Y-37393D01*
X62971Y-37393D01*
X63029Y-37421D01*
X63057Y-37450D01*
X63086Y-37507D01*
X63086Y-37593D01*
X63057Y-37650D01*
X63029Y-37679D01*
X62971Y-37707D01*
X62743Y-37707D01*
X63571Y-37964D02*
X63514Y-37993D01*
X63400Y-37993D01*
X63343Y-37964D01*
X63314Y-37907D01*
X63314Y-37679D01*
X63343Y-37621D01*
X63400Y-37593D01*
X63514Y-37593D01*
X63571Y-37621D01*
X63600Y-37679D01*
X63600Y-37736D01*
X63314Y-37793D01*
X63800Y-37593D02*
X63943Y-37993D01*
X64085Y-37593D01*
X64314Y-37936D02*
X64342Y-37964D01*
X64314Y-37993D01*
X64285Y-37964D01*
X64314Y-37936D01*
X64314Y-37993D01*
X64314Y-37621D02*
X64342Y-37650D01*
X64314Y-37679D01*
X64285Y-37650D01*
X64314Y-37621D01*
X64314Y-37679D01*
X65371Y-37993D02*
X65028Y-37993D01*
X65200Y-37993D02*
X65200Y-37393D01*
X65143Y-37479D01*
X65085Y-37536D01*
X65028Y-37564D01*
X65628Y-37936D02*
X65656Y-37964D01*
X65628Y-37993D01*
X65599Y-37964D01*
X65628Y-37936D01*
X65628Y-37993D01*
X65857Y-37393D02*
X66228Y-37393D01*
X66028Y-37621D01*
X66114Y-37621D01*
X66171Y-37650D01*
X66200Y-37679D01*
X66228Y-37736D01*
X66228Y-37879D01*
X66200Y-37936D01*
X66171Y-37964D01*
X66114Y-37993D01*
X65942Y-37993D01*
X65885Y-37964D01*
X65857Y-37936D01*
G54D10*
X29514Y-37964D02*
X29600Y-37993D01*
X29743Y-37993D01*
X29800Y-37964D01*
X29829Y-37936D01*
X29857Y-37879D01*
X29857Y-37821D01*
X29829Y-37764D01*
X29800Y-37736D01*
X29743Y-37707D01*
X29629Y-37679D01*
X29571Y-37650D01*
X29543Y-37621D01*
X29514Y-37564D01*
X29514Y-37507D01*
X29543Y-37450D01*
X29571Y-37421D01*
X29629Y-37393D01*
X29771Y-37393D01*
X29857Y-37421D01*
X30114Y-37993D02*
X30114Y-37593D01*
X30114Y-37393D02*
X30085Y-37421D01*
X30114Y-37450D01*
X30142Y-37421D01*
X30114Y-37393D01*
X30114Y-37450D01*
X30343Y-37593D02*
X30657Y-37593D01*
X30343Y-37993D01*
X30657Y-37993D01*
X31114Y-37964D02*
X31057Y-37993D01*
X30943Y-37993D01*
X30886Y-37964D01*
X30857Y-37907D01*
X30857Y-37679D01*
X30886Y-37621D01*
X30943Y-37593D01*
X31057Y-37593D01*
X31114Y-37621D01*
X31143Y-37679D01*
X31143Y-37736D01*
X30857Y-37793D01*
X31400Y-37936D02*
X31428Y-37964D01*
X31400Y-37993D01*
X31371Y-37964D01*
X31400Y-37936D01*
X31400Y-37993D01*
X31400Y-37621D02*
X31428Y-37650D01*
X31400Y-37679D01*
X31371Y-37650D01*
X31400Y-37621D01*
X31400Y-37679D01*
X32114Y-37821D02*
X32400Y-37821D01*
X32057Y-37993D02*
X32257Y-37393D01*
X32457Y-37993D01*
X62743Y-39193D02*
X62743Y-38593D01*
X63286Y-39193D02*
X63286Y-38593D01*
X63286Y-39164D02*
X63229Y-39193D01*
X63115Y-39193D01*
X63057Y-39164D01*
X63029Y-39136D01*
X63000Y-39079D01*
X63000Y-38907D01*
X63029Y-38850D01*
X63057Y-38821D01*
X63115Y-38793D01*
X63229Y-38793D01*
X63286Y-38821D01*
X63572Y-39136D02*
X63600Y-39164D01*
X63572Y-39193D01*
X63543Y-39164D01*
X63572Y-39136D01*
X63572Y-39193D01*
X63572Y-38821D02*
X63600Y-38850D01*
X63572Y-38879D01*
X63543Y-38850D01*
X63572Y-38821D01*
X63572Y-38879D01*
X64629Y-39193D02*
X64286Y-39193D01*
X64458Y-39193D02*
X64458Y-38593D01*
X64401Y-38679D01*
X64343Y-38736D01*
X64286Y-38764D01*
X65314Y-38564D02*
X64800Y-39336D01*
X65829Y-39193D02*
X65486Y-39193D01*
X65658Y-39193D02*
X65658Y-38593D01*
X65601Y-38679D01*
X65543Y-38736D01*
X65486Y-38764D01*
G54D11*
X29457Y-36193D02*
X29800Y-36193D01*
X29629Y-36793D02*
X29629Y-36193D01*
X30000Y-36793D02*
X30000Y-36393D01*
X30000Y-36193D02*
X29971Y-36221D01*
X30000Y-36250D01*
X30028Y-36221D01*
X30000Y-36193D01*
X30000Y-36250D01*
X30200Y-36393D02*
X30429Y-36393D01*
X30286Y-36193D02*
X30286Y-36707D01*
X30314Y-36764D01*
X30372Y-36793D01*
X30429Y-36793D01*
X30715Y-36793D02*
X30657Y-36764D01*
X30629Y-36707D01*
X30629Y-36193D01*
X31171Y-36764D02*
X31114Y-36793D01*
X31000Y-36793D01*
X30943Y-36764D01*
X30914Y-36707D01*
X30914Y-36479D01*
X30943Y-36421D01*
X31000Y-36393D01*
X31114Y-36393D01*
X31171Y-36421D01*
X31200Y-36479D01*
X31200Y-36536D01*
X30914Y-36593D01*
X31457Y-36736D02*
X31485Y-36764D01*
X31457Y-36793D01*
X31428Y-36764D01*
X31457Y-36736D01*
X31457Y-36793D01*
X31457Y-36421D02*
X31485Y-36450D01*
X31457Y-36479D01*
X31428Y-36450D01*
X31457Y-36421D01*
X31457Y-36479D01*
X32200Y-36193D02*
X32200Y-36679D01*
X32228Y-36736D01*
X32257Y-36764D01*
X32314Y-36793D01*
X32428Y-36793D01*
X32486Y-36764D01*
X32514Y-36736D01*
X32543Y-36679D01*
X32543Y-36193D01*
X32800Y-36764D02*
X32886Y-36793D01*
X33029Y-36793D01*
X33086Y-36764D01*
X33115Y-36736D01*
X33143Y-36679D01*
X33143Y-36621D01*
X33115Y-36564D01*
X33086Y-36536D01*
X33029Y-36507D01*
X32915Y-36479D01*
X32857Y-36450D01*
X32829Y-36421D01*
X32800Y-36364D01*
X32800Y-36307D01*
X32829Y-36250D01*
X32857Y-36221D01*
X32915Y-36193D01*
X33057Y-36193D01*
X33143Y-36221D01*
X33600Y-36479D02*
X33686Y-36507D01*
X33714Y-36536D01*
X33743Y-36593D01*
X33743Y-36679D01*
X33714Y-36736D01*
X33686Y-36764D01*
X33628Y-36793D01*
X33400Y-36793D01*
X33400Y-36193D01*
X33600Y-36193D01*
X33657Y-36221D01*
X33686Y-36250D01*
X33714Y-36307D01*
X33714Y-36364D01*
X33686Y-36421D01*
X33657Y-36450D01*
X33600Y-36479D01*
X33400Y-36479D01*
X34800Y-36736D02*
X34771Y-36764D01*
X34685Y-36793D01*
X34628Y-36793D01*
X34543Y-36764D01*
X34485Y-36707D01*
X34457Y-36650D01*
X34428Y-36536D01*
X34428Y-36450D01*
X34457Y-36336D01*
X34485Y-36279D01*
X34543Y-36221D01*
X34628Y-36193D01*
X34685Y-36193D01*
X34771Y-36221D01*
X34800Y-36250D01*
X35314Y-36793D02*
X35314Y-36479D01*
X35285Y-36421D01*
X35228Y-36393D01*
X35114Y-36393D01*
X35057Y-36421D01*
X35314Y-36764D02*
X35257Y-36793D01*
X35114Y-36793D01*
X35057Y-36764D01*
X35028Y-36707D01*
X35028Y-36650D01*
X35057Y-36593D01*
X35114Y-36564D01*
X35257Y-36564D01*
X35314Y-36536D01*
X35600Y-36793D02*
X35600Y-36193D01*
X35600Y-36421D02*
X35657Y-36393D01*
X35771Y-36393D01*
X35828Y-36421D01*
X35857Y-36450D01*
X35886Y-36507D01*
X35886Y-36679D01*
X35857Y-36736D01*
X35828Y-36764D01*
X35771Y-36793D01*
X35657Y-36793D01*
X35600Y-36764D01*
X36229Y-36793D02*
X36171Y-36764D01*
X36143Y-36707D01*
X36143Y-36193D01*
X36685Y-36764D02*
X36628Y-36793D01*
X36514Y-36793D01*
X36457Y-36764D01*
X36428Y-36707D01*
X36428Y-36479D01*
X36457Y-36421D01*
X36514Y-36393D01*
X36628Y-36393D01*
X36685Y-36421D01*
X36714Y-36479D01*
X36714Y-36536D01*
X36428Y-36593D01*
X37628Y-36479D02*
X37714Y-36507D01*
X37742Y-36536D01*
X37771Y-36593D01*
X37771Y-36679D01*
X37742Y-36736D01*
X37714Y-36764D01*
X37656Y-36793D01*
X37428Y-36793D01*
X37428Y-36193D01*
X37628Y-36193D01*
X37685Y-36221D01*
X37714Y-36250D01*
X37742Y-36307D01*
X37742Y-36364D01*
X37714Y-36421D01*
X37685Y-36450D01*
X37628Y-36479D01*
X37428Y-36479D01*
X38028Y-36793D02*
X38028Y-36393D01*
X38028Y-36507D02*
X38056Y-36450D01*
X38085Y-36421D01*
X38142Y-36393D01*
X38199Y-36393D01*
X38627Y-36764D02*
X38570Y-36793D01*
X38456Y-36793D01*
X38399Y-36764D01*
X38370Y-36707D01*
X38370Y-36479D01*
X38399Y-36421D01*
X38456Y-36393D01*
X38570Y-36393D01*
X38627Y-36421D01*
X38656Y-36479D01*
X38656Y-36536D01*
X38370Y-36593D01*
X39170Y-36793D02*
X39170Y-36479D01*
X39141Y-36421D01*
X39084Y-36393D01*
X38970Y-36393D01*
X38913Y-36421D01*
X39170Y-36764D02*
X39113Y-36793D01*
X38970Y-36793D01*
X38913Y-36764D01*
X38884Y-36707D01*
X38884Y-36650D01*
X38913Y-36593D01*
X38970Y-36564D01*
X39113Y-36564D01*
X39170Y-36536D01*
X39456Y-36793D02*
X39456Y-36193D01*
X39513Y-36564D02*
X39684Y-36793D01*
X39684Y-36393D02*
X39456Y-36621D01*
X40028Y-36793D02*
X39970Y-36764D01*
X39942Y-36736D01*
X39913Y-36679D01*
X39913Y-36507D01*
X39942Y-36450D01*
X39970Y-36421D01*
X40028Y-36393D01*
X40113Y-36393D01*
X40170Y-36421D01*
X40199Y-36450D01*
X40228Y-36507D01*
X40228Y-36679D01*
X40199Y-36736D01*
X40170Y-36764D01*
X40113Y-36793D01*
X40028Y-36793D01*
X40742Y-36393D02*
X40742Y-36793D01*
X40485Y-36393D02*
X40485Y-36707D01*
X40513Y-36764D01*
X40571Y-36793D01*
X40656Y-36793D01*
X40713Y-36764D01*
X40742Y-36736D01*
X40942Y-36393D02*
X41171Y-36393D01*
X41028Y-36193D02*
X41028Y-36707D01*
X41056Y-36764D01*
X41114Y-36793D01*
X41171Y-36793D01*
X41742Y-36193D02*
X42085Y-36193D01*
X41914Y-36793D02*
X41914Y-36193D01*
X42513Y-36764D02*
X42456Y-36793D01*
X42342Y-36793D01*
X42285Y-36764D01*
X42256Y-36707D01*
X42256Y-36479D01*
X42285Y-36421D01*
X42342Y-36393D01*
X42456Y-36393D01*
X42513Y-36421D01*
X42542Y-36479D01*
X42542Y-36536D01*
X42256Y-36593D01*
X42770Y-36764D02*
X42827Y-36793D01*
X42942Y-36793D01*
X42999Y-36764D01*
X43027Y-36707D01*
X43027Y-36679D01*
X42999Y-36621D01*
X42942Y-36593D01*
X42856Y-36593D01*
X42799Y-36564D01*
X42770Y-36507D01*
X42770Y-36479D01*
X42799Y-36421D01*
X42856Y-36393D01*
X42942Y-36393D01*
X42999Y-36421D01*
X43199Y-36393D02*
X43428Y-36393D01*
X43285Y-36193D02*
X43285Y-36707D01*
X43313Y-36764D01*
X43371Y-36793D01*
X43428Y-36793D01*
X43856Y-36764D02*
X43799Y-36793D01*
X43685Y-36793D01*
X43628Y-36764D01*
X43599Y-36707D01*
X43599Y-36479D01*
X43628Y-36421D01*
X43685Y-36393D01*
X43799Y-36393D01*
X43856Y-36421D01*
X43885Y-36479D01*
X43885Y-36536D01*
X43599Y-36593D01*
X44142Y-36793D02*
X44142Y-36393D01*
X44142Y-36507D02*
X44170Y-36450D01*
X44199Y-36421D01*
X44256Y-36393D01*
X44313Y-36393D01*
G54D10*
X29743Y-34079D02*
X29543Y-34079D01*
X29543Y-34393D02*
X29543Y-33793D01*
X29829Y-33793D01*
X30057Y-34393D02*
X30057Y-33993D01*
X30057Y-33793D02*
X30028Y-33821D01*
X30057Y-33850D01*
X30085Y-33821D01*
X30057Y-33793D01*
X30057Y-33850D01*
X30429Y-34393D02*
X30371Y-34364D01*
X30343Y-34307D01*
X30343Y-33793D01*
X30885Y-34364D02*
X30828Y-34393D01*
X30714Y-34393D01*
X30657Y-34364D01*
X30628Y-34307D01*
X30628Y-34079D01*
X30657Y-34021D01*
X30714Y-33993D01*
X30828Y-33993D01*
X30885Y-34021D01*
X30914Y-34079D01*
X30914Y-34136D01*
X30628Y-34193D01*
X31171Y-34336D02*
X31199Y-34364D01*
X31171Y-34393D01*
X31142Y-34364D01*
X31171Y-34336D01*
X31171Y-34393D01*
X31171Y-34021D02*
X31199Y-34050D01*
X31171Y-34079D01*
X31142Y-34050D01*
X31171Y-34021D01*
X31171Y-34079D01*
X31914Y-33793D02*
X31914Y-34279D01*
X31942Y-34336D01*
X31971Y-34364D01*
X32028Y-34393D01*
X32142Y-34393D01*
X32200Y-34364D01*
X32228Y-34336D01*
X32257Y-34279D01*
X32257Y-33793D01*
X32514Y-34364D02*
X32600Y-34393D01*
X32743Y-34393D01*
X32800Y-34364D01*
X32829Y-34336D01*
X32857Y-34279D01*
X32857Y-34221D01*
X32829Y-34164D01*
X32800Y-34136D01*
X32743Y-34107D01*
X32629Y-34079D01*
X32571Y-34050D01*
X32543Y-34021D01*
X32514Y-33964D01*
X32514Y-33907D01*
X32543Y-33850D01*
X32571Y-33821D01*
X32629Y-33793D01*
X32771Y-33793D01*
X32857Y-33821D01*
X33314Y-34079D02*
X33400Y-34107D01*
X33428Y-34136D01*
X33457Y-34193D01*
X33457Y-34279D01*
X33428Y-34336D01*
X33400Y-34364D01*
X33342Y-34393D01*
X33114Y-34393D01*
X33114Y-33793D01*
X33314Y-33793D01*
X33371Y-33821D01*
X33400Y-33850D01*
X33428Y-33907D01*
X33428Y-33964D01*
X33400Y-34021D01*
X33371Y-34050D01*
X33314Y-34079D01*
X33114Y-34079D01*
X34371Y-34079D02*
X34457Y-34107D01*
X34485Y-34136D01*
X34514Y-34193D01*
X34514Y-34279D01*
X34485Y-34336D01*
X34457Y-34364D01*
X34399Y-34393D01*
X34171Y-34393D01*
X34171Y-33793D01*
X34371Y-33793D01*
X34428Y-33821D01*
X34457Y-33850D01*
X34485Y-33907D01*
X34485Y-33964D01*
X34457Y-34021D01*
X34428Y-34050D01*
X34371Y-34079D01*
X34171Y-34079D01*
X34771Y-34393D02*
X34771Y-33993D01*
X34771Y-34107D02*
X34799Y-34050D01*
X34828Y-34021D01*
X34885Y-33993D01*
X34942Y-33993D01*
X35370Y-34364D02*
X35313Y-34393D01*
X35199Y-34393D01*
X35142Y-34364D01*
X35113Y-34307D01*
X35113Y-34079D01*
X35142Y-34021D01*
X35199Y-33993D01*
X35313Y-33993D01*
X35370Y-34021D01*
X35399Y-34079D01*
X35399Y-34136D01*
X35113Y-34193D01*
X35913Y-34393D02*
X35913Y-34079D01*
X35884Y-34021D01*
X35827Y-33993D01*
X35713Y-33993D01*
X35656Y-34021D01*
X35913Y-34364D02*
X35856Y-34393D01*
X35713Y-34393D01*
X35656Y-34364D01*
X35627Y-34307D01*
X35627Y-34250D01*
X35656Y-34193D01*
X35713Y-34164D01*
X35856Y-34164D01*
X35913Y-34136D01*
X36199Y-34393D02*
X36199Y-33793D01*
X36256Y-34164D02*
X36427Y-34393D01*
X36427Y-33993D02*
X36199Y-34221D01*
X36771Y-34393D02*
X36713Y-34364D01*
X36685Y-34336D01*
X36656Y-34279D01*
X36656Y-34107D01*
X36685Y-34050D01*
X36713Y-34021D01*
X36771Y-33993D01*
X36856Y-33993D01*
X36913Y-34021D01*
X36942Y-34050D01*
X36971Y-34107D01*
X36971Y-34279D01*
X36942Y-34336D01*
X36913Y-34364D01*
X36856Y-34393D01*
X36771Y-34393D01*
X37485Y-33993D02*
X37485Y-34393D01*
X37228Y-33993D02*
X37228Y-34307D01*
X37256Y-34364D01*
X37314Y-34393D01*
X37399Y-34393D01*
X37456Y-34364D01*
X37485Y-34336D01*
X37685Y-33993D02*
X37914Y-33993D01*
X37771Y-33793D02*
X37771Y-34307D01*
X37799Y-34364D01*
X37857Y-34393D01*
X37914Y-34393D01*
X38514Y-33993D02*
X38657Y-34393D01*
X38799Y-33993D01*
X39342Y-34393D02*
X38999Y-34393D01*
X39171Y-34393D02*
X39171Y-33793D01*
X39114Y-33879D01*
X39056Y-33936D01*
X38999Y-33964D01*
X39599Y-34336D02*
X39627Y-34364D01*
X39599Y-34393D01*
X39570Y-34364D01*
X39599Y-34336D01*
X39599Y-34393D01*
X39828Y-33793D02*
X40199Y-33793D01*
X39999Y-34021D01*
X40085Y-34021D01*
X40142Y-34050D01*
X40171Y-34079D01*
X40199Y-34136D01*
X40199Y-34279D01*
X40171Y-34336D01*
X40142Y-34364D01*
X40085Y-34393D01*
X39913Y-34393D01*
X39856Y-34364D01*
X39828Y-34336D01*
X40456Y-34336D02*
X40484Y-34364D01*
X40456Y-34393D01*
X40427Y-34364D01*
X40456Y-34336D01*
X40456Y-34393D01*
X40742Y-34393D02*
X40742Y-33793D01*
X40742Y-34021D02*
X40799Y-33993D01*
X40913Y-33993D01*
X40970Y-34021D01*
X40999Y-34050D01*
X41028Y-34107D01*
X41028Y-34279D01*
X40999Y-34336D01*
X40970Y-34364D01*
X40913Y-34393D01*
X40799Y-34393D01*
X40742Y-34364D01*
X41285Y-34393D02*
X41285Y-33993D01*
X41285Y-34107D02*
X41313Y-34050D01*
X41342Y-34021D01*
X41399Y-33993D01*
X41456Y-33993D01*
X41913Y-34393D02*
X41913Y-33793D01*
X41913Y-34364D02*
X41856Y-34393D01*
X41742Y-34393D01*
X41684Y-34364D01*
X41656Y-34336D01*
X41627Y-34279D01*
X41627Y-34107D01*
X41656Y-34050D01*
X41684Y-34021D01*
X41742Y-33993D01*
X41856Y-33993D01*
X41913Y-34021D01*
X29514Y-35564D02*
X29600Y-35593D01*
X29743Y-35593D01*
X29800Y-35564D01*
X29829Y-35536D01*
X29857Y-35479D01*
X29857Y-35421D01*
X29829Y-35364D01*
X29800Y-35336D01*
X29743Y-35307D01*
X29629Y-35279D01*
X29571Y-35250D01*
X29543Y-35221D01*
X29514Y-35164D01*
X29514Y-35107D01*
X29543Y-35050D01*
X29571Y-35021D01*
X29629Y-34993D01*
X29771Y-34993D01*
X29857Y-35021D01*
X30114Y-35593D02*
X30114Y-34993D01*
X30371Y-35593D02*
X30371Y-35279D01*
X30342Y-35221D01*
X30285Y-35193D01*
X30200Y-35193D01*
X30142Y-35221D01*
X30114Y-35250D01*
X30885Y-35564D02*
X30828Y-35593D01*
X30714Y-35593D01*
X30657Y-35564D01*
X30628Y-35507D01*
X30628Y-35279D01*
X30657Y-35221D01*
X30714Y-35193D01*
X30828Y-35193D01*
X30885Y-35221D01*
X30914Y-35279D01*
X30914Y-35336D01*
X30628Y-35393D01*
X31399Y-35564D02*
X31342Y-35593D01*
X31228Y-35593D01*
X31171Y-35564D01*
X31142Y-35507D01*
X31142Y-35279D01*
X31171Y-35221D01*
X31228Y-35193D01*
X31342Y-35193D01*
X31399Y-35221D01*
X31428Y-35279D01*
X31428Y-35336D01*
X31142Y-35393D01*
X31599Y-35193D02*
X31828Y-35193D01*
X31685Y-34993D02*
X31685Y-35507D01*
X31713Y-35564D01*
X31771Y-35593D01*
X31828Y-35593D01*
X32028Y-35536D02*
X32056Y-35564D01*
X32028Y-35593D01*
X31999Y-35564D01*
X32028Y-35536D01*
X32028Y-35593D01*
X32028Y-35221D02*
X32056Y-35250D01*
X32028Y-35279D01*
X31999Y-35250D01*
X32028Y-35221D01*
X32028Y-35279D01*
X33085Y-35593D02*
X32742Y-35593D01*
X32914Y-35593D02*
X32914Y-34993D01*
X32857Y-35079D01*
X32799Y-35136D01*
X32742Y-35164D01*
X33770Y-34964D02*
X33256Y-35736D01*
X34285Y-35593D02*
X33942Y-35593D01*
X34114Y-35593D02*
X34114Y-34993D01*
X34057Y-35079D01*
X33999Y-35136D01*
X33942Y-35164D01*
G54D11*
X29514Y-33164D02*
X29600Y-33193D01*
X29743Y-33193D01*
X29800Y-33164D01*
X29829Y-33136D01*
X29857Y-33079D01*
X29857Y-33021D01*
X29829Y-32964D01*
X29800Y-32936D01*
X29743Y-32907D01*
X29629Y-32879D01*
X29571Y-32850D01*
X29543Y-32821D01*
X29514Y-32764D01*
X29514Y-32707D01*
X29543Y-32650D01*
X29571Y-32621D01*
X29629Y-32593D01*
X29771Y-32593D01*
X29857Y-32621D01*
X30342Y-33164D02*
X30285Y-33193D01*
X30171Y-33193D01*
X30114Y-33164D01*
X30085Y-33107D01*
X30085Y-32879D01*
X30114Y-32821D01*
X30171Y-32793D01*
X30285Y-32793D01*
X30342Y-32821D01*
X30371Y-32879D01*
X30371Y-32936D01*
X30085Y-32993D01*
X30628Y-33193D02*
X30628Y-32793D01*
X30628Y-32850D02*
X30656Y-32821D01*
X30714Y-32793D01*
X30799Y-32793D01*
X30856Y-32821D01*
X30885Y-32879D01*
X30885Y-33193D01*
X30885Y-32879D02*
X30914Y-32821D01*
X30971Y-32793D01*
X31056Y-32793D01*
X31114Y-32821D01*
X31142Y-32879D01*
X31142Y-33193D01*
X31428Y-33193D02*
X31428Y-32593D01*
X31428Y-32821D02*
X31485Y-32793D01*
X31599Y-32793D01*
X31656Y-32821D01*
X31685Y-32850D01*
X31714Y-32907D01*
X31714Y-33079D01*
X31685Y-33136D01*
X31656Y-33164D01*
X31599Y-33193D01*
X31485Y-33193D01*
X31428Y-33164D01*
X32228Y-33193D02*
X32228Y-32879D01*
X32199Y-32821D01*
X32142Y-32793D01*
X32028Y-32793D01*
X31971Y-32821D01*
X32228Y-33164D02*
X32171Y-33193D01*
X32028Y-33193D01*
X31971Y-33164D01*
X31942Y-33107D01*
X31942Y-33050D01*
X31971Y-32993D01*
X32028Y-32964D01*
X32171Y-32964D01*
X32228Y-32936D01*
X32457Y-32793D02*
X32771Y-32793D01*
X32457Y-33193D01*
X32771Y-33193D01*
X33257Y-32793D02*
X33257Y-33193D01*
X33000Y-32793D02*
X33000Y-33107D01*
X33028Y-33164D01*
X33086Y-33193D01*
X33171Y-33193D01*
X33228Y-33164D01*
X33257Y-33136D01*
X33543Y-33193D02*
X33543Y-32793D01*
X33543Y-32907D02*
X33571Y-32850D01*
X33600Y-32821D01*
X33657Y-32793D01*
X33714Y-32793D01*
X34171Y-32793D02*
X34171Y-33193D01*
X33914Y-32793D02*
X33914Y-33107D01*
X33942Y-33164D01*
X34000Y-33193D01*
X34085Y-33193D01*
X34142Y-33164D01*
X34171Y-33136D01*
X35257Y-33136D02*
X35228Y-33164D01*
X35142Y-33193D01*
X35085Y-33193D01*
X35000Y-33164D01*
X34942Y-33107D01*
X34914Y-33050D01*
X34885Y-32936D01*
X34885Y-32850D01*
X34914Y-32736D01*
X34942Y-32679D01*
X35000Y-32621D01*
X35085Y-32593D01*
X35142Y-32593D01*
X35228Y-32621D01*
X35257Y-32650D01*
X35514Y-33193D02*
X35514Y-32793D01*
X35514Y-32593D02*
X35485Y-32621D01*
X35514Y-32650D01*
X35542Y-32621D01*
X35514Y-32593D01*
X35514Y-32650D01*
X35800Y-33193D02*
X35800Y-32793D01*
X35800Y-32907D02*
X35828Y-32850D01*
X35857Y-32821D01*
X35914Y-32793D01*
X35971Y-32793D01*
X36428Y-33164D02*
X36371Y-33193D01*
X36257Y-33193D01*
X36199Y-33164D01*
X36171Y-33136D01*
X36142Y-33079D01*
X36142Y-32907D01*
X36171Y-32850D01*
X36199Y-32821D01*
X36257Y-32793D01*
X36371Y-32793D01*
X36428Y-32821D01*
X36942Y-32793D02*
X36942Y-33193D01*
X36685Y-32793D02*
X36685Y-33107D01*
X36713Y-33164D01*
X36771Y-33193D01*
X36856Y-33193D01*
X36913Y-33164D01*
X36942Y-33136D01*
X37228Y-33193D02*
X37228Y-32793D01*
X37228Y-32593D02*
X37199Y-32621D01*
X37228Y-32650D01*
X37256Y-32621D01*
X37228Y-32593D01*
X37228Y-32650D01*
X37428Y-32793D02*
X37657Y-32793D01*
X37514Y-32593D02*
X37514Y-33107D01*
X37542Y-33164D01*
X37600Y-33193D01*
X37657Y-33193D01*
X37828Y-33164D02*
X37885Y-33193D01*
X38000Y-33193D01*
X38057Y-33164D01*
X38085Y-33107D01*
X38085Y-33079D01*
X38057Y-33021D01*
X38000Y-32993D01*
X37914Y-32993D01*
X37857Y-32964D01*
X37828Y-32907D01*
X37828Y-32879D01*
X37857Y-32821D01*
X37914Y-32793D01*
X38000Y-32793D01*
X38057Y-32821D01*
X28800Y-32350D02*
X28800Y-39550D01*
X28800Y-33550D02*
X70800Y-33550D01*
X28800Y-32350D02*
X70800Y-32350D01*
X28800Y-35950D02*
X70800Y-35950D01*
X62000Y-37150D02*
X62000Y-39550D01*
X28800Y-38350D02*
X70800Y-38350D01*
X28800Y-37150D02*
X70800Y-37150D01*
X35400Y-37150D02*
X35400Y-38350D01*
X11614Y-37786D02*
X11700Y-37824D01*
X11843Y-37824D01*
X11900Y-37786D01*
X11929Y-37748D01*
X11957Y-37671D01*
X11957Y-37595D01*
X11929Y-37519D01*
X11900Y-37481D01*
X11843Y-37443D01*
X11729Y-37405D01*
X11671Y-37367D01*
X11643Y-37329D01*
X11614Y-37252D01*
X11614Y-37176D01*
X11643Y-37100D01*
X11671Y-37062D01*
X11729Y-37024D01*
X11871Y-37024D01*
X11957Y-37062D01*
X12300Y-37824D02*
X12242Y-37786D01*
X12214Y-37748D01*
X12185Y-37671D01*
X12185Y-37443D01*
X12214Y-37367D01*
X12242Y-37329D01*
X12300Y-37290D01*
X12385Y-37290D01*
X12442Y-37329D01*
X12471Y-37367D01*
X12500Y-37443D01*
X12500Y-37671D01*
X12471Y-37748D01*
X12442Y-37786D01*
X12385Y-37824D01*
X12300Y-37824D01*
X12843Y-37824D02*
X12785Y-37786D01*
X12757Y-37710D01*
X12757Y-37024D01*
X13328Y-37824D02*
X13328Y-37024D01*
X13328Y-37786D02*
X13271Y-37824D01*
X13157Y-37824D01*
X13099Y-37786D01*
X13071Y-37748D01*
X13042Y-37671D01*
X13042Y-37443D01*
X13071Y-37367D01*
X13099Y-37329D01*
X13157Y-37290D01*
X13271Y-37290D01*
X13328Y-37329D01*
X13842Y-37786D02*
X13785Y-37824D01*
X13671Y-37824D01*
X13614Y-37786D01*
X13585Y-37710D01*
X13585Y-37405D01*
X13614Y-37329D01*
X13671Y-37290D01*
X13785Y-37290D01*
X13842Y-37329D01*
X13871Y-37405D01*
X13871Y-37481D01*
X13585Y-37557D01*
X14128Y-37824D02*
X14128Y-37290D01*
X14128Y-37443D02*
X14156Y-37367D01*
X14185Y-37329D01*
X14242Y-37290D01*
X14299Y-37290D01*
X14956Y-37824D02*
X14956Y-37024D01*
X15156Y-37595D01*
X15356Y-37024D01*
X15356Y-37824D01*
X15899Y-37824D02*
X15899Y-37405D01*
X15870Y-37329D01*
X15813Y-37290D01*
X15699Y-37290D01*
X15642Y-37329D01*
X15899Y-37786D02*
X15842Y-37824D01*
X15699Y-37824D01*
X15642Y-37786D01*
X15613Y-37710D01*
X15613Y-37633D01*
X15642Y-37557D01*
X15699Y-37519D01*
X15842Y-37519D01*
X15899Y-37481D01*
X16156Y-37786D02*
X16213Y-37824D01*
X16328Y-37824D01*
X16385Y-37786D01*
X16413Y-37710D01*
X16413Y-37671D01*
X16385Y-37595D01*
X16328Y-37557D01*
X16242Y-37557D01*
X16185Y-37519D01*
X16156Y-37443D01*
X16156Y-37405D01*
X16185Y-37329D01*
X16242Y-37290D01*
X16328Y-37290D01*
X16385Y-37329D01*
X16671Y-37824D02*
X16671Y-37024D01*
X16728Y-37519D02*
X16899Y-37824D01*
X16899Y-37290D02*
X16671Y-37595D01*
X17957Y-37748D02*
X17928Y-37786D01*
X17842Y-37824D01*
X17785Y-37824D01*
X17700Y-37786D01*
X17642Y-37710D01*
X17614Y-37633D01*
X17585Y-37481D01*
X17585Y-37367D01*
X17614Y-37214D01*
X17642Y-37138D01*
X17700Y-37062D01*
X17785Y-37024D01*
X17842Y-37024D01*
X17928Y-37062D01*
X17957Y-37100D01*
X18300Y-37824D02*
X18242Y-37786D01*
X18214Y-37748D01*
X18185Y-37671D01*
X18185Y-37443D01*
X18214Y-37367D01*
X18242Y-37329D01*
X18300Y-37290D01*
X18385Y-37290D01*
X18442Y-37329D01*
X18471Y-37367D01*
X18500Y-37443D01*
X18500Y-37671D01*
X18471Y-37748D01*
X18442Y-37786D01*
X18385Y-37824D01*
X18300Y-37824D01*
X18757Y-37290D02*
X18757Y-38090D01*
X18757Y-37329D02*
X18814Y-37290D01*
X18928Y-37290D01*
X18985Y-37329D01*
X19014Y-37367D01*
X19043Y-37443D01*
X19043Y-37671D01*
X19014Y-37748D01*
X18985Y-37786D01*
X18928Y-37824D01*
X18814Y-37824D01*
X18757Y-37786D01*
X19300Y-37290D02*
X19300Y-38090D01*
X19300Y-37329D02*
X19357Y-37290D01*
X19471Y-37290D01*
X19528Y-37329D01*
X19557Y-37367D01*
X19586Y-37443D01*
X19586Y-37671D01*
X19557Y-37748D01*
X19528Y-37786D01*
X19471Y-37824D01*
X19357Y-37824D01*
X19300Y-37786D01*
X20071Y-37786D02*
X20014Y-37824D01*
X19900Y-37824D01*
X19843Y-37786D01*
X19814Y-37710D01*
X19814Y-37405D01*
X19843Y-37329D01*
X19900Y-37290D01*
X20014Y-37290D01*
X20071Y-37329D01*
X20100Y-37405D01*
X20100Y-37481D01*
X19814Y-37557D01*
X20357Y-37824D02*
X20357Y-37290D01*
X20357Y-37443D02*
X20385Y-37367D01*
X20414Y-37329D01*
X20471Y-37290D01*
X20528Y-37290D01*
X21356Y-38129D02*
X21328Y-38090D01*
X21271Y-37976D01*
X21242Y-37900D01*
X21213Y-37786D01*
X21185Y-37595D01*
X21185Y-37443D01*
X21213Y-37252D01*
X21242Y-37138D01*
X21271Y-37062D01*
X21328Y-36948D01*
X21356Y-36910D01*
X21785Y-37405D02*
X21871Y-37443D01*
X21899Y-37481D01*
X21928Y-37557D01*
X21928Y-37671D01*
X21899Y-37748D01*
X21871Y-37786D01*
X21813Y-37824D01*
X21585Y-37824D01*
X21585Y-37024D01*
X21785Y-37024D01*
X21842Y-37062D01*
X21871Y-37100D01*
X21899Y-37176D01*
X21899Y-37252D01*
X21871Y-37329D01*
X21842Y-37367D01*
X21785Y-37405D01*
X21585Y-37405D01*
X22442Y-37824D02*
X22442Y-37405D01*
X22413Y-37329D01*
X22356Y-37290D01*
X22242Y-37290D01*
X22185Y-37329D01*
X22442Y-37786D02*
X22385Y-37824D01*
X22242Y-37824D01*
X22185Y-37786D01*
X22156Y-37710D01*
X22156Y-37633D01*
X22185Y-37557D01*
X22242Y-37519D01*
X22385Y-37519D01*
X22442Y-37481D01*
X22985Y-37786D02*
X22928Y-37824D01*
X22814Y-37824D01*
X22756Y-37786D01*
X22728Y-37748D01*
X22699Y-37671D01*
X22699Y-37443D01*
X22728Y-37367D01*
X22756Y-37329D01*
X22814Y-37290D01*
X22928Y-37290D01*
X22985Y-37329D01*
X23242Y-37824D02*
X23242Y-37024D01*
X23299Y-37519D02*
X23470Y-37824D01*
X23470Y-37290D02*
X23242Y-37595D01*
X23671Y-38129D02*
X23699Y-38090D01*
X23756Y-37976D01*
X23785Y-37900D01*
X23814Y-37786D01*
X23842Y-37595D01*
X23842Y-37443D01*
X23814Y-37252D01*
X23785Y-37138D01*
X23756Y-37062D01*
X23699Y-36948D01*
X23671Y-36910D01*
X24556Y-37786D02*
X24642Y-37824D01*
X24785Y-37824D01*
X24842Y-37786D01*
X24871Y-37748D01*
X24899Y-37671D01*
X24899Y-37595D01*
X24871Y-37519D01*
X24842Y-37481D01*
X24785Y-37443D01*
X24671Y-37405D01*
X24613Y-37367D01*
X24585Y-37329D01*
X24556Y-37252D01*
X24556Y-37176D01*
X24585Y-37100D01*
X24613Y-37062D01*
X24671Y-37024D01*
X24813Y-37024D01*
X24899Y-37062D01*
X25156Y-37824D02*
X25156Y-37290D01*
X25156Y-37024D02*
X25127Y-37062D01*
X25156Y-37100D01*
X25184Y-37062D01*
X25156Y-37024D01*
X25156Y-37100D01*
X25699Y-37824D02*
X25699Y-37024D01*
X25699Y-37786D02*
X25642Y-37824D01*
X25528Y-37824D01*
X25470Y-37786D01*
X25442Y-37748D01*
X25413Y-37671D01*
X25413Y-37443D01*
X25442Y-37367D01*
X25470Y-37329D01*
X25528Y-37290D01*
X25642Y-37290D01*
X25699Y-37329D01*
X26213Y-37786D02*
X26156Y-37824D01*
X26042Y-37824D01*
X25985Y-37786D01*
X25956Y-37710D01*
X25956Y-37405D01*
X25985Y-37329D01*
X26042Y-37290D01*
X26156Y-37290D01*
X26213Y-37329D01*
X26242Y-37405D01*
X26242Y-37481D01*
X25956Y-37557D01*
G54D12*
X38562Y-22250D02*
X38556Y-22310D01*
X38538Y-22368D01*
X38509Y-22422D01*
X38471Y-22469D01*
X38424Y-22508D01*
X38370Y-22537D01*
X38312Y-22555D01*
X38252Y-22561D01*
X38192Y-22556D01*
X38134Y-22539D01*
X38080Y-22511D01*
X38032Y-22472D01*
X37993Y-22426D01*
X37964Y-22372D01*
X37945Y-22314D01*
X37939Y-22254D01*
X37944Y-22194D01*
X37960Y-22136D01*
X37988Y-22081D01*
X38026Y-22034D01*
X38072Y-21994D01*
X38126Y-21965D01*
X38184Y-21946D01*
X38244Y-21939D01*
X38304Y-21943D01*
X38362Y-21960D01*
X38417Y-21987D01*
X38465Y-22025D01*
X38504Y-22071D01*
X38535Y-22124D01*
X38554Y-22181D01*
X38561Y-22242D01*
X38562Y-22250D01*
X37375Y-21375D02*
X39125Y-23125D01*
X37375Y-23125D02*
X39125Y-21375D01*
X38875Y-01750D02*
X38863Y-01871D01*
X38827Y-01988D01*
X38770Y-02095D01*
X38693Y-02190D01*
X38599Y-02268D01*
X38492Y-02326D01*
X38375Y-02362D01*
X38254Y-02374D01*
X38133Y-02363D01*
X38016Y-02329D01*
X37908Y-02272D01*
X37813Y-02196D01*
X37735Y-02103D01*
X37676Y-01996D01*
X37639Y-01879D01*
X37626Y-01758D01*
X37636Y-01638D01*
X37669Y-01520D01*
X37725Y-01412D01*
X37801Y-01316D01*
X37894Y-01237D01*
X38000Y-01178D01*
X38116Y-01140D01*
X38237Y-01126D01*
X38358Y-01135D01*
X38476Y-01168D01*
X38584Y-01223D01*
X38681Y-01298D01*
X38760Y-01390D01*
X38820Y-01496D01*
X38859Y-01612D01*
X38874Y-01733D01*
X38875Y-01750D01*
X37000Y-01750D02*
X39500Y-01750D01*
X38250Y-00500D02*
X38250Y-03000D01*
G54D13*
X40000Y-24000D02*
X00000Y-24000D01*
X00000Y00000D02*
X40000Y00000D01*
X00000Y-24000D02*
X00000Y00000D01*
X40000Y00000D02*
X40000Y-24000D01*
G54D14*
X17500Y-01500D03*
G54D15*
X20000Y-01500D03*
X17500Y-04500D03*
X20000Y-04500D03*
G54D16*
X38100Y-10622D03*
G54D17*
X38100Y-11606D03*
X38100Y-12394D03*
G54D18*
X38100Y-13378D03*
G54D19*
X38927Y-09756D03*
X38927Y-14244D03*
G54D20*
X38927Y-11114D03*
X38927Y-12886D03*
G54D14*
X17500Y-19500D03*
G54D15*
X20000Y-19500D03*
X17500Y-22500D03*
X20000Y-22500D03*
G54D14*
X17500Y-13500D03*
G54D15*
X20000Y-13500D03*
X17500Y-16500D03*
X20000Y-16500D03*
G54D14*
X17500Y-07500D03*
G54D15*
X20000Y-07500D03*
X17500Y-10500D03*
X20000Y-10500D03*
G54D18*
X03000Y-13400D03*
G54D17*
X03000Y-12400D03*
X03000Y-11600D03*
G54D16*
X03000Y-10600D03*
G54D21*
X01933Y-14587D03*
X01933Y-09413D03*
G54D22*
X08000Y-16000D03*
X08000Y-14000D03*
X32000Y-04000D03*
X32000Y-02000D03*
X08000Y-22000D03*
X08000Y-20000D03*
X08000Y-10000D03*
X08000Y-08000D03*
X32000Y-22000D03*
X32000Y-20000D03*
X32000Y-16000D03*
X32000Y-14000D03*
X32000Y-10000D03*
X32000Y-08000D03*
X08000Y-04000D03*
X08000Y-02000D03*
M02*
