G04 (created by PCBNEW (2012-01-19 BZR 3256)-stable) date 28/09/2012 17:59:53*
G01*
G70*
G90*
%MOIN*%
G04 Gerber Fmt 3.4, Leading zero omitted, Abs format*
%FSLAX34Y34*%
G04 APERTURE LIST*
%ADD10C,0.001000*%
%ADD11C,0.010000*%
%ADD12C,0.015000*%
%ADD13C,0.008000*%
G04 APERTURE END LIST*
G54D10*
G54D11*
X38562Y-22250D02*
X38556Y-22310D01*
X38538Y-22368D01*
X38509Y-22422D01*
X38471Y-22469D01*
X38424Y-22508D01*
X38370Y-22537D01*
X38312Y-22555D01*
X38252Y-22561D01*
X38192Y-22556D01*
X38134Y-22539D01*
X38080Y-22511D01*
X38032Y-22472D01*
X37993Y-22426D01*
X37964Y-22372D01*
X37945Y-22314D01*
X37939Y-22254D01*
X37944Y-22194D01*
X37960Y-22136D01*
X37988Y-22081D01*
X38026Y-22034D01*
X38072Y-21994D01*
X38126Y-21965D01*
X38184Y-21946D01*
X38244Y-21939D01*
X38304Y-21943D01*
X38362Y-21960D01*
X38417Y-21987D01*
X38465Y-22025D01*
X38504Y-22071D01*
X38535Y-22124D01*
X38554Y-22181D01*
X38561Y-22242D01*
X38562Y-22250D01*
X37375Y-21375D02*
X39125Y-23125D01*
X37375Y-23125D02*
X39125Y-21375D01*
X38875Y-01750D02*
X38863Y-01871D01*
X38827Y-01988D01*
X38770Y-02095D01*
X38693Y-02190D01*
X38599Y-02268D01*
X38492Y-02326D01*
X38375Y-02362D01*
X38254Y-02374D01*
X38133Y-02363D01*
X38016Y-02329D01*
X37908Y-02272D01*
X37813Y-02196D01*
X37735Y-02103D01*
X37676Y-01996D01*
X37639Y-01879D01*
X37626Y-01758D01*
X37636Y-01638D01*
X37669Y-01520D01*
X37725Y-01412D01*
X37801Y-01316D01*
X37894Y-01237D01*
X38000Y-01178D01*
X38116Y-01140D01*
X38237Y-01126D01*
X38358Y-01135D01*
X38476Y-01168D01*
X38584Y-01223D01*
X38681Y-01298D01*
X38760Y-01390D01*
X38820Y-01496D01*
X38859Y-01612D01*
X38874Y-01733D01*
X38875Y-01750D01*
X37000Y-01750D02*
X39500Y-01750D01*
X38250Y-00500D02*
X38250Y-03000D01*
G54D12*
X40000Y-24000D02*
X00000Y-24000D01*
X00000Y00000D02*
X40000Y00000D01*
X00000Y-24000D02*
X00000Y00000D01*
X40000Y00000D02*
X40000Y-24000D01*
G54D10*
X38711Y-10898D02*
X39143Y-11330D01*
X39143Y-10898D02*
X38711Y-11330D01*
X38711Y-12670D02*
X39143Y-13102D01*
X39143Y-12670D02*
X38711Y-13102D01*
G54D13*
X-02570Y-40574D02*
X-02570Y-39774D01*
X-02379Y-39774D01*
X-02265Y-39812D01*
X-02189Y-39888D01*
X-02150Y-39964D01*
X-02112Y-40117D01*
X-02112Y-40231D01*
X-02150Y-40383D01*
X-02189Y-40460D01*
X-02265Y-40536D01*
X-02379Y-40574D01*
X-02570Y-40574D01*
X-01770Y-40574D02*
X-01770Y-40040D01*
X-01770Y-40193D02*
X-01731Y-40117D01*
X-01693Y-40079D01*
X-01617Y-40040D01*
X-01541Y-40040D01*
X-01275Y-40574D02*
X-01275Y-40040D01*
X-01275Y-39774D02*
X-01313Y-39812D01*
X-01275Y-39850D01*
X-01236Y-39812D01*
X-01275Y-39774D01*
X-01275Y-39850D01*
X-00779Y-40574D02*
X-00855Y-40536D01*
X-00894Y-40460D01*
X-00894Y-39774D01*
X-00360Y-40574D02*
X-00436Y-40536D01*
X-00475Y-40460D01*
X-00475Y-39774D01*
X00554Y-40574D02*
X00554Y-39774D01*
X00821Y-40345D01*
X01088Y-39774D01*
X01088Y-40574D01*
X01811Y-40574D02*
X01811Y-40155D01*
X01773Y-40079D01*
X01697Y-40040D01*
X01545Y-40040D01*
X01468Y-40079D01*
X01811Y-40536D02*
X01735Y-40574D01*
X01545Y-40574D01*
X01468Y-40536D01*
X01430Y-40460D01*
X01430Y-40383D01*
X01468Y-40307D01*
X01545Y-40269D01*
X01735Y-40269D01*
X01811Y-40231D01*
X02192Y-40040D02*
X02192Y-40840D01*
X02192Y-40079D02*
X02269Y-40040D01*
X02421Y-40040D01*
X02497Y-40079D01*
X02535Y-40117D01*
X02573Y-40193D01*
X02573Y-40421D01*
X02535Y-40498D01*
X02497Y-40536D01*
X02421Y-40574D01*
X02269Y-40574D01*
X02192Y-40536D01*
X02916Y-40498D02*
X02955Y-40536D01*
X02916Y-40574D01*
X02878Y-40536D01*
X02916Y-40498D01*
X02916Y-40574D01*
X02916Y-40079D02*
X02955Y-40117D01*
X02916Y-40155D01*
X02878Y-40117D01*
X02916Y-40079D01*
X02916Y-40155D01*
X-03393Y-41714D02*
X-02961Y-42146D01*
X-02961Y-41714D02*
X-03393Y-42146D01*
X-02417Y-41454D02*
X-02341Y-41454D01*
X-02265Y-41492D01*
X-02227Y-41530D01*
X-02189Y-41606D01*
X-02150Y-41759D01*
X-02150Y-41949D01*
X-02189Y-42101D01*
X-02227Y-42178D01*
X-02265Y-42216D01*
X-02341Y-42254D01*
X-02417Y-42254D01*
X-02493Y-42216D01*
X-02531Y-42178D01*
X-02570Y-42101D01*
X-02608Y-41949D01*
X-02608Y-41759D01*
X-02570Y-41606D01*
X-02531Y-41530D01*
X-02493Y-41492D01*
X-02417Y-41454D01*
X-01808Y-42178D02*
X-01769Y-42216D01*
X-01808Y-42254D01*
X-01846Y-42216D01*
X-01808Y-42178D01*
X-01808Y-42254D01*
X-01274Y-41454D02*
X-01198Y-41454D01*
X-01122Y-41492D01*
X-01084Y-41530D01*
X-01046Y-41606D01*
X-01007Y-41759D01*
X-01007Y-41949D01*
X-01046Y-42101D01*
X-01084Y-42178D01*
X-01122Y-42216D01*
X-01198Y-42254D01*
X-01274Y-42254D01*
X-01350Y-42216D01*
X-01388Y-42178D01*
X-01427Y-42101D01*
X-01465Y-41949D01*
X-01465Y-41759D01*
X-01427Y-41606D01*
X-01388Y-41530D01*
X-01350Y-41492D01*
X-01274Y-41454D01*
X-00322Y-41720D02*
X-00322Y-42254D01*
X-00512Y-41416D02*
X-00703Y-41987D01*
X-00207Y-41987D01*
X00021Y-41454D02*
X00517Y-41454D01*
X00250Y-41759D01*
X00364Y-41759D01*
X00440Y-41797D01*
X00478Y-41835D01*
X00517Y-41911D01*
X00517Y-42101D01*
X00478Y-42178D01*
X00440Y-42216D01*
X00364Y-42254D01*
X00136Y-42254D01*
X00059Y-42216D01*
X00021Y-42178D01*
X00821Y-41454D02*
X00821Y-41606D01*
X01126Y-41454D02*
X01126Y-41606D01*
X02651Y-41416D02*
X01965Y-42444D01*
X03947Y-42254D02*
X03489Y-42254D01*
X03718Y-42254D02*
X03718Y-41454D01*
X03642Y-41568D01*
X03566Y-41644D01*
X03489Y-41682D01*
X04289Y-42178D02*
X04328Y-42216D01*
X04289Y-42254D01*
X04251Y-42216D01*
X04289Y-42178D01*
X04289Y-42254D01*
X05090Y-42254D02*
X04632Y-42254D01*
X04861Y-42254D02*
X04861Y-41454D01*
X04785Y-41568D01*
X04709Y-41644D01*
X04632Y-41682D01*
X05585Y-41454D02*
X05661Y-41454D01*
X05737Y-41492D01*
X05775Y-41530D01*
X05813Y-41606D01*
X05852Y-41759D01*
X05852Y-41949D01*
X05813Y-42101D01*
X05775Y-42178D01*
X05737Y-42216D01*
X05661Y-42254D01*
X05585Y-42254D01*
X05509Y-42216D01*
X05471Y-42178D01*
X05432Y-42101D01*
X05394Y-41949D01*
X05394Y-41759D01*
X05432Y-41606D01*
X05471Y-41530D01*
X05509Y-41492D01*
X05585Y-41454D01*
X06194Y-42254D02*
X06194Y-41720D01*
X06194Y-41797D02*
X06233Y-41759D01*
X06309Y-41720D01*
X06423Y-41720D01*
X06499Y-41759D01*
X06537Y-41835D01*
X06537Y-42254D01*
X06537Y-41835D02*
X06575Y-41759D01*
X06652Y-41720D01*
X06766Y-41720D01*
X06842Y-41759D01*
X06880Y-41835D01*
X06880Y-42254D01*
X07261Y-42254D02*
X07261Y-41720D01*
X07261Y-41797D02*
X07300Y-41759D01*
X07376Y-41720D01*
X07490Y-41720D01*
X07566Y-41759D01*
X07604Y-41835D01*
X07604Y-42254D01*
X07604Y-41835D02*
X07642Y-41759D01*
X07719Y-41720D01*
X07833Y-41720D01*
X07909Y-41759D01*
X07947Y-41835D01*
X07947Y-42254D01*
X09167Y-42559D02*
X09129Y-42520D01*
X09053Y-42406D01*
X09015Y-42330D01*
X08977Y-42216D01*
X08938Y-42025D01*
X08938Y-41873D01*
X08977Y-41682D01*
X09015Y-41568D01*
X09053Y-41492D01*
X09129Y-41378D01*
X09167Y-41340D01*
X09433Y-41530D02*
X09471Y-41492D01*
X09548Y-41454D01*
X09738Y-41454D01*
X09814Y-41492D01*
X09852Y-41530D01*
X09891Y-41606D01*
X09891Y-41682D01*
X09852Y-41797D01*
X09395Y-42254D01*
X09891Y-42254D01*
X10843Y-42254D02*
X10843Y-41454D01*
X11186Y-42254D02*
X11186Y-41835D01*
X11148Y-41759D01*
X11072Y-41720D01*
X10958Y-41720D01*
X10882Y-41759D01*
X10843Y-41797D01*
X11682Y-42254D02*
X11606Y-42216D01*
X11567Y-42178D01*
X11529Y-42101D01*
X11529Y-41873D01*
X11567Y-41797D01*
X11606Y-41759D01*
X11682Y-41720D01*
X11796Y-41720D01*
X11872Y-41759D01*
X11910Y-41797D01*
X11948Y-41873D01*
X11948Y-42101D01*
X11910Y-42178D01*
X11872Y-42216D01*
X11796Y-42254D01*
X11682Y-42254D01*
X12406Y-42254D02*
X12330Y-42216D01*
X12291Y-42140D01*
X12291Y-41454D01*
X13015Y-42216D02*
X12939Y-42254D01*
X12787Y-42254D01*
X12710Y-42216D01*
X12672Y-42140D01*
X12672Y-41835D01*
X12710Y-41759D01*
X12787Y-41720D01*
X12939Y-41720D01*
X13015Y-41759D01*
X13053Y-41835D01*
X13053Y-41911D01*
X12672Y-41987D01*
X13358Y-42216D02*
X13435Y-42254D01*
X13587Y-42254D01*
X13663Y-42216D01*
X13701Y-42140D01*
X13701Y-42101D01*
X13663Y-42025D01*
X13587Y-41987D01*
X13473Y-41987D01*
X13396Y-41949D01*
X13358Y-41873D01*
X13358Y-41835D01*
X13396Y-41759D01*
X13473Y-41720D01*
X13587Y-41720D01*
X13663Y-41759D01*
X13968Y-42559D02*
X14006Y-42520D01*
X14083Y-42406D01*
X14121Y-42330D01*
X14159Y-42216D01*
X14197Y-42025D01*
X14197Y-41873D01*
X14159Y-41682D01*
X14121Y-41568D01*
X14083Y-41492D01*
X14006Y-41378D01*
X13968Y-41340D01*
M02*
